<svg width="536" height="75" viewBox="0 0 536 75" fill="none" xmlns="http://www.w3.org/2000/svg">
<path d="M479.66 46.2167C479.66 32.868 489.468 18.6741 507.681 18.6741C525.894 18.6741 535.702 32.868 535.702 46.3124C535.702 59.7568 525.894 74.0465 507.681 74.0465C489.468 74.0465 479.66 59.8525 479.66 46.3124V46.2167ZM490.648 46.4081C490.648 56.4396 498.272 63.8555 507.681 63.8555C517.091 63.8555 524.602 56.4396 524.602 46.3124C524.602 36.1853 517.091 28.7693 507.681 28.7693C498.272 28.7693 490.648 36.1853 490.648 46.3124V46.4241V46.4081Z" fill="black"/>
<path d="M332.346 46.2167C332.346 32.868 342.154 18.6741 360.367 18.6741C378.58 18.6741 388.388 32.868 388.388 46.3124C388.388 59.7568 378.58 74.0465 360.367 74.0465C342.154 74.0465 332.346 59.8525 332.346 46.3124V46.2167ZM343.334 46.4081C343.334 56.4396 350.958 63.8555 360.367 63.8555C369.777 63.8555 377.288 56.4396 377.288 46.3124C377.288 36.1853 369.777 28.7693 360.367 28.7693C350.958 28.7693 343.334 36.1853 343.334 46.3124V46.4241V46.4081Z" fill="black"/>
<path d="M471.399 34.9093H460.044C460.044 34.9093 460.044 34.9093 460.044 34.9253H435.42V44.4145H458.848C457.811 54.5257 447.269 63.4567 434.654 63.4567C419.232 63.4567 408.834 51.7029 408.834 37.2378V37.1261C408.834 23.2033 418.69 11.0188 434.543 11.0188C443.872 11.0188 450.937 14.7666 455.259 21.2257L465.929 17.7011C459.533 7.49423 448.162 0.636475 434.447 0.636475C414.815 0.636475 397.479 15.2132 397.479 37.796V37.8917C397.479 56.7585 412.725 73.8231 434.367 73.8231C456.009 73.8231 471.527 57.2369 471.527 37.2218C471.527 36.4404 471.463 35.6589 471.415 34.8934L471.399 34.9093Z" fill="black"/>
<path d="M301.741 11.2739H282.492V1.73682H332.33V11.2579H313.32V72.2601H301.725V11.2739H301.741Z" fill="black"/>
<path d="M80.1401 37.9712C78.7685 36.6156 78.0828 34.957 78.0828 32.9953C78.0828 31.0337 78.7685 29.3432 80.1401 27.9876C81.5116 26.632 83.1703 25.9622 85.1319 25.9622C87.0935 25.9622 88.7522 26.632 90.1078 27.9876C91.4634 29.3432 92.1332 31.0178 92.1332 32.9953C92.1332 34.9729 91.4634 36.6156 90.1078 37.9712C88.7522 39.3268 87.0935 39.9966 85.1319 39.9966C83.1703 39.9966 81.5116 39.3268 80.1401 37.9712Z" fill="black"/>
<path d="M80.1401 65.0675C78.7685 63.7119 78.0828 62.0533 78.0828 60.0916C78.0828 58.13 78.7685 56.4714 80.1401 55.1158C81.5116 53.7602 83.1703 53.0903 85.1319 53.0903C87.0935 53.0903 88.7522 53.7602 90.1078 55.1158C91.4634 56.4714 92.1332 58.13 92.1332 60.0916C92.1332 62.0533 91.4634 63.7119 90.1078 65.0675C88.7522 66.4231 87.0935 67.0929 85.1319 67.0929C83.1703 67.0929 81.5116 66.4231 80.1401 65.0675Z" fill="black"/>
<path d="M233.818 36.2488C233.818 36.2488 237.869 18.4824 259.208 18.4824V31.9906H257.884C249.878 31.9906 246.114 36.0574 246.114 43.3936V72.26H233.818V36.2488Z" fill="black"/>
<path d="M207.774 58.0981C205.382 61.0645 201.411 63.4408 195.382 63.4408C188.509 63.4408 181.157 57.6197 180.598 51.2404H222.207C223.436 41.6395 221.458 34.08 214.871 27.0149C209.975 21.8318 203.101 18.7378 195.095 18.7378C179.179 18.7378 167.696 32.1981 167.696 46.7908C167.696 62.3244 180.407 74.4611 195.367 74.4611C200.725 74.4611 206.929 72.8662 211.267 69.7563C213.914 67.9542 216.275 65.6098 218.3 62.7869L207.774 58.0981ZM195.191 30.6193C205.318 30.6193 209.305 38.099 209.784 41.2408H180.598C181.061 38.099 185.064 30.6193 195.191 30.6193Z" fill="black"/>
<path d="M156.341 3.1084H143.566V24.3037C141.876 22.6131 135.927 18.7377 126.693 18.7377C113.424 18.7377 99.8203 28.817 99.8203 46.5037C99.8203 62.2287 110.649 74.4131 128.256 74.4131C147.649 74.4131 154.778 60.3627 156.341 56.6149V3.1084ZM128.447 62.6114C119.803 62.6114 112.802 55.3709 112.802 46.4399C112.802 37.5088 119.803 30.2683 128.447 30.2683C137.091 30.2683 144.093 37.5088 144.093 46.4399C144.093 55.3709 137.091 62.6114 128.447 62.6114Z" fill="black"/>
<path d="M70.1566 20.1732C65.6592 18.5146 63.5859 17.3184 59.7902 13.6663C50.6678 4.92662 36.8566 0.971447 23.2367 5.96326C11.6264 10.2055 2.87079 20.3167 0.62208 32.7085C-0.462403 38.6732 -0.0955925 43.8564 1.30786 48.9917C1.62682 50.1559 2.04148 51.2245 2.42424 52.2133C2.45613 52.293 2.53587 52.3568 2.63156 52.3568H16.3311C16.9212 52.3568 17.2721 51.687 16.9372 51.2085C14.3535 47.3809 12.966 42.6762 13.3648 37.6365C14.2419 26.3133 23.763 17.3344 36.0432 17.3344C42.3587 17.3344 44.3044 18.674 47.2867 19.7745C47.8609 19.9818 48.9932 20.4602 51.1941 20.4602H70.1087C70.2682 20.4602 70.3001 20.237 70.1406 20.1732H70.1566Z" fill="black"/>
<path d="M0.398718 58.2577C4.89613 59.9163 6.96941 61.1124 10.7651 64.7646C19.8716 73.5042 33.6987 77.4594 47.3026 72.4676C58.9129 68.2253 67.6685 58.0982 69.9172 45.7064C71.0017 39.7417 70.6349 34.5585 69.2315 29.4232C68.9125 28.259 68.4978 27.1904 68.1151 26.2016C68.0832 26.1219 68.0035 26.0581 67.9078 26.0581H54.2082C53.6181 26.0581 53.2672 26.7279 53.6022 27.2064C56.1858 31.034 57.5733 35.7387 57.1746 40.7784C56.2974 52.1016 46.7763 61.0805 34.4961 61.0805C28.1806 61.0805 26.2349 59.7409 23.2526 58.6404C22.6785 58.4331 21.5461 57.9546 19.3453 57.9546H0.446563C0.28708 57.9546 0.255184 58.1779 0.414666 58.2417L0.398718 58.2577Z" fill="black"/>
</svg>
