<?xml version="1.0" encoding="UTF-8"?><svg xmlns="http://www.w3.org/2000/svg" xmlns:xlink="http://www.w3.org/1999/xlink" viewBox="0 0 260.77 167.16"><defs><style>.cls-1{fill:#34312c;}.cls-2{fill:url(#_裼_胙琅韃_1268);opacity:.2;}.cls-2,.cls-3{mix-blend-mode:screen;}.cls-4{fill:#3e3832;}.cls-5{fill:#a3a2a2;}.cls-6{fill:#e8f5fc;}.cls-7{fill:#fff;}.cls-8{fill:#282422;}.cls-9{fill:#e3e0dc;}.cls-10{isolation:isolate;}.cls-3{opacity:.6;}.cls-11{fill:#dedede;}.cls-12{fill:#bd5d1d;}.cls-13{fill:#d2d2d2;}.cls-14{fill:#b9b8b8;}.cls-15{fill:#c3bfbc;}.cls-16{fill:#26231e;}</style><linearGradient id="_裼_胙琅韃_1268" x1="6040.52" y1="110.48" x2="6032.71" y2="124" gradientTransform="translate(6204.61) rotate(-180) scale(1 -1)" gradientUnits="userSpaceOnUse"><stop offset="0" stop-color="#efbc32"/><stop offset=".2" stop-color="#c6992c"/><stop offset=".45" stop-color="#997325"/><stop offset=".68" stop-color="#795720"/><stop offset=".87" stop-color="#65471e"/><stop offset="1" stop-color="#5e411d"/></linearGradient></defs><g class="cls-10"><g id="_レイヤー_2"><g id="car02"><g id="_6"><path class="cls-15" d="M124.42,17.84c-.47-.39-.73-.95-.72-1.56.01-.69.02-.32.1-1.36.25-1,1.91-2.58,6.01-1.5.6.16,6.7,2.49,7.25,2.83,4.09,2.53-3.81,5.83-4.7,5.85-2.23.05-5.61-2.35-7.94-4.27Z"/><path class="cls-11" d="M127.1,13.75c3.01.76,7.34,2.63,7.69,2.83l-2.6,5.47c-2.23-.05-5.49-2.34-7.77-4.22-.47-.39-.73-.97-.72-1.59.01-.71-.31-3.44,3.4-2.5Z"/><polygon class="cls-16" points="240.13 47.46 248.42 53.92 250.79 61.57 250.79 66.85 247.68 73.48 219.21 57.04 240.13 47.46"/><polygon class="cls-16" points="122.52 115.36 130.82 121.83 133.19 129.47 133.19 134.75 130.08 141.38 101.61 124.94 122.52 115.36"/><g id="Axonometric_Cylinder"><path class="cls-16" d="M105.37,123.9c3.71-2.14,7.07-2.32,9.48-.88l8.32,4.8-18.97,32.45-8.32-4.8c-2.35-1.41-3.81-4.37-3.81-8.55,0-8.48,5.95-18.78,13.29-23.02Z"/><path id="Cylinder_face" class="cls-4" d="M100.4,151.72c0,8.48,5.95,11.91,13.29,7.67s13.29-14.54,13.29-23.02c0-8.48-5.95-11.91-13.29-7.67-7.34,4.24-13.29,14.54-13.29,23.02Z"/></g><g class="cls-10"><path class="cls-13" d="M113.71,155c5.06-2.8,9.23-9.86,9.32-15.77.09-5.91-3.94-8.43-9-5.63-5.06,2.8-9.23,9.86-9.32,15.77-.09,5.91,3.94,8.43,9,5.63Z"/><path class="cls-5" d="M113.74,153.5c4.35-2.41,7.93-8.48,8.01-13.56.08-5.08-3.39-7.25-7.74-4.84-4.35,2.41-7.93,8.47-8.01,13.56-.08,5.08,3.39,7.25,7.74,4.84Z"/><path class="cls-13" d="M113.35,149.24c2.46-1.36,4.48-4.79,4.53-7.66.04-2.87-1.91-4.1-4.37-2.74-2.46,1.36-4.48,4.79-4.53,7.66-.04,2.87,1.91,4.1,4.37,2.74Z"/><path class="cls-14" d="M106.94,146.85c0,.15,0,.3,0,.45.15,3.42,2.62,4.82,5.69,3.12,3.2-1.77,5.84-6.24,5.9-9.98.06-3.74-2.49-5.34-5.69-3.57-1.7.94-3.24,2.64-4.32,4.58-.96,1.72-1.55,3.64-1.58,5.4ZM108.98,146.5c.01-.67.13-1.38.34-2.08.21-.7.51-1.4.88-2.06.83-1.49,2.01-2.79,3.31-3.52,2.46-1.36,4.41-.13,4.37,2.74-.04,2.87-2.07,6.3-4.53,7.66-2.36,1.3-4.25.23-4.37-2.39,0-.11,0-.23,0-.34Z"/></g><g id="Axonometric_Cylinder-2"><path class="cls-16" d="M221.87,56.63c3.71-2.14,7.07-2.32,9.48-.88l8.32,4.8-18.97,32.45-8.32-4.8c-2.35-1.41-3.81-4.37-3.81-8.55,0-8.48,5.95-18.78,13.29-23.02Z"/><path id="Cylinder_face-2" class="cls-4" d="M216.91,84.45c0,8.48,5.95,11.91,13.29,7.67,7.34-4.24,13.29-14.54,13.29-23.02s-5.95-11.91-13.29-7.67c-7.34,4.24-13.29,14.54-13.29,23.02Z"/></g><g class="cls-10"><path class="cls-13" d="M230.22,87.73c5.06-2.8,9.23-9.86,9.32-15.77.09-5.91-3.94-8.43-9-5.63-5.06,2.8-9.23,9.86-9.32,15.77-.09,5.91,3.94,8.43,9,5.63Z"/><path class="cls-5" d="M230.24,86.23c4.35-2.41,7.93-8.47,8.01-13.56.08-5.08-3.39-7.25-7.74-4.84-4.35,2.41-7.93,8.47-8.01,13.56-.08,5.08,3.39,7.25,7.74,4.84Z"/><path class="cls-13" d="M229.86,81.97c2.46-1.36,4.48-4.79,4.53-7.66.04-2.87-1.91-4.1-4.37-2.74-2.46,1.36-4.48,4.79-4.53,7.66-.04,2.87,1.91,4.1,4.37,2.74Z"/><path class="cls-14" d="M223.45,79.59c0,.15,0,.3,0,.45.15,3.42,2.62,4.82,5.69,3.12,3.2-1.77,5.84-6.24,5.9-9.98.06-3.74-2.49-5.34-5.69-3.57-1.7.94-3.24,2.64-4.32,4.58-.96,1.72-1.55,3.64-1.58,5.4ZM225.48,79.23c.01-.67.13-1.38.34-2.08.21-.7.51-1.4.88-2.06.83-1.49,2.01-2.79,3.31-3.52,2.46-1.36,4.41-.13,4.37,2.74-.04,2.87-2.07,6.3-4.53,7.66-2.36,1.3-4.25.23-4.37-2.39,0-.11,0-.23,0-.34Z"/></g><path class="cls-9" d="M1.13,96.56c0-1.66.75-3.22,2.03-4.27l14.26-10.34s40.4-30.91,41.18-31.36l48.85-28.2c1.53-.88,3.23-1.43,4.99-1.6l39.45-8.04L186.36,1.23c4.51-1.51,9.38-1.65,13.94-.29,23.85,7.1,45.39,20.01,56.02,32.06,1.1,1.25,1.59,2.93,1.42,4.58-.14,1.38-.37,2.75-.09,3.85.77,2.99,3.12,4.27,3.12,6.26,0,4.07,0,6.03,0,10.8,0,1.22-.79,3.16-2,5.23-2.08,3.56-5.18,6.42-8.77,8.45l-2.32,1.31c-.07-13.4-4.42-21.73-17.34-14.26-12.1,6.99-17.21,20.67-17.34,34.08l-82.95,48.07c-.21-12.99-4.62-21.43-17.32-14.1-11.89,6.86-17.02,20.71-17.32,33.9l-3.14,1.69c-1.98,1.07-4.12,1.83-6.33,2.26l-9.51,1.86c-17.44,2.85-74.18-30-75.39-41.44l.08-28.99Z"/><path class="cls-9" d="M210.29,48.99l30.83-28.94c6.19,4.22,11.41,8.63,15.21,12.94,1.1,1.25,1.58,2.92,1.41,4.58-.14,1.38-.37,2.75-.09,3.85.62,2.42,2.28,3.72,2.89,5.18.43,1.05-.73,1.97-2.95,2.69-1.99.65-4.18.34-6.01-.69-4.1-2.31-8.77-3.41-13.47-3.12-13.05.82-27.83,3.49-27.83,3.49Z"/><path class="cls-9" d="M1.13,96.56c0-1.66.75-3.22,2.03-4.27l10.11-7.33c6.18,4.64,12.75,8.83,18.94,13.37,11.56,8.48,38.72,16.07,51.8,22.03-7.43,5.44-9.53,13.43-12.14,19.36-2.14,4.86-7.72,7.31-12.79,5.73C28.66,135.99,1.09,112.05,1.09,112.05l.04-15.49Z"/><path class="cls-9" d="M210.29,48.99c-30.7-29.32-58.38-36.25-58.38-36.25L186.36,1.23c4.51-1.51,9.38-1.65,13.94-.29,23.32,6.94,44.44,19.44,55.3,31.26,1.1,1.2.73,3.1-.73,3.81-10.05,4.89-29.39,10.71-44.59,12.99Z"/><path class="cls-2" d="M214.53,81.36c-.99,3.88-1.48,7.92-1.52,11.94l-82.95,48.07c-.07-4-.53-7.56-1.51-10.37l85.98-49.64ZM246.32,63.01c.93,2.83,1.35,6.41,1.37,10.47l2.32-1.31c3.59-2.03,6.69-4.89,8.77-8.45,1.21-2.07,2-4.01,2-5.23,0-1.51,0-2.72,0-3.83l-14.46,8.35ZM67.41,166.3c3.57.78,6.67,1.07,9.03.68l9.51-1.86c2.5-.54,3.94-1.16,6.33-2.26l3.14-1.69c.09-4.01.64-8.09,1.68-12.01-8.68,9.49-18.64,15.02-29.69,17.14Z"/><path class="cls-9" d="M110.18,21.16c8.33,1.7,35.84,16.08,50.36,27.39.55.43.5,1.25-.13,1.54-12.5,5.79-37.97,19.72-49.58,27.87-1.11.78-19.06-5.44-32.59-13.22-11.98-6.88-19.13-14.4-18.69-14.69,7.81-5.26,42.27-27.02,50.64-28.89Z"/><path class="cls-9" d="M3.16,92.29l14.26-10.34c19.63,15.09,41.65,28.04,66.59,38.41l-15.6,11.03c-2.26,1.43-9.23-.87-17.96-4.74-14.18-6.3-26.94-13.82-39.55-22.87-7.58-5.44-9.75-7.48-9.75-7.48.08-1.56.79-3.02,2-4.02Z"/><path class="cls-8" d="M203.37,48.73l-40.87-.78s-27.08-20.43-47.15-26.34l33.22-6.52c2.29-.45,4.66-.28,6.86.52,7.82,2.86,27.68,11.45,49.28,31.09.88.8-.14,2.02-1.33,2.02Z"/><path class="cls-1" d="M198.89,48.07c.7-.09.58-.52.06-1.13-1.2-1.44-2.75-2.53-4.17-3.73-5.81-4.94-11.94-9.53-18.37-13.64-4.81-3.07-9.79-5.89-14.93-8.36-3.24-1.56-6.54-2.99-9.92-4.22-1.3-.47-2.67-.72-4.08-.72-.79,0-1.58.08-2.36.23l-26.68,5.29c18.66,6.51,41.91,23.6,44.32,25.39.14.1.7.02.86.02,2.94.07,5.89.15,8.83.22,4.37.11,8.74.22,13.1.33,3.58.09,7.17.18,10.75.27.8.02,1.62.1,2.42.06.06,0,.11,0,.17-.01Z"/><path class="cls-8" d="M164.72,51.95c-2.87-.11-6.12.32-9.63,2.34-13.65,7.84-29.86,16.87-40.71,24.15-1.17.79-2.34,2.07-3.34,3.7-5.6,9.09-17.98,35.37-14.38,33.29,11.33-6.54,90.04-52.65,101.37-59.34,1.74-1.03,1.24-2.01.71-2.15-4.24-1.11-25.57-1.66-34.02-1.99Z"/><path class="cls-1" d="M106,79.24l-25.18,37.08s-26.69-9.41-60.28-34.56l37.68-29.06s11.68,14.41,47.77,26.53Z"/><path class="cls-15" d="M116.53,91.78c.14-.03.28.07.3.21,2.37,12.36,1.88,28.36,1.68,32.89-.17.04-.35.09-.52.14.19-4.3.72-20.49-1.67-32.93-.03-.14.06-.28.2-.3ZM129.84,137.5l83.36-48.13c.02-.21.03-.42.05-.63l-51.27,29.6c.16-4.51,1.23-38.41-1.63-45.96-.05-.13-.2-.2-.33-.15-.13.05-.2.2-.15.33,2.87,7.59,1.68,43.53,1.59,46.09l-31.66,18.28c.02.19.03.38.05.57ZM218.02,72.21v-16.28c0-.47-.37-.86-.83-.9l-39.09-2.33c-.11-.02-.27.09-.28.24-.01.14.09.27.24.28l39.09,2.33c.2.02.36.19.36.39v17.29c.17-.34.34-.68.52-1.01Z"/><path class="cls-8" d="M198.38,53.85c1.78.34,4.05,1.58,4.75,2.21l-1.03,6.05-7.25-4.15c-.24-.17,1.44-4.51,3.54-4.11Z"/><path class="cls-15" d="M201.06,62.09c-.47-.39-.73-.95-.72-1.56.02-1.16.12-3.16.57-4.78.25-.91.77-1.57,1.81-1.08,4.75,2.25,9.38,7.4,8.27,10.27-1.35,3.47-6.67-.16-9.93-2.85Z"/><path class="cls-11" d="M200.34,60.53c.02-1.16.12-3.16.57-4.78.08-.28.19-.52.33-.73,4.8,2.26,9.43,7.41,8.32,10.28-.18.45-.42.77-.72,1-2.23-.05-5.49-2.34-7.77-4.22-.47-.39-.73-.95-.72-1.56Z"/><path class="cls-11" d="M1.76,98.51c-.31-.18-.71-.11-.89.2-1.2,1.97-1.28,8.56.51,10.4,2.79,2.86,7.12,5.72,8.31,6.4.55.32,1.24-.05,1.28-.68.13-1.87.36-5.26.48-7.66.05-.94-.43-1.82-1.25-2.3l-8.44-6.36Z"/><path class="cls-11" d="M49.02,129.26l-.49,7.9c-.04.59.24,1.79.73,2.11.65.42,11.83,6,14.02,4.15,1.3-1.09,1.24-3.9,1.36-5.96.06-1.11-.71-2.47-1.66-3.04l-12.45-5.97c-.64-.38-1.46.06-1.5.8Z"/><path class="cls-6" d="M253.15,47.72c-.9-.53-1.87-3.57-1.84-4.56.08-2.83,4.26-3.48,6.46-6.07,1.84,1.67,2.9,7.38,2.31,8.92-.45,1.16-4.36,3.24-6.94,1.71Z"/><path class="cls-15" d="M253.78,40.04c-.2,1.43.68,4.84,2.58,8.11-1.04.27-2.34.08-3.21-.43-.9-.53-1.91-3.34-1.91-4.9,0-1.28,1.16-2.06,2.55-2.78Z"/><path class="cls-1" d="M122.97,107.26l7.18-4.15c.41-.23.74-.75.74-1.16v-1.02c0-.41-.33-.55-.74-.31l-7.18,4.15c-.41.23-.74.75-.74,1.16v1.02c0,.41.33.55.74.31Z"/><path class="cls-1" d="M165.91,82.47l7.18-4.15c.41-.23.74-.75.74-1.16v-1.02c0-.41-.33-.55-.74-.31l-7.18,4.15c-.41.23-.74.75-.74,1.16v1.02c0,.41.33.55.74.31Z"/><path class="cls-12" d="M206.54,81.89l2.53-1.46c.37-.21.67-.69.67-1.06v-.29c0-.37-.3-.5-.67-.28l-2.53,1.46c-.37.21-.67.69-.67,1.06v.29c0,.37.3.5.67.28Z"/><path class="cls-12" d="M82.26,153.64l2.53-1.46c.37-.21.67-.69.67-1.06v-.29c0-.37-.3-.5-.67-.28l-2.53,1.46c-.37.21-.67.69-.67,1.06v.29c0,.37.3.5.67.28Z"/><path class="cls-1" d="M21.38,123.28l13.9,8.02c1.4.81,2.53.33,2.53-1.07v-1.72c0-1.4-1.13-3.19-2.53-3.99l-13.9-8.02c-1.4-.81-2.53-.33-2.53,1.07v1.72c0,1.4,1.13,3.19,2.53,3.99Z"/><path class="cls-7" d="M16.76,131.19c5.95,4.52,10.39,7.03,15.83,10.06.55.31.91.9.91,1.53v4.31c0,.36-.38.6-.71.45-6.03-2.85-11.47-6.43-16.18-10.31-.41-.34-.64-.83-.64-1.36,0-1.12,0-3.13,0-4.32,0-.4.47-.6.79-.36Z"/><path class="cls-6" d="M239.68,24.5c-13.23,10.84-23.23,13.03-37.3,15.21,17.85-4.67,25.17-7.38,37.3-15.21Z"/><g class="cls-3"><path class="cls-6" d="M206.63,5.38c-11.77,1.74-28.78,4.22-41.54,10.77,7.04-5.09,23.2-10.14,41.54-10.77Z"/></g></g></g></g></g></svg>