<?xml version="1.0" encoding="UTF-8"?><svg xmlns="http://www.w3.org/2000/svg" xmlns:xlink="http://www.w3.org/1999/xlink" viewBox="0 0 529.78 324.26"><defs><style>.cls-1{fill:#34312c;}.cls-2{fill:url(#_裼_胙琅韃_1268);opacity:.2;}.cls-2,.cls-3{mix-blend-mode:screen;}.cls-4{fill:#3e3832;}.cls-5{fill:#a3a2a2;}.cls-6{fill:#e8f5fc;}.cls-7{fill:#fff;}.cls-8{fill:#282422;}.cls-9{fill:none;}.cls-10{fill:#c3bfbd;}.cls-11{fill:#c6c5c5;}.cls-12{isolation:isolate;}.cls-3{opacity:.6;}.cls-13{fill:#241614;}.cls-14{fill:#6d6d6d;}.cls-15{fill:#655753;}.cls-16{fill:#dedede;}.cls-17{fill:#d2d2d2;}.cls-18{fill:#b9b8b8;}.cls-19{fill:#c3bfbc;}.cls-20{clip-path:url(#clippath);}.cls-21{fill:#26231e;}</style><linearGradient id="_裼_胙琅韃_1268" x1="2161.01" y1="110.48" x2="2153.2" y2="124" gradientTransform="translate(-2064.32)" gradientUnits="userSpaceOnUse"><stop offset="0" stop-color="#efbc32"/><stop offset=".2" stop-color="#c6992c"/><stop offset=".45" stop-color="#997325"/><stop offset=".68" stop-color="#795720"/><stop offset=".87" stop-color="#65471e"/><stop offset="1" stop-color="#5e411d"/></linearGradient><clipPath id="clippath"><path class="cls-9" d="M99.42,76.23c-16.62-9.74-31.01-18.18-35.42-20.79-.7-.41-.83-.73-.83-.79,3.38-.85,18.35-1.42,27.81-1.75l5.09-.18c.26-.01.52-.02.79-.02,3.03,0,5.79.73,8.43,2.25l.8.46-4.21,11.74c-1.07,3-1.88,6.03-2.47,9.08ZM163.69,113.81c-.73-4.21-9.22-22.48-14.62-31.26-.32-.52-.66-.99-1.01-1.43l-.18.61c-1.98,6.79-3.3,13.64-4.08,20.49,9.24,5.4,16.55,9.67,19.89,11.6ZM103.11,67.59c-1.11,3.09-1.92,6.22-2.49,9.34,14.09,8.26,29.61,17.34,41.97,24.57.8-6.73,2.11-13.47,4.05-20.14l.4-1.37c-.36-.35-.72-.66-1.08-.9-9.01-6.05-21.75-13.32-33.58-20.07l-5.14-2.94-4.13,11.52Z"/></clipPath></defs><g class="cls-12"><g id="_レイヤー_2"><g id="car01"><g id="_6"><path class="cls-19" d="M136.36,17.84c.47-.39.73-.95.72-1.56-.01-.69-.02-.32-.1-1.36-.25-1-1.91-2.58-6.01-1.5-.6.16-6.7,2.49-7.25,2.83-4.09,2.53,3.81,5.83,4.7,5.85,2.23.05,5.61-2.35,7.94-4.27Z"/><path class="cls-16" d="M133.67,13.75c-3.01.76-7.34,2.63-7.69,2.83l2.6,5.47c2.23-.05,5.49-2.34,7.77-4.22.47-.39.73-.97.72-1.59-.01-.71.31-3.44-3.4-2.5Z"/><polygon class="cls-21" points="20.65 47.46 12.35 53.92 9.98 61.57 9.98 66.85 13.09 73.48 41.56 57.04 20.65 47.46"/><polygon class="cls-21" points="138.25 115.36 129.96 121.83 127.59 129.47 127.59 134.75 130.7 141.38 159.17 124.94 138.25 115.36"/><g id="Axonometric_Cylinder"><path class="cls-21" d="M155.41,123.9c-3.71-2.14-7.07-2.32-9.48-.88l-8.32,4.8,18.97,32.45,8.32-4.8c2.35-1.41,3.81-4.37,3.81-8.55,0-8.48-5.95-18.78-13.29-23.02Z"/><path id="Cylinder_face" class="cls-4" d="M160.38,151.72c0,8.48-5.95,11.91-13.29,7.67-7.34-4.24-13.29-14.54-13.29-23.02s5.95-11.91,13.29-7.67c7.34,4.24,13.29,14.54,13.29,23.02Z"/></g><g class="cls-12"><path class="cls-17" d="M147.06,155c-5.06-2.8-9.23-9.86-9.32-15.77-.09-5.91,3.94-8.43,9-5.63,5.06,2.8,9.23,9.86,9.32,15.77.09,5.91-3.94,8.43-9,5.63Z"/><path class="cls-5" d="M147.04,153.5c-4.35-2.41-7.93-8.48-8.01-13.56-.08-5.08,3.39-7.25,7.74-4.84,4.35,2.41,7.93,8.47,8.01,13.56.08,5.08-3.39,7.25-7.74,4.84Z"/><path class="cls-17" d="M147.43,149.24c-2.46-1.36-4.48-4.79-4.53-7.66-.04-2.87,1.91-4.1,4.37-2.74,2.46,1.36,4.48,4.79,4.53,7.66.04,2.87-1.91,4.1-4.37,2.74Z"/><path class="cls-18" d="M152.25,141.45c-1.08-1.94-2.62-3.64-4.32-4.58-3.2-1.77-5.75-.18-5.69,3.57.06,3.74,2.7,8.21,5.9,9.98,3.07,1.7,5.54.3,5.69-3.12,0-.15,0-.29,0-.45-.03-1.76-.62-3.68-1.58-5.4ZM151.79,146.84c-.11,2.62-2.01,3.7-4.37,2.39-2.46-1.36-4.48-4.79-4.53-7.66-.04-2.87,1.91-4.1,4.37-2.74,1.3.72,2.48,2.02,3.31,3.52.37.66.67,1.36.88,2.06.21.7.33,1.41.34,2.08,0,.12,0,.23,0,.34Z"/></g><g id="Axonometric_Cylinder-2"><path class="cls-21" d="M38.9,56.63c-3.71-2.14-7.07-2.32-9.48-.88l-8.32,4.8,18.97,32.45,8.32-4.8c2.35-1.41,3.81-4.37,3.81-8.55,0-8.48-5.95-18.78-13.29-23.02Z"/><path id="Cylinder_face-2" class="cls-4" d="M43.87,84.45c0,8.48-5.95,11.91-13.29,7.67-7.34-4.24-13.29-14.54-13.29-23.02s5.95-11.91,13.29-7.67c7.34,4.24,13.29,14.54,13.29,23.02Z"/></g><g class="cls-12"><path class="cls-17" d="M30.55,87.73c-5.06-2.8-9.23-9.86-9.32-15.77-.09-5.91,3.94-8.43,9-5.63,5.06,2.8,9.23,9.86,9.32,15.77.09,5.91-3.94,8.43-9,5.63Z"/><path class="cls-5" d="M30.53,86.23c-4.35-2.41-7.93-8.47-8.01-13.56-.08-5.08,3.39-7.25,7.74-4.84,4.35,2.41,7.93,8.47,8.01,13.56.08,5.08-3.39,7.25-7.74,4.84Z"/><path class="cls-17" d="M30.92,81.97c-2.46-1.36-4.48-4.79-4.53-7.66-.04-2.87,1.91-4.1,4.37-2.74,2.46,1.36,4.48,4.79,4.53,7.66.04,2.87-1.91,4.1-4.37,2.74Z"/><path class="cls-18" d="M35.74,74.19c-1.08-1.94-2.62-3.64-4.32-4.58-3.2-1.77-5.75-.18-5.69,3.57.06,3.74,2.7,8.21,5.9,9.98,3.07,1.7,5.54.3,5.69-3.12,0-.15,0-.29,0-.45-.03-1.76-.62-3.68-1.58-5.4ZM35.29,79.58c-.11,2.62-2.01,3.7-4.37,2.39-2.46-1.36-4.48-4.79-4.53-7.66-.04-2.87,1.91-4.1,4.37-2.74,1.3.72,2.48,2.02,3.31,3.52.37.66.67,1.36.88,2.06.21.7.33,1.41.34,2.08,0,.12,0,.23,0,.34Z"/></g><path class="cls-10" d="M259.64,96.56c0-1.66-.75-3.22-2.03-4.27l-14.26-10.34s-40.4-30.91-41.18-31.36l-48.85-28.2c-1.53-.88-3.23-1.43-4.99-1.6l-39.45-8.04L74.41,1.23c-4.51-1.51-9.38-1.65-13.94-.29C36.62,8.04,15.08,20.94,4.45,32.99c-1.1,1.25-1.59,2.93-1.42,4.58.14,1.38.37,2.75.09,3.85C2.36,44.41,0,45.69,0,47.69c0,4.07,0,6.03,0,10.8,0,1.22.79,3.16,2,5.23,2.08,3.56,5.18,6.42,8.77,8.45l2.32,1.31c.07-13.4,4.42-21.73,17.34-14.26,12.1,6.99,17.21,20.67,17.34,34.08l82.95,48.07c.21-12.99,4.62-21.43,17.32-14.1,11.89,6.86,17.02,20.71,17.32,33.9l3.14,1.69c1.98,1.07,4.12,1.83,6.33,2.26l9.51,1.86c17.44,2.85,74.18-30,75.39-41.44l-.08-28.99Z"/><path class="cls-15" d="M50.49,48.99l-30.83-28.94c-6.19,4.22-11.41,8.63-15.21,12.94-1.1,1.25-1.58,2.92-1.41,4.58.14,1.38.37,2.75.09,3.85-.62,2.42-2.28,3.72-2.89,5.18-.43,1.05.73,1.97,2.95,2.69,1.99.65,4.18.34,6.01-.69,4.1-2.31,8.77-3.41,13.47-3.12,13.05.82,27.83,3.49,27.83,3.49Z"/><path class="cls-10" d="M259.64,96.56c0-1.66-.75-3.22-2.03-4.27l-10.11-7.33c-6.18,4.64-12.75,8.83-18.94,13.37-11.56,8.48-38.72,16.07-51.8,22.03,7.43,5.44,9.53,13.43,12.14,19.36,2.14,4.86,7.72,7.31,12.79,5.73,30.43-9.46,58-33.41,58-33.41l-.04-15.49Z"/><path class="cls-10" d="M50.49,48.99c30.7-29.32,58.38-36.25,58.38-36.25L74.41,1.23c-4.51-1.51-9.38-1.65-13.94-.29C37.15,7.88,16.04,20.37,5.17,32.19c-1.1,1.2-.73,3.1.73,3.81,10.05,4.89,29.39,10.71,44.59,12.99Z"/><path class="cls-2" d="M132.23,131c-.98,2.81-1.45,6.37-1.51,10.37l-82.95-48.07c-.04-4.02-.54-8.06-1.52-11.94l85.98,49.64ZM0,54.66c0,1.1,0,2.32,0,3.83,0,1.22.79,3.16,2,5.23,2.08,3.56,5.18,6.42,8.77,8.45l2.32,1.31c.02-4.06.44-7.64,1.37-10.47L0,54.66ZM163.68,149.16c1.04,3.92,1.59,7.99,1.68,12.01l3.14,1.69c2.39,1.11,3.83,1.72,6.33,2.26l9.51,1.86c2.36.39,5.46.1,9.03-.68-11.05-2.13-21.01-7.65-29.69-17.14Z"/><path class="cls-10" d="M150.59,21.16c-8.33,1.7-35.84,16.08-50.36,27.39-.55.43-.5,1.25.13,1.54,12.5,5.79,37.97,19.72,49.58,27.87,1.11.78,19.06-5.44,32.59-13.22,11.98-6.88,19.13-14.4,18.69-14.69-7.81-5.26-42.27-27.02-50.64-28.89Z"/><path class="cls-10" d="M257.61,92.29l-14.26-10.34c-19.63,15.09-41.65,28.04-66.59,38.41l15.6,11.03c2.26,1.43,9.23-.87,17.96-4.74,14.18-6.3,26.94-13.82,39.55-22.87,7.58-5.44,9.75-7.48,9.75-7.48-.08-1.56-.79-3.02-2-4.02Z"/><path class="cls-8" d="M57.41,48.73l40.87-.78s27.08-20.43,47.15-26.34l-33.22-6.52c-2.29-.45-4.66-.28-6.86.52-7.82,2.86-27.68,11.45-49.28,31.09-.88.8.14,2.02,1.33,2.02Z"/><path class="cls-1" d="M61.89,48.07c-.7-.09-.58-.52-.06-1.13,1.2-1.44,2.75-2.53,4.17-3.73,5.81-4.94,11.94-9.53,18.37-13.64,4.81-3.07,9.79-5.89,14.93-8.36,3.24-1.56,6.54-2.99,9.92-4.22,1.3-.47,2.67-.72,4.08-.72.79,0,1.58.08,2.36.23l26.68,5.29c-18.66,6.51-41.91,23.6-44.32,25.39-.14.1-.7.02-.86.02-2.94.07-5.89.15-8.83.22-4.37.11-8.74.22-13.1.33-3.58.09-7.17.18-10.75.27-.8.02-1.62.1-2.42.06-.06,0-.11,0-.17-.01Z"/><path class="cls-8" d="M96.05,51.95c2.87-.11,6.12.32,9.63,2.34,13.65,7.84,29.86,16.87,40.71,24.15,1.17.79,2.34,2.07,3.34,3.7,5.6,9.09,17.98,35.37,14.38,33.29-11.33-6.54-90.04-52.65-101.37-59.34-1.74-1.03-1.24-2.01-.71-2.15,4.24-1.11,25.57-1.66,34.02-1.99Z"/><path class="cls-1" d="M154.78,79.24l25.18,37.08s26.69-9.41,60.28-34.56l-37.68-29.06s-11.68,14.41-47.77,26.53Z"/><path class="cls-19" d="M144.45,77.42c-2.39,12.45-1.86,43.29-1.67,47.59-.18-.05-.35-.1-.52-.14-.2-4.53-.69-35.19,1.68-47.55.03-.14.16-.23.3-.21.14.03.23.16.2.3ZM130.98,136.93l-31.66-18.28c-.09-2.56-1.28-58.3,1.59-65.89.05-.13-.02-.28-.15-.33-.13-.05-.28.02-.33.15-2.86,7.56-1.79,61.26-1.63,65.77l-51.27-29.6c.02.21.03.42.05.63l83.36,48.13c.02-.19.03-.38.05-.57ZM43.27,73.22v-17.29c0-.2.16-.37.36-.39l39.09-2.33c.14-.01.25-.14.24-.28-.01-.14-.16-.26-.28-.24l-39.09,2.33c-.47.04-.83.43-.83.9v16.28c.18.34.35.67.52,1.01Z"/><path class="cls-8" d="M62.39,53.85c-1.78.34-4.05,1.58-4.75,2.21l1.03,6.05,7.25-4.15c.24-.17-1.44-4.51-3.54-4.11Z"/><path class="cls-19" d="M59.72,62.09c.47-.39.73-.95.72-1.56-.02-1.16-.12-3.16-.57-4.78-.25-.91-.77-1.57-1.81-1.08-4.75,2.25-9.38,7.4-8.27,10.27,1.35,3.47,6.67-.16,9.93-2.85Z"/><path class="cls-16" d="M60.44,60.53c-.02-1.16-.12-3.16-.57-4.78-.08-.28-.19-.52-.33-.73-4.8,2.26-9.43,7.41-8.32,10.28.18.45.42.77.72,1,2.23-.05,5.49-2.34,7.77-4.22.47-.39.73-.95.72-1.56Z"/><path class="cls-16" d="M259.01,98.51c.31-.18.71-.11.89.2,1.2,1.97,1.28,8.56-.51,10.4-2.79,2.86-7.12,5.72-8.31,6.4-.55.32-1.24-.05-1.28-.68-.13-1.87-.36-5.26-.48-7.66-.05-.94.43-1.82,1.25-2.3l8.44-6.36Z"/><path class="cls-16" d="M211.76,129.26l.49,7.9c.04.59-.24,1.79-.73,2.11-.65.42-11.83,6-14.02,4.15-1.3-1.09-1.24-3.9-1.36-5.96-.06-1.11.71-2.47,1.66-3.04l12.45-5.97c.64-.38,1.46.06,1.5.8Z"/><path class="cls-6" d="M7.63,47.72c.9-.53,1.87-3.57,1.84-4.56-.08-2.83-4.26-3.48-6.46-6.07-1.84,1.67-2.9,7.38-2.31,8.92.45,1.16,4.36,3.24,6.94,1.71Z"/><path class="cls-19" d="M7,40.04c.2,1.43-.68,4.84-2.58,8.11,1.04.27,2.34.08,3.21-.43.9-.53,1.91-3.34,1.91-4.9,0-1.28-1.16-2.06-2.55-2.78Z"/><path class="cls-1" d="M137.8,107.26l-7.18-4.15c-.41-.23-.74-.75-.74-1.16v-1.02c0-.41.33-.55.74-.31l7.18,4.15c.41.23.74.75.74,1.16v1.02c0,.41-.33.55-.74.31Z"/><path class="cls-1" d="M94.87,82.47l-7.18-4.15c-.41-.23-.74-.75-.74-1.16v-1.02c0-.41.33-.55.74-.31l7.18,4.15c.41.23.74.75.74,1.16v1.02c0,.41-.33.55-.74.31Z"/><path class="cls-16" d="M54.24,81.89l-2.53-1.46c-.37-.21-.67-.69-.67-1.06v-.29c0-.37.3-.5.67-.28l2.53,1.46c.37.21.67.69.67,1.06v.29c0,.37-.3.5-.67.28Z"/><path class="cls-16" d="M178.52,153.64l-2.53-1.46c-.37-.21-.67-.69-.67-1.06v-.29c0-.37.3-.5.67-.28l2.53,1.46c.37.21.67.69.67,1.06v.29c0,.37-.3.5-.67.28Z"/><path class="cls-1" d="M239.39,123.28l-13.9,8.02c-1.4.81-2.53.33-2.53-1.07v-1.72c0-1.4,1.13-3.19,2.53-3.99l13.9-8.02c1.4-.81,2.53-.33,2.53,1.07v1.72c0,1.4-1.13,3.19-2.53,3.99Z"/><path class="cls-7" d="M244.01,131.19c-5.95,4.52-10.39,7.03-15.83,10.06-.55.31-.91.9-.91,1.53v4.31c0,.36.38.6.71.45,6.03-2.85,11.47-6.43,16.18-10.31.41-.34.64-.83.64-1.36v-4.32c0-.4-.47-.6-.79-.36Z"/><path class="cls-6" d="M21.09,24.5c13.23,10.84,23.23,13.03,37.3,15.21-17.85-4.67-25.17-7.38-37.3-15.21Z"/><g class="cls-3"><path class="cls-6" d="M54.15,5.38c11.77,1.74,28.78,4.22,41.54,10.77-7.04-5.09-23.2-10.14-41.54-10.77Z"/></g><g class="cls-20"><path class="cls-13" d="M109.82,87.17l-2.05-1.23c-.19-.11-.43.02-.43.24l1.57,3.52c0,.1.05.19.14.24l2.05,1.23c.19.11.43-.02.43-.24l-1.57-3.52c0-.1-.05-.19-.14-.24Z"/></g></g><g id="_6-2"><path class="cls-19" d="M405.36,174.94c.47-.39.73-.95.72-1.56-.01-.69-.02-.32-.1-1.36-.25-1-1.91-2.58-6.01-1.5-.6.16-6.7,2.49-7.25,2.83-4.09,2.53,3.81,5.83,4.7,5.85,2.23.05,5.61-2.35,7.94-4.27Z"/><path class="cls-16" d="M402.68,170.85c-3.01.76-7.34,2.63-7.69,2.83l2.6,5.47c2.23-.05,5.49-2.34,7.77-4.22.47-.39.73-.97.72-1.59-.01-.71.31-3.44-3.4-2.5Z"/><polygon class="cls-21" points="289.65 204.56 281.35 211.03 278.98 218.68 278.98 223.96 282.09 230.58 310.56 214.15 289.65 204.56"/><polygon class="cls-21" points="407.25 272.46 398.96 278.93 396.59 286.58 396.59 291.86 399.7 298.48 428.17 282.05 407.25 272.46"/><g id="Axonometric_Cylinder-3"><path class="cls-21" d="M424.41,281c-3.71-2.14-7.07-2.32-9.48-.88l-8.32,4.8,18.97,32.45,8.32-4.8c2.35-1.41,3.81-4.37,3.81-8.55,0-8.48-5.95-18.78-13.29-23.02Z"/><path id="Cylinder_face-3" class="cls-4" d="M429.38,308.82c0,8.48-5.95,11.91-13.29,7.67-7.34-4.24-13.29-14.54-13.29-23.02s5.95-11.91,13.29-7.67c7.34,4.24,13.29,14.54,13.29,23.02Z"/></g><g class="cls-12"><path class="cls-17" d="M416.06,312.1c-5.06-2.8-9.23-9.86-9.32-15.77-.09-5.91,3.94-8.43,9-5.63,5.06,2.8,9.23,9.86,9.32,15.77.09,5.91-3.94,8.43-9,5.63Z"/><path class="cls-5" d="M416.04,310.6c-4.35-2.41-7.93-8.48-8.01-13.56-.08-5.08,3.39-7.25,7.74-4.84,4.35,2.41,7.93,8.47,8.01,13.56.08,5.08-3.39,7.25-7.74,4.84Z"/><path class="cls-17" d="M416.43,306.34c-2.46-1.36-4.48-4.79-4.53-7.66-.04-2.87,1.91-4.1,4.37-2.74,2.46,1.36,4.48,4.79,4.53,7.66.04,2.87-1.91,4.1-4.37,2.74Z"/><path class="cls-18" d="M421.25,298.55c-1.08-1.94-2.62-3.64-4.32-4.58-3.2-1.77-5.75-.18-5.69,3.57.06,3.74,2.7,8.21,5.9,9.98,3.07,1.7,5.54.3,5.69-3.12,0-.15,0-.29,0-.45-.03-1.76-.62-3.68-1.58-5.4ZM420.79,303.95c-.11,2.62-2.01,3.7-4.37,2.39-2.46-1.36-4.48-4.79-4.53-7.66-.04-2.87,1.91-4.1,4.37-2.74,1.3.72,2.48,2.02,3.31,3.52.37.66.67,1.36.88,2.06.21.7.33,1.41.34,2.08,0,.12,0,.23,0,.34Z"/></g><g id="Axonometric_Cylinder-4"><path class="cls-21" d="M307.9,213.73c-3.71-2.14-7.07-2.32-9.48-.88l-8.32,4.8,18.97,32.45,8.32-4.8c2.35-1.41,3.81-4.37,3.81-8.55,0-8.48-5.95-18.78-13.29-23.02Z"/><path id="Cylinder_face-4" class="cls-4" d="M312.87,241.56c0,8.48-5.95,11.91-13.29,7.67-7.34-4.24-13.29-14.54-13.29-23.02s5.95-11.91,13.29-7.67c7.34,4.24,13.29,14.54,13.29,23.02Z"/></g><g class="cls-12"><path class="cls-17" d="M299.56,244.84c-5.06-2.8-9.23-9.86-9.32-15.77-.09-5.91,3.94-8.43,9-5.63,5.06,2.8,9.23,9.86,9.32,15.77.09,5.91-3.94,8.43-9,5.63Z"/><path class="cls-5" d="M299.53,243.34c-4.35-2.41-7.93-8.47-8.01-13.56-.08-5.08,3.39-7.25,7.74-4.84,4.35,2.41,7.93,8.47,8.01,13.56.08,5.08-3.39,7.25-7.74,4.84Z"/><path class="cls-17" d="M299.92,239.07c-2.46-1.36-4.48-4.79-4.53-7.66-.04-2.87,1.91-4.1,4.37-2.74,2.46,1.36,4.48,4.79,4.53,7.66.04,2.87-1.91,4.1-4.37,2.74Z"/><path class="cls-18" d="M304.74,231.29c-1.08-1.94-2.62-3.64-4.32-4.58-3.2-1.77-5.75-.18-5.69,3.57.06,3.74,2.7,8.21,5.9,9.98,3.07,1.7,5.54.3,5.69-3.12,0-.15,0-.29,0-.45-.03-1.76-.62-3.68-1.58-5.4ZM304.29,236.68c-.11,2.62-2.01,3.7-4.37,2.39-2.46-1.36-4.48-4.79-4.53-7.66-.04-2.87,1.91-4.1,4.37-2.74,1.3.72,2.48,2.02,3.31,3.52.37.66.67,1.36.88,2.06.21.7.33,1.41.34,2.08,0,.12,0,.23,0,.34Z"/></g><path class="cls-14" d="M528.64,253.66c0-1.66-.75-3.22-2.03-4.27l-14.26-10.34s-40.4-30.91-41.18-31.36l-48.85-28.2c-1.53-.88-3.23-1.43-4.99-1.6l-39.45-8.04-34.46-11.52c-4.51-1.51-9.38-1.65-13.94-.29-23.85,7.1-45.39,20.01-56.02,32.06-1.1,1.25-1.59,2.93-1.42,4.58.14,1.38.37,2.75.09,3.85-.77,2.99-3.12,4.27-3.12,6.26v10.8c0,1.22.79,3.16,2,5.23,2.08,3.56,5.18,6.42,8.77,8.45l2.32,1.31c.07-13.4,4.42-21.73,17.34-14.26,12.1,6.99,17.21,20.67,17.34,34.08l82.95,48.07c.21-12.99,4.62-21.43,17.32-14.1,11.89,6.86,17.02,20.71,17.32,33.9l3.14,1.69c1.98,1.07,4.12,1.83,6.33,2.26l9.51,1.86c17.44,2.85,74.18-30,75.39-41.44l-.08-28.99Z"/><path class="cls-14" d="M319.49,206.09l-30.83-28.94c-6.19,4.22-11.41,8.63-15.21,12.94-1.1,1.25-1.58,2.92-1.41,4.58.14,1.38.37,2.75.09,3.85-.62,2.42-2.28,3.72-2.89,5.18-.43,1.05.73,1.97,2.95,2.69,1.99.65,4.18.34,6.01-.69,4.1-2.31,8.77-3.41,13.47-3.12,13.05.82,27.83,3.49,27.83,3.49Z"/><path class="cls-14" d="M528.64,253.66c0-1.66-.75-3.22-2.03-4.27l-10.11-7.33c-6.18,4.64-12.75,8.83-18.94,13.37-11.56,8.48-38.72,16.07-51.8,22.03,7.43,5.44,9.53,13.43,12.14,19.36,2.14,4.86,7.72,7.31,12.79,5.73,30.43-9.46,58-33.41,58-33.41l-.04-15.49Z"/><path class="cls-14" d="M319.49,206.09c30.7-29.32,58.38-36.25,58.38-36.25l-34.46-11.52c-4.51-1.51-9.38-1.65-13.94-.29-23.32,6.94-44.44,19.44-55.3,31.26-1.1,1.2-.73,3.1.73,3.81,10.05,4.89,29.39,10.71,44.59,12.99Z"/><path class="cls-1" d="M401.23,288.11c-.98,2.81-1.45,6.37-1.51,10.37l-82.95-48.07c-.04-4.02-.54-8.06-1.52-11.94l85.98,49.64ZM269,211.76v3.83c0,1.22.79,3.16,2,5.23,2.08,3.56,5.18,6.42,8.77,8.45l2.32,1.31c.02-4.06.44-7.64,1.37-10.47l-14.46-8.35ZM432.68,306.26c1.04,3.92,1.59,7.99,1.68,12.01l3.14,1.69c2.39,1.11,3.83,1.72,6.33,2.26l9.51,1.86c2.36.39,5.46.1,9.03-.68-11.05-2.13-21.01-7.65-29.69-17.14Z"/><path class="cls-14" d="M419.59,178.27c-8.33,1.7-35.84,16.08-50.36,27.39-.55.43-.5,1.25.13,1.54,12.5,5.79,37.97,19.72,49.58,27.87,1.11.78,19.06-5.44,32.59-13.22,11.98-6.88,19.13-14.4,18.69-14.69-7.81-5.26-42.27-27.02-50.64-28.89Z"/><path class="cls-14" d="M526.61,249.39l-14.26-10.34c-19.63,15.09-41.65,28.04-66.59,38.41l15.6,11.03c2.26,1.43,9.23-.87,17.96-4.74,14.18-6.3,26.94-13.82,39.55-22.87,7.58-5.44,9.75-7.48,9.75-7.48-.08-1.56-.79-3.02-2-4.02Z"/><path class="cls-8" d="M326.41,205.84l40.87-.78s27.08-20.43,47.15-26.34l-33.22-6.52c-2.29-.45-4.66-.28-6.86.52-7.82,2.86-27.68,11.45-49.28,31.09-.88.8.14,2.02,1.33,2.02Z"/><path class="cls-1" d="M330.89,205.17c-.7-.09-.58-.52-.06-1.13,1.2-1.44,2.75-2.53,4.17-3.73,5.81-4.94,11.94-9.53,18.37-13.64,4.81-3.07,9.79-5.89,14.93-8.36,3.24-1.56,6.54-2.99,9.92-4.22,1.3-.47,2.67-.72,4.08-.72.79,0,1.58.08,2.36.23l26.68,5.29c-18.66,6.51-41.91,23.6-44.32,25.39-.14.1-.7.02-.86.02-2.94.07-5.89.15-8.83.22-4.37.11-8.74.22-13.1.33-3.58.09-7.17.18-10.75.27-.8.02-1.62.1-2.42.06-.06,0-.11,0-.17-.01Z"/><path class="cls-8" d="M365.06,209.05c2.87-.11,6.12.32,9.63,2.34,13.65,7.84,29.86,16.87,40.71,24.15,1.17.79,2.34,2.07,3.34,3.7,5.6,9.09,17.98,35.37,14.38,33.29-11.33-6.54-90.04-52.65-101.37-59.34-1.74-1.03-1.24-2.01-.71-2.15,4.24-1.11,25.57-1.66,34.02-1.99Z"/><path class="cls-1" d="M423.78,236.34l25.18,37.08s26.69-9.41,60.28-34.56l-37.68-29.06s-11.68,14.41-47.77,26.53Z"/><path class="cls-8" d="M331.4,210.95c-1.78.34-4.05,1.58-4.75,2.21l1.03,6.05,7.25-4.15c.24-.17-1.44-4.51-3.54-4.11Z"/><path class="cls-19" d="M328.72,219.19c.47-.39.73-.95.72-1.56-.02-1.16-.12-3.16-.57-4.78-.25-.91-.77-1.57-1.81-1.08-4.75,2.25-9.38,7.4-8.27,10.27,1.35,3.47,6.67-.16,9.93-2.85Z"/><path class="cls-16" d="M329.44,217.63c-.02-1.16-.12-3.16-.57-4.78-.08-.28-.19-.52-.33-.73-4.8,2.26-9.43,7.41-8.32,10.28.18.45.42.77.72,1,2.23-.05,5.49-2.34,7.77-4.22.47-.39.73-.95.72-1.56Z"/><path class="cls-16" d="M528.01,255.61c.31-.18.71-.11.89.2,1.2,1.97,1.28,8.56-.51,10.4-2.79,2.86-7.12,5.72-8.31,6.4-.55.32-1.24-.05-1.28-.68-.13-1.87-.36-5.26-.48-7.66-.05-.94.43-1.82,1.25-2.3l8.44-6.36Z"/><path class="cls-16" d="M480.76,286.36l.49,7.9c.04.59-.24,1.79-.73,2.11-.65.42-11.83,6-14.02,4.15-1.3-1.09-1.24-3.9-1.36-5.96-.06-1.11.71-2.47,1.66-3.04l12.45-5.97c.64-.38,1.46.06,1.5.8Z"/><path class="cls-6" d="M276.63,204.82c.9-.53,1.87-3.57,1.84-4.56-.08-2.83-4.26-3.48-6.46-6.07-1.84,1.67-2.9,7.38-2.31,8.92.45,1.16,4.36,3.24,6.94,1.71Z"/><path class="cls-19" d="M276,197.15c.2,1.43-.68,4.84-2.58,8.11,1.04.27,2.34.08,3.21-.43.9-.53,1.91-3.34,1.91-4.9,0-1.28-1.16-2.06-2.55-2.78Z"/><path class="cls-1" d="M406.8,264.36l-7.18-4.15c-.41-.23-.74-.75-.74-1.16v-1.02c0-.41.33-.55.74-.31l7.18,4.15c.41.23.74.75.74,1.16v1.02c0,.41-.33.55-.74.31Z"/><path class="cls-1" d="M363.87,239.57l-7.18-4.15c-.41-.23-.74-.75-.74-1.16v-1.02c0-.41.33-.55.74-.31l7.18,4.15c.41.23.74.75.74,1.16v1.02c0,.41-.33.55-.74.31Z"/><path class="cls-16" d="M323.24,238.99l-2.53-1.46c-.37-.21-.67-.69-.67-1.06v-.29c0-.37.3-.5.67-.28l2.53,1.46c.37.21.67.69.67,1.06v.29c0,.37-.3.5-.67.28Z"/><path class="cls-16" d="M447.52,310.75l-2.53-1.46c-.37-.21-.67-.69-.67-1.06v-.29c0-.37.3-.5.67-.28l2.53,1.46c.37.21.67.69.67,1.06v.29c0,.37-.3.5-.67.28Z"/><path class="cls-1" d="M508.39,280.38l-13.9,8.02c-1.4.81-2.53.33-2.53-1.07v-1.72c0-1.4,1.13-3.19,2.53-3.99l13.9-8.02c1.4-.81,2.53-.33,2.53,1.07v1.72c0,1.4-1.13,3.19-2.53,3.99Z"/><path class="cls-7" d="M513.02,288.29c-5.95,4.52-10.39,7.03-15.83,10.06-.55.31-.91.9-.91,1.53v4.31c0,.36.38.6.71.45,6.03-2.85,11.47-6.43,16.18-10.31.41-.34.64-.83.64-1.36v-4.32c0-.4-.47-.6-.79-.36Z"/><path class="cls-11" d="M290.1,181.6c13.23,10.84,23.23,13.03,37.3,15.21-17.85-4.67-25.17-7.38-37.3-15.21Z"/><g class="cls-3"><path class="cls-11" d="M323.15,162.48c11.77,1.74,28.78,4.22,41.54,10.77-7.04-5.09-23.2-10.14-41.54-10.77Z"/></g><path class="cls-19" d="M413.46,234.8c-2.39,12.45-1.86,43.29-1.67,47.59-.18-.05-.35-.1-.52-.14-.2-4.53-.69-35.19,1.68-47.55.03-.14.16-.23.3-.21.14.03.23.16.2.3ZM400,294.32l-31.66-18.28c-.09-2.56-1.28-58.3,1.59-65.89.05-.13-.02-.28-.15-.33-.13-.05-.28.02-.33.15-2.86,7.56-1.79,61.26-1.63,65.77l-51.27-29.6c.02.21.03.42.05.63l83.36,48.13c.02-.19.03-.38.05-.57ZM312.28,230.6v-17.29c0-.2.16-.37.36-.39l39.09-2.33c.14-.01.25-.14.24-.28-.01-.14-.16-.26-.28-.24l-39.09,2.33c-.47.04-.83.43-.83.9v16.28c.18.34.35.67.52,1.01Z"/></g></g></g></g></svg>