<?xml version="1.0" encoding="UTF-8"?><svg xmlns="http://www.w3.org/2000/svg" xmlns:xlink="http://www.w3.org/1999/xlink" viewBox="0 0 81.26 83.47"><defs><style>.cls-1{fill:#d4cecd;}.cls-2{fill:#e6f3fc;}.cls-3{fill:#60565f;}.cls-4{fill:#0a040d;}.cls-5{fill:#dad9d9;}.cls-6{fill:#635343;}.cls-7{fill:#3d4244;}.cls-8{fill:#375774;}.cls-9{fill:#989194;}.cls-10{fill:#8f8f8f;}.cls-11{fill:#7f7f80;}.cls-12{fill:#fff;}.cls-13{fill:#f4bb6f;}.cls-14{fill:#2f3636;}.cls-15{fill:#827959;}.cls-16{fill:#8b8d8d;}.cls-17,.cls-18,.cls-19,.cls-20{fill:none;}.cls-21{fill:#1e234c;}.cls-22{fill:#dda662;}.cls-23{fill:#261f26;}.cls-24{isolation:isolate;}.cls-25{mix-blend-mode:multiply;opacity:.5;}.cls-25,.cls-26{fill:#373433;}.cls-18{stroke-miterlimit:10;stroke-width:.03px;}.cls-18,.cls-19,.cls-20{stroke:#fff;stroke-linecap:round;}.cls-27{fill:#312b32;}.cls-28{fill:#6a4d47;}.cls-29{fill:#948d68;}.cls-30{fill:#b4b4b5;}.cls-31{fill:#939393;}.cls-32{fill:#0b3b57;}.cls-19{stroke-width:.03px;}.cls-19,.cls-20{stroke-linejoin:round;}.cls-33{fill:#45322e;}.cls-34{fill:#e28e54;}.cls-35{fill:#ebe7e5;}.cls-36{fill:#3c353d;}.cls-37{fill:#b43a2b;}.cls-38{fill:#282f2f;}.cls-39{fill:#f4e3b6;}.cls-40{fill:#e2dedb;}.cls-41{fill:#62696a;}.cls-42{fill:#665f5f;}.cls-43{fill:#cf8e88;}.cls-44{fill:#7c5d2f;}.cls-45{fill:#563e3a;}.cls-46{fill:#455963;}.cls-47{fill:#979797;}.cls-48{fill:#c8c9ca;}.cls-49{fill:#080404;}.cls-50{fill:#1b2021;}.cls-51{fill:#274b65;}.cls-52{fill:#a2625e;}.cls-20{stroke-width:.03px;}.cls-53{clip-path:url(#clippath);}</style><clipPath id="clippath"><path class="cls-17" d="M36.48,17.96c-1.06.43-.21,3.8.56,4.24.77.44,2.01.45,2.77,0s1.61-3.81.54-4.24c-1.07-.43-2.8-.43-3.86,0Z"/></clipPath></defs><g class="cls-24"><g id="_レイヤー_2"><g id="desk"><g id="desk-2"><polygon class="cls-5" points="65.27 56.9 65.21 80.02 66.76 79.12 66.83 56 65.27 56.9"/><polyline class="cls-47" points="63.64 79.12 65.21 80.02 65.27 56.9 63.71 56"/><polygon class="cls-10" points="66.83 56 65.26 55.1 63.71 56 65.27 56.9 66.83 56"/><polygon class="cls-31" points="2.99 20.68 2.93 43.8 4.48 42.89 4.55 19.77 2.99 20.68"/><polygon class="cls-11" points="1.43 19.77 1.37 42.89 2.93 43.8 2.99 20.68 1.43 19.77"/><polygon class="cls-10" points="4.55 19.77 2.98 18.87 1.43 19.77 2.99 20.68 4.55 19.77"/><polygon class="cls-5" points="78.62 49.14 78.55 72.26 80.11 71.36 80.17 48.24 78.62 49.14"/><polygon class="cls-47" points="77.05 48.24 76.99 71.36 78.55 72.26 78.62 49.14 77.05 48.24"/><polygon class="cls-10" points="80.17 48.24 78.61 47.33 77.05 48.24 78.62 49.14 80.17 48.24"/><polygon class="cls-5" points="64.65 57.61 64.64 59.45 81.25 49.63 81.26 47.8 64.65 57.61"/><polygon class="cls-47" points="0 20.34 0 22.18 64.64 59.45 64.65 57.61 0 20.34"/><polygon class="cls-12" points="81.26 47.8 16.62 10.53 0 20.34 64.65 57.61 81.26 47.8"/><path class="cls-25" d="M25.39,33.78l20.77,11.99c.37.22,1.03.19,1.46-.06l12.89-7.44c.43-.25.48-.63.1-.84l-20.77-11.99c-.37-.22-1.03-.19-1.46.06l-12.89,7.44c-.43.25-.48.63-.1.84Z"/><path class="cls-6" d="M25.39,33.66l20.77,11.99c.37.22,1.03.19,1.46-.06l12.89-7.44c.43-.25.48-.63.1-.84l-20.77-11.99c-.37-.22-1.03-.19-1.46.06l-12.89,7.44c-.43.25-.48.63-.1.84Z"/><path class="cls-29" d="M25.39,33.54l20.77,11.99c.37.22,1.03.19,1.46-.06l12.89-7.44c.43-.25.48-.63.1-.84l-20.77-11.99c-.37-.22-1.03-.19-1.46.06l-12.89,7.44c-.43.25-.48.63-.1.84Z"/><path class="cls-25" d="M36.85,24.24c-.86.5-.86,1.31,0,1.81.87.5,2.27.5,3.13,0,.86-.5.86-1.31,0-1.81-.87-.5-2.27-.5-3.13,0Z"/><path class="cls-30" d="M36.21,25s0-3.6,0-3.6h4.42v3.6c0,.33-.21.66-.64.91-.86.5-2.26.49-3.13,0-.43-.25-.65-.57-.65-.9h0Z"/><path class="cls-30" d="M38.5,21.4h2.14v3.6c0,.33-.21.66-.64.91-.41.24-.95.36-1.49.37v-4.88Z"/><path class="cls-45" d="M36.85,20.5c-.86.5-.86,1.31,0,1.81.87.5,2.27.5,3.13,0,.86-.5.86-1.31,0-1.81-.87-.5-2.27-.5-3.13,0Z"/><path class="cls-34" d="M36.85,20.5c-.62.32-.86,1.11-.26,1.58.94.85,4.06.84,3.99-.84-.07-.32-.33-.56-.61-.73.28.16.56.39.65.72.13,1.76-3.12,1.83-4.08.9-.62-.49-.37-1.33.3-1.63h0Z"/><g class="cls-53"><path class="cls-52" d="M39.88,18.66l.33-.65s0,0,0,0c0,0,.02,0,.02,0,0,0,0,0,0,0l.12.73-.48-.08Z"/><polygon class="cls-43" points="40.21 18 40.22 18 40.12 18.69 39.88 18.66 40.21 18 40.21 18"/><path class="cls-52" d="M39.85,18.68h0s.04-.08.09-.1c.11-.04.28-.02.37.06.05.04.07.08.06.12h0s-1.1,7.15-1.1,7.15l-.53-.05,1.1-7.18Z"/><path class="cls-43" d="M39.01,25.89l-.27-.03,1.1-7.18h0s.04-.08.09-.1c.06-.02.13-.03.19-.02l-1.12,7.32Z"/><path class="cls-52" d="M38.84,25.76c-.11.04-.13.14-.03.21.09.07.26.1.37.06.11-.04.13-.14.03-.21-.09-.07-.26-.1-.37-.06Z"/><path class="cls-6" d="M37.76,18.57l.18-.71s0,0,0,0c0,0,.02,0,.02,0,0,0,0,0,0,0l.28.68-.49.03Z"/><polygon class="cls-15" points="37.94 17.86 37.95 17.85 38 18.56 37.76 18.57 37.94 17.86 37.94 17.86"/><path class="cls-6" d="M37.74,18.61h0s.02-.08.07-.12c.1-.07.27-.08.38-.03.05.03.08.06.09.1h0l.52,7.22-.53.06-.52-7.24Z"/><path class="cls-15" d="M38.53,25.82l-.26.03-.52-7.24h0s.02-.08.07-.12c.05-.03.12-.05.18-.06l.53,7.39Z"/><path class="cls-6" d="M38.33,25.73c-.1.07-.09.16.01.22.11.05.28.04.38-.03.1-.07.09-.16-.01-.22-.11-.05-.28-.04-.38.03Z"/><path class="cls-22" d="M39.2,18.56l.37-.64s0,0,0,0c0,0,.02,0,.02,0,0,0,0,0,0,0l.08.73-.48-.1Z"/><polygon class="cls-13" points="39.57 17.92 39.57 17.92 39.43 18.62 39.2 18.56 39.56 17.93 39.57 17.92"/><path class="cls-22" d="M39.17,18.59h0s.04-.08.1-.1c.11-.04.28,0,.37.08.05.04.06.08.05.12h0l-1.48,7.09-.52-.08,1.47-7.11Z"/><path class="cls-13" d="M37.96,25.74l-.26-.04,1.47-7.11h0s.04-.08.1-.1c.06-.02.13-.02.19,0l-1.5,7.25Z"/><path class="cls-22" d="M37.79,25.61c-.11.04-.13.13-.05.21.09.08.25.11.37.08.11-.04.13-.13.05-.21-.09-.08-.25-.11-.37-.08Z"/></g><path class="cls-25" d="M33.15,33.1l8.12-4.69c.33-.19.82-.21,1.11-.05l12.39,7.15c.28.16.25.45-.08.64l-8.12,4.69c-.33.19-.82.21-1.11.05l-12.39-7.15c-.28-.16-.25-.45.08-.64Z"/><path class="cls-25" d="M53.39,36.49l.15.08.22-.13,1.9,1.1c.11.06.15.14.15.23,0,0,0,0,0,0h0v.26c0,.1-.07.2-.21.28-.26.15-.65.16-.87.04l-1.9-1.1v-.19s-.04-.02-.04-.02v-.19l.6-.35Z"/><path class="cls-1" d="M33.07,33.13l12.39,7.15c.28.16.78.14,1.11-.05l8.12-4.69c.17-.1.26-.22.27-.33h0v.47s0,.03,0,.05h0s0,0,0,0c-.01.12-.1.24-.27.33l-8.12,4.69c-.33.19-.82.21-1.11.05l-12.39-7.15c-.13-.07-.19-.17-.19-.28h0v-.51h0c0,.1.07.19.19.26Z"/><path class="cls-12" d="M36.46,30.58l-3.31,1.91c-.33.19-.36.48-.08.64l12.39,7.15c.28.16.78.14,1.11-.05l3.31-1.91-13.42-7.75Z"/><path class="cls-35" d="M49.89,38.32l4.8-2.77c.33-.19.36-.48.08-.64l-12.39-7.15c-.28-.16-.78-.14-1.11.05l-4.8,2.77,13.42,7.75Z"/><path class="cls-26" d="M51.94,35.55l.62.36s.1.02.15,0l.59-.34s.05-.06.01-.09l-.62-.36s-.1-.02-.15,0l-.59.34s-.05.06-.01.09Z"/><path class="cls-26" d="M51.1,35.06l.62.36s.1.02.15,0l.59-.34s.05-.06.01-.09l-.62-.36s-.1-.02-.15,0l-.59.34s-.05.06-.01.09Z"/><path class="cls-26" d="M50.26,34.58l.62.36s.1.02.15,0l.59-.34s.05-.06.01-.09l-.62-.36s-.1-.02-.15,0l-.59.34s-.05.06-.01.09Z"/><path class="cls-26" d="M49.42,34.1l.62.36s.1.02.15,0l.59-.34s.05-.06.01-.09l-.62-.36s-.1-.02-.15,0l-.59.34s-.05.06-.01.09Z"/><path class="cls-26" d="M48.59,33.61l.62.36s.1.02.15,0l.59-.34s.05-.06.01-.09l-.62-.36s-.1-.02-.15,0l-.59.34s-.05.06-.01.09Z"/><path class="cls-26" d="M47.75,33.13l.62.36s.1.02.15,0l.59-.34s.05-.06.01-.09l-.62-.36s-.1-.02-.15,0l-.59.34s-.05.06-.01.09Z"/><path class="cls-26" d="M46.91,32.64l.62.36s.1.02.15,0l.59-.34s.05-.06.01-.09l-.62-.36s-.1-.02-.15,0l-.59.34s-.05.06-.01.09Z"/><path class="cls-26" d="M46.07,32.16l.62.36s.1.02.15,0l.59-.34s.05-.06.01-.09l-.62-.36s-.1-.02-.15,0l-.59.34s-.05.06-.01.09Z"/><path class="cls-26" d="M45.23,31.67l.62.36s.1.02.15,0l.59-.34s.05-.06.01-.09l-.62-.36s-.1-.02-.15,0l-.59.34s-.05.06-.01.09Z"/><path class="cls-26" d="M44.39,31.19l.62.36s.1.02.15,0l.59-.34s.05-.06.01-.09l-.62-.36s-.1-.02-.15,0l-.59.34s-.05.06-.01.09Z"/><path class="cls-26" d="M43.55,30.71l.62.36s.1.02.15,0l.59-.34s.05-.06.01-.09l-.62-.36s-.1-.02-.15,0l-.59.34s-.05.06-.01.09Z"/><path class="cls-26" d="M42.71,30.22l.62.36s.1.02.15,0l.59-.34s.05-.06.01-.09l-.62-.36s-.1-.02-.15,0l-.59.34s-.05.06-.01.09Z"/><path class="cls-26" d="M41.87,29.74l.62.36s.1.02.15,0l.59-.34s.05-.06.01-.09l-.62-.36s-.1-.02-.15,0l-.59.34s-.05.06-.01.09Z"/><path class="cls-26" d="M40.66,29.03l1,.58s.1.02.15,0l.59-.34s.05-.06.01-.09l-1-.58s-.1-.02-.15,0l-.59.34s-.05.06-.01.09Z"/><path class="cls-26" d="M41.2,29.44l-.62-.36s-.1-.02-.15,0l-.59.34s-.05.06-.01.09l.62.36s.1.02.15,0l.59-.34s.05-.06.01-.09Z"/><path class="cls-26" d="M42.03,29.92l-.62-.36s-.1-.02-.15,0l-.59.34s-.05.06-.01.09l.62.36s.1.02.15,0l.59-.34s.05-.06.01-.09Z"/><path class="cls-26" d="M42.87,30.41l-.62-.36s-.1-.02-.15,0l-.59.34s-.05.06-.01.09l.62.36s.1.02.15,0l.59-.34s.05-.06.01-.09Z"/><path class="cls-26" d="M43.71,30.89l-.62-.36s-.1-.02-.15,0l-.59.34s-.05.06-.01.09l.62.36s.1.02.15,0l.59-.34s.05-.06.01-.09Z"/><path class="cls-26" d="M44.55,31.38l-.62-.36s-.1-.02-.15,0l-.59.34s-.05.06-.01.09l.62.36s.1.02.15,0l.59-.34s.05-.06.01-.09Z"/><path class="cls-26" d="M45.39,31.86l-.62-.36s-.1-.02-.15,0l-.59.34s-.05.06-.01.09l.62.36s.1.02.15,0l.59-.34s.05-.06.01-.09Z"/><path class="cls-26" d="M46.23,32.34l-.62-.36s-.1-.02-.15,0l-.59.34s-.05.06-.01.09l.62.36s.1.02.15,0l.59-.34s.05-.06.01-.09Z"/><path class="cls-26" d="M47.07,32.83l-.62-.36s-.1-.02-.15,0l-.59.34s-.05.06-.01.09l.62.36s.1.02.15,0l.59-.34s.05-.06.01-.09Z"/><path class="cls-26" d="M47.91,33.31l-.62-.36s-.1-.02-.15,0l-.59.34s-.05.06-.01.09l.62.36s.1.02.15,0l.59-.34s.05-.06.01-.09Z"/><path class="cls-26" d="M48.75,33.8l-.62-.36s-.1-.02-.15,0l-.59.34s-.05.06-.01.09l.62.36s.1.02.15,0l.59-.34s.05-.06.01-.09Z"/><path class="cls-26" d="M49.58,34.28l-.62-.36s-.1-.02-.15,0l-.59.34s-.05.06-.01.09l.62.36s.1.02.15,0l.59-.34s.05-.06.01-.09Z"/><path class="cls-26" d="M50.42,34.77l-.62-.36s-.1-.02-.15,0l-.59.34s-.05.06-.01.09l.62.36s.1.02.15,0l.59-.34s.05-.06.01-.09Z"/><path class="cls-26" d="M51.26,35.25l-.62-.36s-.1-.02-.15,0l-.59.34s-.05.06-.01.09l.62.36s.1.02.15,0l.59-.34s.05-.06.01-.09Z"/><path class="cls-26" d="M52.48,35.95l-1-.58s-.1-.02-.15,0l-.59.34s-.05.06-.01.09l1,.58s.1.02.15,0l.59-.34s.05-.06.01-.09Z"/><path class="cls-26" d="M40.97,30.27l-1.23-.71s-.1-.02-.15,0l-.59.34s-.05.06-.01.09l1.23.71s.1.02.15,0l.59-.34s.05-.06.01-.09Z"/><path class="cls-26" d="M51.64,36.43l-1.23-.71s-.1-.02-.15,0l-.59.34s-.05.06-.01.09l1.23.71s.1.02.15,0l.59-.34s.05-.06.01-.09Z"/><path class="cls-26" d="M41.81,30.75l-.62-.36s-.1-.02-.15,0l-.59.34s-.05.06-.01.09l.62.36s.1.02.15,0l.59-.34s.05-.06.01-.09Z"/><path class="cls-26" d="M42.64,31.24l-.62-.36s-.1-.02-.15,0l-.59.34s-.05.06-.01.09l.62.36s.1.02.15,0l.59-.34s.05-.06.01-.09Z"/><path class="cls-26" d="M43.48,31.72l-.62-.36s-.1-.02-.15,0l-.59.34s-.05.06-.01.09l.62.36s.1.02.15,0l.59-.34s.05-.06.01-.09Z"/><path class="cls-26" d="M44.32,32.21l-.62-.36s-.1-.02-.15,0l-.59.34s-.05.06-.01.09l.62.36s.1.02.15,0l.59-.34s.05-.06.01-.09Z"/><path class="cls-26" d="M45.16,32.69l-.62-.36s-.1-.02-.15,0l-.59.34s-.05.06-.01.09l.62.36s.1.02.15,0l.59-.34s.05-.06.01-.09Z"/><path class="cls-26" d="M46,33.18l-.62-.36s-.1-.02-.15,0l-.59.34s-.05.06-.01.09l.62.36s.1.02.15,0l.59-.34s.05-.06.01-.09Z"/><path class="cls-26" d="M46.84,33.66l-.62-.36s-.1-.02-.15,0l-.59.34s-.05.06-.01.09l.62.36s.1.02.15,0l.59-.34s.05-.06.01-.09Z"/><path class="cls-26" d="M47.68,34.14l-.62-.36s-.1-.02-.15,0l-.59.34s-.05.06-.01.09l.62.36s.1.02.15,0l.59-.34s.05-.06.01-.09Z"/><path class="cls-26" d="M48.52,34.63l-.62-.36s-.1-.02-.15,0l-.59.34s-.05.06-.01.09l.62.36s.1.02.15,0l.59-.34s.05-.06.01-.09Z"/><path class="cls-26" d="M49.36,35.11l-.62-.36s-.1-.02-.15,0l-.59.34s-.05.06-.01.09l.62.36s.1.02.15,0l.59-.34s.05-.06.01-.09Z"/><path class="cls-26" d="M50.2,35.6l-.62-.36s-.1-.02-.15,0l-.59.34s-.05.06-.01.09l.62.36s.1.02.15,0l.59-.34s.05-.06.01-.09Z"/><path class="cls-26" d="M40.55,30.99l-1.64-.95s-.1-.02-.15,0l-.59.34s-.05.06-.01.09l1.64.95s.1.02.15,0l.59-.34s.05-.06.01-.09Z"/><path class="cls-26" d="M41.39,31.48l-.62-.36s-.1-.02-.15,0l-.59.34s-.05.06-.01.09l.62.36s.1.02.15,0l.59-.34s.05-.06.01-.09Z"/><path class="cls-26" d="M42.23,31.96l-.62-.36s-.1-.02-.15,0l-.59.34s-.05.06-.01.09l.62.36s.1.02.15,0l.59-.34s.05-.06.01-.09Z"/><path class="cls-26" d="M43.07,32.44l-.62-.36s-.1-.02-.15,0l-.59.34s-.05.06-.01.09l.62.36s.1.02.15,0l.59-.34s.05-.06.01-.09Z"/><path class="cls-26" d="M43.91,32.93l-.62-.36s-.1-.02-.15,0l-.59.34s-.05.06-.01.09l.62.36s.1.02.15,0l.59-.34s.05-.06.01-.09Z"/><path class="cls-26" d="M44.74,33.41l-.62-.36s-.1-.02-.15,0l-.59.34s-.05.06-.01.09l.62.36s.1.02.15,0l.59-.34s.05-.06.01-.09Z"/><path class="cls-26" d="M45.58,33.9l-.62-.36s-.1-.02-.15,0l-.59.34s-.05.06-.01.09l.62.36s.1.02.15,0l.59-.34s.05-.06.01-.09Z"/><path class="cls-26" d="M46.42,34.38l-.62-.36s-.1-.02-.15,0l-.59.34s-.05.06-.01.09l.62.36s.1.02.15,0l.59-.34s.05-.06.01-.09Z"/><path class="cls-26" d="M47.26,34.87l-.62-.36s-.1-.02-.15,0l-.59.34s-.05.06-.01.09l.62.36s.1.02.15,0l.59-.34s.05-.06.01-.09Z"/><path class="cls-26" d="M48.1,35.35l-.62-.36s-.1-.02-.15,0l-.59.34s-.05.06-.01.09l.62.36s.1.02.15,0l.59-.34s.05-.06.01-.09Z"/><path class="cls-26" d="M48.94,35.83l-.62-.36s-.1-.02-.15,0l-.59.34s-.05.06-.01.09l.62.36s.1.02.15,0l.59-.34s.05-.06.01-.09Z"/><path class="cls-26" d="M50.81,36.91l-1.65-.95s-.1-.02-.15,0l-.59.34s-.05.06-.01.09l1.65.95s.1.02.15,0l.59-.34s.05-.06.01-.09Z"/><path class="cls-26" d="M46.43,35.35l-3.98-2.3s-.1-.02-.15,0l-.59.34s-.05.06-.01.09l3.98,2.3s.1.02.15,0l.59-.34s.05-.06.01-.09Z"/><path class="cls-26" d="M41.21,32.34l-.62-.36s-.1-.02-.15,0l-.59.34s-.05.06-.01.09l.62.36s.1.02.15,0l.59-.34s.05-.06.01-.09Z"/><path class="cls-26" d="M42.23,32.93l-.8-.46s-.1-.02-.15,0l-.59.34s-.05.06-.01.09l.8.46s.1.02.15,0l.59-.34s.05-.06.01-.09Z"/><path class="cls-26" d="M47.67,36.06l.62.36s.03.06-.01.09l-.59.34s-.11.03-.15,0l-.62-.36s-.03-.06.01-.09l.59-.34s.11-.03.15,0Z"/><path class="cls-26" d="M46.65,35.47l.8.46s.03.06-.01.09l-.59.34s-.11.03-.15,0l-.8-.46s-.03-.06.01-.09l.59-.34s.11-.03.15,0Z"/><path class="cls-26" d="M38.69,30.88l-.62-.36s-.1-.02-.15,0l-.59.34s-.05.06-.01.09l.62.36s.1.02.15,0l.59-.34s.05-.06.01-.09Z"/><path class="cls-26" d="M39.53,31.37l-.62-.36s-.1-.02-.15,0l-.59.34s-.05.06-.01.09l.62.36s.1.02.15,0l.59-.34s.05-.06.01-.09Z"/><path class="cls-26" d="M40.37,31.85l-.62-.36s-.1-.02-.15,0l-.59.34s-.05.06-.01.09l.62.36s.1.02.15,0l.59-.34s.05-.06.01-.09Z"/><path class="cls-26" d="M49.97,37.39l-1.47-.85s-.1-.02-.15,0l-.59.34s-.05.06-.01.09l1.47.85s.1.02.15,0l.59-.34s.05-.06.01-.09Z"/><path class="cls-26" d="M52.78,35.07l.62.36s.1.02.15,0l.3-.17s.05-.06.01-.09l-.62-.36s-.1-.02-.15,0l-.3.17s-.05.06-.01.09Z"/><path class="cls-26" d="M51.94,34.58l.62.36s.1.02.15,0l.3-.17s.05-.06.01-.09l-.62-.36s-.1-.02-.15,0l-.3.17s-.05.06-.01.09Z"/><path class="cls-26" d="M51.1,34.1l.62.36s.1.02.15,0l.3-.17s.05-.06.01-.09l-.62-.36s-.1-.02-.15,0l-.3.17s-.05.06-.01.09Z"/><path class="cls-26" d="M50.26,33.61l.62.36s.1.02.15,0l.3-.17s.05-.06.01-.09l-.62-.36s-.1-.02-.15,0l-.3.17s-.05.06-.01.09Z"/><path class="cls-26" d="M49.42,33.13l.62.36s.1.02.15,0l.3-.17s.05-.06.01-.09l-.62-.36s-.1-.02-.15,0l-.3.17s-.05.06-.01.09Z"/><path class="cls-26" d="M48.58,32.65l.62.36s.1.02.15,0l.3-.17s.05-.06.01-.09l-.62-.36s-.1-.02-.15,0l-.3.17s-.05.06-.01.09Z"/><path class="cls-26" d="M47.74,32.16l.62.36s.1.02.15,0l.3-.17s.05-.06.01-.09l-.62-.36s-.1-.02-.15,0l-.3.17s-.05.06-.01.09Z"/><path class="cls-26" d="M46.9,31.68l.62.36s.1.02.15,0l.3-.17s.05-.06.01-.09l-.62-.36s-.1-.02-.15,0l-.3.17s-.05.06-.01.09Z"/><path class="cls-26" d="M46.06,31.19l.62.36s.1.02.15,0l.3-.17s.05-.06.01-.09l-.62-.36s-.1-.02-.15,0l-.3.17s-.05.06-.01.09Z"/><path class="cls-26" d="M45.22,30.71l.62.36s.1.02.15,0l.3-.17s.05-.06.01-.09l-.62-.36s-.1-.02-.15,0l-.3.17s-.05.06-.01.09Z"/><path class="cls-26" d="M44.39,30.22l.62.36s.1.02.15,0l.3-.17s.05-.06.01-.09l-.62-.36s-.1-.02-.15,0l-.3.17s-.05.06-.01.09Z"/><path class="cls-26" d="M43.55,29.74l.62.36s.1.02.15,0l.3-.17s.05-.06.01-.09l-.62-.36s-.1-.02-.15,0l-.3.17s-.05.06-.01.09Z"/><path class="cls-26" d="M42.71,29.26l.62.36s.1.02.15,0l.3-.17s.05-.06.01-.09l-.62-.36s-.1-.02-.15,0l-.3.17s-.05.06-.01.09Z"/><path class="cls-26" d="M41.49,28.55l1,.58s.1.02.15,0l.3-.17s.05-.06.01-.09l-1-.58s-.1-.02-.15,0l-.3.17s-.05.06-.01.09Z"/><path class="cls-42" d="M51.94,35.51l.62.36s.1.02.15,0l.59-.34s.05-.06.01-.09l-.62-.36s-.1-.02-.15,0l-.59.34s-.05.06-.01.09Z"/><path class="cls-42" d="M51.1,35.02l.62.36s.1.02.15,0l.59-.34s.05-.06.01-.09l-.62-.36s-.1-.02-.15,0l-.59.34s-.05.06-.01.09Z"/><path class="cls-42" d="M50.26,34.54l.62.36s.1.02.15,0l.59-.34s.05-.06.01-.09l-.62-.36s-.1-.02-.15,0l-.59.34s-.05.06-.01.09Z"/><path class="cls-42" d="M49.42,34.05l.62.36s.1.02.15,0l.59-.34s.05-.06.01-.09l-.62-.36s-.1-.02-.15,0l-.59.34s-.05.06-.01.09Z"/><path class="cls-42" d="M48.59,33.57l.62.36s.1.02.15,0l.59-.34s.05-.06.01-.09l-.62-.36s-.1-.02-.15,0l-.59.34s-.05.06-.01.09Z"/><path class="cls-42" d="M47.75,33.09l.62.36s.1.02.15,0l.59-.34s.05-.06.01-.09l-.62-.36s-.1-.02-.15,0l-.59.34s-.05.06-.01.09Z"/><path class="cls-42" d="M46.91,32.6l.62.36s.1.02.15,0l.59-.34s.05-.06.01-.09l-.62-.36s-.1-.02-.15,0l-.59.34s-.05.06-.01.09Z"/><path class="cls-42" d="M46.07,32.12l.62.36s.1.02.15,0l.59-.34s.05-.06.01-.09l-.62-.36s-.1-.02-.15,0l-.59.34s-.05.06-.01.09Z"/><path class="cls-42" d="M45.23,31.63l.62.36s.1.02.15,0l.59-.34s.05-.06.01-.09l-.62-.36s-.1-.02-.15,0l-.59.34s-.05.06-.01.09Z"/><path class="cls-42" d="M44.39,31.15l.62.36s.1.02.15,0l.59-.34s.05-.06.01-.09l-.62-.36s-.1-.02-.15,0l-.59.34s-.05.06-.01.09Z"/><path class="cls-42" d="M43.55,30.66l.62.36s.1.02.15,0l.59-.34s.05-.06.01-.09l-.62-.36s-.1-.02-.15,0l-.59.34s-.05.06-.01.09Z"/><path class="cls-42" d="M42.71,30.18l.62.36s.1.02.15,0l.59-.34s.05-.06.01-.09l-.62-.36s-.1-.02-.15,0l-.59.34s-.05.06-.01.09Z"/><path class="cls-42" d="M41.87,29.69l.62.36s.1.02.15,0l.59-.34s.05-.06.01-.09l-.62-.36s-.1-.02-.15,0l-.59.34s-.05.06-.01.09Z"/><path class="cls-42" d="M40.66,28.99l1,.58s.1.02.15,0l.59-.34s.05-.06.01-.09l-1-.58s-.1-.02-.15,0l-.59.34s-.05.06-.01.09Z"/><path class="cls-42" d="M41.2,29.4l-.62-.36s-.1-.02-.15,0l-.59.34s-.05.06-.01.09l.62.36s.1.02.15,0l.59-.34s.05-.06.01-.09Z"/><path class="cls-42" d="M42.03,29.88l-.62-.36s-.1-.02-.15,0l-.59.34s-.05.06-.01.09l.62.36s.1.02.15,0l.59-.34s.05-.06.01-.09Z"/><path class="cls-42" d="M42.87,30.37l-.62-.36s-.1-.02-.15,0l-.59.34s-.05.06-.01.09l.62.36s.1.02.15,0l.59-.34s.05-.06.01-.09Z"/><path class="cls-42" d="M43.71,30.85l-.62-.36s-.1-.02-.15,0l-.59.34s-.05.06-.01.09l.62.36s.1.02.15,0l.59-.34s.05-.06.01-.09Z"/><path class="cls-42" d="M44.55,31.33l-.62-.36s-.1-.02-.15,0l-.59.34s-.05.06-.01.09l.62.36s.1.02.15,0l.59-.34s.05-.06.01-.09Z"/><path class="cls-42" d="M45.39,31.82l-.62-.36s-.1-.02-.15,0l-.59.34s-.05.06-.01.09l.62.36s.1.02.15,0l.59-.34s.05-.06.01-.09Z"/><path class="cls-42" d="M46.23,32.3l-.62-.36s-.1-.02-.15,0l-.59.34s-.05.06-.01.09l.62.36s.1.02.15,0l.59-.34s.05-.06.01-.09Z"/><path class="cls-42" d="M47.07,32.79l-.62-.36s-.1-.02-.15,0l-.59.34s-.05.06-.01.09l.62.36s.1.02.15,0l.59-.34s.05-.06.01-.09Z"/><path class="cls-42" d="M47.91,33.27l-.62-.36s-.1-.02-.15,0l-.59.34s-.05.06-.01.09l.62.36s.1.02.15,0l.59-.34s.05-.06.01-.09Z"/><path class="cls-42" d="M48.75,33.76l-.62-.36s-.1-.02-.15,0l-.59.34s-.05.06-.01.09l.62.36s.1.02.15,0l.59-.34s.05-.06.01-.09Z"/><path class="cls-42" d="M49.58,34.24l-.62-.36s-.1-.02-.15,0l-.59.34s-.05.06-.01.09l.62.36s.1.02.15,0l.59-.34s.05-.06.01-.09Z"/><path class="cls-42" d="M50.42,34.72l-.62-.36s-.1-.02-.15,0l-.59.34s-.05.06-.01.09l.62.36s.1.02.15,0l.59-.34s.05-.06.01-.09Z"/><path class="cls-42" d="M51.26,35.21l-.62-.36s-.1-.02-.15,0l-.59.34s-.05.06-.01.09l.62.36s.1.02.15,0l.59-.34s.05-.06.01-.09Z"/><path class="cls-42" d="M52.48,35.91l-1-.58s-.1-.02-.15,0l-.59.34s-.05.06-.01.09l1,.58s.1.02.15,0l.59-.34s.05-.06.01-.09Z"/><path class="cls-42" d="M40.97,30.23l-1.23-.71s-.1-.02-.15,0l-.59.34s-.05.06-.01.09l1.23.71s.1.02.15,0l.59-.34s.05-.06.01-.09Z"/><path class="cls-42" d="M51.64,36.39l-1.23-.71s-.1-.02-.15,0l-.59.34s-.05.06-.01.09l1.23.71s.1.02.15,0l.59-.34s.05-.06.01-.09Z"/><path class="cls-42" d="M41.81,30.71l-.62-.36s-.1-.02-.15,0l-.59.34s-.05.06-.01.09l.62.36s.1.02.15,0l.59-.34s.05-.06.01-.09Z"/><path class="cls-42" d="M42.64,31.2l-.62-.36s-.1-.02-.15,0l-.59.34s-.05.06-.01.09l.62.36s.1.02.15,0l.59-.34s.05-.06.01-.09Z"/><path class="cls-42" d="M43.48,31.68l-.62-.36s-.1-.02-.15,0l-.59.34s-.05.06-.01.09l.62.36s.1.02.15,0l.59-.34s.05-.06.01-.09Z"/><path class="cls-42" d="M44.32,32.16l-.62-.36s-.1-.02-.15,0l-.59.34s-.05.06-.01.09l.62.36s.1.02.15,0l.59-.34s.05-.06.01-.09Z"/><path class="cls-42" d="M45.16,32.65l-.62-.36s-.1-.02-.15,0l-.59.34s-.05.06-.01.09l.62.36s.1.02.15,0l.59-.34s.05-.06.01-.09Z"/><path class="cls-42" d="M46,33.13l-.62-.36s-.1-.02-.15,0l-.59.34s-.05.06-.01.09l.62.36s.1.02.15,0l.59-.34s.05-.06.01-.09Z"/><path class="cls-42" d="M46.84,33.62l-.62-.36s-.1-.02-.15,0l-.59.34s-.05.06-.01.09l.62.36s.1.02.15,0l.59-.34s.05-.06.01-.09Z"/><path class="cls-42" d="M47.68,34.1l-.62-.36s-.1-.02-.15,0l-.59.34s-.05.06-.01.09l.62.36s.1.02.15,0l.59-.34s.05-.06.01-.09Z"/><path class="cls-42" d="M48.52,34.59l-.62-.36s-.1-.02-.15,0l-.59.34s-.05.06-.01.09l.62.36s.1.02.15,0l.59-.34s.05-.06.01-.09Z"/><path class="cls-42" d="M49.36,35.07l-.62-.36s-.1-.02-.15,0l-.59.34s-.05.06-.01.09l.62.36s.1.02.15,0l.59-.34s.05-.06.01-.09Z"/><path class="cls-42" d="M50.2,35.56l-.62-.36s-.1-.02-.15,0l-.59.34s-.05.06-.01.09l.62.36s.1.02.15,0l.59-.34s.05-.06.01-.09Z"/><path class="cls-42" d="M40.55,30.95l-1.64-.95s-.1-.02-.15,0l-.59.34s-.05.06-.01.09l1.64.95s.1.02.15,0l.59-.34s.05-.06.01-.09Z"/><path class="cls-42" d="M41.39,31.43l-.62-.36s-.1-.02-.15,0l-.59.34s-.05.06-.01.09l.62.36s.1.02.15,0l.59-.34s.05-.06.01-.09Z"/><path class="cls-42" d="M42.23,31.92l-.62-.36s-.1-.02-.15,0l-.59.34s-.05.06-.01.09l.62.36s.1.02.15,0l.59-.34s.05-.06.01-.09Z"/><path class="cls-42" d="M43.07,32.4l-.62-.36s-.1-.02-.15,0l-.59.34s-.05.06-.01.09l.62.36s.1.02.15,0l.59-.34s.05-.06.01-.09Z"/><path class="cls-42" d="M43.91,32.89l-.62-.36s-.1-.02-.15,0l-.59.34s-.05.06-.01.09l.62.36s.1.02.15,0l.59-.34s.05-.06.01-.09Z"/><path class="cls-42" d="M44.74,33.37l-.62-.36s-.1-.02-.15,0l-.59.34s-.05.06-.01.09l.62.36s.1.02.15,0l.59-.34s.05-.06.01-.09Z"/><path class="cls-42" d="M45.58,33.86l-.62-.36s-.1-.02-.15,0l-.59.34s-.05.06-.01.09l.62.36s.1.02.15,0l.59-.34s.05-.06.01-.09Z"/><path class="cls-42" d="M46.42,34.34l-.62-.36s-.1-.02-.15,0l-.59.34s-.05.06-.01.09l.62.36s.1.02.15,0l.59-.34s.05-.06.01-.09Z"/><path class="cls-42" d="M47.26,34.82l-.62-.36s-.1-.02-.15,0l-.59.34s-.05.06-.01.09l.62.36s.1.02.15,0l.59-.34s.05-.06.01-.09Z"/><path class="cls-42" d="M48.1,35.31l-.62-.36s-.1-.02-.15,0l-.59.34s-.05.06-.01.09l.62.36s.1.02.15,0l.59-.34s.05-.06.01-.09Z"/><path class="cls-42" d="M48.94,35.79l-.62-.36s-.1-.02-.15,0l-.59.34s-.05.06-.01.09l.62.36s.1.02.15,0l.59-.34s.05-.06.01-.09Z"/><path class="cls-42" d="M50.81,36.87l-1.65-.95s-.1-.02-.15,0l-.59.34s-.05.06-.01.09l1.65.95s.1.02.15,0l.59-.34s.05-.06.01-.09Z"/><path class="cls-42" d="M46.43,35.31l-3.98-2.3s-.1-.02-.15,0l-.59.34s-.05.06-.01.09l3.98,2.3s.1.02.15,0l.59-.34s.05-.06.01-.09Z"/><path class="cls-42" d="M41.21,32.29l-.62-.36s-.1-.02-.15,0l-.59.34s-.05.06-.01.09l.62.36s.1.02.15,0l.59-.34s.05-.06.01-.09Z"/><path class="cls-42" d="M42.23,32.88l-.8-.46s-.1-.02-.15,0l-.59.34s-.05.06-.01.09l.8.46s.1.02.15,0l.59-.34s.05-.06.01-.09Z"/><path class="cls-42" d="M47.67,36.02l.62.36s.03.06-.01.09l-.59.34s-.11.03-.15,0l-.62-.36s-.03-.06.01-.09l.59-.34s.11-.03.15,0Z"/><path class="cls-42" d="M46.65,35.43l.8.46s.03.06-.01.09l-.59.34s-.11.03-.15,0l-.8-.46s-.03-.06.01-.09l.59-.34s.11-.03.15,0Z"/><path class="cls-42" d="M38.69,30.84l-.62-.36s-.1-.02-.15,0l-.59.34s-.05.06-.01.09l.62.36s.1.02.15,0l.59-.34s.05-.06.01-.09Z"/><path class="cls-42" d="M39.53,31.32l-.62-.36s-.1-.02-.15,0l-.59.34s-.05.06-.01.09l.62.36s.1.02.15,0l.59-.34s.05-.06.01-.09Z"/><path class="cls-42" d="M40.37,31.81l-.62-.36s-.1-.02-.15,0l-.59.34s-.05.06-.01.09l.62.36s.1.02.15,0l.59-.34s.05-.06.01-.09Z"/><path class="cls-42" d="M49.97,37.35l-1.47-.85s-.1-.02-.15,0l-.59.34s-.05.06-.01.09l1.47.85s.1.02.15,0l.59-.34s.05-.06.01-.09Z"/><path class="cls-42" d="M52.78,35.03l.62.36s.1.02.15,0l.3-.17s.05-.06.01-.09l-.62-.36s-.1-.02-.15,0l-.3.17s-.05.06-.01.09Z"/><path class="cls-42" d="M51.94,34.54l.62.36s.1.02.15,0l.3-.17s.05-.06.01-.09l-.62-.36s-.1-.02-.15,0l-.3.17s-.05.06-.01.09Z"/><path class="cls-42" d="M51.1,34.06l.62.36s.1.02.15,0l.3-.17s.05-.06.01-.09l-.62-.36s-.1-.02-.15,0l-.3.17s-.05.06-.01.09Z"/><path class="cls-42" d="M50.26,33.57l.62.36s.1.02.15,0l.3-.17s.05-.06.01-.09l-.62-.36s-.1-.02-.15,0l-.3.17s-.05.06-.01.09Z"/><path class="cls-42" d="M49.42,33.09l.62.36s.1.02.15,0l.3-.17s.05-.06.01-.09l-.62-.36s-.1-.02-.15,0l-.3.17s-.05.06-.01.09Z"/><path class="cls-42" d="M48.58,32.6l.62.36s.1.02.15,0l.3-.17s.05-.06.01-.09l-.62-.36s-.1-.02-.15,0l-.3.17s-.05.06-.01.09Z"/><path class="cls-42" d="M47.74,32.12l.62.36s.1.02.15,0l.3-.17s.05-.06.01-.09l-.62-.36s-.1-.02-.15,0l-.3.17s-.05.06-.01.09Z"/><path class="cls-42" d="M46.9,31.64l.62.36s.1.02.15,0l.3-.17s.05-.06.01-.09l-.62-.36s-.1-.02-.15,0l-.3.17s-.05.06-.01.09Z"/><path class="cls-42" d="M46.06,31.15l.62.36s.1.02.15,0l.3-.17s.05-.06.01-.09l-.62-.36s-.1-.02-.15,0l-.3.17s-.05.06-.01.09Z"/><path class="cls-42" d="M45.22,30.67l.62.36s.1.02.15,0l.3-.17s.05-.06.01-.09l-.62-.36s-.1-.02-.15,0l-.3.17s-.05.06-.01.09Z"/><path class="cls-42" d="M44.39,30.18l.62.36s.1.02.15,0l.3-.17s.05-.06.01-.09l-.62-.36s-.1-.02-.15,0l-.3.17s-.05.06-.01.09Z"/><path class="cls-42" d="M43.55,29.7l.62.36s.1.02.15,0l.3-.17s.05-.06.01-.09l-.62-.36s-.1-.02-.15,0l-.3.17s-.05.06-.01.09Z"/><path class="cls-42" d="M42.71,29.21l.62.36s.1.02.15,0l.3-.17s.05-.06.01-.09l-.62-.36s-.1-.02-.15,0l-.3.17s-.05.06-.01.09Z"/><path class="cls-42" d="M41.49,28.51l1,.58s.1.02.15,0l.3-.17s.05-.06.01-.09l-1-.58s-.1-.02-.15,0l-.3.17s-.05.06-.01.09Z"/><path class="cls-9" d="M38.36,36.07l2.02,1.17c.05.03.05.08,0,.11l-2.22-1.28c.05-.03.14-.03.2,0Z"/><polygon class="cls-26" points="43.19 28.39 53.67 34.44 53.81 34.36 43.33 28.31 43.19 28.39"/><path class="cls-35" d="M55.28,34.52v-9.37c0-.53-.17-.78-.51-.98l-12.39-7.15c-.13-.07-.24-.1-.33-.06h0s.21-.12.23-.13h0s0,0,0,0c.09-.03.2,0,.33.06l12.39,7.15c.34.2.51.46.51.98v9.37c0,.25-.07.39-.18.44l-.19.1c.09-.06.14-.2.14-.42Z"/><polygon class="cls-1" points="55.28 25.15 55.28 34.52 55.51 34.39 55.51 25.02 55.28 25.15"/><path class="cls-42" d="M42.38,27.76l12.39,7.15c.28.16.51.07.51-.39v-9.37c0-.53-.17-.78-.51-.98l-12.39-7.15c-.28-.16-.51-.09-.51.39v9.37c0,.61.2.8.51.98Z"/><path class="cls-26" d="M42.34,17.07l12.46,7.19c.23.13.42.45.42.72v9.64c0,.26-.19.37-.42.24l-12.46-7.19c-.23-.13-.42-.45-.42-.72v-9.64c0-.26.19-.37.42-.24Z"/><polygon class="cls-9" points="54.74 33.79 54.74 24.77 42.41 17.66 42.41 26.67 54.74 33.79"/><polygon class="cls-1" points="54.74 24.77 54.74 33.79 42.41 17.66 54.74 24.77"/><path class="cls-1" d="M38.65,34.42l1.71-.99c.1-.06.27-.06.37,0l4.14,2.39c.1.06.1.16,0,.21l-1.71.99-4.52-2.61Z"/><path class="cls-1" d="M40.88,35.78l2.22,1.28-.93.53c-.1.06-.27.06-.37,0l-2.04-1.18,1.11-.64Z"/><path class="cls-1" d="M40.8,35.74l-1.11.64-2.04-1.18c-.1-.06-.1-.16,0-.21l.93-.53,2.22,1.28Z"/><path class="cls-35" d="M38.65,34.45l1.71-.99c.1-.06.27-.06.37,0l4.14,2.39c.1.06.1.16,0,.21l-1.71.99-4.52-2.61Z"/><path class="cls-35" d="M40.88,35.82l2.22,1.28-.93.53c-.1.06-.27.06-.37,0l-2.04-1.18,1.11-.64Z"/><path class="cls-35" d="M40.8,35.78l-1.11.64-2.04-1.18c-.1-.06-.1-.16,0-.21l.93-.53,2.22,1.28Z"/><path class="cls-26" d="M53.2,36.84l.64-.37s.03-.04.03-.06v-.17s-.01-.03-.03-.02l-.64.37s-.03.04-.03.06v.17s.01.03.03.02Z"/><path class="cls-42" d="M53.19,36.83l.64-.37s.03-.04.03-.06v-.17s0-.02,0-.02c.01,0,.02.01.02.03v.17s-.01.05-.03.06l-.64.37s-.02,0-.02,0c0,0,0,0,.01,0Z"/><path class="cls-26" d="M52.37,37.31l.64-.37s.03-.04.03-.06v-.17s-.01-.03-.03-.02l-.64.37s-.03.04-.03.06v.17s.01.03.03.02Z"/><path class="cls-42" d="M52.36,37.3l.64-.37s.03-.04.03-.06v-.17s0-.02,0-.02c.01,0,.02.01.02.03v.17s-.01.05-.03.06l-.64.37s-.02,0-.02,0c0,0,0,0,.01,0Z"/><path class="cls-26" d="M54.43,35.9s-.09.09-.09.15c0,.05.04.08.09.05s.09-.09.09-.15-.04-.08-.09-.05Z"/><path class="cls-42" d="M54.42,36.09s.09-.09.09-.15c0-.01,0-.02,0-.03,0,.01.02.02.02.04,0,.05-.04.12-.09.15-.04.02-.07.01-.08-.02.02.02.04.02.07,0Z"/><polygon class="cls-12" points="53.46 36.72 54.06 36.37 53.82 36.24 53.22 36.58 53.46 36.72"/><polygon class="cls-35" points="53.46 36.72 53.46 36.91 53.22 36.78 53.22 36.58 53.46 36.72"/><path class="cls-13" d="M56.03,37.79h0c.26-.15.29-.37.06-.5l-1.9-1.1-.93.54,1.9,1.1c.22.13.61.11.87-.04Z"/><path class="cls-22" d="M55.16,37.83c.22.13.61.11.87-.04.14-.08.21-.18.21-.28h0v.26c0,.1-.07.2-.21.28-.26.15-.65.16-.87.04l-1.9-1.1v-.26s1.9,1.1,1.9,1.1Z"/><path class="cls-25" d="M29.01,32.41h0s0,0,0,0c0,0,0,0,0,0l6.4-3.7h0s.06-.02.1,0l.68-.14s0,0,0,0c0,0,.01.01.01.02,0,0,0,0,0,0l-.46.51s-.03.06-.05.08h0s-6.39,3.68-6.39,3.68h0s-.09.04-.16,0c-.11-.06-.19-.21-.19-.33,0-.06.02-.1.05-.12Z"/><path class="cls-13" d="M35.34,28.65l.73-.15s0,0,0,0c0,0,.01.01.01.02,0,0,0,0,0,0l-.5.56-.25-.44Z"/><polygon class="cls-39" points="36.08 28.5 36.08 28.51 35.46 28.87 35.34 28.65 36.07 28.5 36.08 28.5"/><path class="cls-22" d="M35.3,28.65h0s.09-.02.14.01c.11.06.19.21.19.33,0,.06-.02.11-.06.12h0s-6.39,3.68-6.39,3.68l-.29-.45,6.41-3.7Z"/><path class="cls-13" d="M29.04,32.58l-.15-.23,6.41-3.7h0s.09-.02.14.01c.05.03.1.08.14.14l-6.54,3.77Z"/><path class="cls-37" d="M29.03,32.36c-.11-.06-.19-.01-.19.11s.09.27.19.33c.11.06.19.01.19-.11s-.09-.27-.19-.33Z"/><path class="cls-25" d="M45.54,43.13l2.16,1.25c.22.13.61.11.87-.04l5.54-3.2c.26-.15.28-.37.06-.5l-2.16-1.25c-.22-.13-.61-.11-.87.04l-5.54,3.2c-.26.15-.28.37-.06.5Z"/><path class="cls-46" d="M45.54,42.63l2.16,1.25c.22.13.61.11.87-.04l5.54-3.2c.26-.15.28-.37.06-.5l-2.16-1.25c-.22-.13-.61-.11-.87.04l-5.54,3.2c-.26.15-.28.37-.06.5Z"/><path class="cls-40" d="M45.4,42.31c.03-.07.1-.14.2-.19l5.54-3.2c.14-.08.32-.12.5-.12.15,0,.29.03.39.09l2.16,1.25c.06.04.11.08.13.13h0s0,0,0,0c.04.07.05.17.05.3,0,.2-.08.31-.08.31h0c-.03.06-.09.12-.18.16l-5.54,3.2c-.26.15-.65.16-.87.04l-2.16-1.25c-.05-.03-.09-.07-.12-.1h0s-.08-.11-.08-.31c0-.2.05-.3.05-.3Z"/><path class="cls-12" d="M45.54,42.63l2.16,1.25c.22.13.61.11.87-.04l5.54-3.2c.26-.15.28-.37.06-.5l-2.16-1.25c-.22-.13-.61-.11-.87.04l-5.54,3.2c-.26.15-.28.37-.06.5Z"/><polygon class="cls-1" points="47.7 44.28 47.7 43.88 45.54 42.63 45.54 43.03 47.7 44.28"/><polygon class="cls-12" points="45.54 43.03 45.64 43.09 45.64 42.69 45.54 42.63 45.54 43.03"/><polygon class="cls-12" points="47.59 44.22 47.7 44.28 47.7 43.88 47.59 43.82 47.59 44.22"/><path class="cls-26" d="M47.39,44s-.08-.09-.08-.14l.09-.05s.08.09.08.14l-.05.06h-.04Z"/><path class="cls-9" d="M47.35,43.8s.02,0,.04.01c.04.03.08.09.08.14,0,.04-.02.06-.04.06-.01,0-.02,0-.04-.01-.04-.03-.08-.09-.08-.14,0-.04.02-.06.04-.06M47.35,43.79s-.06.03-.06.07c0,.06.04.12.09.15.01,0,.03.01.04.01.03,0,.06-.03.06-.07,0-.06-.04-.12-.09-.15-.01,0-.03-.01-.04-.01h0Z"/><path class="cls-26" d="M46.76,43.63l-.34-.19s-.08-.09-.08-.14l.09-.05.34.19s.08.09.08.14l-.05.06h-.04Z"/><path class="cls-9" d="M46.39,43.24s.02,0,.04.01l.34.19s.08.09.08.14c0,.04-.02.06-.04.06-.01,0-.02,0-.04-.01l-.34-.19s-.08-.09-.08-.14c0-.04.02-.06.04-.06M46.39,43.23s-.06.03-.06.07c0,.06.04.12.09.15l.34.19s.03.01.04.01c.03,0,.06-.03.06-.07,0-.06-.04-.12-.09-.15l-.34-.19s-.03-.01-.04-.01h0Z"/><path class="cls-26" d="M45.96,43.12h.01s.02,0,.02,0v-.04s0-.02-.01-.02h-.01s-.02,0-.02,0v.04s0,.02.01.02Z"/><path class="cls-26" d="M45.89,43.08h.01s.02,0,.02,0v-.04s0-.02-.01-.02h-.01s-.02,0-.02,0v.04s0,.02.01.02Z"/><path class="cls-26" d="M45.83,43.04h.01s.02,0,.02,0v-.04s0-.02-.01-.02h-.01s-.02,0-.02,0v.04s0,.02.01.02Z"/><path class="cls-26" d="M45.76,43h.01s.02,0,.02,0v-.04s0-.02-.01-.02h-.01s-.02,0-.02,0v.04s0,.02.01.02Z"/><path class="cls-26" d="M45.69,42.96h.01s.02,0,.02,0v-.04s0-.02-.01-.02h-.01s-.02,0-.02,0v.04s0,.02.01.02Z"/><path class="cls-26" d="M52.66,39.49s-.02.02,0,.03l.41.24s.02,0,.02,0h0s.02-.03,0-.03l-.41-.24s-.02,0-.02,0h0Z"/><path class="cls-26" d="M52.24,39.25s-.03.05,0,.07c.03.02.08.02.12,0s.03-.05,0-.07c-.03-.02-.08-.02-.12,0Z"/><path class="cls-26" d="M53.51,39.98s-.08.02-.12,0c-.03-.02-.03-.05,0-.07s.08-.02.12,0c.03.02.03.05,0,.07Z"/><path class="cls-9" d="M45.92,42.45l2.06,1.19c.22.13.6.11.85-.04l4.86-2.81c.25-.15.28-.36.06-.49l-2.06-1.19c-.22-.13-.6-.11-.85.04l-4.86,2.81c-.25.15-.28.36-.06.49Z"/><path class="cls-1" d="M50.84,39.15c.25-.15.63-.16.85-.04l2.06,1.19c.22.13.19.35-.06.49l-1.53.88-1.74-2.28.42-.24Z"/><path class="cls-18" d="M47.17,42.84l-.05.03s-.03.04,0,.06l.05.03"/><path class="cls-18" d="M47.23,42.95l.05-.03s.03-.04,0-.06l-.05-.03"/><polyline class="cls-19" points="46.39 42.5 46.52 42.5 46.52 42.43"/><line class="cls-19" x1="46.52" y1="42.5" x2="46.4" y2="42.43"/><path class="cls-20" d="M48.02,43.35l-.08-.04s-.03-.04,0-.05h0"/><path class="cls-20" d="M47.86,43.3l.08.04s.03.04,0,.05h0"/><path class="cls-26" d="M53.75,40.32l-2.06-1.19c-.22-.13-.6-.11-.85.04l-4.86,2.81c-.13.08-.2.18-.21.27,0-.1.07-.2.21-.29l4.86-2.81c.25-.15.63-.16.85-.04l2.06,1.19c.1.06.15.14.15.22,0-.08-.05-.15-.15-.2Z"/><polygon class="cls-1" points="48.57 43.84 48.57 44.24 54.1 41.05 54.1 40.65 48.57 43.84"/><path class="cls-40" d="M52.27,41.93s-.02.06-.04.08l-.34.2s-.04,0-.04-.03c0-.03.02-.06.04-.08l.34-.2s.04,0,.04.03Z"/><path class="cls-9" d="M51.81,42.16s.02-.06.04-.08l.34-.2s.02,0,.03,0h0s.03.02.03.02c0,0-.02,0-.03,0l-.34.2s-.04.05-.04.08c0,.01,0,.02.01.03h-.03s0-.01,0-.01c0,0-.01-.01-.01-.03Z"/><path class="cls-40" d="M53.63,41.14s-.02.06-.04.08l-.95.55s-.04,0-.04-.03.02-.06.04-.08l.95-.55s.04,0,.04.03Z"/><path class="cls-9" d="M52.56,41.72s.02-.06.04-.08l.95-.55s.02,0,.03,0h0l.03.02s-.02,0-.03,0l-.95.55s-.04.05-.04.08c0,.01,0,.02.01.03h-.03s0-.01,0-.01c0,0-.01-.01-.01-.03Z"/><path class="cls-25" d="M59.27,39.82c-1.06.61-1.05,1.6.01,2.22,1.06.61,2.78.62,3.84,0,1.06-.61,1.05-1.6-.01-2.22-1.06-.61-2.78-.62-3.84,0Z"/><path class="cls-30" d="M59.27,39.69c-1.06.61-1.05,1.6.01,2.22,1.06.61,2.78.62,3.84,0,1.06-.61,1.05-1.6-.01-2.22-1.06-.61-2.78-.62-3.84,0Z"/><path class="cls-30" d="M59.27,39.57c-1.06.61-1.05,1.6.01,2.22,1.06.61,2.78.62,3.84,0s1.05-1.6-.01-2.22c-1.06-.61-2.78-.62-3.84,0Z"/><path class="cls-25" d="M59.65,39.85c.85-.49,2.23-.49,3.08,0,.65.38.81.93.47,1.39l.76.44c.14.08.12.22-.04.32-.16.09-.41.1-.55.02l-.65-.38c-.85.47-2.21.47-3.05-.02-.85-.49-.86-1.29,0-1.78Z"/><path class="cls-37" d="M59.65,35.92c-.85.49-.84,1.28,0,1.78.85.49,2.23.49,3.08,0,.85-.49.84-1.28,0-1.78-.85-.49-2.23-.49-3.08,0Z"/><path class="cls-51" d="M59.02,36.81h4.35s0,3.88,0,3.88c0,.32-.21.65-.63.89-.85.49-2.23.49-3.08,0-.42-.25-.64-.57-.64-.89v-3.88Z"/><path class="cls-32" d="M59.65,35.92c-.85.49-.84,1.28,0,1.78.85.49,2.23.49,3.08,0,.85-.49.84-1.28,0-1.78-.85-.49-2.23-.49-3.08,0Z"/><path class="cls-45" d="M59.65,36.76c.85-.49,2.23-.49,3.08,0,.24.14.41.3.52.48-.1.17-.27.33-.51.47-.85.49-2.23.49-3.08,0-.24-.14-.41-.3-.52-.48.1-.17.27-.33.51-.47Z"/><path class="cls-8" d="M61.18,35.68c.56,0,1.09.13,1.49.35.38.22.58.5.58.79s-.2.57-.57.78c-.39.22-.91.35-1.47.35s-1.09-.13-1.49-.35c-.38-.22-.58-.5-.58-.79s.2-.57.57-.78c.39-.23.91-.35,1.47-.35M61.18,35.56c-.55,0-1.11.12-1.53.37-.85.49-.84,1.28,0,1.78.43.25.99.37,1.55.37s1.11-.12,1.53-.37c.85-.49.84-1.28,0-1.78-.43-.25-.99-.37-1.55-.37h0Z"/><path class="cls-8" d="M63.48,41.57c.11,0,.22-.03.32-.08.21-.12.33-.35.33-.64v-1.65c0-.43-.28-.91-.65-1.13l-.54-.31-.4.69.54.31c.13.07.26.29.26.44v1.49s-.4-.23-.4-.23l-.4.69.54.31c.13.08.27.12.4.12Z"/><path class="cls-8" d="M62.74,40.47c-.16.09-.28.31-.28.49s.13.25.28.16.28-.31.28-.49c0-.18-.13-.25-.28-.16Z"/><path class="cls-8" d="M62.74,37.78c-.16.09-.28.31-.28.49,0,.18.13.25.28.16.16-.09.28-.31.28-.49,0-.18-.13-.25-.28-.16Z"/><path class="cls-44" d="M19.14,60.88l5.93-3.92,3.71,11.15,3.78-.16,2.03-2.79,5.26-13.86-.99-3.45c2.57-.38,5.48-3.23,1.75-5.59-1.33-.84-2.91-5.48-5.2-7.34-2.57-2.08-6.57-4.38-6.63-5.48.94-1.72,2.46,1.75,3.45-5.26.12-.84.33-1.86-.16-3.07-.82-3.07-6.42-3.44-8.05-1.64-1.63,1.35-1.34,2.64-1.21,4.27.07.9.9,2.39.96,3.56-.62.27-1.45.73-1.75,1.05-.44.45-3.08.9-4.02,1.8-.94.9-2.21,2.69-1.96,4.27.25,1.57-.87,5.52-.81,7.92.06,2.4,3.4,16.97,3.9,18.55Z"/><path class="cls-38" d="M9.85,75.13c0,.69.56,1.25,1.25,1.25s1.25-.56,1.25-1.25c0-.32-.12-.61-.31-.83-.02-.02-.03-.04-.05-.05l-1.65-.11c-.3.23-.49.59-.49.99Z"/><path class="cls-14" d="M12.13,74.25c.88-.37,1.84-.69,2.56-.77,1.16-.12,3.42-.12,4.7.19.38-.31.78-.57,1.17-.8-4.8-1.41-9.01.57-10.34,1.25h.11s1.65.12,1.65.12h.14Z"/><path class="cls-38" d="M33.56,73.87c-.1.18-.15.37-.15.58s.56,1.25,1.25,1.25,1.25-.57,1.25-1.25c0-.32-.12-.62-.33-.84l-1.99.17s-.03.05-.04.08Z"/><path class="cls-14" d="M34.71,73.21c-4.2-1.32-8.83-.82-9.88-.56.53.27,1.03.58,1.5.91,1.29-.32,2.93-.19,4.23-.03.87.09,1.81.16,2.73.3l.31-.04,1.99-.17.22-.02c-.15-.05-.28-.12-.42-.16-.22-.09-.45-.16-.68-.23Z"/><path class="cls-44" d="M34.9,64.73c-.15,2.06-4.41,3.72-6.29,3.07-.02.17-.06.34-.09.52h.05c1.2,1.8,8.25-1.55,8.25-1.55.81-.4,1.64-.99,1.33-1.88l.04-.04c-1-.77-2.31-.12-3.28-.53,0,.16-.01.29-.02.41Z"/><path class="cls-50" d="M16.16,81.71s.04-.03.06-.05c-.02,0-.03,0-.04,0-.01.02-.02.04-.02.06Z"/><path class="cls-38" d="M16.16,81.71s0-.04.02-.06c-.6-.14-1.18-.29-1.72-.47-.17.23-.26.52-.26.83,0,.8.64,1.45,1.44,1.45s1.44-.66,1.44-1.45c0-.07,0-.13-.01-.19-.03-.21-.1-.4-.2-.56,0,0,0-.02-.01-.03-.23.11-.4.26-.63.43-.02.02-.04.03-.06.05Z"/><path class="cls-14" d="M22.88,73.28c-2.09,1.35-5.13,4.25-6.42,7.55-.1.27-.2.54-.28.82,0,0,.02,0,.04,0,.22-.17.4-.32.63-.43.01-.01.03-.02.05-.03.74-1.14,1.83-2.85,2.69-3.96.89-1.15,2.3-2.04,3.5-2.91,0,0,0,0,0-.01-.04-.32-.04-.66-.04-.98-.06-.02-.11-.04-.17-.07Z"/><path class="cls-41" d="M22.88,73.26c-.91.07-1.79-.08-2.32-.39-.39.23-.79.49-1.17.8-2.41,1.89-4.63,5.2-4.98,7.5.01,0,.03.01.04.01.54.18,1.12.33,1.72.47.07-.28.18-.55.28-.82,1.3-3.31,4.34-6.21,6.42-7.55h0s0-.01,0-.01Z"/><path class="cls-41" d="M23.29,73.21c-.13.02-.27.04-.4.05h0c.06.04.11.06.17.08,2.17.94,4.69,4.27,5.95,6.83.14.29.27.57.38.84.03.07.06.13.08.2.05-.01.1-.03.15-.05.45-.13.89-.27,1.3-.43.15-.06.3-.12.46-.18-.99-2.89-2.7-5.35-5.04-7.01-.48-.34-.98-.64-1.5-.91h0c-.34.26-.88.47-1.54.56Z"/><path class="cls-7" d="M29,80.18c-1.26-2.56-3.78-5.9-5.95-6.83,0,.31,0,.66.04.98,1,.79,1.9,1.69,2.82,2.75.46.53,2.08,2.59,2.56,3.43.02.01.05.03.07.04.26.14.59.33.84.48-.11-.27-.24-.55-.38-.84Z"/><path class="cls-38" d="M29.62,81.17s-.1.03-.15.05c-.02-.07-.05-.13-.08-.2-.24-.15-.58-.34-.84-.48-.01.01-.02.03-.03.04-.19.24-.3.55-.3.88,0,.02,0,.04,0,.07.04.76.67,1.37,1.44,1.37s1.44-.65,1.44-1.44c0-.26-.07-.51-.19-.72-.41.15-.85.29-1.3.43Z"/><path class="cls-41" d="M25.15,71.71c.18.32.05.66-.32.94,1.05-.26,5.68-.76,9.88.56.22.07.46.15.67.23.14.05.28.11.42.16.01,0,.02,0,.03.01,0,0,0-.01,0-.02-.08-.1-.16-.2-.24-.3-.26-.3-.57-.58-.92-.84-1.19-.52-2.38-.88-3.58-1.13-.36-.07-.72-.13-1.08-.18-.07-.01-.14-.02-.21-.03-1.66-.22-3.29-.21-4.85-.07-.23.01-.45.04-.67.07.42.13.74.34.88.6Z"/><path class="cls-14" d="M24.04,71.04c.07.01.15.04.22.07h0c.22-.03.45-.06.67-.07v-.03s.05-.11.08-.17h0v-1.07c-.51.15-.82.67-.98,1.26Z"/><path class="cls-41" d="M20.13,72.47c-.21-.36-.01-.74.45-1.04l-.02-.04c-1.63-.47-5.2-.36-7.67.68,0,0,0,.01,0,.01-1.14.6-2.06,1.29-2.67,2.03h0c1.33-.69,5.54-2.66,10.34-1.25-.2-.11-.35-.25-.44-.4Z"/><path class="cls-16" d="M25.15,71.71c-.15-.26-.46-.47-.88-.6h0c-.07-.03-.15-.06-.22-.07-.01,0-.02,0-.04-.01-.16-.04-.33-.07-.51-.09v.29c.21.06.38.15.48.26.03.03.05.06.07.08.15.27-.08.54-.55.71-.14.05-.3.1-.49.12-.55.09-1.12.02-1.47-.16-.13-.07-.23-.16-.29-.25-.08-.13-.05-.28.06-.41.05-.07.13-.13.23-.18v-.36c-.09.02-.18.05-.26.07-.27.08-.5.19-.69.31-.47.29-.66.68-.45,1.04.09.15.23.29.44.4.53.31,1.4.46,2.31.39h0c.13-.01.27-.03.4-.05.66-.1,1.2-.3,1.54-.56h0c.36-.28.5-.62.32-.94Z"/><path class="cls-7" d="M21.25,72c.06.1.16.19.29.25.35.18.91.25,1.47.16.18-.02.35-.07.49-.12.46-.17.69-.44.55-.71-.02-.03-.04-.05-.07-.08-.1-.11-.27-.2-.48-.26v.57c-.14.05-.3.1-.49.12-.55.08-1.12.01-1.47-.16v-.34c-.1.05-.17.11-.23.18-.11.13-.14.27-.06.41Z"/><path class="cls-44" d="M37.31,54.97c-.07.57-.21,1.18-.4,1.82.72-.1,2.72-.55,3.28-1.06h0c.91-.49,1.2-1.69,1.42-2.63l-3.43,1.5-.86.37Z"/><path class="cls-3" d="M42.1,51.56l-5.25,2.3-4.12,1.81c-.61.26-1.61.09-2.26-.38-.54-.4-.66-.87-.33-1.17-.58.28-.44,2.08.19,2.55.4.29.93.46,1.42.49.31.02.61-.02.84-.12l1.02-.45,3.7-1.62.86-.37,3.43-1.5.37-.16c.45-.19.54-1.3.54-1.82-.04.18-.17.34-.41.45Z"/><path class="cls-49" d="M29.08,59.16c.85.39,1.81-.1,2.71-.5.05-.53.04-1.03-.03-1.51-.49-.03-1.03-.21-1.42-.49-.64-.47-.78-2.27-.19-2.55,0,0,.01-.01.01-.01.06-.05.14-.11.23-.15l.36-.16-.07-.16c-.26.12-.51.22-.77.31-.35.12-.71.22-1.05.3l.22,4.93Z"/><path class="cls-4" d="M39.32,61.6c.18-.33.28-.77.38-1.18l-4.38,2.03-1.72.79c-.47.67-.97,1.27-1.43,1.74l2.9-1.37,1.75-.82,1.4-.66,1.1-.52Z"/><path class="cls-27" d="M30.16,54.1s-.01,0-.01.01c-.33.3-.21.78.33,1.17.65.47,1.65.64,2.26.38l4.12-1.81,5.25-2.3c.24-.1.38-.27.41-.45,0-.13,0-.22-.01-.25,0-.01,0-.02,0-.02-.01-.04-.04-.1-.06-.15-.08-.15-.22-.32-.42-.45-.37-.28-.87-.45-1.34-.49-.34-.03-.67,0-.92.11l-5.64,2.46-.61.27-.37.16-2.39,1.05-.36.16c-.09.04-.17.09-.23.15Z"/><path class="cls-3" d="M33.6,63.23l1.72-.79,4.38-2.03,1.06-.49s.66-.61.73-2.21c.08-1.6-.92-1.76-.92-1.76l-4.03,1.88c-.72,1.87-1.81,3.84-2.94,5.4Z"/><path class="cls-4" d="M39.24,47.63s.01,0,.02-.01c0,0,0,0-.01,0,0,0,0,.01,0,.01Z"/><path class="cls-27" d="M36.54,57.83c.14-.35.25-.69.36-1.03.19-.64.33-1.25.4-1.82l-3.7,1.62c-.05.91-.22,1.87-.48,2.83-.48,1.81-1.28,3.61-2.23,5.07-.42.65-.87,1.23-1.33,1.71-.12.12-.23.23-.35.34l2.77-1.39c.06-.06.12-.12.18-.18.46-.47.95-1.07,1.43-1.74,1.13-1.56,2.22-3.53,2.94-5.4Z"/><path class="cls-4" d="M36.54,57.83l4.03-1.88-.38-.22c-.56.52-2.56.97-3.28,1.06-.11.34-.23.68-.36,1.03Z"/><path class="cls-21" d="M33.29,51.34s-.01.02-.03.03c0,.03.01.07.01.11.01-.05.01-.09.01-.14Z"/><path class="cls-4" d="M32.76,34.49s-.08.05-.12.09c.14-.07.27-.14.4-.19,0,0,.02,0,.02-.01-.09.02-.19.06-.28.1,0,0-.01.01-.03.01Z"/><path class="cls-4" d="M29.08,59.16l.09,2.08-.02.03,2.36-1.1c.13-.51.23-1.02.28-1.51-.9.4-1.86.89-2.71.5Z"/><path class="cls-4" d="M29.37,65.2l-1.62.74-1.64.76-.11,1.17,1.93-.91,1.3-.61.11-1.11s.01-.03.03-.04Z"/><path class="cls-23" d="M30.9,64.49c.95-1.45,1.74-3.26,2.23-5.07.26-.96.43-1.92.48-2.83l-1.02.45c-.23.1-.53.14-.84.12.08.47.08.98.03,1.51-.05.49-.15,1.01-.28,1.51-.53,2.05-1.6,4.08-2.14,5.03-.01.01-.02.03-.03.04l-.11,1.11v.19c.1-.11.22-.23.34-.34.46-.48.91-1.06,1.33-1.71Z"/><path class="cls-2" d="M29.02,30.24h0s0,0,.01,0c0,0-.01,0-.01,0Z"/><polygon class="cls-27" points="22.49 64.39 26.11 66.71 26.34 64.33 22.72 62.01 20.87 60.81 12.65 55.54 12.47 57.97 13.12 58.39 20.65 63.2 22.49 64.39"/><path class="cls-16" d="M26.2,28.98c-.16-.07-.33-.15-.48-.23.16.09.34.18.51.27,0-.01-.02-.02-.03-.04Z"/><path class="cls-2" d="M26.17,27.74c-.33-.13-.73-.25-1.13-.34-.25-.06-.49-.11-.72-.15-.16-.03-.31-.05-.45-.08v.05s-.03,0-.04,0h0c-.17.03-.35.32-.53.31v.17s.02,0,.04.01c.31.08.71.23,1.15.44.39.18.81.39,1.24.61.15.08.32.16.48.23.01.01.02.02.03.04.05.02.1.05.14.07.49.25.97.49,1.42.69.09.05.19.09.28.12.35.16.66.27.93.34h0s0,0,0,0c-.01-.02-.03-.03-.04-.04-.04-.06-.08-.11-.1-.16-.11-.2-.13-.4-.23-.63,0,0,0,0-.02-.02-.11-.09-.6-.49-1.16-.89-.44-.32-.93-.62-1.31-.77Z"/><path class="cls-41" d="M21.53,69.82v1.23s0,.36,0,.36v.34c.35.18.91.24,1.47.16.18-.03.35-.07.49-.12v-.85c.18.02.35.05.51.09.01,0,.02.01.04.01.16-.6.47-1.11.98-1.26v-.03c-.5-.03-1.01-.03-1.53-.03l.04-3.44-2-1.31v4.85Z"/><path class="cls-36" d="M22.72,62.01l3.62,2.32-.26-8.24-.45-13.71c0-.2-.03-.41-.07-.61-.06-.33-.15-.65-.28-.97-.33-.81-2.46-2.47-3.2-2.93-.24-.14-.8-.48-1.51-.92-2.19-1.32-5.83-3.54-6.48-3.69-.6-.12-1.21.06-1.69.46,0,0-.02,0-.02.02-.07.06-.13.12-.18.18-.05.08-.08.16-.12.23-.04.06-.08.11-.12.18h0c-.19.36-.3.82-.27,1.39l.73,19.66.26.17,8.22,5.27,1.84,1.2Z"/><polygon class="cls-23" points="22.49 64.39 20.65 63.2 13.12 58.39 13.11 58.4 13.13 59.51 20.54 64.33 21.53 64.97 23.53 66.28 26 67.88 26.11 66.71 22.49 64.39"/><path class="cls-3" d="M12.39,33.71c.49-.4,1.09-.58,1.69-.46.65.16,4.3,2.37,6.48,3.69.71.44,1.27.78,1.51.92.74.45,2.87,2.11,3.2,2.93.13.32.23.64.28.97.04.2.06.41.07.61l.45,13.71.26,8.24-.22,2.38,1.64-.76,1.62-.74c.54-.95,1.61-2.98,2.14-5.03l-2.36,1.1.02-.03-.09-2.08-.22-4.93-.03-.56-.04-.77-.1-2.25-.04-.77-.07-1.52-.2-4.37h0s-.02-.6-.02-.6l-.06-1.38-.04-.8c-.01-.26-.05-.52-.11-.78-.11-.49-.29-.99-.53-1.44-.1-.19-.21-.37-.33-.54-.36-.53-.79-.98-1.27-1.29h0c-.5-.43-1.03-.81-1.49-1.13-2.13-1.46-5.55-3.53-7.92-4.17-.08-.02-.16-.05-.24-.07-.65-.15-1.2-.18-1.62-.05-1,.35-2,1.19-2.56,2.17.06-.07.12-.12.18-.18,0-.01.01-.02.02-.02Z"/><path class="cls-16" d="M12.18,33.92c-.1.13-.19.26-.24.4.04-.06.08-.12.12-.18.03-.07.07-.15.12-.23Z"/></g><g id="wall-book"><polygon class="cls-26" points="61.63 16.99 62.67 17.6 62.67 10.19 61.63 9.59 61.63 16.99"/><path class="cls-42" d="M61.94,16.58c0,.13.09.29.21.36.12.07.21.01.21-.12s-.09-.29-.21-.36c-.12-.07-.21-.01-.21.12Z"/><path class="cls-42" d="M61.94,15.86c0,.13.09.29.21.36.12.07.21.01.21-.12s-.09-.29-.21-.36c-.12-.07-.21-.01-.21.12Z"/><polygon class="cls-28" points="44.95 7.76 57.84 15.14 64.54 11.27 51.66 3.89 44.95 7.76"/><polygon class="cls-45" points="64.54 11.27 64.54 12.45 57.84 16.32 57.84 15.14 64.54 11.27"/><polygon class="cls-33" points="44.95 7.76 44.95 8.93 57.84 16.32 57.84 15.14 44.95 7.76"/><polygon class="cls-25" points="51.8 6.64 50.32 5.79 46.17 8.19 47.65 9.04 51.8 6.64"/><polygon class="cls-25" points="53.55 7.63 52.07 6.78 47.92 9.18 49.4 10.03 53.55 7.63"/><polygon class="cls-25" points="55.37 8.65 53.89 7.8 49.73 10.2 51.21 11.05 55.37 8.65"/><polygon class="cls-33" points="50.53 .12 46.38 2.52 46.38 8.23 50.53 5.84 50.53 .12"/><polygon class="cls-35" points="50.34 .39 46.59 2.56 47.65 3.17 51.4 1.01 50.34 .39"/><polygon class="cls-33" points="51.8 .85 47.65 3.25 47.65 8.97 51.8 6.57 51.8 .85"/><polygon class="cls-43" points="50.53 .12 46.59 2.4 47.65 3.01 51.59 .73 51.8 .85 47.65 3.25 46.17 2.4 50.32 0 50.53 .12"/><polygon class="cls-52" points="46.17 8.11 47.65 8.97 47.65 3.25 46.17 2.4 46.17 8.11"/><polygon class="cls-12" points="46.27 7.16 47.51 7.87 47.51 7.72 46.27 7.01 46.27 7.16"/><polygon class="cls-12" points="46.27 6.93 47.51 7.64 47.51 7.49 46.27 6.78 46.27 6.93"/><polygon class="cls-12" points="46.27 6.7 47.51 7.42 47.51 7.27 46.27 6.55 46.27 6.7"/><polygon class="cls-12" points="46.27 6.47 47.51 7.19 47.51 7.04 46.27 6.32 46.27 6.47"/><polygon class="cls-12" points="46.27 6.24 47.51 6.96 47.51 6.81 46.27 6.09 46.27 6.24"/><polygon class="cls-12" points="46.27 6.01 47.51 6.73 47.51 6.58 46.27 5.86 46.27 6.01"/><polygon class="cls-12" points="46.27 5.78 47.51 6.5 47.51 6.35 46.27 5.63 46.27 5.78"/><polygon class="cls-12" points="46.27 5.56 47.51 6.27 47.51 6.12 46.27 5.41 46.27 5.56"/><polygon class="cls-12" points="46.27 5.33 47.51 6.04 47.51 5.89 46.27 5.18 46.27 5.33"/><polygon class="cls-12" points="46.27 5.1 47.51 5.81 47.51 5.66 46.27 4.95 46.27 5.1"/><polygon class="cls-12" points="46.27 4.87 47.51 5.58 47.51 5.43 46.27 4.72 46.27 4.87"/><polygon class="cls-12" points="46.27 4.64 47.51 5.35 47.51 5.2 46.27 4.49 46.27 4.64"/><polygon class="cls-12" points="46.27 4.41 47.51 5.12 47.51 4.97 46.27 4.26 46.27 4.41"/><polygon class="cls-12" points="46.27 4.18 47.51 4.89 47.51 4.74 46.27 4.03 46.27 4.18"/><polygon class="cls-12" points="46.27 3.95 47.51 4.66 47.51 4.52 46.27 3.8 46.27 3.95"/><polygon class="cls-33" points="52.28 1.13 48.13 3.52 48.13 9.24 52.28 6.84 52.28 1.13"/><polygon class="cls-35" points="52.09 1.4 48.34 3.56 49.39 4.17 53.15 2.01 52.09 1.4"/><polygon class="cls-33" points="53.55 1.86 49.4 4.25 49.4 9.97 53.55 7.58 53.55 1.86"/><polygon class="cls-43" points="52.28 1.13 48.34 3.4 49.39 4.01 53.34 1.74 53.55 1.86 49.4 4.25 47.92 3.4 52.07 1 52.28 1.13"/><polygon class="cls-52" points="47.92 9.12 49.4 9.97 49.4 4.25 47.92 3.4 47.92 9.12"/><polygon class="cls-12" points="48.02 8.16 49.25 8.88 49.25 8.73 48.02 8.01 48.02 8.16"/><polygon class="cls-12" points="48.02 7.93 49.25 8.65 49.25 8.5 48.02 7.78 48.02 7.93"/><polygon class="cls-12" points="48.02 7.71 49.25 8.42 49.25 8.27 48.02 7.56 48.02 7.71"/><polygon class="cls-12" points="48.02 7.48 49.25 8.19 49.25 8.04 48.02 7.33 48.02 7.48"/><polygon class="cls-12" points="48.02 7.25 49.25 7.96 49.25 7.81 48.02 7.1 48.02 7.25"/><polygon class="cls-12" points="48.02 7.02 49.25 7.73 49.25 7.58 48.02 6.87 48.02 7.02"/><polygon class="cls-12" points="48.02 6.79 49.25 7.5 49.25 7.35 48.02 6.64 48.02 6.79"/><polygon class="cls-12" points="48.02 6.56 49.25 7.27 49.25 7.12 48.02 6.41 48.02 6.56"/><polygon class="cls-12" points="48.02 6.33 49.25 7.04 49.25 6.89 48.02 6.18 48.02 6.33"/><polygon class="cls-12" points="48.02 6.1 49.25 6.82 49.25 6.67 48.02 5.95 48.02 6.1"/><polygon class="cls-12" points="48.02 5.87 49.25 6.59 49.25 6.44 48.02 5.72 48.02 5.87"/><polygon class="cls-12" points="48.02 5.64 49.25 6.36 49.25 6.21 48.02 5.49 48.02 5.64"/><polygon class="cls-12" points="48.02 5.41 49.25 6.13 49.25 5.98 48.02 5.26 48.02 5.41"/><polygon class="cls-12" points="48.02 5.18 49.25 5.9 49.25 5.75 48.02 5.03 48.02 5.18"/><polygon class="cls-12" points="48.02 4.96 49.25 5.67 49.25 5.52 48.02 4.81 48.02 4.96"/><polygon class="cls-33" points="54.1 2.13 49.95 4.53 49.95 10.24 54.1 7.85 54.1 2.13"/><polygon class="cls-35" points="53.91 2.4 50.15 4.57 51.21 5.18 54.97 3.01 53.91 2.4"/><polygon class="cls-33" points="55.37 2.86 51.21 5.26 51.21 10.98 55.37 8.58 55.37 2.86"/><polygon class="cls-43" points="54.1 2.13 50.15 4.41 51.21 5.02 55.16 2.74 55.37 2.86 51.21 5.26 49.73 4.41 53.89 2.01 54.1 2.13"/><polygon class="cls-52" points="49.73 10.12 51.21 10.98 51.21 5.26 49.73 4.41 49.73 10.12"/><polygon class="cls-12" points="49.84 9.17 51.07 9.88 51.07 9.73 49.84 9.02 49.84 9.17"/><polygon class="cls-12" points="49.84 8.94 51.07 9.65 51.07 9.5 49.84 8.79 49.84 8.94"/><polygon class="cls-12" points="49.84 8.71 51.07 9.42 51.07 9.27 49.84 8.56 49.84 8.71"/><polygon class="cls-12" points="49.84 8.48 51.07 9.2 51.07 9.05 49.84 8.33 49.84 8.48"/><polygon class="cls-12" points="49.84 8.25 51.07 8.97 51.07 8.82 49.84 8.1 49.84 8.25"/><polygon class="cls-12" points="49.84 8.02 51.07 8.74 51.07 8.59 49.84 7.87 49.84 8.02"/><polygon class="cls-12" points="49.84 7.79 51.07 8.51 51.07 8.36 49.84 7.64 49.84 7.79"/><polygon class="cls-12" points="49.84 7.56 51.07 8.28 51.07 8.13 49.84 7.41 49.84 7.56"/><polygon class="cls-12" points="49.84 7.34 51.07 8.05 51.07 7.9 49.84 7.19 49.84 7.34"/><polygon class="cls-12" points="49.84 7.11 51.07 7.82 51.07 7.67 49.84 6.96 49.84 7.11"/><polygon class="cls-12" points="49.84 6.88 51.07 7.59 51.07 7.44 49.84 6.73 49.84 6.88"/><polygon class="cls-12" points="49.84 6.65 51.07 7.36 51.07 7.21 49.84 6.5 49.84 6.65"/><polygon class="cls-12" points="49.84 6.42 51.07 7.13 51.07 6.98 49.84 6.27 49.84 6.42"/><polygon class="cls-12" points="49.84 6.19 51.07 6.9 51.07 6.75 49.84 6.04 49.84 6.19"/><polygon class="cls-12" points="49.84 5.96 51.07 6.67 51.07 6.52 49.84 5.81 49.84 5.96"/><polygon class="cls-25" points="58.89 9.29 54.36 11.9 52.75 10.97 57.28 8.36 58.89 9.29"/><polygon class="cls-32" points="57.51 .22 52.98 2.83 52.98 10.98 57.51 8.37 57.51 .22"/><polygon class="cls-39" points="57.3 .52 53.21 2.88 54.36 3.54 58.45 1.19 57.3 .52"/><polygon class="cls-32" points="58.89 1.02 54.36 3.63 54.36 11.78 58.89 9.17 58.89 1.02"/><polygon class="cls-8" points="57.51 .22 53.21 2.7 54.36 3.37 58.66 .89 58.89 1.02 54.36 3.63 52.75 2.7 57.28 .09 57.51 .22"/><polygon class="cls-51" points="52.75 10.85 54.36 11.78 54.36 3.63 52.75 2.7 52.75 10.85"/><polygon class="cls-12" points="53.27 9.83 53.83 10.16 53.83 4.65 53.27 4.32 53.27 9.83"/><path class="cls-26" d="M53.37,10.52c0,.12.08.26.19.32s.19.01.19-.11-.08-.26-.19-.32-.19-.01-.19.11Z"/><polygon class="cls-25" points="60.27 10.9 55.74 13.51 54.13 12.58 58.66 9.97 60.27 10.9"/><polygon class="cls-26" points="58.89 1.83 54.36 4.44 54.36 12.59 58.89 9.98 58.89 1.83"/><polygon class="cls-39" points="58.68 2.13 54.59 4.49 55.74 5.15 59.84 2.8 58.68 2.13"/><polygon class="cls-26" points="60.27 2.63 55.74 5.24 55.74 13.39 60.27 10.78 60.27 2.63"/><polygon class="cls-9" points="58.89 1.83 54.59 4.31 55.74 4.98 60.04 2.5 60.27 2.63 55.74 5.24 54.13 4.31 58.66 1.7 58.89 1.83"/><polygon class="cls-42" points="54.13 12.46 55.74 13.39 55.74 5.24 54.13 4.31 54.13 12.46"/><polygon class="cls-12" points="54.66 11.44 55.22 11.77 55.22 6.26 54.66 5.93 54.66 11.44"/><path class="cls-26" d="M54.75,12.13c0,.12.08.26.19.32s.19.01.19-.11c0-.12-.08-.26-.19-.32-.1-.06-.19-.01-.19.11Z"/><polygon class="cls-25" points="57.84 16.32 64.54 20.14 64.54 12.45 57.84 16.32"/><polygon class="cls-25" points="63.37 11.23 58.84 13.84 57.22 12.91 61.75 10.3 63.37 11.23"/><polygon class="cls-37" points="61.98 2.17 57.45 4.78 57.45 12.92 61.98 10.31 61.98 2.17"/><polygon class="cls-48" points="61.78 2.46 57.68 4.82 58.83 5.49 62.93 3.13 61.78 2.46"/><polygon class="cls-30" points="63.37 2.96 58.84 5.58 58.84 13.72 63.37 11.11 63.37 2.96"/><polygon class="cls-48" points="61.98 2.17 57.68 4.64 58.83 5.31 63.14 2.83 63.37 2.96 58.84 5.58 57.22 4.64 61.75 2.03 61.98 2.17"/><polygon class="cls-30" points="57.22 12.79 58.84 13.72 58.84 5.58 57.22 4.64 57.22 12.79"/><polygon class="cls-12" points="57.75 11.78 58.31 12.1 58.31 6.59 57.75 6.27 57.75 11.78"/><path class="cls-26" d="M57.84,12.46c0,.12.08.26.19.32s.19.01.19-.11-.08-.26-.19-.32-.19-.01-.19.11Z"/></g></g></g></g></svg>