<?xml version="1.0" encoding="UTF-8"?><svg id="_レイヤー_2" xmlns="http://www.w3.org/2000/svg" xmlns:xlink="http://www.w3.org/1999/xlink" viewBox="0 0 197.49 226"><defs><style>.cls-1{stroke:#fff;stroke-linecap:round;stroke-miterlimit:10;stroke-width:.4px;}.cls-1,.cls-2{fill:none;}.cls-3{fill:#d4cfc6;}.cls-4{opacity:.7;}.cls-4,.cls-5{fill:#8b3323;}.cls-6{fill:#cac9c9;}.cls-7{fill:#fff;}.cls-8{fill:#aaa9a9;}.cls-9{fill:#c1b4a9;}.cls-10{fill:#19191a;}.cls-11{fill:#35322d;}.cls-12{fill:#90867f;}.cls-13{fill:#39393a;}.cls-14{fill:#bab9b9;}.cls-15{fill:#434345;}.cls-16{fill:#f1f2ec;}.cls-17{fill:#f7f7f6;}.cls-18{fill:#efeceb;}.cls-19{fill:#868686;}.cls-20{fill:#251c19;}.cls-21{fill:#7c5d2f;}.cls-22{fill:#f4f4f4;}.cls-23{fill:#3a2b28;}.cls-24{fill:#e4e4e4;}.cls-25{fill:#473a37;}.cls-26{fill:#eaeaea;}.cls-27{clip-path:url(#clippath);}</style><clipPath id="clippath"><polygon class="cls-2" points="21.92 61.24 21.92 78.74 45.11 92.35 45.11 74.86 21.92 61.24"/></clipPath></defs><g id="locker"><g id="locker-2"><polygon class="cls-18" points="20.05 47.44 20.05 139.04 147.2 212.95 147.2 121.35 20.05 47.44"/><polygon class="cls-3" points="147.2 121.35 147.2 212.95 174.87 196.86 174.87 105.26 147.2 121.35"/><polygon class="cls-18" points="20.05 47.44 20.05 48.78 147.2 122.68 147.2 121.35 20.05 47.44"/><polygon class="cls-14" points="20.05 53.3 20.05 54.63 147.2 128.53 147.2 127.2 20.05 53.3"/><polygon class="cls-14" points="20.05 58.94 20.05 60.27 147.2 134.17 147.2 132.84 20.05 58.94"/><polygon class="cls-14" points="20.05 77.74 20.05 79.08 147.2 152.98 147.2 151.65 20.05 77.74"/><polygon class="cls-14" points="20.05 90.07 20.05 91.4 147.2 165.31 147.2 163.97 20.05 90.07"/><polygon class="cls-14" points="20.05 101.98 20.05 103.31 147.2 177.22 147.2 175.88 20.05 101.98"/><polygon class="cls-14" points="20.05 114.73 20.05 116.06 147.2 189.96 147.2 188.63 20.05 114.73"/><polygon class="cls-8" points="20.05 134.58 20.05 135.91 147.2 209.81 147.2 208.48 20.05 134.58"/><polygon class="cls-14" points="145.32 126.52 145.32 208.72 147.2 209.81 147.2 127.62 145.32 126.52"/><polygon class="cls-14" points="120.33 111.69 120.33 193.88 122.21 194.98 122.21 112.78 120.33 111.69"/><polygon class="cls-14" points="95.26 97.06 95.26 179.26 97.14 180.35 97.14 98.15 95.26 97.06"/><polygon class="cls-14" points="70.19 82.64 70.19 164.84 72.07 165.93 72.07 83.74 70.19 82.64"/><polygon class="cls-18" points="72.07 91.21 72.07 131.62 95.26 145.04 95.26 104.63 72.07 91.21"/><polygon class="cls-14" points="45.11 67.81 45.11 150.01 46.99 151.1 46.99 68.9 45.11 67.81"/><polygon class="cls-8" points="20.05 53.6 20.05 135.8 21.94 136.89 21.94 54.69 20.05 53.6"/><polygon class="cls-17" points="47.62 31.34 47.62 31.38 20.18 47.32 20.05 47.44 147.18 121.41 174.87 105.3 47.62 31.34"/><polygon class="cls-10" points="72.07 90.57 72.07 132.23 95.26 145.65 95.26 103.99 72.07 90.57"/><polygon class="cls-9" points="72.07 90.57 72.07 132.1 77.71 93.86 72.07 90.57"/><polygon class="cls-7" points="89.32 114.16 86.94 127.85 91.93 130.6 94.31 117.01 89.32 114.16"/><polygon class="cls-7" points="81.03 109.77 78.64 123.47 83.63 126.21 86.02 112.62 81.03 109.77"/><line class="cls-1" x1="80.25" y1="99.34" x2="90.49" y2="105.39"/><line class="cls-1" x1="80.14" y1="101.54" x2="86.62" y2="105.3"/><line class="cls-1" x1="79.51" y1="127.41" x2="89.76" y2="133.46"/><line class="cls-1" x1="80.76" y1="130.48" x2="87.24" y2="134.24"/><line class="cls-1" x1="80.44" y1="132.3" x2="86.93" y2="136.06"/><path class="cls-6" d="M102.95,121.43v3.67l-1.76-1.02v-10.43l3.11,1.8c2,1.16,3.25,2.98,3.25,5.22s-1.23,2.7-3.25,1.54l-1.35-.78ZM104.05,120.28c1.22.71,1.74.49,1.74-.63,0-1-.52-1.84-1.74-2.54l-1.1-.63v3.17l1.1.63Z"/><path class="cls-6" d="M110.51,129.47l-1.76-1.02v-10.43l1.76,1.02v10.43Z"/><path class="cls-6" d="M116.91,125.97c-.16-1.08-.64-1.96-1.5-2.45-1.02-.59-1.56-.07-1.56,1.92v1.48c0,1.93.54,3.14,1.56,3.73.88.51,1.31.23,1.5-.72l1.67.97c-.29,2.17-1.39,2.57-3.17,1.54-1.95-1.13-3.32-3.34-3.32-6.53v-1.48c0-3.22,1.37-3.82,3.32-2.69,1.73,1,2.9,2.76,3.19,5.21l-1.69-.97Z"/><path class="cls-6" d="M124.84,137.74l-2.22-5.68-1.03,1.04v2.77l-1.76-1.02v-10.43l1.76,1.02v4.5l2.75-2.92,2.09,1.21-2.66,2.68,3.17,8.04-2.1-1.21Z"/><path class="cls-6" d="M134.62,132.96v6.2c0,3.08-1.41,3.55-3.34,2.44-1.93-1.11-3.34-3.21-3.34-6.28v-6.21l1.76,1.02v6.21c0,1.78.49,2.85,1.57,3.48s1.57.12,1.57-1.66v-6.21l1.76,1.02Z"/><path class="cls-6" d="M138.1,141.72v3.67l-1.76-1.02v-10.43l3.11,1.8c2,1.16,3.25,2.98,3.25,5.22s-1.23,2.7-3.25,1.54l-1.35-.78ZM139.19,140.57c1.22.71,1.74.49,1.74-.63,0-1-.52-1.84-1.74-2.54l-1.1-.63v3.17l1.1.63Z"/><path class="cls-6" d="M102.37,135.27l3.04,1.76v1.49l-4.51-2.61v-8.69l1.47.85v7.2Z"/><path class="cls-6" d="M108.74,140.54c-1.63-.94-2.77-2.78-2.77-5.44v-1.23c0-2.68,1.14-3.18,2.77-2.24,1.64.95,2.78,2.76,2.78,5.45v1.23c0,2.66-1.14,3.18-2.78,2.24ZM107.44,135.95c0,1.66.45,2.62,1.3,3.11.85.49,1.31.06,1.31-1.6v-1.23c0-1.66-.46-2.62-1.31-3.11s-1.3-.06-1.3,1.6v1.23Z"/><path class="cls-6" d="M116.53,138.93c-.14-.9-.54-1.63-1.25-2.04-.85-.49-1.3-.06-1.3,1.6v1.23c0,1.61.45,2.62,1.3,3.11.73.42,1.09.19,1.25-.6l1.4.81c-.24,1.81-1.15,2.14-2.64,1.28-1.63-.94-2.77-2.78-2.77-5.44v-1.23c0-2.68,1.14-3.18,2.77-2.24,1.44.83,2.41,2.3,2.65,4.34l-1.41-.81Z"/><path class="cls-6" d="M123.14,148.74l-1.85-4.73-.86.86v2.3l-1.47-.85v-8.69l1.47.85v3.75l2.29-2.43,1.74,1.01-2.21,2.24,2.64,6.7-1.75-1.01Z"/><path class="cls-6" d="M130.24,144.16v1.5l-3.04-1.76v1.95l2.73,1.58v1.49l-2.73-1.58v2.27l3.04,1.76v1.49l-4.51-2.61v-8.69l4.51,2.61Z"/><path class="cls-6" d="M135.2,155.71l-1.3-4.16-1.18-.68v3.41l-1.47-.85v-8.69l2.59,1.5c1.67.96,2.71,2.46,2.71,4.22,0,1.17-.45,1.68-1.24,1.61l1.5,4.57-1.62-.93ZM133.71,149.95c.87.5,1.37.57,1.37-.34s-.5-1.45-1.37-1.95l-.99-.57v2.29l.99.57Z"/><path class="cls-6" d="M141.5,152.91c-.31-.77-.69-1.28-1.43-1.71-.66-.38-1.02-.22-1.02.37,0,.68.46,1.25,1.43,2.1,1.51,1.33,2.19,2.4,2.19,3.94,0,1.42-.8,2.07-2.5,1.09-1.27-.73-2.15-1.66-2.79-3.03l1.12-.28c.39.8.83,1.35,1.57,1.78.84.48,1.12.21,1.12-.32,0-.6-.3-1.12-1.48-2.16-1.43-1.28-2.14-2.51-2.14-3.94s.76-2.01,2.48-1.01c1.15.67,2.03,1.64,2.54,2.89l-1.1.31Z"/><g class="cls-27"><polygon class="cls-9" points="21.71 49.39 21.71 49.43 -5.73 65.38 -5.86 65.5 20.35 80.96 48.04 64.85 21.71 49.39"/><polygon class="cls-12" points="47.27 64.33 47.27 64.37 19.84 80.32 19.71 80.44 47.38 96.53 75.06 80.42 47.27 64.33"/><polygon class="cls-22" points="26.94 75.69 25.73 71.15 30.87 69.87 45.69 77.01 44.25 80.58 41.44 81.71 38.23 83.12 26.94 75.69"/><polygon class="cls-26" points="38.79 82.05 40.73 79.44 45.69 77.01 45.67 83.79 40.57 86.32 38.79 82.05"/><polygon class="cls-7" points="40.56 86.33 25.9 78.23 25.72 71.15 40.73 79.44 40.56 86.33"/></g><g id="_10"><g id="Axonometric_Cube"><polygon id="Cube_face_-_right" class="cls-25" points="43.12 32.34 57.09 40.56 57.09 37.45 43.11 29.23 43.12 32.34"/></g><polygon class="cls-23" points="82.69 46.22 82 51.87 77.29 51.23 69.7 38.58 82.69 46.22"/><polygon class="cls-20" points="82.69 46.22 87.42 70.62 83.97 74.95 78.78 46.22 82.69 46.22"/><polygon class="cls-13" points="78.18 37.19 15.29 0 14.05 1 76.94 38.18 78.18 37.19"/><polygon class="cls-20" points="76.94 38.18 14.05 1 21.98 46.54 84.87 83.73 76.94 38.18"/><polygon class="cls-20" points="78.18 37.19 76.94 38.18 84.87 83.73 86.11 82.73 78.18 37.19"/><polygon class="cls-7" points="82.07 79.65 75.08 39.51 16.85 5.07 23.84 45.22 82.07 79.65"/></g><path class="cls-13" d="M56.5,44.53l.57,3.16-.49-.31-1.25-2.33.31,1.75-.57-.36-.57-3.16.48.3,1.26,2.36-.32-1.77.57.36Z"/><path class="cls-13" d="M58.83,47.88c.12.64-.05.91-.62.56-.56-.35-.88-.92-1-1.57l-.05-.27c-.13-.7.11-.87.62-.55.52.32.87.86,1,1.56l.05.27ZM58.27,47.51l-.04-.2c-.06-.34-.15-.55-.35-.67-.2-.12-.23,0-.17.35l.04.2c.05.3.12.54.35.68.23.14.22-.06.16-.36Z"/><path class="cls-13" d="M59.99,49.51l-.65-.4-.14-.81.65.4.14.81Z"/><path class="cls-13" d="M61.24,50.33c-.49-.31-.96-.85-1.1-1.62l-.21-1.15c-.15-.82.23-.79.72-.49s.95.81,1.1,1.62l.21,1.15c.14.77-.23.79-.72.49ZM60.73,49c.06.34.17.55.4.7.23.14.27.02.21-.32l-.17-.97c-.06-.34-.16-.55-.39-.7-.23-.14-.27-.02-.21.32l.17.97Z"/><path class="cls-13" d="M63.7,51.82l-.61-.38-.43-2.39-.31.05-.13-.71.37-.08.54.33.57,3.16Z"/><path class="cls-13" d="M65.35,52.89c-.49-.31-.96-.85-1.1-1.62l-.21-1.15c-.15-.82.23-.79.72-.49.49.31.95.8,1.1,1.62l.21,1.15c.14.77-.23.79-.72.49ZM64.84,51.56c.06.34.16.55.4.7.23.14.27.02.21-.32l-.17-.97c-.06-.34-.16-.55-.39-.7-.23-.14-.27-.02-.21.32l.17.97Z"/><path class="cls-13" d="M67.41,54.17c-.49-.31-.96-.85-1.1-1.62l-.21-1.15c-.15-.82.23-.79.72-.49.49.31.95.81,1.1,1.62l.21,1.15c.14.77-.23.79-.72.49ZM66.9,52.83c.06.34.17.55.4.7.23.14.27.02.21-.32l-.17-.97c-.06-.34-.16-.55-.39-.7-.23-.14-.27-.02-.21.32l.17.97Z"/><path class="cls-13" d="M57.6,50.64l.57,3.16-.49-.31-1.25-2.33.31,1.75-.57-.36-.57-3.16.48.3,1.26,2.36-.32-1.77.57.36Z"/><path class="cls-13" d="M59.93,54c.12.64-.05.91-.62.56-.56-.35-.88-.92-1-1.57l-.05-.27c-.13-.7.11-.87.62-.55.52.32.87.86,1,1.56l.05.27ZM59.37,53.62l-.04-.2c-.06-.34-.15-.55-.35-.67-.2-.12-.23,0-.17.35l.04.2c.05.3.12.54.35.68.23.14.22-.06.16-.36Z"/><path class="cls-13" d="M61.08,55.62l-.65-.4-.15-.81.65.4.14.81Z"/><path class="cls-13" d="M62.34,56.45c-.49-.31-.96-.85-1.1-1.62l-.21-1.15c-.15-.82.23-.79.72-.49.49.31.95.81,1.1,1.62l.21,1.15c.14.77-.23.79-.72.49ZM61.83,55.12c.06.34.16.55.4.7.23.14.27.02.21-.32l-.18-.97c-.06-.34-.16-.55-.39-.7-.23-.14-.27-.02-.21.32l.18.97Z"/><path class="cls-13" d="M64.79,57.93l-.61-.38-.43-2.39-.31.05-.13-.71.37-.08.54.33.57,3.16Z"/><path class="cls-13" d="M66.45,59c-.49-.31-.96-.85-1.1-1.62l-.21-1.15c-.15-.82.23-.79.72-.49.49.31.95.8,1.1,1.62l.21,1.15c.14.77-.23.79-.72.49ZM65.94,57.67c.06.34.17.55.4.7.23.14.27.02.21-.32l-.17-.97c-.06-.34-.16-.55-.39-.7-.23-.14-.27-.02-.21.32l.17.97Z"/><path class="cls-13" d="M68.9,60.49l-.61-.38-.43-2.39-.31.05-.13-.71.37-.08.54.33.57,3.16Z"/><path class="cls-13" d="M58.69,56.76l.57,3.16-.49-.31-1.25-2.33.31,1.75-.57-.36-.57-3.16.48.3,1.26,2.36-.32-1.77.57.36Z"/><path class="cls-13" d="M61.02,60.12c.12.64-.05.91-.62.56-.56-.35-.88-.92-1-1.57l-.05-.27c-.13-.7.1-.87.62-.55.52.32.87.86,1,1.56l.05.27ZM60.47,59.74l-.04-.2c-.06-.34-.15-.55-.35-.67-.2-.12-.23,0-.17.35l.04.2c.05.3.12.54.35.68.23.14.22-.06.16-.36Z"/><path class="cls-13" d="M62.18,61.74l-.65-.4-.14-.81.65.4.14.81Z"/><path class="cls-13" d="M63.44,62.56c-.49-.31-.96-.85-1.1-1.62l-.21-1.15c-.15-.82.23-.79.72-.49.49.31.95.81,1.1,1.62l.21,1.15c.14.77-.23.79-.72.49ZM62.93,61.23c.06.34.16.55.4.7.23.14.27.02.21-.32l-.17-.97c-.06-.34-.16-.55-.39-.7-.23-.14-.27-.02-.21.32l.17.97Z"/><path class="cls-13" d="M65.89,64.05l-.61-.38-.43-2.39-.31.05-.13-.71.37-.08.54.33.57,3.16Z"/><path class="cls-13" d="M67.55,65.12c-.49-.31-.96-.85-1.1-1.62l-.21-1.15c-.15-.82.23-.79.72-.49.49.31.95.8,1.1,1.62l.21,1.15c.14.77-.23.79-.72.49ZM67.04,63.79c.06.34.17.55.4.7.23.14.27.02.21-.32l-.17-.97c-.06-.34-.16-.55-.39-.7-.23-.14-.27-.02-.21.32l.17.97Z"/><path class="cls-13" d="M70.38,66.84l-1.6-.99-.08-.45.61-.7c.11-.13.14-.27.1-.47-.04-.22-.18-.4-.33-.49-.15-.09-.23-.04-.21.16l-.52-.33c-.1-.55.2-.72.66-.43.48.3.91.95,1.01,1.46.08.44-.08.63-.2.77l-.32.35.77.48.11.63Z"/><path class="cls-13" d="M29,27.41l.57,3.16-.49-.31-1.25-2.33.31,1.75-.57-.36-.57-3.16.48.3,1.26,2.36-.32-1.77.57.36Z"/><path class="cls-13" d="M31.33,30.77c.12.64-.05.91-.62.56-.56-.35-.88-.92-1-1.57l-.05-.27c-.13-.7.11-.87.62-.55.52.32.87.86,1,1.56l.05.27ZM30.77,30.39l-.04-.2c-.06-.34-.15-.55-.35-.67-.2-.12-.23,0-.17.35l.04.2c.05.3.12.54.35.68.23.14.22-.06.16-.36Z"/><path class="cls-13" d="M32.49,32.39l-.65-.4-.14-.81.65.4.14.81Z"/><path class="cls-13" d="M33.74,33.21c-.49-.31-.96-.85-1.1-1.62l-.21-1.15c-.15-.82.23-.79.72-.49.49.31.95.81,1.1,1.62l.21,1.15c.14.77-.23.79-.72.49ZM33.23,31.88c.06.34.17.55.4.7.23.14.27.02.21-.32l-.17-.97c-.06-.34-.16-.55-.39-.7-.23-.14-.27-.02-.21.32l.17.97Z"/><path class="cls-13" d="M36.2,34.7l-.61-.38-.43-2.39-.31.05-.13-.71.37-.08.54.33.57,3.16Z"/><path class="cls-13" d="M38.62,36.21l-1.6-.99-.08-.45.61-.7c.11-.13.14-.27.1-.47-.04-.22-.18-.4-.33-.49-.15-.09-.23-.04-.21.16l-.52-.33c-.1-.55.2-.72.66-.43.48.3.91.95,1.01,1.47.08.44-.08.63-.2.77l-.32.35.77.48.11.63Z"/><path class="cls-13" d="M39.91,37.05c-.49-.31-.96-.85-1.1-1.62l-.21-1.15c-.15-.82.23-.79.72-.49.49.31.95.81,1.1,1.62l.21,1.15c.14.77-.23.79-.72.49ZM39.4,35.72c.06.34.17.55.4.7.23.14.27.02.21-.32l-.17-.97c-.06-.34-.16-.55-.39-.7-.23-.14-.27-.02-.21.32l.17.97Z"/><path class="cls-13" d="M30.1,33.53l.57,3.16-.49-.31-1.25-2.33.31,1.75-.57-.36-.57-3.16.48.3,1.26,2.36-.32-1.77.57.36Z"/><path class="cls-13" d="M32.43,36.88c.12.64-.05.91-.62.56-.56-.35-.88-.92-1-1.57l-.05-.27c-.13-.7.11-.87.62-.55.52.32.87.86,1,1.56l.05.27ZM31.87,36.51l-.04-.2c-.06-.34-.15-.55-.35-.67-.2-.12-.23,0-.17.35l.04.2c.05.3.12.54.35.68.23.14.22-.06.16-.36Z"/><path class="cls-13" d="M33.58,38.51l-.65-.4-.14-.81.65.4.14.81Z"/><path class="cls-13" d="M34.84,39.33c-.49-.31-.96-.85-1.1-1.62l-.21-1.15c-.15-.82.23-.79.72-.49s.95.81,1.1,1.62l.21,1.15c.14.77-.23.79-.72.49ZM34.33,38c.06.34.16.55.4.7.23.14.27.02.21-.32l-.18-.97c-.06-.34-.16-.55-.39-.7-.23-.14-.27-.02-.21.32l.18.97Z"/><path class="cls-13" d="M37.29,40.82l-.61-.38-.43-2.39-.31.05-.13-.71.37-.08.54.33.57,3.16Z"/><path class="cls-13" d="M39.72,42.33l-1.6-.99-.08-.45.61-.7c.11-.13.14-.27.1-.47-.04-.22-.18-.4-.33-.49-.15-.09-.23-.04-.21.16l-.52-.33c-.1-.55.2-.72.66-.43.48.3.91.95,1.01,1.47.08.44-.08.63-.2.77l-.32.35.77.48.11.63Z"/><path class="cls-13" d="M41.4,43.37l-.61-.38-.43-2.39-.31.05-.13-.71.37-.08.54.33.57,3.16Z"/><path class="cls-13" d="M31.19,39.64l.57,3.16-.49-.31-1.25-2.33.31,1.75-.57-.36-.57-3.16.48.3,1.26,2.36-.32-1.77.57.36Z"/><path class="cls-13" d="M33.52,43c.12.64-.05.91-.62.56-.56-.35-.88-.92-1-1.57l-.05-.27c-.13-.7.1-.87.62-.55.52.32.87.86,1,1.56l.05.27ZM32.97,42.62l-.04-.2c-.06-.34-.15-.55-.35-.67-.2-.12-.23,0-.17.35l.04.2c.05.3.12.54.35.68.23.14.22-.06.16-.36Z"/><path class="cls-13" d="M34.68,44.62l-.65-.4-.14-.81.65.4.14.81Z"/><path class="cls-13" d="M35.94,45.45c-.49-.31-.96-.85-1.1-1.62l-.21-1.15c-.15-.82.23-.79.72-.49s.95.81,1.1,1.62l.21,1.15c.14.77-.23.79-.72.49ZM35.43,44.11c.06.34.16.55.4.7.23.14.27.02.21-.32l-.17-.97c-.06-.34-.17-.55-.39-.7-.23-.14-.27-.02-.21.32l.17.97Z"/><path class="cls-13" d="M38.39,46.93l-.61-.38-.43-2.39-.31.05-.13-.71.37-.08.54.33.57,3.16Z"/><path class="cls-13" d="M40.82,48.44l-1.6-.99-.08-.45.61-.7c.11-.13.14-.27.1-.47-.04-.22-.18-.4-.33-.49-.15-.09-.23-.04-.21.16l-.52-.33c-.1-.55.2-.72.66-.43.48.3.91.95,1.01,1.47.08.44-.08.63-.2.77l-.32.35.77.48.11.63Z"/><path class="cls-13" d="M42.88,49.72l-1.6-.99-.08-.45.61-.7c.11-.13.14-.27.1-.47-.04-.22-.18-.4-.33-.49-.15-.09-.23-.04-.21.16l-.52-.33c-.1-.55.2-.72.66-.43.48.3.91.95,1.01,1.46.08.44-.08.63-.2.77l-.32.35.77.48.11.63Z"/><path class="cls-13" d="M45.09,35.37l-22.94-13.92s-.08-.08-.09-.13.01-.07.05-.05l22.94,13.92s.08.08.09.13-.01.07-.05.05Z"/><path class="cls-13" d="M46.49,42.28l-22.94-13.92s-.08-.08-.09-.13.01-.07.05-.05l22.94,13.92s.08.08.09.13-.01.07-.05.05Z"/><path class="cls-13" d="M47.8,48.7l-22.94-13.92s-.08-.08-.09-.13.01-.07.05-.05l22.94,13.92s.08.08.09.13-.01.07-.05.05Z"/><path class="cls-13" d="M49.09,55.03l-22.94-13.92s-.08-.08-.09-.13.01-.07.05-.05l22.94,13.92s.08.08.09.13-.01.07-.05.05Z"/><path class="cls-13" d="M72.56,52.04l-22.94-13.92s-.08-.08-.09-.13.01-.07.05-.05l22.94,13.92s.08.08.09.13-.01.07-.05.05Z"/><path class="cls-13" d="M73.96,58.95l-22.94-13.92s-.08-.08-.09-.13.01-.07.05-.05l22.94,13.92s.08.08.09.13-.01.07-.05.05Z"/><path class="cls-13" d="M75.27,65.36l-22.94-13.92s-.08-.08-.09-.13.01-.07.05-.05l22.94,13.92s.08.08.09.13-.01.07-.05.05Z"/><path class="cls-13" d="M76.56,71.7l-22.94-13.92s-.08-.08-.09-.13.01-.07.05-.05l22.94,13.92s.08.08.09.13-.01.07-.05.05Z"/><path class="cls-11" d="M52.04,36.67c.09.34-.13.42-.38.27-.11-.07-.12-.09-.16-.22-.08-.24-.13-.37-.51-.7v-.06s.1.07.15.1c.08.05.15.09.23.12.13.06.16.04.11-.15l-.26-1.07c-.08.02-.15.05-.23.06-.01,0-.05,0-.07,0-.02-.01-.05-.05-.07-.09-.11-.21-.21-.45-.32-.68v-.05c.11.04.2.06.33.09.07.02.14.03.22.05l-.26-1.1c-.27-.16-.39-.22-.54-.28l-.08-.21c.17.12.32.23.6.39l-.19-.77c-.08-.31-.11-.43-.17-.54l.02-.02c.49.35.66.51.68.59.02.07,0,.1-.12.08l.22.92.05.03c.09-.29.11-.31.15-.29.02.01.07.06.21.27.19.29.23.35.23.39.01.05,0,.05-.07.02l-.54-.32.22.9c.15.02.3.03.45.03l.04.07c-.12.14-.24.24-.38.33l.47,1.83ZM53.76,36.23l.07.04c.09-.24.14-.28.17-.26s.1.1.26.33c.16.23.19.28.2.32.02.07,0,.07-.07.03l-.6-.35.09.37.32,1.21c.12.43-.14.45-.47.26-.11-.06-.14-.1-.17-.21-.07-.21-.19-.45-.5-.73v-.06s.1.07.1.07c.13.08.28.16.37.2.1.04.13.03.09-.14l-.3-1.26-.65-.38c-.35-.21-.62-.35-.86-.47l-.08-.21c.28.2.57.37.92.58l.65.38-.11-.45c-.04-.17-.08-.31-.13-.39l.02-.02c.44.31.65.48.68.57.02.07.01.09-.1.06l.13.52ZM52.28,33.7c-.22-.13-.46-.25-.66-.35l-.08-.21c.24.16.49.32.72.46l-.1-.42c-.05-.2-.08-.28-.13-.4l.02-.02c.59.43.7.54.72.61.02.07-.01.08-.12.07l.11.44.29.17c.14-.25.16-.28.19-.25.03.02.09.09.24.3.21.28.24.33.26.39s0,.06-.08.02l-.88-.52.23.94.48.29c.13-.27.15-.29.19-.27s.08.06.32.39c.16.22.19.27.21.33.01.05,0,.05-.08.01l-1.51-.89c-.31-.18-.63-.36-.88-.48l-.08-.21c.26.18.57.37.86.55l-.23-.94ZM52.23,35.56c.51.32.84.75.94,1.16.06.23-.01.33-.19.22-.15-.09-.25-.24-.33-.52-.09-.32-.24-.6-.42-.84v-.03Z"/><path class="cls-11" d="M55.96,37.76c.13-.06.26-.09.39-.1.14,0,.29.04.45.14.24.14.46.35.67.62.28.35.49.75.59,1.15.09.37,0,.55-.24.58-.28.03-.72-.13-1.31-.48-.1-.06-.19-.11-.28-.17-.03-.02-.04-.04-.05-.07s0-.04.03-.02c.49.23.84.28,1.06.21.2-.06.26-.3.19-.6-.06-.23-.16-.47-.3-.68-.1-.16-.21-.27-.35-.35-.1-.06-.22-.07-.34-.03-.12.04-.24.14-.35.27-.07.08-.12.19-.15.33-.03.13-.04.3-.19.21-.09-.05-.15-.11-.23-.24-.07-.12-.11-.23-.14-.35-.02-.1-.04-.19,0-.28.02-.06.05-.1.09-.15.03-.04.05-.1.08-.21.07-.32.09-.69.08-1.04-.13-.05-.26-.11-.33-.15-.12-.07-.25-.17-.36-.33-.12-.16-.23-.34-.32-.56,0-.02-.02-.04-.02-.05,0-.02,0-.03.01-.03,0,0,.02.02.03.04.15.2.25.28.34.34.11.06.22.11.32.14.07.02.2.07.29.09-.02-.17-.03-.26-.04-.39-.02-.12-.03-.21-.05-.28s-.04-.13-.08-.18c-.04-.05-.1-.11-.16-.16-.03-.02-.05-.05-.05-.07,0-.02,0-.03.02-.04.06-.03.12-.04.2,0s.19.16.28.27c.1.12.2.27.22.36.01.05.01.11,0,.16,0,.05,0,.12,0,.19,0,.06,0,.13,0,.21.06,0,.11.01.16.01.04,0,.08,0,.12,0,.03,0,.06,0,.08-.01.04-.01.06,0,.12.03h.01c.06.04.16.13.21.19.08.09.15.2.18.3.04.15-.05.16-.12.15-.19,0-.42-.05-.74-.13.01.47,0,.87-.04,1.15h.01Z"/><path class="cls-11" d="M60.02,40.42l-.1-.43s-.08,0-.13-.03c-.06-.03-.11-.08-.16-.13.16.99-.01,1.3-.61,1.36l-.04-.06c.4-.35.39-.91.04-2.33l-.42-1.74c-.07-.28-.11-.4-.16-.5l.02-.02c.54.4.62.48.64.56.02.07-.02.09-.1.07l.39,1.62c.05.2.09.38.12.54h.02c.15-.05.18-.19.1-.53l.04.02c.07.13.12.25.17.37l1.64.97c.1-.14.12-.16.15-.14.05.03.1.09.32.41.2.3.24.36.26.45.02.08-.04.07-.26-.05-.08,0-.15-.01-.24-.03.03.03.06.07.09.11.15.2.23.31.25.37.01.05-.01.07-.1.08l.1.42.2.77c.07.26-.12.32-.32.2-.1-.06-.12-.08-.16-.21-.08-.22-.13-.36-.34-.55l.14.56c.06.24-.07.21-.27.09-.14-.08-.17-.13-.21-.29l-.32-1.41-.13-.53-.24-.14s-.02.03-.05.03l.36,1.49c.06.24-.05.22-.25.1-.13-.08-.16-.1-.19-.25l-.27-1.22ZM58.32,38.14l-.11-.48c-.09-.38-.12-.5-.17-.61l.02-.02c.46.34.59.45.61.54.01.06,0,.08-.12.06l.17.72.25.99c.06.22-.04.22-.22.11-.14-.08-.16-.1-.2-.29l-.23-1.03ZM61.02,39.38l-.12-.51-.52-.3c-.29-.17-.57-.33-.81-.44l-.08-.21c.27.19.56.37.86.55l.52.3-.12-.48-.62-.37c-.27-.16-.55-.32-.79-.43l-.08-.21c.27.19.56.37.84.53l.56.33c.1-.17.12-.2.16-.18.05.03.14.12.31.35.21.28.25.34.26.39.02.07-.02.07-.11.07l.08.31.17.59c.08.29-.04.28-.27.15-.14-.08-.17-.12-.21-.29l-.02-.08-.62-.37c-.29-.17-.57-.33-.81-.44l-.08-.21c.27.19.56.37.86.55l.62.37ZM60.63,40.3l-.16-.66-.6-.35c.03.1.06.2.08.3.02.07.03.13.03.18.12.11.27.24.38.38l.26.15ZM61.09,40.57l.28.16c.07-.2.1-.22.13-.2.02,0,.04.03.07.06,0-.12,0-.21,0-.32l-.5-.29c0,.06-.02.09-.09.06l.13.53ZM61.45,40.87l-.34-.2.12.51.19.72c.13.07.19.1.24.11.07.03.06,0,.04-.1l-.25-1.05Z"/><path class="cls-11" d="M64.65,43.74c.1-.27.05-.71-.1-1.32-.06-.24-.13-.49-.2-.68-.07-.2-.13-.37-.2-.5-.08-.16-.14-.23-.21-.27-.07-.04-.13-.01-.16.11-.04.19-.02.58.05,1.01.01.09.03.18.05.26.03.14.06.24.14.4.04.08.07.17.08.22.05.2-.01.26-.2.15-.15-.09-.36-.35-.54-.7-.13-.25-.23-.51-.31-.82-.07-.28-.11-.61-.13-.87-.02-.32-.02-.67-.03-.93,0-.11,0-.2-.03-.29-.01-.06-.03-.1-.08-.17-.02-.04-.07-.09-.11-.15-.02-.03-.03-.04-.04-.06,0-.03.02-.03.07,0,.05.03.09.06.15.12.07.07.16.17.26.31.1.14.26.41.3.56.02.08.02.16,0,.19-.03.03-.06.06-.07.12-.05.2-.08.5-.08.77,0,.13.02.31.05.45.04.16.12.36.2.41.06.04.05-.17.05-.3,0-.31,0-.65.07-.86.05-.16.12-.25.34-.12.21.12.34.28.51.54.26.41.51,1.06.66,1.69.15.6.15.96-.03,1.17-.17.19-.58.19-1.1-.05-.02-.01-.05-.04-.05-.06,0-.02,0-.03.02-.03.28.03.55-.1.64-.33Z"/><path class="cls-11" d="M27.64,18.91l-.1-.4c-.06-.24-.1-.35-.16-.48l.02-.02c.59.42.73.56.76.66.01.06,0,.09-.13.06l.11.47.72.43c.12-.28.16-.33.19-.3s.09.08.31.38.26.37.27.41,0,.05-.07.02l-2.65-1.56s-.04.03-.09.03l.28,1.17c.36,1.51.2,2.09-.26,2.29l-.04-.06c.2-.43.15-1.13-.17-2.42l-.3-1.25c-.05-.22-.09-.33-.16-.49l.02-.02c.45.39.63.56.69.65l.75.44ZM29.76,23.47l-1.39-.82.04.15c.04.18-.06.2-.3.06-.13-.07-.16-.11-.19-.27l-.21-.99-.1-.43c-.06-.25-.11-.38-.16-.48l.02-.02c.42.36.58.52.64.6l.27.16-.41-1.7c-.06-.25-.09-.36-.17-.52l.02-.02c.61.42.72.56.74.63.02.08,0,.11-.14.07l.19.77.53.31c.1-.31.14-.34.18-.32.04.02.1.09.3.37.22.3.26.37.27.42s0,.05-.07.01l-1.19-.7.23.96.48.29c.09-.18.11-.21.15-.18.05.03.11.09.32.36.22.28.29.39.3.46.02.07,0,.08-.12.07l.07.3.23.84c.07.25-.06.23-.32.08-.12-.07-.14-.1-.17-.24l-.05-.21ZM28.34,22.56l1.39.82-.3-1.23-1.29-.76s-.03.03-.07.03l.28,1.15Z"/><path class="cls-11" d="M31.97,24.89c.05.2-.07.21-.31.07-.13-.08-.16-.11-.19-.27l-.56-2.45-.3-1.24c-.06-.25-.11-.38-.16-.48l.02-.02c.42.37.59.53.66.61l.8.47c-.02-.08-.03-.15-.05-.22l-.08-.34c-.05-.2-.1-.35-.15-.46l.02-.02c.61.44.73.55.75.65.02.07-.02.1-.12.07l.09.39c.02.08.04.16.05.24l.88.52c.11-.18.14-.21.18-.18.04.02.11.1.31.37.22.3.28.38.3.45.02.07,0,.09-.12.09l.25,1.02.55,2.12c.1.38-.15.43-.52.21-.08-.05-.1-.07-.15-.19-.14-.34-.24-.49-.51-.74v-.06s.1.07.15.1c.12.07.23.13.32.16.1.04.11.02.06-.15l-.74-3.06-.95-.56c.06.31.09.6.08.85.64.48,1.1,1.09,1.21,1.55.08.32-.02.39-.19.29-.13-.08-.22-.21-.31-.45-.22-.58-.42-.97-.71-1.32-.03.27-.12.48-.27.59-.16.12-.37.14-.6.13l.31,1.28ZM31.64,23.52c.09-.06.17-.13.24-.21.1-.14.16-.33.18-.56.02-.31-.03-.68-.12-1.08l-.77-.45s-.03.03-.08.02l.55,2.28Z"/><g id="Axonometric_Cube-2"><polygon id="Cube_face_-_right-2" class="cls-25" points="106 69.51 119.98 77.73 119.98 74.62 106 66.4 106 69.51"/></g><polygon class="cls-13" points="141.07 74.36 78.18 37.17 76.94 38.17 139.83 75.36 141.07 74.36"/><polygon class="cls-20" points="139.83 75.36 76.94 38.17 84.87 83.71 147.76 120.9 139.83 75.36"/><polygon class="cls-7" points="80.79 48.28 86.73 82.39 144.96 116.82 139.03 82.77 80.79 48.28"/><polygon class="cls-20" points="141.07 74.36 139.83 75.36 147.76 120.9 149 119.91 141.07 74.36"/><polygon class="cls-5" points="139.11 83.23 80.88 48.8 79.74 42.25 137.97 76.68 139.11 83.23"/><polygon class="cls-5" points="133.69 88.31 114.52 77.45 113.97 73.83 133.15 84.69 133.69 88.31"/><path class="cls-4" d="M116.98,89.4l-.77-.44-.11-.71.77.44.11.71ZM125.46,93.55l-7.56-4.28.11.71,7.56,4.28-.11-.71ZM126.48,94.13l.11.71,3.2,1.81-.11-.71-3.2-1.81ZM132.97,97.8l-2.27-1.29.11.71,2.27,1.29-.11-.71ZM135.28,99.11l-1.28-.73.11.71,1.28.73-.11-.71ZM119.27,91.81l-2.81-1.59.11.71,2.81,1.59-.11-.71ZM123.42,94.16l-3.12-1.77.11.71,3.12,1.77-.11-.71ZM124.44,94.74l.11.71,2.77,1.57-.11-.71-2.77-1.57ZM131.62,98.8l-3.38-1.91.11.71,3.38,1.91-.11-.71ZM135.57,101.04l-2.93-1.66.11.71,2.93,1.66-.11-.71ZM122.15,95.21l-5.46-3.09.11.71,5.46,3.09-.11-.71ZM126.04,97.42l-2.87-1.62.11.71,2.87,1.62-.11-.71ZM127.06,97.99l.11.71,3.2,1.81-.11-.71-3.2-1.81ZM118.45,94.89l-1.41-.8.11.71,1.41.8-.11-.71ZM124,98.03l-4.53-2.57.11.71,4.53,2.57-.11-.71ZM125.02,98.61l.11.71,3.64,2.06-.11-.71-3.64-2.06Z"/><path class="cls-4" d="M87.64,64l-.77-.44-.11-.71.77.44.11.71ZM96.12,68.15l-7.56-4.28.11.71,7.56,4.28-.11-.71ZM97.14,68.73l.11.71,3.2,1.81-.11-.71-3.2-1.81ZM103.63,72.41l-2.27-1.29.11.71,2.27,1.29-.11-.71ZM105.94,73.71l-1.28-.73.11.71,1.28.73-.11-.71ZM89.93,66.42l-2.81-1.59.11.71,2.81,1.59-.11-.71ZM94.08,68.77l-3.12-1.77.11.71,3.12,1.77-.11-.71ZM95.1,69.35l.11.71,2.77,1.57-.11-.71-2.77-1.57ZM102.27,73.41l-3.38-1.91.11.71,3.38,1.91-.11-.71ZM106.23,75.65l-2.93-1.66.11.71,2.93,1.66-.11-.71ZM92.81,69.82l-5.46-3.09.11.71,5.46,3.09-.11-.71ZM96.7,72.02l-2.87-1.62.11.71,2.87,1.62-.11-.71ZM97.72,72.6l.11.71,3.2,1.81-.11-.71-3.2-1.81ZM89.11,69.49l-1.41-.8.11.71,1.41.8-.11-.71ZM94.66,72.64l-4.53-2.57.11.71,4.53,2.57-.11-.71ZM95.68,73.22l.11.71,3.64,2.06-.11-.71-3.64-2.06Z"/><path class="cls-4" d="M89.78,73.47l-.77-.44-.11-.71.77.44.11.71ZM98.26,77.62l-7.56-4.28.11.71,7.56,4.28-.11-.71ZM99.28,78.2l.11.71,3.2,1.81-.11-.71-3.2-1.81ZM105.77,81.87l-2.27-1.29.11.71,2.27,1.29-.11-.71ZM108.08,83.18l-1.28-.73.11.71,1.28.73-.11-.71ZM92.07,75.89l-2.81-1.59.11.71,2.81,1.59-.11-.71ZM96.22,78.23l-3.12-1.77.11.71,3.12,1.77-.11-.71ZM97.24,78.81l.11.71,2.77,1.57-.11-.71-2.77-1.57ZM104.42,82.88l-3.38-1.91.11.71,3.38,1.91-.11-.71ZM108.37,85.11l-2.93-1.66.11.71,2.93,1.66-.11-.71ZM94.95,79.28l-5.46-3.09.11.71,5.46,3.09-.11-.71ZM98.84,81.49l-2.87-1.62.11.71,2.87,1.62-.11-.71ZM99.86,82.07l.11.71,3.2,1.81-.11-.71-3.2-1.81ZM91.25,78.96l-1.41-.8.11.71,1.41.8-.11-.71ZM96.8,82.1l-4.53-2.57.11.71,4.53,2.57-.11-.71ZM97.82,82.68l.11.71,3.64,2.06-.11-.71-3.64-2.06Z"/><polygon class="cls-4" points="135.11 97.26 115.94 86.4 114.53 78.81 133.71 89.67 135.11 97.26"/><polygon class="cls-5" points="105.63 71.64 86.45 60.78 85.91 57.16 105.08 68.02 105.63 71.64"/><polygon class="cls-16" points="83.58 46.57 83.88 48.22 96.38 55.58 96.08 53.92 83.58 46.57"/></g><g id="door"><polygon class="cls-7" points="196.19 226 160.97 205.01 160.97 113.4 196.19 135.18 196.19 226"/><polygon class="cls-24" points="196.19 135.18 197.49 134.28 162.49 112.51 160.97 113.4 196.19 135.18"/><polygon class="cls-3" points="197.49 134.28 197.49 225.21 196.19 226 196.19 135.18 197.49 134.28"/><path class="cls-19" d="M168.34,144.76c-.13-.33-.28-.57-.6-.75-.29-.17-.47-.09-.48.22-.01.36.2.62.59.96.57.49.86.94.84,1.6-.02.55-.32.9-1,.51-.49-.28-.82-.67-1.04-1.21l.39-.13c.16.36.32.6.65.78.39.22.52.07.53-.2,0-.3-.11-.55-.6-.97-.54-.46-.84-.98-.82-1.61.02-.56.31-.87.98-.49.45.26.76.64.95,1.16l-.37.13Z"/><path class="cls-19" d="M171.04,145.38l-.02.54-.82-.46-.1,3.17-.48-.27.1-3.17-.82-.47.02-.54,2.12,1.2Z"/><path class="cls-19" d="M170.82,149.03l1.11-3.15.45.26.87,4.28-.51-.29-.17-.88-1.03-.58-.22.66-.51-.29ZM171.7,148.2l.76.43-.33-1.72-.43,1.29Z"/><path class="cls-19" d="M175.44,147.88l-.02.54-1.27-.72-.03,1.07,1.14.65-.02.54-1.14-.65-.05,1.57-.48-.27.12-3.71,1.74.99Z"/><path class="cls-19" d="M177.6,149.11l-.02.54-1.27-.72-.03,1.07,1.14.65-.02.54-1.14-.65-.05,1.57-.48-.27.12-3.71,1.74.99Z"/><path class="cls-19" d="M180.51,154.55l-.5-1.82-.55-.31-.05,1.51-.48-.27.12-3.71.97.55c.66.37,1.04.97,1.01,1.7-.02.51-.21.73-.55.7l.56,1.95-.53-.3ZM179.94,152.14c.4.23.61.2.62-.22.01-.42-.18-.68-.58-.91l-.46-.26-.04,1.12.46.26Z"/><path class="cls-19" d="M182.39,155.67c-.64-.36-1.05-1.11-1.01-2.27l.02-.47c.04-1.17.48-1.42,1.12-1.06.64.36,1.05,1.11,1.01,2.28l-.02.47c-.04,1.17-.48,1.42-1.12,1.06ZM181.86,153.67c-.03.8.17,1.24.55,1.46.38.22.6.01.63-.79l.02-.47c.03-.8-.17-1.24-.55-1.46-.38-.22-.6-.01-.62.79l-.02.47Z"/><path class="cls-19" d="M184.92,157.11c-.63-.36-1.05-1.11-1.01-2.27l.02-.47c.04-1.17.48-1.42,1.12-1.06.64.36,1.05,1.11,1.02,2.28l-.02.47c-.04,1.17-.48,1.42-1.12,1.06ZM184.39,155.1c-.03.8.17,1.24.55,1.46.38.22.6.01.63-.79l.02-.47c.03-.8-.17-1.24-.55-1.46-.38-.22-.6-.01-.62.79l-.02.47Z"/><path class="cls-19" d="M187.82,157.12l.89-1.69.46.26-.12,3.71-.46-.26.08-2.49-.71,1.4-.34-.19-.58-2.12-.08,2.47-.46-.26.12-3.71.45.26.75,2.62Z"/><path class="cls-15" d="M165.28,156.57c-.49.28-.89.9-.89,1.39v21.82c0,.49.4.66.89.39s.89-.9.89-1.39v-21.82c0-.49-.4-.66-.89-.39Z"/><path class="cls-15" d="M166.68,176.28l-.5.28c-.25.14-.46.46-.46.71v.16c0,.25.2.34.46.2l.5-.28c.25-.14.46-.46.46-.71v-.16c0-.25-.2-.34-.46-.2Z"/><path class="cls-15" d="M166.68,157.47l-.5.28c-.25.14-.46.46-.46.71v.16c0,.25.2.34.46.2l.5-.28c.25-.14.46-.46.46-.71v-.16c0-.25-.2-.34-.46-.2Z"/></g><g id="person04"><path class="cls-21" d="M21.73,93.42c1.21.04.12-.98,0-1.42.17-.06.66-.41.81-.39.3.06.44.43.67.67l-.58.98c-.03.18,0,.29.04.37-.33.2-.63.44-.75.69.02-.19.02-.39-.09-.46-.01,0-.02,0-.04-.02.03-.14,0-.29-.06-.43Z"/><path class="cls-21" d="M21.35,94.27s0,0,.01,0c0,.04,0,.07,0,.1,0-.03-.01-.06-.02-.09Z"/><path class="cls-21" d="M28.66,87.81l-1.85-.46c-.77-.29-.99.54-.99.54l-1.8,3.05c-.31,0-.49.22-.29.49l-.06.1c-.18-.28-.32-.47-.61-.61-.15-.07-.56-.29-.72-.3-.17-.02-.89.31-1.58.66-.02-.09-.03-.19-.06-.28-.21-.75-.47-1.49-.78-2.2-.3-.68-.91-2.09-1.89-2.15-.02-.04-.04-.08-.07-.11-.79-1.2-2.34-1.45-3.85-1.67-.4-.06-.82-.12-1.24-.19-.15-.36-.36-.69-.54-.85-.31-.27-.71-.46-1.13-.62,0-.24,0-.47.1-.62.26-.4.86-.09,1.23-.31.1-.06.18-.13.25-.22.26-.33.33-.84.5-1.18.2-.4.4-.8.62-1.19.27-.47.46-.92.63-1.43.29-.89-.21-1.48-.2-2.33,0-.76.37-.9.32-1.7.05,0-.06-.73-.02-.74-.26-.32-.44-.69-.59-1.08-.58-.33-.71-.92-1.35-1.34-.65-.21-1.33-.39-2.01-.45-.29-.03-.57-.01-.83.02-.91-.02-1.82.13-2.55.46-1.8.82-2.68,2.72-2.66,4.47.01,1.1.39,1.9.88,2.73-.21.15.4.2.25.42-.41.6.23,0,.69.58.37.48.24.92.84.95-.29.18-.24,1.71-.24,1.83-.3-.01-.88.12-.93.27-.22.71-.5,1.23-.49,1.7,0,.31-.21.58-.09.86-1.75.82-3.63,2.24-4.37,3.36-2.46,3.71,1.88,8.8,3.07,12.5.26.82.37,1.86.62,2.79-.81,2.06-.87,4.65-1.14,6.5-.84,5.9-2.38,11.69-3.39,17.56-.1.6-.35,1.33-.31,1.94.06,1,.06.75.87,1.4.82.64,1.44,1.01,2.5,1.2.65.12,1.31.18,1.98.22.04.28.08.55.11.81.29,2.38.14,4.77.37,7.14.09.97,0,1.93-.06,2.91-.08,1.1-.31,3.87.65,4.69.1.09.25.17.41.26-.08.69-.09,1.31.01,1.53.28.62,1.2.67,1.79.75.98.14.95.52,1.72.9,1.07.53,4.51.9,5.58.29.17-.1.28-.2.34-.3,1.43.18,3.19.15,3.89-.28,1.37-.84-1.22-1.93-1.87-2.29-.7-.39-1.3-.72-1.81-1.12.04-.61-.4-1.18-.38-1.8.02-.7.2-1.34.05-2.05-.18-.87-.93-1.77-1-2.62-.07-.88.48-1.82.44-2.77-.04-1-.55-1.97-.58-2.95-.02-.82.23-1.69.34-2.51.01-.11.02-.22.03-.33,1.82,0,3.62-.13,5.27-.59.3-5.37.42-10.72.15-16.14-.14-2.72-.52-5.43-.9-8.13-.2-1.45-.46-2.9-.59-4.35-.06-.7.06-1.43-.1-2.1.28.04.59.06.94,0,.91-.13,1.27-.58,1.68-1.28.6-1.02,1.44-1.9,2-2.95.38-.72.85-1.38,1.31-2.06.02-.03.05-.07.08-.1,0,0,.02-.01.02-.02.11-.12.22-.24.33-.36.04-.03.07-.07.1-.11.2-.21.4-.43.59-.66.34-.41.75-.78,1.09-1.18.43-.52.8-.87.77-1.56-.01-.28-.07-.55-.13-.82l1.04-1.85c.41-.38-.41-.59-.41-.59ZM22.67,93.64c-.33.2-.63.44-.75.69.02-.19.02-.39-.09-.46-.01,0-.02,0-.04-.02.02-.14,0-.29-.06-.43,1.21.04.12-.98,0-1.42.17-.06.66-.41.81-.39.3.06.44.43.67.67l-.58.98c-.03.18,0,.29.04.37Z"/><path class="cls-21" d="M21.37,94.36s-.01-.06-.02-.09c0,0,0,0,.01,0,0,.04,0,.07,0,.1Z"/><path class="cls-21" d="M4.3,77.92c-.56.23-1.13.7-1.09,1.3.02.2.1.39.19.58.21.45.52.97,1.02.98.09.29-.01.65-.29.79s-.67-.06-.66-.37c-.1,0-.16.12-.14.22s.08.17.16.24c.23.21.53.34.84.38.16.02.34,0,.47-.09s.17-.32.04-.43c.13.22.05.54-.17.68-.12.07-.26.09-.38.17.37.17.83.14,1.16-.09.12-.08.23-.19.33-.29.25-.26.5-.53.62-.87s.08-.75-.17-1c-.07-.07-.16-.13-.16-.23,0-.1.1-.18.21-.2s.21,0,.31-.04c.2-.06.31-.29.31-.5s-.09-.41-.18-.6c-.18-.39-.4-.87-.86-.95s-1.12.13-1.56.31Z"/></g><g id="person03"><path class="cls-21" d="M71.16,173.45c.36-1.46.27-6.85.59-9.47s0-8.89.87-12c.87-3.11.46-3.3.36-4.03,1.37-1.75-.23-7.92-.09-9.47.11-1.26.43-3.22.62-4.25-.46-.67-.63-1.54-.68-2.33-.06-2.12.26-4.16.75-6.18.36-1.32.74-2.63,1.3-3.89-.24-.33-.47-.65-.71-.97-.62-.52-1.24-1.03-1.69-1.62v.2c-1.49-.47-3.77-1.21-3.96-2.23.82-.44.96-2.14.87-2.57.73-.73-.23-5.4-3.65-5.4-.87.1-1.69.47-2.4.97-.71.51-1.25,1.24-1.47,2.08-.22.84-.15,1.75.13,2.59.1.43.32.83.47,1.25l.62,1.19.02.04s.03.09.03.14c-.08.73-.57.98-.9,1.22-.36.23-.73.41-1.1.58l-2.18.93c-.39.17-.8.36-1.15.57-.67,1.91-.45,4.31-.54,6.2-.03.75-.04,1.51-.06,2.26.33.51.54,1.08.55,1.7.01,1.8.16,3.37.51,4.94.16.71.11,1.44-.14,2.08,0,.07,0,.13-.01.2-.34,3.02-1.06,6.01-1.6,9.03.04.6.08,1.2.12,1.78l.42-.12c.07,3,.17,10.21-.21,11.44-.02.07-.04.18-.05.29.26,1.77.45,3.53.12,5.18.19,3.43.41,7.26-.12,7.79-.91.92-1.25.92-1.28,1.85-.05,1.8,1.41,1.8,1.64,2.43.23.63,3.14.78,3.19,0,.05-.78.18-3.11.5-4.08s.55-8.69.82-10.44c.27-1.75,2.32-12.24,3.24-12.24.03,0,.07.05.1.08v10.43h1.44c.05.93.07,1.63.05,1.88-.09,1.17.48,9.22.46,10.44-.05,2.04-.91,3.54-.09,3.93,2.46,1.17,3.51-.58,4.6-.58s2.89-1.58,2.46-3.4c-.23-.97-2.1,0-2.78-.39Z"/></g></g></svg>