<?xml version="1.0" encoding="UTF-8"?><svg id="_レイヤー_2" xmlns="http://www.w3.org/2000/svg" viewBox="0 0 34.07 94.81"><defs><style>.cls-1{fill:#7c5d2f;}</style></defs><g id="person02"><g id="person02-2"><path class="cls-1" d="M31.49,87.08c-1.38-.43-2.55-1.33-3.76-2.17-.02-.53-.03-.67.08-1.1.11-.41.3-.83.19-1.31-.2-.89-.53-1.37-.34-2.33.4-2.04.94-4.05.84-6.11-.1-2.2.05-4.63.56-6.77.56-2.36.63-4.69.91-7.11.17-1.5.32-3.1.6-4.57.23-1.18.28-2.34.48-3.55.13-.78.14-1.54.29-2.3.11-.56.22-1.21.28-1.88.07-.04.14-.08.21-.15.37-.4.24-1.37.38-1.87.12-.43.39-1.05.56-1.67,1-.78.34-3.32.29-4.39-.07-1.34.9-1.36.71-2.68-.3-2.02-.01-3.22-.11-5.26-.08-1.77.12-4.53-.11-6.26-.17-1.2-.2-2.38-.58-3.55-.36-1.11-.27-3.14-1.28-3.99-.15-.32-.41-.64-.86-.96-1.12-.8-2.48-1.18-3.74-1.71-.77-.32-1.41-.38-2.19-.7.04-.87-.37-2.61.08-2.38.43-.38.78-.86,1.07-1.37.53-.94.99-1.94,1.01-3.03.01-.75.12-1.51.2-2.27.09.15.15.31.15.45.13-.15.2-.52.18-.72-.02-.24-.17-.42-.28-.62,0-.03,0-.05,0-.08.11.04.21.1.3.13.11.03.34-.07.42-.03-.2-.09-.42-.26-.55-.45-.11-.16-.14-.45-.28-.63.19.11.34.28.52.39-.06-.29-.11-.62-.23-.9-.09-.21-.19-.41-.33-.6-.27-.36-.59-.79-1.03-.93.21.07.6.13.77-.05-.33-.17-.77-.15-1.11-.31-.66-.32-.96-1.12-1.83-.9-.03,0-.07.02-.11.04-.06-.05-.12-.09-.16-.11-.18-.08-.38-.13-.57-.19-.28-.08-.51-.12-.79-.12-.46,0-.9.05-1.22.4-.37.43-.79.39-1.32.33.07.18.28.33.46.4-.42-.08-.9.26-1.15.58.18,0,.36.05.54.07-.26.22-.68.23-.96.06.03.21.06.38.18.55,0,.01.02.03.03.04-.25.12-.51.23-.77.22.19.15.45.27.71.27-.28.21-.44.7-.56,1.02-.1.28-.09.47-.1.73.08-.04.21-.12.28-.19.11.53-.08.86-.41,1.23.14.04.34.02.45-.07-.04.19,0,.41.06.62-.06.04-.11.08-.14.13-.25.37-.15.98-.08,1.39.07.37.27,1.64.9,1.33-.05.45.38,1.05.53,1.47,0,.02.02.04.02.06-.03.16-.07.32-.09.48-.08.79.22,1.5-.69,2.9-.72.19-.75.26-1.4.56-1.93.91-3.89,1.97-5.38,3.51-.33.34-.53.69-.65,1.04-1.03,2.23-1.56,5.68-1.58,7.9-.01,1.56-.38,2.28-.59,3.79-.16,1.09-.83,2.03-.92,3.18-.08,1.01-.7,2.24-.62,3.22.08.91-.28,1.82-.38,2.74-.1.84-.23,1.53-.44,2.36-.17.71-.09,1.24-.29,1.93-.08.28-.04.51.06.72-.08.08-.17.15-.26.19-.06.03-.13.04-.19.06-.04.17-.09.34-.15.5.01.04.02.08,0,.13-.08.18-.13.39-.17.59-.05.29-.03.57-.08.85-.04.22-.12.42-.15.63-.03.21.04.35.1.53-.32.31-.66.67-.99,1.07-.61.73-1.3,1.52-1.72,2.37-.38.77-.53,1.63-.8,2.44-.75,2.22-1.1,4.65-1.61,6.94-.44,1.93-.61,3.87-.73,5.85-.08,1.25-.15,2.32,1.13,2.86,1.4.59,2.83.94,4.33,1.02,1.06.06,2.04-.22,3.06-.37.78-.12,1.59-.21,2.39-.21.96,0,1.93-.05,2.78-.4-.11.53-.22,1.07-.35,1.56-.15.58-.07,1.19-.15,1.77-.12.84-.38,1.63-.46,2.49-.16,1.79-.01,3.55.12,5.33.11,1.46.5,2.91.49,4.38,0,.77-.43,2.38-.19,3.25-.58,1.75,3.91,4.33,4.54,5.26.51.75,3.16.74,3.98.74.67,0,1.6-.16,1.83-.75.2-.5.57-.72.49-1.2-.05-.33-.16-1.26-1.26-1.75-.44-.49-1.53-1.21-2.36-2.14-.54-.61-.73-1.05-.82-2.05-.07-.72-.5-1.9-.44-2.66.1-1.13-.33-2.54-.15-3.68.39-2.5.52-5.11.52-7.65,0-1.99.77-3.41,1.15-5.3.26-1.27.1-2.7.1-4,0-2.08.45-4.11.8-6.15.16-.93.49-1.8.82-2.66.11,3.26.48,6.53-.07,9.72-.2,1.18-.2,2.39-.31,3.57-.13,1.39-.51,2.87-.33,4.25.41,3.28-.01,6.28-.17,9.55-.05,1.14-.22,2.25-.17,3.41.02.42.06.71.15.93-.02.1-.05.2-.07.3-.14.75-.44,2.28-.01,2.91.04.06.09.11.14.16.74.73,2.61.78,3.46.55.67-.19,1.01-.6,1.83-.5.7.09,1.36.35,2.06.48,1.29.25,4.38.75,5.03-.92.71-1.82-1.34-1.83-2.43-2.16ZM8.67,54.05c-.51.04-1.76.31-2.13-.13-.36-.42-.09-1.52-.09-2.02,0-.81.18-1.62.44-2.39.01-.03.04-.1.08-.18.16.05.33.07.48-.03.06.11.18.24.31.28.1.03.2-.04.3-.03.19,0,.1.03.2.14.18.18.32.18.57.15.27-.04.22.06.4.23.09.09.16.12.29.08.03,0,.05-.04.07-.05.38.91,1,2.02.84,2.92-.17.94-.94.98-1.75,1.05ZM14.6,38.42c-.39,1.12-.51,2.43-.55,3.56,0,.15-.01.3-.02.46-.05,1.22.73,1.86.67,3.09-.01.27-.05.56-.09.85-.36.91-.57,1.91-.64,2.66-.08.86-.13,1.72-.15,2.58h-.28s-.23.01-.23.01c0-.01-.01-.03-.02-.04-.5-.91-1.07-1.72-1.71-2.53-.13-.17-.49-.54-.89-.86.23-.5.47-1.02.58-1.55.31-.04.56-.22.71-.69.52-1.57.77-3.07,1.01-4.69.43-2.81,1.67-6.04,1.85-10.15.02-.39.03-.77.04-1.16.14.32.25.64.3.95.27,1.87-.69,4.61-.63,6.54.01.37.03.69.05.99Z"/></g></g></svg>