<?xml version="1.0" encoding="UTF-8"?><svg id="_レイヤー_2" xmlns="http://www.w3.org/2000/svg" viewBox="0 0 51.41 100.44"><defs><style>.cls-1{fill:none;}.cls-2,.cls-3{fill:#7b5c2e;}.cls-3,.cls-4{stroke:#fff;stroke-miterlimit:10;stroke-width:.18px;}.cls-4{fill:#fff;}</style></defs><g id="person01"><path class="cls-1" d="M3.53,21.95c-.14-.25-.49-.33-.78-.17l-1.57.85c-.29.16-.42.5-.28.75l1.01,1.87c.29-.49.92.4.99.71.07.32-.09.64-.03.96.08.38.41.44.67.67.07.06.13.13.2.19.07-.01.14,0,.21-.03l1.57-.85c.29-.16.42-.5.28-.75l-2.28-4.19Z"/><path class="cls-2" d="M2.87,29.77c.33.27.54.36.83.71.12.14.25.26.37.38,0,.02,0,.05.01.07.33,1.59,2.26,2.15,3.59,2.71.78.33,1.73.77,2.68.97.15.13.31.24.5.31,1.21.41,2.9-.26,3.8-1.24.17-.29.34-.58.5-.86.11-.19.22-.38.34-.57.02-.03.03-.05.04-.07,0,0,0-.01.01-.02.17-.32.35-.63.5-.96.07-.15.14-.3.2-.46.02-.05.06-.2.09-.31,0-.03,0-.05,0-.07-.01-.14-.03-.27-.05-.4,0-.06,0-.09,0-.12-.01-.03-.03-.08-.05-.14-.07-.24.54.12.78.08,1.62-.33,1.82-2.52,1.66-3.14-.09-.35-.15-.7-.18-1.05-.14-.13-.27-.25-.41-.38-1.93-1.79-1.88-4.23-3.54-6.28-.41.21-.83.4-1.25.58-.25.11-.52.15-.78.14.22.99-1.41,2.98-1.29,3.97.15,1.33-2.82,2.77-2.66,4.12-.73-.05-1.45-.1-2.18-.05-.03-.05-.06-.1-.09-.14l.19-.1c.19-.1.26-.35.15-.55l-3.1-5.77c-.11-.2-.36-.28-.54-.18l-2.8,1.5c-.19.1-.26.35-.15.55l1.88,3.51s.03.1.03.15c0,.08-.01.19-.04.31,0,0,0,.02,0,.02-.11.29-.1.49-.05.68,0,.02.01.03.02.05.11.32.38.58.54.99.2.48.03.73.44,1.07ZM1.17,22.63l1.57-.85c.29-.16.65-.08.78.17l2.28,4.19c.14.25.01.59-.28.75l-1.57.85c-.07.04-.14.02-.21.03-.07-.06-.13-.13-.2-.19-.27-.23-.6-.29-.67-.67-.06-.32.1-.64.03-.96-.07-.31-.7-1.2-.99-.71l-1.01-1.87c-.14-.25-.01-.59.28-.75Z"/><path class="cls-2" d="M51.26,64.28c.09-2.13,0-4.27,0-6.41,0-.67-.02-1.33-.06-2-.11-1.85-.34-3.71-.49-5.56-.14-1.71.32-4.01-.24-5.57-.54-1.51-1.5-2.74-2.46-3.98-.02-.81-.09-1.74-.29-2.61,1.55-2.47.3-4.62-.08-6.06-.55-2.14.25-6.08-.78-8.08-.2-.39-.49-.95-.85-1.55-.32-1.08-.77-2.11-1.44-3.03-.6-.83-1.25-1.68-2.06-2.3.04-.27.08-.55.11-.84.08-.75.14-1.5.03-2.25-.2-1.34-.27-2.72-.33-4.1-.03-.79.13-1.53.14-2.29.02-1.44-1.48-3.07-2.68-3.68-.69-.35-1.31-.5-2.06-.61-.24-.04-.3-.06-.5-.15-2.67-1.2-5.41.21-6.62,2.69-.25.51-.43,1.3-.34,1.88.07.47.38.97.79,1.34-.17.35-.36.66-.44,1.06-.2,1-.08,2.1.11,3.1.13.68.39,1.35.55,2.03.12.5.21,1.05.69,1.3.72.38,1.81.05,2.6.1,0,.55.18,1.05.29,1.57-.32.31-.61.62-.86.93-.07.07-.13.15-.19.22-1.02-.76-2.02-1.52-3-1.97-.83-.82-2.12-1.24-3.25-1.64.04-.21.04-.44-.06-.69-.38-1-1.46-1.6-1.41-2.78.06-1.18.88-2.06.29-3.27-.62-1.27-1.65-2.29-2.23-3.58-.2-.46-.39-.93-.57-1.4-.08-.56-.24-1.09-.52-1.56h0c-.32-1.07-.65-1.65-1.66-2.19-.88-.47-2.03-.39-2.95-.09-.14.05-.26.1-.37.16-.08.02-.17.04-.25.06-1.65-.23-3.51,1.06-4.07,2.5-.39,1.02-.82,2.26-.71,3.37.06.63.45,1.35,1,1.76,0,.35-.07.7-.1,1.06-.07.8.22,1.23.62,1.92.27.46.51.94.76,1.42-.08.43-.32.7-.5,1.13-.25.62-.26,1.45-.03,2.08.08.2.17.37.28.52-.29.32-.51.68-.69,1.08-2.59,2.14-4.07,8.1-4.68,10.41-.85,3.23.89,4.59,2.69,6.88-.25,1.33-.33,2.7-.49,4.04-.17,1.39-.74,2.82-.69,4.22.02.7.22,1.3.54,1.8-.17,1.44-.25,2.93-.05,4.34.27,1.93.13,3.53.03,5.47-.04.83-.53,2.95-.24,3.69.33.82,1.29.9,2.27.86,0,.55,0,1.09.08,1.64.22,1.52.85,2.87,1.31,4.31.31.94.83,1.9.98,2.82.19,1.19,0,2.51.12,3.71.05.53-.02,2.42.09,4.31-.34.02-.69.08-.9.09-.41.48-.3,1.05-.08,1.63-.97,1.31-1.89,2.78-2.82,3.31-.62.35-2.57.34-2.8,1.24-.35,1.34,1.76,1.74,2.65,1.85,2.1.27,2.91-.56,4.7-1.32.75-.32,2.12-.31,2.67-.97.45-.56.33-1.52.14-2.41.08-.14.14-.27.15-.39.03-.35-.18-.7-.34-1.04.14-.67.21-1.33.25-1.72.42-4.39,1.78-9.55-.15-13.69-.41-.89-.61-1.64-.7-2.41.58.16,1.15.27,1.74.24.08,1.04.22,1.94.32,2.46.28,1.35.83,2.48,1.43,3.69,1.22,2.47,1.15,5.21,1.96,7.82.43,1.4,1.19,2.66,1.61,4.07.36,1.21.35,2.56.72,3.76-.5.68-.21,1.54-.17,2.37-.1.45-.19.82-.28,1.04-.61,1.52-3.11,4.33-.55,5.29,1.61.6,3.18-.13,4.01-1.64.41-.74.18-1.35.41-2.11.27-.9.94-1.21.93-2.26,0-.3-.13-1.01-.33-1.82.07-.67.14-1.36-.05-1.89-.23-.62-.29-.82-.66-.81.13-1.88-.2-3.97-.26-5.27-.09-1.85-.49-3.74-.74-5.57-.35-2.47-1.36-4.41-2.03-6.67-.22-.74-.27-1.92-.35-3.21.77-.04,1.58-.2,1.91-.73.36-.58-.04-1.17-.13-1.76-.24-1.57.25-3.16.16-4.73-.1-1.97-.93-3.87-1.47-5.74-.1-.36-.2-.73-.3-1.09.43-.1.79-.22.9-.36.19-.24.02-1.28.03-1.58.02-1.97.37-3.25-.22-5.18-.64-2.11-.02-3.64.45-5.7.53-2.35.99-4.8,1.72-7.1.04-.13.09-.27.14-.41.4.12.83.22,1.27.32-.19,1.01-.3,2.03-.27,3.05.03,1.25-.35,2.32.15,3.5.49,1.16,1.2,2.3,1.78,3.44.45.89.76,2.13.93,3.11.17.93-.12,1.8.39,2.68.11.19.21.36.32.54.16,1.28-.26,3.33.04,4.44-.34,2.18.35,3.04.08,4.86-.28,1.88-.68,4.09-.91,6.27-.5,2.21-.93,4.44-1.53,6.62-.47,1.71-.85,2.36.93,3.05.67.26,1.51.54,2.36.8.01.63.1,1.27.21,1.84.17.9.71,1.25.9,2.04.4,1.63-.26,3.56-.33,5.21-.11,2.44.73,4.85.84,7.27.03.54-.4,1.93-.67,3.31-.54.28-1.02.9-1.51,1.4-.82.86-1.91,1.22-3.01,1.57-.88.27-2.62.58-2.98,1.57-.61,1.67,3.78,1.87,4.73,1.87,1.38,0,1.95-.29,3.16-.92.34-.18.6-.26.85-.31-.14.49-.26,1-.32,1.48-.97.77-2.15,1.26-3.29,1.76-1.11.48-4.82,1.38-4.03,3.06.45.95,2.37,1.35,3.34,1.47,1.29.16,3.11,0,4.31-.44.89-.33,1.46-1.18,2.35-1.47.82-.27,1.81-.18,2.62-.6.94-.5.64-.87.39-1.68-.27-.87-.1-1.84-.48-2.68-.17-.38-.31-.54-.45-.57-.15-.03-.27-.15-.31-.3,0,0,0,0,0,0-.02-.09-.02-.18.02-.26,1.33-3.27,2.76-6.46,3.61-9.9.63-2.53,1.1-5.4.49-8.02-.38-1.63-1.07-3.12-1.22-4.82,0-.12,0-.24-.01-.36,1.79.43,4.41.43,5.46.06,1.8-.63.89-2.91.99-5.06Z"/><rect class="cls-4" x="21.08" y="18.62" width="3.11" height="6.15" transform="translate(-2.11 2.44) rotate(-5.91)"/><path class="cls-1" d="M23.85,18.96c-.03-.29-.33-.49-.66-.46l-1.78.19c-.33.04-.58.3-.55.58l.22,2.11c.46-.35.7.72.64,1.03-.05.32-.33.56-.39.87-.08.38.21.56.37.88.04.08.08.17.11.26.07.02.13.06.2.05l1.78-.19c.33-.04.58-.3.55-.58l-.5-4.75Z"/><path class="cls-3" d="M33.04,20.28c-.18,1-2.44,2.22-2.71,3.17-.37,1.29-2.74,3.61-3.11,4.92-.65-.32-2.23-2.78-2.92-3.02-.01-.05-.02-.11-.03-.16l.22-.02c.22-.02.37-.23.35-.45l-.65-6.52c-.02-.23-.22-.4-.43-.38l-3.16.32c-.22.02-.37.23-.35.46l.4,3.96s-.01.1-.03.15c-.03.07-.08.17-.15.27,0,0-.01.01-.02.02-.22.22-.28.41-.3.61,0,.02,0,.04,0,.06-.02.34.13.68.12,1.12,0,.52-.25.69,0,1.16.2.38.36.54.5.97.05.17.13.33.2.49,0,.02-.01.05-.02.07-.3,1.59,1.26,2.85,2.28,3.88.59.6,1.3,1.37,2.1,1.92.08.18.19.34.34.48.96.84,2.78.87,3.99.31.27-.21.54-.4.79-.6.18-.13.35-.27.53-.4.02-.02.04-.03.06-.05,0,0,.01,0,.02-.01.28-.23.57-.45.83-.69.12-.11.25-.23.36-.35.03-.04.13-.16.2-.25.01-.02.02-.04.04-.06M21.42,18.69l1.78-.19c.33-.04.63.17.66.46l.5,4.75c.03.29-.22.55-.55.58l-1.78.19c-.08,0-.13-.03-.2-.05-.04-.08-.07-.17-.11-.26-.16-.31-.44-.49-.37-.88.06-.32.34-.55.39-.87.05-.31-.19-1.38-.64-1.03l-.22-2.11c-.03-.29.21-.55.55-.58Z"/></g></svg>