<?xml version="1.0" encoding="UTF-8"?><svg id="_レイヤー_2" xmlns="http://www.w3.org/2000/svg" xmlns:xlink="http://www.w3.org/1999/xlink" viewBox="0 0 62.13 112.56"><defs><style>.cls-1{fill:#adaeae;}.cls-2{fill:url(#_名称未設定グラデーション_220-9);}.cls-3,.cls-4{fill:#231815;}.cls-5{fill:#8b969b;}.cls-6{fill:url(#_名称未設定グラデーション_220-4);}.cls-7{fill:url(#_名称未設定グラデーション_220);}.cls-8,.cls-9,.cls-10{fill:#fff;}.cls-11{fill:url(#_名称未設定グラデーション_220-7);}.cls-12{fill:url(#_名称未設定グラデーション_220-8);}.cls-13{fill:#ee8db7;}.cls-13,.cls-4,.cls-14,.cls-9,.cls-10,.cls-15,.cls-16{fill-rule:evenodd;}.cls-17{fill:url(#_名称未設定グラデーション_220-6);}.cls-18{fill:url(#_名称未設定グラデーション_220-2);}.cls-19,.cls-14{fill:#e75297;}.cls-9{stroke-width:.07px;}.cls-9,.cls-10{stroke:#231815;stroke-miterlimit:10;}.cls-20{fill:url(#_名称未設定グラデーション_220-5);}.cls-10{stroke-width:.05px;}.cls-21{fill:url(#_名称未設定グラデーション_220-10);}.cls-15{fill:#ddd9cc;}.cls-16{fill:#4f2511;}.cls-22{fill:url(#_名称未設定グラデーション_220-3);}.cls-23{fill:#e64290;}</style><linearGradient id="_名称未設定グラデーション_220" x1="10.36" y1="96.34" x2="2.93" y2="109.23" gradientUnits="userSpaceOnUse"><stop offset="0" stop-color="#edf3f4"/><stop offset=".33" stop-color="#f2f5f7"/><stop offset=".57" stop-color="#ebf1ef"/><stop offset=".92" stop-color="#e7eeea"/><stop offset=".98" stop-color="#d5d8d2"/><stop offset="1" stop-color="#d0d2cb"/></linearGradient><linearGradient id="_名称未設定グラデーション_220-2" x1="4.71" y1="108.43" x2="3.65" y2="110.26" xlink:href="#_名称未設定グラデーション_220"/><linearGradient id="_名称未設定グラデーション_220-3" x1="59.35" y1="2.96" x2="51.93" y2="15.85" xlink:href="#_名称未設定グラデーション_220"/><linearGradient id="_名称未設定グラデーション_220-4" x1="53.7" y1="15.05" x2="52.65" y2="16.88" xlink:href="#_名称未設定グラデーション_220"/><linearGradient id="_名称未設定グラデーション_220-5" x1="54.23" y1="6.29" x2="46.8" y2="19.18" xlink:href="#_名称未設定グラデーション_220"/><linearGradient id="_名称未設定グラデーション_220-6" x1="48.58" y1="18.38" x2="47.53" y2="20.21" xlink:href="#_名称未設定グラデーション_220"/><linearGradient id="_名称未設定グラデーション_220-7" x1="49.11" y1="9.62" x2="41.68" y2="22.51" xlink:href="#_名称未設定グラデーション_220"/><linearGradient id="_名称未設定グラデーション_220-8" x1="43.46" y1="21.71" x2="42.41" y2="23.54" xlink:href="#_名称未設定グラデーション_220"/><linearGradient id="_名称未設定グラデーション_220-9" x1="37.86" y1="15.97" x2="30.44" y2="28.85" xlink:href="#_名称未設定グラデーション_220"/><linearGradient id="_名称未設定グラデーション_220-10" x1="32.21" y1="28.05" x2="31.16" y2="29.88" xlink:href="#_名称未設定グラデーション_220"/></defs><g id="_レイヤー_56"><path class="cls-7" d="M6.56,93.65c-.67-.39-1.23-.08-1.41.52-.3,1.02-.78,3.51-1.73,6.24-1.09,3.14-2.89,5.43-3.12,5.9-.4.82-.56,1.8.5,2.41,1.06.61,6.7,3.84,6.7,3.84-.65-.65-.33-1.31-.08-1.9s2.36-4.36,3.06-5.89c1.29-2.85,1.81-5.15,2.14-6.44.11-.43.27-1.04-.32-1.44-.69-.46-5.74-3.24-5.74-3.24Z"/><path class="cls-5" d="M9.63,109.1c.71-.32,1.29-.87,1.43-.84l-1.5-.92c-.59,1.12-.83,2.07.07,1.76Z"/><path class="cls-1" d="M12.71,96.79c-.69-.46-5.74-3.24-5.74-3.24-.37-.22-.71-.22-.97-.07.17,0,.36.06.56.17,0,0,5.05,2.77,5.74,3.24.59.4.43,1.01.32,1.44-.33,1.29-.85,3.59-2.14,6.44-.7,1.54-2.81,5.31-3.06,5.89-.18.43-.62,1.18.08,1.9.42-.42,4.36-3.14,4.36-3.14-.19-.29-.65-1.12-.8-1.15-.14-.03-.72.52-1.43.84-.89.31-.65-.64-.07-1.76.72-1.37.79-1.51,1.32-2.67,1.29-2.85,1.81-5.15,2.14-6.44.11-.43.27-1.04-.32-1.44Z"/><path class="cls-19" d="M7.31,95.98h-.01s-.7-.04-.7-.04l.08-.68.98.06.6.35-1.16,3.49-.71-.41.92-2.77Z"/><path class="cls-19" d="M8.55,99.31c.09.07.17.11.32.19.23.12.48.18.69.15.26-.04.47-.19.61-.42h0c-.19.07-.43.04-.72-.13-.53-.31-.84-.98-.61-1.66s.91-.97,1.6-.57c.8.47.96,1.38.69,2.2-.24.73-.63,1.14-1.08,1.29-.4.13-.87.04-1.36-.22-.12-.06-.25-.14-.33-.19l.21-.63ZM9.57,97.82c-.1.3-.04.65.26.82.2.12.38.1.49.01.04-.04.07-.09.1-.19.13-.37.12-.81-.22-1.01-.25-.14-.51,0-.63.36Z"/><polygon class="cls-3" points="9.89 103.02 4.87 100.09 5.25 98.95 10.27 101.89 9.89 103.02"/><path class="cls-8" d="M5.59,99.37l-.08.24.21.12.08-.24.13.07-.21.62-.13-.07.09-.26-.21-.12-.09.26-.13-.07.21-.62.13.07Z"/><path class="cls-8" d="M6.2,100.34s-.03.09-.03.11l-.11-.07v-.05s0,0,0,0c-.04.02-.09.02-.13-.01-.08-.05-.11-.14-.08-.22.04-.12.15-.12.29-.03h0s0-.07-.05-.11c-.04-.02-.09-.03-.12-.03v-.1s.1,0,.18.05c.13.08.15.19.11.3l-.05.16ZM6.11,100.16c-.07-.04-.12-.05-.14,0-.01.04,0,.07.03.08.03.02.06.01.08-.01,0,0,0-.01.01-.02l.02-.05Z"/><path class="cls-8" d="M6.51,100.11v.24s-.02.08-.03.12h0s.04-.06.06-.1l.12-.18.13.08-.3.37-.13-.07v-.54s.14.08.14.08Z"/><path class="cls-8" d="M6.86,100.64c-.02.06.03.12.09.15.04.03.08.04.12.05v.11c-.06,0-.12-.03-.17-.06-.14-.08-.19-.21-.14-.36.04-.12.15-.2.29-.12.13.08.14.22.11.33,0,.02-.02.04-.02.05l-.26-.15ZM7.04,100.63s.02-.1-.04-.13c-.05-.03-.09,0-.11.04l.15.09Z"/><path class="cls-8" d="M7.69,101.2s-.03.09-.03.11l-.11-.07v-.05s0,0,0,0c-.04.02-.09.02-.13-.01-.08-.05-.11-.14-.08-.21.04-.12.15-.12.3-.03h0s0-.07-.05-.11c-.04-.02-.09-.03-.12-.03v-.1s.1,0,.18.05c.13.08.15.19.11.3l-.05.16ZM7.6,101.03c-.07-.04-.12-.05-.14,0-.01.04,0,.07.03.08.03.02.07,0,.08-.01,0,0,0-.01.01-.02l.02-.05Z"/><path class="cls-23" d="M7.96,101.35s.06.08.1.1c.04.02.06.02.07,0s0-.04-.04-.09c-.07-.08-.09-.15-.07-.2.03-.08.11-.11.21-.05.05.03.09.07.11.09l-.05.08s-.05-.06-.08-.08c-.03-.02-.05-.01-.06,0,0,.02,0,.04.05.09.07.08.08.14.06.2-.03.08-.11.11-.22.04-.05-.03-.1-.07-.12-.11l.06-.09Z"/><path class="cls-23" d="M8.44,101.56c-.02.06.03.12.09.15.04.03.08.04.12.05v.11c-.06,0-.12-.03-.17-.06-.14-.08-.19-.22-.14-.36.04-.12.15-.2.29-.12.13.08.14.22.11.33,0,.02-.02.04-.02.05l-.26-.15ZM8.62,101.55s.02-.1-.04-.13c-.05-.03-.09.01-.11.05l.15.09Z"/><path class="cls-23" d="M9.09,102.03s-.03.08-.03.11l-.11-.07v-.05s0,0,0,0c-.04.02-.09.02-.13-.01-.08-.05-.11-.14-.08-.21.04-.12.15-.12.29-.04h0s0-.07-.05-.11c-.04-.02-.09-.04-.12-.03v-.1s.1,0,.18.05c.13.08.15.19.11.3l-.05.16ZM9,101.85c-.07-.04-.12-.05-.14,0-.01.04,0,.07.03.08.03.02.06.01.08-.01,0,0,0-.01.01-.02l.02-.05Z"/><path class="cls-23" d="M9.49,101.7l-.04.12.09.05-.03.1-.09-.05-.05.16c-.02.05-.01.09.02.11.02.01.03.01.04.02l-.04.11s-.05-.02-.08-.04c-.04-.02-.07-.06-.08-.09-.01-.04-.01-.09.01-.15l.06-.19-.05-.03.03-.1.05.03.03-.08.14.03Z"/><path class="cls-23" d="M9.37,102.45c.05-.07.11-.15.15-.23l.13.07c-.06.08-.13.15-.19.2l-.09-.04Z"/><path class="cls-3" d="M4.18,100.18l-.02.13s-.01.07-.02.11h0s.04-.06.05-.08l.07-.11.07.04v.13s-.02.08-.03.11h0s.03-.06.05-.09l.06-.1.08.05-.18.25-.08-.05v-.12s.01-.06.02-.1h0s-.03.06-.05.08l-.06.09-.08-.05.02-.34.09.05Z"/><path class="cls-3" d="M4.54,100.61s.02.08.06.1c.03.02.05.03.08.03v.07s-.08-.02-.11-.04c-.09-.05-.12-.14-.09-.24.02-.08.09-.13.19-.08.09.05.1.15.07.22,0,.02-.01.03-.02.04l-.17-.1ZM4.66,100.6s.01-.07-.03-.09c-.04-.02-.06,0-.07.03l.1.06Z"/><path class="cls-3" d="M4.98,100.49l.08.05-.06.17h0s.06-.02.1,0c.07.04.09.12.06.22-.04.11-.11.12-.18.09-.03-.02-.06-.05-.07-.09h0s-.02.04-.02.04l-.07-.04s.02-.05.03-.09l.11-.34ZM4.96,100.85s0,.01,0,.02c0,.03,0,.06.03.07.04.02.07,0,.09-.05.02-.05,0-.09-.03-.12-.02-.01-.05,0-.06.02,0,0,0,0,0,.02v.04Z"/><path class="cls-3" d="M5.23,100.92s.02-.07.03-.1l.07.04-.02.06h0s.07-.03.09-.02c0,0,.01,0,.02.01l-.03.09s-.01,0-.02-.01c-.03-.02-.06-.01-.07.01,0,0,0,.01,0,.02l-.05.15-.08-.05.07-.2Z"/><path class="cls-3" d="M5.38,101.24l.1-.3.08.05-.1.3-.08-.05ZM5.59,100.91s-.03.04-.06.02c-.03-.01-.04-.05-.03-.07,0-.03.03-.04.06-.02.03.02.04.04.03.07Z"/><path class="cls-3" d="M5.6,101.12s.02-.07.03-.1l.07.04v.04s0,0,0,0c.02-.01.05-.03.1,0,.05.03.08.1.05.19l-.06.18-.08-.05.05-.17s0-.07-.02-.09c-.02-.01-.04,0-.05,0,0,0,0,.01-.01.02l-.06.17-.08-.05.07-.2Z"/><path class="cls-3" d="M6.12,101.62c-.02.06-.05.1-.09.11-.04.01-.08,0-.12-.03-.04-.02-.07-.05-.09-.08l.04-.06s.04.05.07.07c.04.02.08.02.1-.04v-.02s0,0,0,0c-.02.02-.06.01-.09,0-.07-.04-.09-.13-.06-.21.03-.1.11-.12.17-.08.04.02.05.05.06.09h0v-.03s.09.04.09.04c0,.02-.02.04-.03.09l-.06.17ZM6.08,101.44s0-.01,0-.02c0-.03,0-.05-.03-.07-.03-.02-.06,0-.08.05-.02.04,0,.09.03.11.02.01.04,0,.06-.01,0,0,0-.02.01-.02v-.04Z"/><path class="cls-3" d="M6.45,101.51v.17s-.01.04-.01.06h0s.02-.03.03-.05l.08-.13.09.05-.13.16c-.08.1-.12.13-.16.14-.04,0-.07,0-.09,0v-.09s.03,0,.05,0,.04,0,.05-.02c0,0,0,0,0-.01,0,0,0,0,0-.02v-.33s.08.05.08.05Z"/><path class="cls-3" d="M6.89,101.94c-.04.11-.12.12-.2.08-.08-.05-.12-.14-.09-.23.03-.1.11-.13.2-.07.08.05.12.14.09.23ZM6.69,101.83c-.02.05-.01.1.02.12.03.02.07,0,.08-.06.01-.04.01-.1-.02-.12-.04-.02-.07.01-.08.06Z"/><path class="cls-3" d="M7.18,102.18s-.02.07-.03.1l-.07-.04v-.04s0,0,0,0c-.02.01-.05.03-.1,0-.06-.03-.08-.09-.05-.19l.06-.17.08.05-.05.16s-.01.08.02.09c.02.01.04,0,.05,0,0,0,0,0,0-.02l.06-.18.08.05-.07.2Z"/><path class="cls-3" d="M7.48,102.11v.17s-.01.05-.01.06h0s.02-.03.03-.05l.08-.13.09.05-.13.16c-.08.1-.12.13-.16.14-.04.01-.07,0-.09,0v-.09s.03,0,.05,0c.02,0,.04,0,.05-.02,0,0,0,0,0-.01,0,0,0,0,0-.02v-.33s.08.05.08.05Z"/><path class="cls-3" d="M7.93,102.55c-.04.11-.12.12-.2.07-.08-.05-.12-.14-.09-.23.03-.1.11-.12.2-.07.08.05.12.14.09.23ZM7.73,102.44c-.02.05-.01.1.02.12.03.02.07,0,.08-.06.01-.04.01-.1-.02-.12-.04-.02-.07.01-.08.06Z"/><path class="cls-3" d="M8.21,102.78s-.02.07-.03.1l-.07-.04v-.04s0,0,0,0c-.02.01-.05.03-.1,0-.06-.03-.08-.09-.05-.18l.06-.17.08.05-.05.16s-.01.08.02.09c.02.01.04,0,.05,0,0,0,0-.01,0-.02l.06-.18.08.05-.07.2Z"/><path class="cls-3" d="M8.31,102.72s.02-.07.03-.1l.07.04-.02.06h0s.07-.03.09-.02c0,0,.01,0,.02.01l-.03.09s-.01,0-.02-.02c-.03-.02-.06-.01-.07.01,0,0,0,.01,0,.02l-.05.15-.08-.05.07-.2Z"/><path class="cls-3" d="M8.89,103.11c-.04.11-.12.12-.2.07-.08-.05-.12-.14-.09-.23.03-.1.11-.12.2-.07.08.05.12.14.09.23ZM8.69,103c-.02.05-.01.1.03.12.03.02.07,0,.08-.06.01-.04.01-.1-.02-.12-.04-.02-.07.01-.09.06Z"/><path class="cls-3" d="M8.95,103.09s.02-.07.03-.1l.07.04v.06s-.01,0-.01,0c.03-.04.07-.04.1-.02,0,0,.01,0,.02.01l-.03.09s-.01,0-.02-.02c-.03-.02-.06-.01-.07.01,0,0,0,.01,0,.02l-.05.15-.08-.05.07-.2Z"/><path class="cls-3" d="M9.5,103.13l-.11.34s-.02.07-.03.09l-.08-.04v-.04s0,0,0,0c-.03.02-.07.02-.1,0-.06-.04-.1-.13-.06-.22.03-.1.11-.13.17-.09.03.02.05.05.06.08h0s.05-.16.05-.16l.08.05ZM9.33,103.34s0-.01,0-.02c0-.03,0-.06-.03-.07-.04-.02-.07,0-.09.05-.02.05,0,.1.03.12.02.01.05,0,.06-.02,0,0,0-.01,0-.02v-.04Z"/><path class="cls-3" d="M9.53,103.52s.02.08.06.1c.03.02.05.03.08.03v.07s-.08-.02-.11-.04c-.09-.05-.13-.14-.09-.24.02-.08.09-.13.19-.08.09.05.1.14.07.22,0,.02-.01.03-.01.04l-.17-.1ZM9.65,103.52s.01-.07-.03-.09c-.04-.02-.06,0-.07.03l.1.06Z"/><path class="cls-3" d="M9.78,103.57s.02-.07.03-.1l.07.04v.06s-.01,0-.01,0c.03-.04.07-.04.09-.02,0,0,.01,0,.02.01l-.03.09s-.01-.01-.02-.02c-.03-.02-.06-.01-.07.01,0,0,0,.01,0,.02l-.05.15-.08-.05.07-.2Z"/><path class="cls-23" d="M10.07,103.99s-.04-.05-.03-.08c.01-.03.04-.04.07-.03s.04.05.03.08c-.01.03-.04.04-.07.03h0ZM10.09,103.83l.08-.28.09.05-.1.27-.06-.04Z"/><path class="cls-18" d="M7.2,112.39c-.21-.21-.18-.36-.23-.57l-6.74-3.9c.09.33.17.57.45.73"/><path class="cls-3" d="M7.2,112.39c-.15-.11-.25-.44-.24-.55.02-.03-6.87-3.89-6.71-3.93.07.28.16.59.43.74-.3-.15-.4-.49-.49-.78l.05.03s6.74,3.9,6.74,3.9c.05.2.04.44.21.59h0Z"/><path class="cls-9" d="M3.23,103.62c-.08-.52.29-1,.81-1.08.52-.09,1,.26,1.07.77.07.51-.29,1-.81,1.08-.52.09-1-.26-1.07-.77h0ZM4.3,103.82c.2-.07.3-.29.24-.49-.07-.19-.28-.29-.48-.22-.2.07-.3.29-.24.49.07.19.28.29.48.22h0Z"/><path class="cls-4" d="M3.65,104.16c-.08-.05-.03-.24-.08-.32-.06-.08-.23-.13-.25-.23-.01-.11.15-.2.18-.29.02-.1-.07-.26,0-.34.05-.08.24-.04.33-.09.09-.06.14-.24.24-.25.11-.01.19.14.29.17.1.02.27-.08.34-.02.08.05.04.24.09.32.06.08.23.13.25.23.01.11-.15.2-.18.29-.02.1.07.26,0,.34-.06.07-.24.04-.33.09-.09.06-.14.24-.24.25-.11.01-.19-.14-.29-.17-.1-.02-.27.08-.35.02h0ZM4.22,103.81c.19-.03.33-.21.3-.4-.02-.18-.21-.33-.4-.29-.2.02-.33.21-.3.4.02.18.2.32.4.29h0Z"/><path class="cls-10" d="M3.78,104.54c.6-.09,1.12.31,1.16.91.02.28-.1.6-.27.82-.9.1-1.52-.22-1.64-1.29.18-.21.46-.39.75-.44h0Z"/><path class="cls-10" d="M3.04,106.03l.71-1.11.17.1-.71,1.11-.17-.1h0ZM3.82,106.52l-.15-.13.87-.99.15.13-.87.99h0Z"/><path class="cls-10" d="M3.67,106.99l-.14-.14,1.08-1.01.14.14-1.08,1.01h0ZM2.73,106.08l.75-1.27.17.1-.75,1.27-.17-.1h0ZM3.23,106l.74-1.09.17.11-.59.87.78-.97.16.12-.93,1.14-.14-.11-.02.03-.17-.11h0ZM3.73,106.38l-.14-.14.81-.82.14.14-.81.82h0Z"/><path class="cls-10" d="M3.44,106.82l-.15-.13.88-.98.15.13-.88.98h0ZM2.84,106.26l.83-1.02.16.12-.83,1.02-.16-.12h0ZM3.73,106.93l-.16-.12.94-1.14.16.12-.94,1.14h0ZM2.95,105.75l.82-1.03.16.12-.82,1.03-.16-.12h0Z"/><path class="cls-10" d="M3.2,106.4l-.15-.13.95-1.13.15.13-.95,1.13h0ZM3.64,106.21l-.14-.14.91-.95.14.14-.92.95h0Z"/><polygon class="cls-10" points="3.27 104.89 2.43 106.1 2.6 106.21 3.44 105 3.27 104.89 3.27 104.89"/><path class="cls-13" d="M2.29,106.64v-.05s.9-1.48.9-1.48l.13.1s.04.04.02.08c-.04.09-.05.19-.03.3.07.3.37.54.69.54.12,0,.22-.04.29-.09.02-.02.05-.02.07,0l.13.1-1.26,1.21h-.04c-.22-.33-.54-.61-.91-.71h0Z"/><path class="cls-14" d="M2.29,106.64l-.06-.34.8-1.31.2.15-.94,1.5h0ZM3.2,107.35l1.28-1.23.2.15-1.13,1.06-.35.02h0Z"/><polygon class="cls-9" points="7.48 105.97 7.36 106.01 6.78 104.16 6.91 104.12 7.48 105.97 7.48 105.97"/><path class="cls-9" d="M6.65,104.09h-.02c-.06.02-.09.09-.07.14l.57,1.84c.02.06.08.09.14.07h.02c.06-.02.09-.09.07-.14l-.57-1.84c-.02-.06-.08-.09-.14-.07h0Z"/><polygon class="cls-9" points="6.77 105.07 6.58 105.13 6.64 105.34 6.84 105.28 6.77 105.07 6.77 105.07"/><path class="cls-9" d="M6.33,104.34l.19-.06.25.81-.19.06-.25-.81h0ZM6.64,105.32l.19-.06.25.81-.19.06-.25-.81h0Z"/><path class="cls-9" d="M6.85,106.18l-.56-1.79s0-.03-.01-.06c0-.03,0-.06.04-.07s.06,0,.07.04c.01.03.02.06.02.09,0,.03,0,.05,0,.06,0,0,0,.02,0,.02,0,0,0,.01,0,.02,0,.01,0,.03.01.06s.02.04.02.05c0,.01.02.02.03.03.01.01.02.03.04.05.01.02.03.05.04.08s.01.06.02.09c0,.02,0,.05,0,.06,0,0,0,.02,0,.02,0,0,0,.01,0,.02,0,.01,0,.03,0,.05h0s0,0,0,0h0s.01.04.02.05c0,.01.02.02.03.03,0,0,0,0,0,0,0,0,0,0,0,.01,0,0,.01.02.02.03.01.02.03.04.04.08,0,.03.01.06.01.09,0,.01,0,.02,0,.03,0,0,0,.02,0,.03,0,.02,0,.03,0,.04,0,.01,0,.03.01.06s.02.04.02.05c0,.01.02.02.03.03.01.01.02.03.04.05.01.02.03.05.04.08s.01.06.02.09c0,.03,0,.05,0,.06,0,.02,0,.03,0,.04,0,.01,0,.03.01.06s.02.04.02.05c0,.01.02.02.03.03,0,0,.01.01.02.02,0,0,.01.02.02.03.01.02.03.05.04.08,0,.03,0,.06-.04.07s-.06,0-.07-.04h0Z"/><polygon class="cls-9" points="6.27 104.32 6.15 104.37 6.72 106.22 6.85 106.18 6.27 104.32 6.27 104.32"/><path class="cls-9" d="M6.04,104.3h-.02c-.06.02-.09.09-.07.14l.57,1.84c.02.06.08.09.14.07h.02c.06-.02.09-.09.07-.14l-.57-1.84c-.02-.06-.08-.09-.14-.07h0Z"/><path class="cls-9" d="M5.82,104.41h0s0,0,0,0l.05-.02s.07,0,.08.04l.58,1.86s0,.05-.03.06l-.07.02h0s0,0,0,0c-.14.05-.29-.05-.34-.22l-.42-1.36c-.05-.17.02-.34.16-.39h0Z"/><path class="cls-9" d="M7.2,105.21s0-.05,0-.06c0,0,0-.02,0-.02,0,0,0-.01,0-.02,0-.01,0-.03-.01-.06,0-.02-.01-.04-.02-.05,0,0,0-.01-.01-.02,0,0,0,0,0,0,0,0,0,0,0,0-.01-.01-.02-.03-.04-.05-.01-.02-.02-.05-.03-.08h0s0,0,0,0c-.01-.03-.02-.06-.02-.09,0-.01,0-.02,0-.03,0-.01,0-.02,0-.03,0-.02,0-.03,0-.04,0-.01,0-.03-.01-.06s-.02-.04-.02-.05c0-.01-.02-.02-.03-.04-.01-.01-.02-.03-.04-.05-.01-.02-.03-.05-.04-.08s-.02-.06-.02-.09c0-.01,0-.02,0-.04,0-.01,0-.02,0-.03,0-.02,0-.03,0-.05,0-.01,0-.03-.01-.06,0-.03.07-.06.08-.02l.6,1.93s-.07.06-.08.02c0-.03-.02-.04-.02-.05,0,0,0-.01-.01-.02,0,0,0-.01-.01-.02-.01-.01-.02-.03-.04-.05-.01-.02-.03-.05-.04-.09s-.02-.06-.02-.09c0-.03,0-.05,0-.06,0-.02,0-.03,0-.04,0-.01,0-.03-.01-.06s-.02-.04-.02-.05c0-.01-.02-.02-.03-.04-.01-.01-.02-.03-.04-.05-.01-.02-.03-.05-.04-.08s-.02-.06-.02-.09h0Z"/><path class="cls-9" d="M6.46,105.27l-.11.34.28.21c-.04-.19-.09-.38-.17-.55h0Z"/><path class="cls-9" d="M6.78,105.35s0-.05,0-.06c0,0,0-.02,0-.02,0,0,0-.01,0-.02,0-.01,0-.03-.01-.06,0-.02-.01-.04-.02-.05,0,0,0-.01-.01-.02,0,0,0,0,0,0,0,0,0,0,0,0-.01-.01-.02-.03-.04-.05-.01-.02-.02-.05-.03-.08h0s0,0,0,0c-.01-.03-.02-.06-.02-.09,0-.01,0-.02,0-.03,0-.01,0-.02,0-.03,0-.02,0-.03,0-.04,0-.01,0-.03-.01-.06s-.02-.04-.02-.05c0-.01-.02-.02-.03-.04-.01-.01-.02-.03-.04-.05-.01-.02-.03-.05-.04-.08s-.02-.06-.02-.09c0-.01,0-.02,0-.04,0-.01,0-.02,0-.03,0-.02,0-.03,0-.05,0-.01,0-.03-.01-.06,0-.03.07-.06.08-.02l.6,1.93s-.07.06-.08.02c0-.03-.02-.04-.02-.05,0,0,0-.01-.01-.02,0,0,0-.01-.01-.02-.01-.01-.02-.03-.04-.05-.01-.02-.03-.05-.04-.09s-.02-.06-.02-.09c0-.03,0-.05,0-.06,0-.02,0-.03,0-.04,0-.01,0-.03-.01-.06s-.02-.04-.02-.05c0-.01-.02-.02-.03-.04-.01-.01-.02-.03-.04-.05-.01-.02-.03-.05-.04-.08s-.02-.06-.02-.09h0Z"/><path class="cls-9" d="M7.11,105.09l-.28-.21.11-.34c.07.18.14.37.17.55h0Z"/><path class="cls-9" d="M7.68,105.97c.23-.08.31-.48.18-.91l-.13-.42c-.13-.42-.42-.7-.65-.63h0s-.06.02-.06.02c-.03,0-.06.04-.04.08l.57,1.86s.04.04.06.03l.07-.02h0Z"/><path class="cls-14" d="M4.95,107.96l.17-1.77,1.48.26-.55,1.7s-.03.05-.08.05l-.97-.17s-.06-.04-.05-.07h0Z"/><path class="cls-10" d="M5.51,107.81h0s-.56-.1-.56-.1c-.01,0-.02-.01-.02-.03l.11-1.12s.01-.03.03-.02l.76.13h0s.68.12.68.12c.02,0,.03.01.02.03l-.35,1.08s-.02.02-.03.02l-.64-.11h0Z"/><polygon class="cls-16" points="5.1 106.31 5.12 106.2 6.6 106.46 6.57 106.57 5.1 106.31 5.1 106.31"/><polygon class="cls-15" points="5.25 105.79 5.31 105.68 6.61 105.91 6.61 106.03 5.25 105.79 5.25 105.79"/><path class="cls-10" d="M6.74,106.33v-.25c0-.07-.03-.11-.08-.12h-.05s0-.09,0-.09c0-.06-.03-.09-.07-.09l-.49-.09h0s-.63-.11-.63-.11c-.04,0-.08.01-.1.06l-.04.08h-.04c-.05-.02-.1,0-.13.07l-.11.23c-.04.09-.03.19.07.21l.71.13h0s.81.14.81.14c.1.02.15-.07.15-.17Z"/><path class="cls-4" d="M5.28,107.42c-.09-.21,0-.46.22-.56.22-.1.47,0,.56.2.09.21,0,.46-.22.56-.22.1-.47,0-.56-.2h0ZM5.56,107.47c.13.01.29-.08.35-.21.03-.06.03-.12.01-.16,0-.01-.01-.02-.03-.01-.1.04-.15.1-.21.16-.05.06-.11.13-.19.18-.01,0-.01.02,0,.02.02,0,.04.01.06.01h0ZM5.45,107.39c.09-.05.14-.11.2-.18.05-.06.11-.12.2-.17.02,0,.01-.02,0-.02-.02-.01-.04-.02-.07-.02-.13-.01-.29.08-.35.21-.03.06-.03.12,0,.17,0,.01.02.01.03,0h0Z"/><g id="counter-token"><path class="cls-22" d="M55.56.27c-.67-.39-1.23-.08-1.41.52-.3,1.02-.78,3.51-1.73,6.24-1.09,3.14-2.89,5.43-3.12,5.9-.4.82-.56,1.8.5,2.41,1.06.61,6.7,3.84,6.7,3.84-.65-.65-.33-1.31-.08-1.9s2.36-4.36,3.06-5.89c1.29-2.85,1.81-5.15,2.14-6.44.11-.43.27-1.04-.32-1.44-.69-.46-5.74-3.24-5.74-3.24Z"/><path class="cls-5" d="M58.63,15.72c.71-.32,1.29-.87,1.43-.84l-1.5-.92c-.59,1.12-.83,2.07.07,1.76Z"/><path class="cls-1" d="M61.7,3.41c-.69-.46-5.74-3.24-5.74-3.24-.37-.22-.71-.22-.97-.07.17,0,.36.06.56.17,0,0,5.05,2.77,5.74,3.24.59.4.43,1.01.32,1.44-.33,1.29-.85,3.59-2.14,6.44-.7,1.54-2.81,5.31-3.06,5.89-.18.43-.62,1.18.08,1.9.42-.42,4.36-3.14,4.36-3.14-.19-.29-.65-1.12-.8-1.15-.14-.03-.72.52-1.43.84-.89.31-.65-.64-.07-1.76.72-1.37.79-1.51,1.32-2.67,1.29-2.85,1.81-5.15,2.14-6.44.11-.43.27-1.04-.32-1.44Z"/><path class="cls-19" d="M54.45,4.82l.16-.49.53-.17c.92-.29,1.38-.48,1.52-.89.09-.29.02-.6-.34-.81-.27-.16-.56-.14-.76-.11v-.7c.28-.06.71,0,1.13.24.71.42.95,1.1.74,1.73-.2.59-.73.84-1.34,1.02l-.38.1h0s1.19.7,1.19.7l-.22.67-2.22-1.3Z"/><path class="cls-19" d="M57.52,5.66c.1.16.36.47.66.64.38.22.64.13.73-.13.12-.35-.14-.69-.46-.87l-.3-.18.19-.58.29.17c.25.14.59.22.69-.08.07-.21-.03-.45-.34-.63-.26-.15-.57-.18-.72-.17l.05-.68c.23-.02.65.06,1.06.3.67.39.91,1,.75,1.47-.12.37-.41.56-.84.48h0c.35.31.55.8.4,1.26-.2.61-.84.78-1.64.31-.41-.24-.71-.55-.85-.79l.35-.53Z"/><polygon class="cls-3" points="58.89 9.64 53.87 6.7 54.25 5.57 59.27 8.51 58.89 9.64"/><path class="cls-8" d="M54.59,5.98l-.08.24.21.12.08-.24.13.07-.21.62-.13-.07.09-.26-.21-.12-.09.26-.13-.07.21-.62.13.07Z"/><path class="cls-8" d="M55.2,6.95s-.03.09-.03.11l-.11-.07v-.05s0,0,0,0c-.04.02-.09.02-.13-.01-.08-.05-.11-.14-.08-.22.04-.12.15-.12.29-.03h0s0-.07-.05-.11c-.04-.02-.09-.03-.12-.03v-.11s.1,0,.18.05c.13.08.15.19.11.3l-.05.16ZM55.11,6.78c-.07-.04-.12-.05-.14,0-.01.04,0,.07.03.08.03.02.06,0,.08-.01,0,0,0-.01.01-.02l.02-.05Z"/><path class="cls-8" d="M55.5,6.72l-.02.24s0,.08-.01.12h0s.04-.06.06-.1l.12-.18.13.08-.3.37-.13-.07v-.54s.14.08.14.08Z"/><path class="cls-8" d="M55.86,7.25c-.02.06.03.12.09.15.04.02.08.04.12.05l-.02.11s-.1-.03-.16-.06c-.14-.08-.19-.22-.14-.36.04-.12.14-.21.29-.12.13.08.14.22.11.33,0,.02-.02.04-.02.05l-.26-.15ZM56.04,7.24s.02-.1-.04-.13c-.05-.03-.09.01-.11.05l.15.09Z"/><path class="cls-8" d="M56.68,7.82s-.03.08-.03.11l-.11-.07v-.05s0,0,0,0c-.04.02-.09.02-.13-.01-.08-.05-.11-.14-.08-.21.04-.12.15-.12.3-.04h0s0-.07-.05-.11c-.04-.03-.09-.04-.12-.03v-.11s.1,0,.18.05c.13.08.15.19.11.3l-.05.16ZM56.59,7.65c-.07-.04-.12-.05-.14,0-.01.04,0,.07.03.08.03.02.07,0,.08-.01,0,0,0-.01.01-.02l.02-.05Z"/><path class="cls-23" d="M56.95,7.97s.06.07.1.1c.04.02.06.02.07,0,0-.02,0-.04-.04-.09-.07-.08-.09-.15-.07-.21.03-.08.12-.11.21-.05.05.03.09.07.1.09l-.05.08s-.04-.06-.08-.08c-.03-.02-.05-.01-.06,0,0,.02,0,.04.05.09.07.07.08.14.06.2-.03.09-.11.11-.22.04-.05-.03-.1-.07-.12-.11l.06-.09Z"/><path class="cls-23" d="M57.43,8.17c-.02.06.03.12.09.15.04.03.08.04.12.05l-.02.1s-.1-.03-.16-.06c-.14-.08-.19-.21-.14-.36.04-.12.14-.2.29-.12.13.08.14.22.11.33,0,.02-.02.04-.02.05l-.26-.15ZM57.61,8.16s.02-.1-.04-.13c-.05-.03-.09.01-.11.05l.15.09Z"/><path class="cls-23" d="M58.09,8.64s-.03.08-.03.11l-.11-.07v-.05s0,0,0,0c-.04.02-.09.02-.13-.01-.08-.05-.11-.14-.08-.21.04-.12.15-.12.29-.03h0s0-.07-.05-.11c-.04-.02-.09-.03-.12-.03v-.1s.1,0,.18.05c.13.08.15.19.11.3l-.05.16ZM58,8.47c-.07-.04-.12-.05-.14,0-.01.04,0,.07.03.08.03.02.06.01.08-.01,0,0,0-.01.01-.02l.02-.05Z"/><path class="cls-23" d="M58.48,8.32l-.04.12.09.05-.03.1-.09-.05-.05.16c-.02.05-.01.09.02.11.02,0,.03.01.04.02l-.03.11s-.05-.02-.08-.04c-.04-.02-.07-.06-.08-.09-.01-.04-.01-.09.01-.16l.06-.18-.05-.03.03-.1.05.03.03-.08.14.03Z"/><path class="cls-23" d="M58.37,9.07c.05-.07.11-.15.15-.23l.13.07c-.06.08-.13.15-.19.2l-.09-.04Z"/><path class="cls-3" d="M53.17,6.8l-.02.13s-.01.07-.02.11h0s.04-.06.05-.08l.07-.11.07.04v.13s-.02.08-.03.11h0s.03-.06.05-.09l.06-.1.08.05-.18.25-.08-.05v-.12s.02-.06.02-.1h0s-.03.06-.05.08l-.06.09-.08-.05.02-.34.09.05Z"/><path class="cls-3" d="M53.54,7.23s.02.08.06.1c.03.02.05.03.08.03v.07s-.08-.02-.11-.04c-.09-.05-.12-.14-.09-.24.02-.08.09-.13.19-.08.09.05.1.14.07.22,0,.02-.01.03-.02.04l-.17-.1ZM53.66,7.22s.01-.07-.03-.09c-.04-.02-.06,0-.07.03l.1.06Z"/><path class="cls-3" d="M53.98,7.11l.08.05-.06.17h0s.06-.02.1,0c.06.04.09.12.06.21-.04.11-.12.12-.18.09-.03-.02-.06-.05-.07-.1h0s-.02.04-.02.04l-.07-.04s.02-.05.03-.09l.11-.34ZM53.96,7.46s0,.01,0,.02c0,.03,0,.06.03.07.04.02.07,0,.09-.05.02-.05,0-.09-.03-.12-.02-.01-.05,0-.06.02,0,0,0,0,0,.02v.04Z"/><path class="cls-3" d="M54.23,7.53s.02-.07.03-.1l.07.04v.06s-.01,0-.01,0c.03-.04.07-.04.09-.02,0,0,.01,0,.02.01l-.03.09s-.01,0-.02-.02c-.03-.02-.06-.01-.07.01,0,0,0,.01,0,.02l-.05.15-.08-.05.07-.2Z"/><path class="cls-3" d="M54.37,7.86l.1-.3.08.05-.1.3-.08-.05ZM54.58,7.53s-.03.04-.06.02c-.03-.02-.04-.05-.03-.07,0-.03.03-.04.06-.02.03.02.04.04.03.07Z"/><path class="cls-3" d="M54.59,7.74s.02-.07.03-.1l.07.04v.04s0,0,0,0c.02-.01.05-.03.1,0,.05.03.08.1.05.19l-.06.18-.08-.05.05-.17s0-.07-.02-.09c-.02-.01-.04,0-.05,0,0,0,0,.01,0,.02l-.06.17-.08-.05.07-.2Z"/><path class="cls-3" d="M55.12,8.24c-.02.06-.05.1-.09.11-.04.01-.08,0-.12-.03-.04-.02-.07-.05-.09-.08l.04-.06s.04.05.07.07c.04.02.08.02.1-.04v-.02s0,0,0,0c-.02.01-.05.01-.08,0-.07-.04-.09-.13-.07-.21.03-.1.11-.12.17-.08.04.02.05.05.06.09h0v-.03s.09.04.09.04c0,.02-.02.04-.03.09l-.06.17ZM55.08,8.06s0-.01,0-.02c0-.03,0-.05-.03-.07-.03-.02-.06,0-.08.05-.01.04,0,.09.03.11.02.01.04,0,.06-.01,0,0,0-.02.01-.02v-.04Z"/><path class="cls-3" d="M55.44,8.13v.17s-.01.05-.01.06h0s.02-.03.03-.05l.08-.12.09.05-.13.16c-.08.1-.12.13-.16.14-.04.01-.07,0-.09,0v-.09s.03,0,.05,0c.02,0,.03,0,.05-.02,0,0,0,0,0,0,0,0,0,0,0-.02v-.33s.08.05.08.05Z"/><path class="cls-3" d="M55.88,8.56c-.04.11-.12.12-.2.08-.08-.05-.12-.14-.09-.23.03-.1.11-.13.2-.07.08.05.12.14.09.23ZM55.69,8.45c-.02.05-.01.1.02.12.03.02.07,0,.08-.06.01-.04.02-.1-.02-.12-.04-.02-.07.01-.08.06Z"/><path class="cls-3" d="M56.17,8.79s-.02.07-.03.1l-.07-.04v-.04s0,0,0,0c-.02.01-.05.03-.1,0-.06-.03-.08-.09-.05-.18l.06-.17.08.05-.05.16s-.01.08.02.1c.02.01.04,0,.05,0,0,0,0-.01,0-.02l.06-.18.08.05-.07.2Z"/><path class="cls-3" d="M56.48,8.73v.17s-.01.05-.01.06h0s.02-.03.03-.05l.08-.13.09.05-.13.16c-.08.1-.12.13-.16.14-.04.01-.07,0-.09,0v-.09s.03,0,.05,0,.03,0,.05-.02c0,0,0,0,0-.01,0,0,0,0,0-.02v-.33s.08.05.08.05Z"/><path class="cls-3" d="M56.92,9.16c-.04.11-.12.12-.2.08-.08-.05-.12-.14-.09-.23.03-.1.11-.12.2-.07.08.05.12.14.09.23ZM56.72,9.05c-.02.05-.01.1.02.12.03.02.07,0,.08-.06.01-.04.02-.1-.02-.12-.04-.02-.07.01-.08.06Z"/><path class="cls-3" d="M57.21,9.4s-.02.07-.03.1l-.07-.04v-.04s0,0,0,0c-.02.01-.05.03-.1,0-.06-.03-.08-.09-.05-.19l.06-.17.08.05-.05.16s0,.08.02.09c.02.01.04,0,.05,0,0,0,0,0,0-.02l.06-.18.08.05-.07.2Z"/><path class="cls-3" d="M57.31,9.33s.02-.07.03-.1l.07.04-.02.06h0s.07-.03.09-.02c0,0,.01,0,.02.01l-.03.09s-.01-.01-.02-.02c-.03-.02-.06-.01-.07.01,0,0,0,.01,0,.02l-.05.15-.08-.05.07-.2Z"/><path class="cls-3" d="M57.88,9.72c-.04.11-.12.12-.2.08-.08-.05-.12-.14-.09-.23.03-.1.11-.12.2-.07.08.05.12.14.09.23ZM57.68,9.61c-.02.05-.01.1.02.12.03.02.07,0,.08-.06.01-.04.01-.1-.02-.12-.04-.02-.07.01-.08.06Z"/><path class="cls-3" d="M57.95,9.71s.02-.07.03-.1l.07.04v.06s-.01,0-.01,0c.03-.04.07-.03.09-.02,0,0,.01,0,.02.01l-.03.09s-.01-.01-.02-.02c-.03-.02-.06-.01-.07.01,0,0,0,.01,0,.02l-.05.15-.08-.05.07-.2Z"/><path class="cls-3" d="M58.5,9.75l-.11.34s-.02.07-.03.09l-.08-.04v-.05s0,0,0,0c-.03.02-.07.02-.1,0-.06-.04-.1-.13-.06-.22.03-.1.11-.13.17-.09.03.02.06.05.06.08h0s.05-.16.05-.16l.08.05ZM58.33,9.96s0-.01,0-.02c0-.03,0-.06-.03-.07-.04-.02-.07,0-.09.05-.02.05,0,.1.03.12.02.01.05,0,.06-.02,0,0,0-.01,0-.02v-.04Z"/><path class="cls-3" d="M58.52,10.14s.02.08.06.1c.03.02.05.03.08.03v.07s-.08-.02-.11-.04c-.09-.05-.12-.14-.09-.24.02-.07.09-.13.19-.08.09.05.1.14.07.22,0,.02-.01.03-.01.04l-.17-.1ZM58.64,10.13s.01-.07-.03-.09c-.04-.02-.06,0-.07.03l.1.06Z"/><path class="cls-3" d="M58.77,10.19s.02-.07.03-.1l.07.04v.06s-.01,0-.01,0c.03-.04.07-.04.09-.02,0,0,.01,0,.02.01l-.03.09s-.01-.01-.02-.02c-.03-.02-.06-.01-.07.01,0,0,0,.01,0,.02l-.05.15-.08-.05.07-.2Z"/><path class="cls-23" d="M59.07,10.61s-.04-.05-.03-.08.04-.04.07-.03.04.05.03.08c-.01.03-.04.04-.07.03h0ZM59.08,10.45l.08-.28.09.05-.1.27-.06-.04Z"/><path class="cls-6" d="M56.2,19c-.21-.21-.18-.36-.23-.57l-6.74-3.9c.09.33.17.57.45.73"/><path class="cls-3" d="M56.2,19c-.15-.11-.25-.44-.24-.55.02-.03-6.87-3.89-6.71-3.93.07.28.16.59.43.74-.3-.15-.4-.49-.49-.78l.05.03s6.74,3.9,6.74,3.9c.05.2.04.44.21.59h0Z"/><path class="cls-9" d="M52.23,10.24c-.08-.52.29-1,.81-1.08.52-.09,1,.26,1.07.77.07.51-.29,1-.81,1.08-.52.09-1-.26-1.07-.77h0ZM53.29,10.44c.2-.07.3-.29.24-.49-.07-.19-.28-.29-.48-.22-.2.07-.3.29-.24.49.07.19.28.29.48.22h0Z"/><path class="cls-4" d="M52.65,10.77c-.08-.05-.03-.24-.08-.32-.06-.08-.23-.13-.25-.23-.01-.11.15-.2.18-.29.02-.1-.07-.26,0-.34.05-.08.24-.04.33-.09.09-.06.14-.24.24-.25.11-.01.19.14.29.17.1.02.27-.08.34-.02.08.05.04.24.09.32.06.08.23.13.25.23.01.11-.15.2-.18.29-.02.1.07.26,0,.34-.06.07-.24.04-.33.09-.09.06-.14.24-.24.25-.11.01-.19-.14-.29-.17-.1-.02-.27.08-.35.02h0ZM53.22,10.43c.19-.03.33-.21.3-.4-.02-.18-.21-.33-.4-.29-.2.02-.33.21-.3.4.02.18.2.32.4.29h0Z"/><path class="cls-10" d="M52.78,11.16c.6-.09,1.12.31,1.16.91.02.28-.1.6-.27.82-.9.1-1.52-.22-1.64-1.29.18-.21.46-.39.75-.44h0Z"/><path class="cls-10" d="M52.03,12.65l.71-1.11.17.1-.71,1.11-.17-.1h0ZM52.81,13.14l-.15-.13.87-.99.15.13-.87.99h0Z"/><path class="cls-10" d="M52.66,13.61l-.14-.14,1.08-1.01.14.14-1.08,1.01h0ZM51.73,12.7l.75-1.27.17.1-.75,1.27-.17-.1h0ZM52.23,12.62l.74-1.09.17.11-.59.87.78-.97.16.12-.93,1.14-.14-.11-.02.03-.17-.11h0ZM52.72,13l-.14-.14.81-.82.14.14-.81.82h0Z"/><path class="cls-10" d="M52.44,13.44l-.15-.13.88-.98.15.13-.88.98h0ZM51.84,12.88l.83-1.02.16.12-.83,1.02-.16-.12h0ZM52.73,13.54l-.16-.12.94-1.14.16.12-.94,1.14h0ZM51.95,12.37l.82-1.03.16.12-.82,1.03-.16-.12h0Z"/><path class="cls-10" d="M52.2,13.02l-.15-.13.95-1.13.15.13-.95,1.13h0ZM52.63,12.83l-.14-.14.91-.95.14.14-.92.95h0Z"/><polygon class="cls-10" points="52.27 11.51 51.43 12.72 51.59 12.83 52.43 11.62 52.27 11.51 52.27 11.51"/><path class="cls-13" d="M51.29,13.25v-.05s.9-1.48.9-1.48l.13.1s.04.04.02.08c-.04.09-.05.19-.03.3.07.3.37.54.69.54.12,0,.22-.04.29-.09.02-.02.05-.02.07,0l.13.1-1.26,1.21h-.04c-.22-.33-.54-.61-.91-.71h0Z"/><path class="cls-14" d="M51.29,13.25l-.06-.34.8-1.31.2.15-.94,1.5h0ZM52.2,13.97l1.28-1.23.2.15-1.13,1.06-.35.02h0Z"/><polygon class="cls-9" points="56.48 12.59 56.35 12.63 55.78 10.78 55.9 10.73 56.48 12.59 56.48 12.59"/><path class="cls-9" d="M55.65,10.71h-.02c-.06.02-.09.09-.07.14l.57,1.84c.02.06.08.09.14.07h.02c.06-.02.09-.09.07-.14l-.57-1.84c-.02-.06-.08-.09-.14-.07h0Z"/><polygon class="cls-9" points="55.77 11.68 55.57 11.75 55.64 11.96 55.83 11.9 55.77 11.68 55.77 11.68"/><path class="cls-9" d="M55.33,10.96l.19-.06.25.81-.19.06-.25-.81h0ZM55.63,11.94l.19-.06.25.81-.19.06-.25-.81h0Z"/><path class="cls-9" d="M55.84,12.8l-.56-1.79s0-.03-.01-.06c0-.03,0-.06.04-.07s.06,0,.07.04c.01.03.02.06.02.09,0,.03,0,.05,0,.06,0,0,0,.02,0,.02,0,0,0,.01,0,.02,0,.01,0,.03.01.06s.02.04.02.05c0,.01.02.02.03.03.01.01.02.03.04.05.01.02.03.05.04.08s.01.06.02.09c0,.02,0,.05,0,.06,0,0,0,.02,0,.02,0,0,0,.01,0,.02,0,.01,0,.03,0,.05h0s0,0,0,0h0s.01.04.02.05c0,.01.02.02.03.03,0,0,0,0,0,0,0,0,0,0,0,.01,0,0,.01.02.02.03.01.02.03.04.04.08,0,.03.01.06.01.09,0,.01,0,.02,0,.03,0,0,0,.02,0,.03,0,.02,0,.03,0,.04,0,.01,0,.03.01.06s.02.04.02.05c0,.01.02.02.03.03.01.01.02.03.04.05.01.02.03.05.04.08s.01.06.02.09c0,.03,0,.05,0,.06,0,.02,0,.03,0,.04,0,.01,0,.03.01.06s.02.04.02.05c0,.01.02.02.03.03,0,0,.01.01.02.02,0,0,.01.02.02.03.01.02.03.05.04.08,0,.03,0,.06-.04.07s-.06,0-.07-.04h0Z"/><polygon class="cls-9" points="55.27 10.94 55.14 10.99 55.72 12.84 55.84 12.8 55.27 10.94 55.27 10.94"/><path class="cls-9" d="M55.04,10.92h-.02c-.06.02-.09.09-.07.14l.57,1.84c.02.06.08.09.14.07h.02c.06-.02.09-.09.07-.14l-.57-1.84c-.02-.06-.08-.09-.14-.07h0Z"/><path class="cls-9" d="M54.82,11.03h0s0,0,0,0l.05-.02s.07,0,.08.04l.58,1.86s0,.05-.03.06l-.07.02h0s0,0,0,0c-.14.05-.29-.05-.34-.22l-.42-1.36c-.05-.17.02-.34.16-.39h0Z"/><path class="cls-9" d="M56.19,11.83s0-.05,0-.06c0,0,0-.02,0-.02,0,0,0-.01,0-.02,0-.01,0-.03-.01-.06,0-.02-.01-.04-.02-.05,0,0,0-.01-.01-.02,0,0,0,0,0,0,0,0,0,0,0,0-.01-.01-.02-.03-.04-.05-.01-.02-.02-.05-.03-.08h0s0,0,0,0c-.01-.03-.02-.06-.02-.09,0-.01,0-.02,0-.03,0-.01,0-.02,0-.03,0-.02,0-.03,0-.04,0-.01,0-.03-.01-.06s-.02-.04-.02-.05c0-.01-.02-.02-.03-.04-.01-.01-.02-.03-.04-.05-.01-.02-.03-.05-.04-.08s-.02-.06-.02-.09c0-.01,0-.02,0-.04,0-.01,0-.02,0-.03,0-.02,0-.03,0-.05,0-.01,0-.03-.01-.06,0-.03.07-.06.08-.02l.6,1.93s-.07.06-.08.02c0-.03-.02-.04-.02-.05,0,0,0-.01-.01-.02,0,0,0-.01-.01-.02-.01-.01-.02-.03-.04-.05-.01-.02-.03-.05-.04-.09s-.02-.06-.02-.09c0-.03,0-.05,0-.06,0-.02,0-.03,0-.04,0-.01,0-.03-.01-.06s-.02-.04-.02-.05c0-.01-.02-.02-.03-.04-.01-.01-.02-.03-.04-.05-.01-.02-.03-.05-.04-.08s-.02-.06-.02-.09h0Z"/><path class="cls-9" d="M55.46,11.89l-.11.34.28.21c-.04-.19-.09-.38-.17-.55h0Z"/><path class="cls-9" d="M55.78,11.96s0-.05,0-.06c0,0,0-.02,0-.02,0,0,0-.01,0-.02,0-.01,0-.03-.01-.06,0-.02-.01-.04-.02-.05,0,0,0-.01-.01-.02,0,0,0,0,0,0,0,0,0,0,0,0-.01-.01-.02-.03-.04-.05-.01-.02-.02-.05-.03-.08h0s0,0,0,0c-.01-.03-.02-.06-.02-.09,0-.01,0-.02,0-.03,0-.01,0-.02,0-.03,0-.02,0-.03,0-.04,0-.01,0-.03-.01-.06s-.02-.04-.02-.05c0-.01-.02-.02-.03-.04-.01-.01-.02-.03-.04-.05-.01-.02-.03-.05-.04-.08s-.02-.06-.02-.09c0-.01,0-.02,0-.04,0-.01,0-.02,0-.03,0-.02,0-.03,0-.05,0-.01,0-.03-.01-.06,0-.03.07-.06.08-.02l.6,1.93s-.07.06-.08.02c0-.03-.02-.04-.02-.05,0,0,0-.01-.01-.02,0,0,0-.01-.01-.02-.01-.01-.02-.03-.04-.05-.01-.02-.03-.05-.04-.09s-.02-.06-.02-.09c0-.03,0-.05,0-.06,0-.02,0-.03,0-.04,0-.01,0-.03-.01-.06s-.02-.04-.02-.05c0-.01-.02-.02-.03-.04-.01-.01-.02-.03-.04-.05-.01-.02-.03-.05-.04-.08s-.02-.06-.02-.09h0Z"/><path class="cls-9" d="M56.1,11.71l-.28-.21.11-.34c.07.18.14.37.17.55h0Z"/><path class="cls-9" d="M56.68,12.58c.23-.08.31-.48.18-.91l-.13-.42c-.13-.42-.42-.7-.65-.63h0s-.06.02-.06.02c-.03,0-.06.04-.04.08l.57,1.86s.04.04.06.03l.07-.02h0Z"/><path class="cls-14" d="M53.94,14.58l.17-1.77,1.48.26-.55,1.7s-.03.05-.08.05l-.97-.17s-.06-.04-.05-.07h0Z"/><path class="cls-10" d="M54.51,14.43h0s-.56-.1-.56-.1c-.01,0-.02-.01-.02-.03l.11-1.12s.01-.03.03-.02l.76.13h0s.68.12.68.12c.02,0,.03.01.02.03l-.35,1.08s-.02.02-.03.02l-.64-.11h0Z"/><polygon class="cls-16" points="54.1 12.93 54.11 12.81 55.6 13.08 55.56 13.19 54.1 12.93 54.1 12.93"/><polygon class="cls-15" points="54.25 12.41 54.3 12.3 55.61 12.53 55.61 12.65 54.25 12.41 54.25 12.41"/><path class="cls-10" d="M55.74,12.95v-.25c0-.07-.03-.11-.08-.12h-.05s0-.09,0-.09c0-.06-.03-.09-.07-.09l-.49-.09h0s-.63-.11-.63-.11c-.04,0-.08.01-.1.06l-.04.08h-.04c-.05-.02-.1,0-.13.07l-.11.23c-.04.09-.03.19.07.21l.71.13h0s.81.14.81.14c.1.02.15-.07.15-.17Z"/><path class="cls-4" d="M54.27,14.04c-.09-.21,0-.46.22-.56.22-.1.47,0,.56.2.09.21,0,.46-.22.56-.22.1-.47,0-.56-.2h0ZM54.55,14.09c.13.01.29-.08.35-.21.03-.06.03-.12.01-.16,0-.01-.01-.02-.03-.01-.1.04-.15.1-.21.16-.05.06-.11.13-.19.18-.01,0-.01.02,0,.02.02,0,.04.01.06.01h0ZM54.45,14.01c.09-.05.14-.11.2-.18.05-.06.11-.12.2-.17.02,0,.01-.02,0-.02-.02-.01-.04-.02-.07-.02-.13-.01-.29.08-.35.21-.03.06-.03.12,0,.17,0,.01.02.01.03,0h0Z"/><path class="cls-20" d="M50.43,3.6c-.67-.39-1.23-.08-1.41.52-.3,1.02-.78,3.51-1.73,6.24-1.09,3.14-2.89,5.43-3.12,5.9-.4.82-.56,1.8.5,2.41,1.06.61,6.7,3.84,6.7,3.84-.65-.65-.33-1.31-.08-1.9s2.36-4.36,3.06-5.89c1.29-2.85,1.81-5.15,2.14-6.44.11-.43.27-1.04-.32-1.44-.69-.46-5.74-3.24-5.74-3.24Z"/><path class="cls-5" d="M53.51,19.05c.71-.32,1.29-.87,1.43-.84l-1.5-.92c-.59,1.12-.83,2.07.07,1.76Z"/><path class="cls-1" d="M56.58,6.74c-.69-.46-5.74-3.24-5.74-3.24-.37-.22-.71-.22-.97-.07.17,0,.36.06.56.17,0,0,5.05,2.77,5.74,3.24.59.4.43,1.01.32,1.44-.33,1.29-.85,3.59-2.14,6.44-.7,1.54-2.81,5.31-3.06,5.89-.18.43-.62,1.18.08,1.9.42-.42,4.36-3.14,4.36-3.14-.19-.29-.65-1.12-.8-1.15-.14-.03-.72.52-1.43.84-.89.31-.65-.64-.07-1.76.72-1.37.79-1.51,1.32-2.67,1.29-2.85,1.81-5.15,2.14-6.44.11-.43.27-1.04-.32-1.44Z"/><path class="cls-19" d="M49.33,8.15l.16-.49.53-.17c.92-.29,1.38-.48,1.52-.89.09-.28.02-.6-.34-.81-.27-.16-.56-.14-.76-.11v-.7c.28-.06.71,0,1.13.24.71.42.95,1.1.74,1.73-.2.59-.73.84-1.34,1.02l-.38.1h0s1.19.7,1.19.7l-.22.67-2.22-1.3Z"/><path class="cls-19" d="M52.01,9.72l.16-.49.53-.17c.92-.28,1.38-.48,1.52-.89.09-.29.02-.6-.34-.81-.27-.16-.56-.14-.76-.11l-.02-.7c.3-.06.72,0,1.14.24.71.42.95,1.1.74,1.73-.2.59-.73.84-1.34,1.02l-.38.1h0s1.19.7,1.19.7l-.22.67-2.22-1.3Z"/><polygon class="cls-3" points="53.77 12.97 48.75 10.04 49.12 8.9 54.15 11.84 53.77 12.97"/><path class="cls-8" d="M49.47,9.32l-.08.24.21.12.08-.24.13.07-.21.62-.13-.07.09-.26-.21-.12-.09.26-.13-.07.21-.62.13.07Z"/><path class="cls-8" d="M50.07,10.29s-.03.09-.03.11l-.11-.07v-.05s0,0,0,0c-.04.02-.09.02-.13-.01-.08-.05-.11-.14-.08-.22.04-.12.15-.12.29-.03h0s0-.07-.05-.11c-.04-.02-.09-.03-.12-.03v-.1s.1,0,.18.05c.13.08.15.19.11.3l-.05.16ZM49.99,10.11c-.07-.04-.12-.05-.14,0-.01.04,0,.07.03.08.03.02.06.01.08-.01,0,0,0-.02.01-.02l.02-.05Z"/><path class="cls-8" d="M50.38,10.06l-.02.24s0,.08-.01.12h0s.04-.06.06-.1l.12-.18.13.08-.3.37-.13-.07v-.54s.14.08.14.08Z"/><path class="cls-8" d="M50.74,10.59c-.02.06.03.12.09.15.04.03.08.04.12.05l-.02.1s-.1-.03-.16-.06c-.14-.08-.19-.21-.14-.36.04-.12.15-.2.29-.12.13.08.14.22.11.33,0,.02-.02.04-.02.05l-.26-.15ZM50.92,10.58s.02-.1-.04-.13c-.05-.03-.09.01-.11.05l.15.09Z"/><path class="cls-8" d="M51.56,11.15s-.03.09-.03.11l-.11-.07v-.05s0,0,0,0c-.04.02-.09.02-.13-.01-.08-.05-.11-.14-.08-.22.04-.12.15-.12.3-.03h0s0-.07-.05-.11c-.04-.02-.09-.03-.12-.03v-.1s.1,0,.18.05c.13.08.15.19.11.3l-.05.16ZM51.47,10.98c-.07-.04-.12-.05-.14,0-.01.04,0,.07.03.08.03.02.06,0,.08-.01,0,0,0-.02,0-.02l.02-.05Z"/><path class="cls-23" d="M51.83,11.3s.06.08.1.1c.04.02.06.02.07,0s0-.04-.04-.09c-.07-.08-.09-.15-.07-.2.03-.09.11-.11.21-.05.05.03.09.07.11.09l-.05.08s-.04-.06-.08-.08c-.03-.02-.05-.02-.06,0,0,.02,0,.04.05.09.07.08.08.14.06.2-.03.08-.11.11-.23.04-.05-.03-.09-.07-.12-.11l.06-.09Z"/><path class="cls-23" d="M52.31,11.5c-.02.06.03.12.09.15.04.03.08.04.12.04l-.02.11s-.1-.03-.16-.06c-.14-.08-.19-.22-.14-.36.04-.12.15-.21.29-.12.13.08.14.22.11.33,0,.03-.02.04-.02.05l-.26-.15ZM52.49,11.5s.02-.1-.04-.13c-.05-.03-.09.01-.11.05l.15.09Z"/><path class="cls-23" d="M52.97,11.97s-.03.08-.03.11l-.11-.07v-.05s0,0,0,0c-.04.02-.09.02-.13-.01-.08-.05-.11-.14-.08-.22.04-.12.15-.12.29-.03h0s0-.07-.05-.11c-.04-.02-.09-.04-.12-.03v-.1s.1,0,.18.05c.13.08.15.19.11.3l-.05.16ZM52.88,11.8c-.07-.04-.12-.05-.14,0-.01.04,0,.07.03.08.03.02.06.01.08-.01,0,0,0-.01,0-.02l.02-.05Z"/><path class="cls-23" d="M53.36,11.65l-.04.12.09.05-.03.1-.09-.05-.05.16c-.02.05-.01.09.02.11.02.01.03.01.04.02l-.03.11s-.05-.02-.08-.04c-.04-.02-.07-.06-.08-.09-.01-.04-.01-.09.01-.15l.06-.19-.05-.03.03-.1.05.03.03-.08.14.03Z"/><path class="cls-23" d="M53.25,12.4c.05-.07.11-.15.15-.23l.13.07c-.06.08-.13.15-.19.2l-.09-.04Z"/><path class="cls-3" d="M48.05,10.13l-.02.14s-.01.07-.02.11h0s.04-.06.05-.08l.07-.11.07.04v.13s-.02.08-.03.11h0s.03-.06.05-.09l.06-.11.08.05-.18.25-.08-.05v-.12s.02-.06.02-.1h0s-.03.06-.05.08l-.06.09-.08-.05.02-.34.09.05Z"/><path class="cls-3" d="M48.41,10.56s.02.08.06.1c.03.02.05.03.08.03v.07s-.08-.02-.11-.04c-.09-.05-.12-.14-.09-.24.02-.07.09-.13.19-.08.09.05.1.14.07.22,0,.02-.01.03-.02.04l-.17-.1ZM48.53,10.55s.01-.07-.03-.09c-.04-.02-.06,0-.07.03l.1.06Z"/><path class="cls-3" d="M48.86,10.44l.08.05-.06.17h0s.06-.01.1,0c.06.04.09.12.06.21-.04.11-.11.12-.18.09-.03-.02-.06-.05-.07-.09h0s-.02.04-.02.04l-.07-.04s.02-.05.03-.09l.11-.34ZM48.84,10.8s0,.01,0,.02c0,.03,0,.06.03.07.04.02.07,0,.09-.05.02-.05,0-.09-.03-.12-.02-.01-.05,0-.06.02,0,0,0,0,0,.02v.04Z"/><path class="cls-3" d="M49.11,10.87s.02-.07.03-.1l.07.04v.06s-.01,0-.01,0c.03-.04.07-.04.09-.02,0,0,.01,0,.02.01l-.03.09s-.01,0-.02-.02c-.03-.02-.06-.01-.07.01,0,0,0,.01,0,.02l-.05.15-.08-.05.07-.2Z"/><path class="cls-3" d="M49.25,11.19l.1-.3.08.05-.1.3-.08-.05ZM49.46,10.86s-.03.04-.06.02c-.03-.02-.04-.05-.03-.07,0-.03.03-.04.06-.02.03.02.04.04.03.07Z"/><path class="cls-3" d="M49.47,11.07s.02-.07.03-.1l.07.04v.04s0,0,0,0c.02-.01.05-.03.1,0,.05.03.08.1.05.19l-.06.18-.08-.05.05-.17s0-.07-.02-.09c-.02-.01-.04,0-.05,0,0,0,0,.01,0,.02l-.06.17-.08-.05.07-.2Z"/><path class="cls-3" d="M49.99,11.57c-.02.06-.05.1-.09.11-.04,0-.08,0-.12-.03-.04-.02-.07-.05-.09-.08l.04-.06s.04.05.07.07c.04.02.08.02.1-.04v-.02s0,0,0,0c-.02.01-.05.01-.08,0-.07-.04-.09-.13-.07-.21.03-.1.11-.12.17-.08.04.02.05.05.06.09h0s.01-.03.01-.03l.07.04s-.02.04-.03.09l-.06.17ZM49.95,11.39s0-.01,0-.02c0-.03,0-.05-.03-.07-.03-.02-.06,0-.08.05-.01.04,0,.09.03.11.02.01.04,0,.06-.01,0,0,0-.02.01-.02v-.04Z"/><path class="cls-3" d="M50.32,11.46v.17s-.01.04-.01.06h0s.02-.03.03-.05l.08-.12.09.05-.13.16c-.08.1-.12.13-.16.14-.04.01-.07,0-.09,0v-.09s.03,0,.05,0c.02,0,.04,0,.05-.02,0,0,0,0,0,0,0,0,0,0,0-.02v-.33s.08.05.08.05Z"/><path class="cls-3" d="M50.76,11.89c-.04.11-.12.12-.19.08-.08-.05-.12-.14-.09-.23.03-.1.11-.13.2-.07.08.05.12.14.09.23ZM50.57,11.78c-.02.05-.01.1.02.12.03.02.07,0,.08-.06.01-.04.01-.1-.02-.12-.04-.02-.07.01-.08.06Z"/><path class="cls-3" d="M51.05,12.12s-.02.07-.03.1l-.07-.04v-.04s0,0,0,0c-.02.01-.05.03-.1,0-.06-.03-.08-.09-.05-.18l.06-.18.08.05-.05.16s-.01.08.02.1c.02.01.04,0,.05,0,0,0,0-.01,0-.02l.06-.18.08.05-.07.2Z"/><path class="cls-3" d="M51.36,12.06v.17s-.01.05-.01.06h0s.02-.03.03-.05l.08-.13.09.05-.13.16c-.08.1-.12.13-.16.14-.04.01-.07,0-.09,0v-.09s.03,0,.05,0,.04,0,.05-.02c0,0,0,0,0-.01,0,0,0,0,0-.02v-.33s.08.05.08.05Z"/><path class="cls-3" d="M51.8,12.5c-.04.11-.12.12-.19.08-.08-.05-.12-.14-.09-.23.03-.1.11-.12.2-.07.08.05.12.14.09.23ZM51.6,12.38c-.02.05-.01.1.02.12.03.02.07,0,.08-.06.01-.04.01-.1-.02-.12-.04-.02-.07.01-.08.06Z"/><path class="cls-3" d="M52.09,12.73s-.02.07-.03.1l-.07-.04v-.04s0,0,0,0c-.02.01-.05.03-.1,0-.06-.03-.08-.09-.05-.19l.06-.17.08.05-.05.16s0,.08.02.09c.02.01.04,0,.05,0,0,0,0,0,0-.02l.06-.18.08.05-.07.2Z"/><path class="cls-3" d="M52.19,12.66s.02-.07.03-.1l.07.04-.02.06h0s.07-.03.09-.02c0,0,.01,0,.02.01l-.03.09s-.01,0-.02-.01c-.03-.02-.06-.01-.07.01,0,0,0,.01,0,.02l-.05.15-.08-.05.07-.2Z"/><path class="cls-3" d="M52.76,13.06c-.04.11-.12.12-.19.08-.08-.05-.12-.14-.09-.23.03-.1.11-.12.2-.07.08.05.12.14.09.23ZM52.56,12.95c-.02.05-.01.1.02.12.03.02.07,0,.08-.06.01-.04.01-.1-.03-.12s-.07.01-.08.06Z"/><path class="cls-3" d="M52.83,13.04s.02-.07.03-.1l.07.04v.06s-.01,0-.01,0c.03-.04.07-.04.09-.02,0,0,.01,0,.02.01l-.03.09s-.01,0-.02-.01c-.03-.02-.06-.01-.07.01,0,0,0,.01,0,.02l-.05.15-.08-.05.07-.2Z"/><path class="cls-3" d="M53.38,13.08l-.11.34s-.02.07-.03.09l-.08-.04v-.05s0,0,0,0c-.03.02-.07.02-.1,0-.06-.04-.1-.13-.06-.22.03-.1.11-.13.17-.09.03.02.05.05.06.08h0l.05-.16.08.05ZM53.2,13.29s0-.01,0-.02c0-.03,0-.06-.03-.07-.04-.02-.07,0-.09.05-.02.05,0,.1.03.12.02.01.05,0,.06-.02,0,0,0-.01,0-.02v-.04Z"/><path class="cls-3" d="M53.4,13.47s.02.08.06.1c.03.02.05.03.08.03v.07s-.08-.02-.11-.04c-.09-.05-.12-.14-.09-.24.02-.07.09-.13.19-.08.09.05.1.14.07.22,0,.02-.01.03-.01.04l-.17-.1ZM53.52,13.46s.01-.07-.03-.09c-.04-.02-.06,0-.07.03l.1.06Z"/><path class="cls-3" d="M53.65,13.52s.02-.07.03-.1l.07.04v.06s-.01,0-.01,0c.03-.04.07-.04.09-.02,0,0,.01,0,.02.01l-.03.09s-.01,0-.02-.02c-.03-.02-.06-.01-.07.01,0,0,0,.01,0,.02l-.05.15-.08-.05.07-.2Z"/><path class="cls-23" d="M53.95,13.94s-.04-.05-.03-.08c.01-.03.04-.04.07-.03s.04.05.03.08c-.01.03-.04.04-.07.03h0ZM53.96,13.78l.08-.28.09.05-.1.27-.06-.04Z"/><path class="cls-17" d="M51.08,22.33c-.21-.21-.18-.36-.23-.57l-6.74-3.9c.09.33.17.57.45.73"/><path class="cls-3" d="M51.08,22.34c-.15-.11-.25-.44-.24-.55.02-.03-6.87-3.89-6.71-3.93.07.28.16.59.43.74-.3-.15-.4-.49-.49-.78l.05.03s6.74,3.9,6.74,3.9c.05.2.04.44.21.59h0Z"/><path class="cls-9" d="M47.11,13.57c-.08-.52.29-1,.81-1.08.52-.09,1,.26,1.07.77.07.51-.29,1-.81,1.08-.52.09-1-.26-1.07-.77h0ZM48.17,13.77c.2-.07.3-.29.24-.49-.07-.19-.28-.29-.48-.22-.2.07-.3.29-.24.49.07.19.28.29.48.22h0Z"/><path class="cls-4" d="M47.53,14.11c-.08-.05-.03-.24-.08-.32-.06-.08-.23-.13-.25-.23-.01-.11.15-.2.18-.29.02-.1-.07-.26,0-.34.05-.08.24-.04.33-.09.09-.06.14-.24.24-.25.11-.01.19.14.29.17.1.02.27-.08.34-.02.08.05.04.24.09.32.06.08.23.13.25.23.01.11-.15.2-.18.29-.02.1.07.26,0,.34-.06.07-.24.04-.33.09-.09.06-.14.24-.24.25-.11.01-.19-.14-.29-.17-.1-.02-.27.08-.35.02h0ZM48.1,13.76c.19-.03.33-.21.3-.4-.02-.18-.21-.33-.4-.29-.2.02-.33.21-.3.4.02.18.2.32.4.29h0Z"/><path class="cls-10" d="M47.66,14.49c.6-.09,1.12.31,1.16.91.02.28-.1.6-.27.82-.9.1-1.52-.22-1.64-1.29.18-.21.46-.39.75-.44h0Z"/><path class="cls-10" d="M46.91,15.98l.71-1.11.17.1-.71,1.11-.17-.1h0ZM47.69,16.47l-.15-.13.87-.99.15.13-.87.99h0Z"/><path class="cls-10" d="M47.54,16.94l-.14-.14,1.08-1.01.14.14-1.08,1.01h0ZM46.6,16.03l.75-1.27.17.1-.75,1.27-.17-.1h0ZM47.11,15.95l.74-1.09.17.11-.59.87.78-.97.16.12-.93,1.14-.14-.11-.02.03-.17-.11h0ZM47.6,16.33l-.14-.14.81-.82.14.14-.81.82h0Z"/><path class="cls-10" d="M47.31,16.77l-.15-.13.88-.98.15.13-.88.98h0ZM46.72,16.21l.83-1.02.16.12-.83,1.02-.16-.12h0ZM47.61,16.88l-.16-.12.94-1.14.16.12-.94,1.14h0ZM46.83,15.7l.82-1.03.16.12-.82,1.03-.16-.12h0Z"/><path class="cls-10" d="M47.08,16.35l-.15-.13.95-1.13.15.13-.95,1.13h0ZM47.51,16.16l-.14-.14.91-.95.14.14-.92.95h0Z"/><polygon class="cls-10" points="47.15 14.84 46.31 16.05 46.47 16.16 47.31 14.95 47.15 14.84 47.15 14.84"/><path class="cls-13" d="M46.16,16.58v-.05s.9-1.48.9-1.48l.13.1s.04.04.02.08c-.04.09-.05.19-.03.3.07.3.37.54.69.54.12,0,.22-.04.29-.09.02-.02.05-.02.07,0l.13.1-1.26,1.21h-.04c-.22-.33-.54-.61-.91-.71h0Z"/><path class="cls-14" d="M46.16,16.58l-.06-.34.8-1.31.2.15-.94,1.5h0ZM47.07,17.3l1.28-1.23.2.15-1.13,1.06-.35.02h0Z"/><polygon class="cls-9" points="51.36 15.92 51.23 15.96 50.66 14.11 50.78 14.06 51.36 15.92 51.36 15.92"/><path class="cls-9" d="M50.53,14.04h-.02c-.06.02-.09.09-.07.14l.57,1.84c.02.06.08.09.14.07h.02c.06-.02.09-.09.07-.14l-.57-1.84c-.02-.06-.08-.09-.14-.07h0Z"/><polygon class="cls-9" points="50.64 15.01 50.45 15.08 50.52 15.29 50.71 15.23 50.64 15.01 50.64 15.01"/><path class="cls-9" d="M50.21,14.29l.19-.06.25.81-.19.06-.25-.81h0ZM50.51,15.27l.19-.06.25.81-.19.06-.25-.81h0Z"/><path class="cls-9" d="M50.72,16.13l-.56-1.79s0-.03-.01-.06c0-.03,0-.06.04-.07s.06,0,.07.04c.01.03.02.06.02.09,0,.03,0,.05,0,.06,0,0,0,.02,0,.02,0,0,0,.01,0,.02,0,.01,0,.03.01.06s.02.04.02.05c0,.01.02.02.03.03.01.01.02.03.04.05.01.02.03.05.04.08s.01.06.02.09c0,.02,0,.05,0,.06,0,0,0,.02,0,.02,0,0,0,.01,0,.02,0,.01,0,.03,0,.05h0s0,0,0,0h0s.01.04.02.05c0,.01.02.02.03.03,0,0,0,0,0,0,0,0,0,0,0,.01,0,0,.01.02.02.03.01.02.03.04.04.08,0,.03.01.06.01.09,0,.01,0,.02,0,.03,0,0,0,.02,0,.03,0,.02,0,.03,0,.04,0,.01,0,.03.01.06s.02.04.02.05c0,.01.02.02.03.03.01.01.02.03.04.05.01.02.03.05.04.08s.01.06.02.09c0,.03,0,.05,0,.06,0,.02,0,.03,0,.04,0,.01,0,.03.01.06s.02.04.02.05c0,.01.02.02.03.03,0,0,.01.01.02.02,0,0,.01.02.02.03.01.02.03.05.04.08,0,.03,0,.06-.04.07s-.06,0-.07-.04h0Z"/><polygon class="cls-9" points="50.15 14.27 50.02 14.32 50.59 16.17 50.72 16.13 50.15 14.27 50.15 14.27"/><path class="cls-9" d="M49.91,14.25h-.02c-.06.02-.09.09-.07.14l.57,1.84c.02.06.08.09.14.07h.02c.06-.02.09-.09.07-.14l-.57-1.84c-.02-.06-.08-.09-.14-.07h0Z"/><path class="cls-9" d="M49.69,14.36h0s0,0,0,0l.05-.02s.07,0,.08.04l.58,1.86s0,.05-.03.06l-.07.02h0s0,0,0,0c-.14.05-.29-.05-.34-.22l-.42-1.36c-.05-.17.02-.34.16-.39h0Z"/><path class="cls-9" d="M51.07,15.16s0-.05,0-.06c0,0,0-.02,0-.02,0,0,0-.01,0-.02,0-.01,0-.03-.01-.06,0-.02-.01-.04-.02-.05,0,0,0-.01-.01-.02,0,0,0,0,0,0,0,0,0,0,0,0-.01-.01-.02-.03-.04-.05-.01-.02-.02-.05-.03-.08h0s0,0,0,0c-.01-.03-.02-.06-.02-.09,0-.01,0-.02,0-.03,0-.01,0-.02,0-.03,0-.02,0-.03,0-.04,0-.01,0-.03-.01-.06s-.02-.04-.02-.05c0-.01-.02-.02-.03-.04-.01-.01-.02-.03-.04-.05-.01-.02-.03-.05-.04-.08s-.02-.06-.02-.09c0-.01,0-.02,0-.04,0-.01,0-.02,0-.03,0-.02,0-.03,0-.05,0-.01,0-.03-.01-.06,0-.03.07-.06.08-.02l.6,1.93s-.07.06-.08.02c0-.03-.02-.04-.02-.05,0,0,0-.01-.01-.02,0,0,0-.01-.01-.02-.01-.01-.02-.03-.04-.05-.01-.02-.03-.05-.04-.09s-.02-.06-.02-.09c0-.03,0-.05,0-.06,0-.02,0-.03,0-.04,0-.01,0-.03-.01-.06s-.02-.04-.02-.05c0-.01-.02-.02-.03-.04-.01-.01-.02-.03-.04-.05-.01-.02-.03-.05-.04-.08s-.02-.06-.02-.09h0Z"/><path class="cls-9" d="M50.34,15.22l-.11.34.28.21c-.04-.19-.09-.38-.17-.55h0Z"/><path class="cls-9" d="M50.66,15.3s0-.05,0-.06c0,0,0-.02,0-.02,0,0,0-.01,0-.02,0-.01,0-.03-.01-.06,0-.02-.01-.04-.02-.05,0,0,0-.01-.01-.02,0,0,0,0,0,0,0,0,0,0,0,0-.01-.01-.02-.03-.04-.05-.01-.02-.02-.05-.03-.08h0s0,0,0,0c-.01-.03-.02-.06-.02-.09,0-.01,0-.02,0-.03,0-.01,0-.02,0-.03,0-.02,0-.03,0-.04,0-.01,0-.03-.01-.06s-.02-.04-.02-.05c0-.01-.02-.02-.03-.04-.01-.01-.02-.03-.04-.05-.01-.02-.03-.05-.04-.08s-.02-.06-.02-.09c0-.01,0-.02,0-.04,0-.01,0-.02,0-.03,0-.02,0-.03,0-.05,0-.01,0-.03-.01-.06,0-.03.07-.06.08-.02l.6,1.93s-.07.06-.08.02c0-.03-.02-.04-.02-.05,0,0,0-.01-.01-.02,0,0,0-.01-.01-.02-.01-.01-.02-.03-.04-.05-.01-.02-.03-.05-.04-.09s-.02-.06-.02-.09c0-.03,0-.05,0-.06,0-.02,0-.03,0-.04,0-.01,0-.03-.01-.06s-.02-.04-.02-.05c0-.01-.02-.02-.03-.04-.01-.01-.02-.03-.04-.05-.01-.02-.03-.05-.04-.08s-.02-.06-.02-.09h0Z"/><path class="cls-9" d="M50.98,15.04l-.28-.21.11-.34c.07.18.14.37.17.55h0Z"/><path class="cls-9" d="M51.56,15.92c.23-.08.31-.48.18-.91l-.13-.42c-.13-.42-.42-.7-.65-.63h0s-.06.02-.06.02c-.03,0-.06.04-.04.08l.57,1.86s.04.04.06.03l.07-.02h0Z"/><path class="cls-14" d="M48.82,17.91l.17-1.77,1.48.26-.55,1.7s-.03.05-.08.05l-.97-.17s-.06-.04-.05-.07h0Z"/><path class="cls-10" d="M49.38,17.76h0s-.56-.1-.56-.1c-.01,0-.02-.01-.02-.03l.11-1.12s.01-.03.03-.02l.76.13h0s.68.12.68.12c.02,0,.03.01.02.03l-.35,1.08s-.02.02-.03.02l-.64-.11h0Z"/><polygon class="cls-16" points="48.98 16.26 48.99 16.15 50.48 16.41 50.44 16.52 48.98 16.26 48.98 16.26"/><polygon class="cls-15" points="49.13 15.74 49.18 15.63 50.49 15.86 50.48 15.98 49.13 15.74 49.13 15.74"/><path class="cls-10" d="M50.62,16.28v-.25c0-.07-.03-.11-.08-.12h-.05s0-.09,0-.09c0-.06-.03-.09-.07-.09l-.49-.09h0s-.63-.11-.63-.11c-.04,0-.08.01-.1.06l-.04.08h-.04c-.05-.02-.1,0-.13.07l-.11.23c-.04.09-.03.19.07.21l.71.13h0s.81.14.81.14c.1.02.15-.07.15-.17Z"/><path class="cls-4" d="M49.15,17.37c-.09-.21,0-.46.22-.56.22-.1.47,0,.56.2.09.21,0,.46-.22.56-.22.1-.47,0-.56-.2h0ZM49.43,17.42c.13.01.29-.08.35-.21.03-.06.03-.12.01-.16,0-.01-.01-.02-.03-.01-.1.04-.15.1-.21.16-.05.06-.11.13-.19.18-.01,0-.01.02,0,.02.02,0,.04.01.06.01h0ZM49.32,17.34c.09-.05.14-.11.2-.18.05-.06.11-.12.2-.17.02,0,.01-.02,0-.02-.02-.01-.04-.02-.07-.02-.13-.01-.29.08-.35.21-.03.06-.03.12,0,.17,0,.01.02.01.03,0h0Z"/><path class="cls-11" d="M45.31,6.93c-.67-.39-1.23-.08-1.41.52-.3,1.02-.78,3.51-1.73,6.24-1.09,3.14-2.89,5.43-3.12,5.9-.4.82-.56,1.8.5,2.41,1.06.61,6.7,3.84,6.7,3.84-.65-.65-.33-1.31-.08-1.9s2.36-4.36,3.06-5.89c1.29-2.85,1.81-5.15,2.14-6.44.11-.43.27-1.04-.32-1.44-.69-.46-5.74-3.24-5.74-3.24Z"/><path class="cls-5" d="M48.39,22.39c.71-.32,1.29-.87,1.43-.84l-1.5-.92c-.59,1.12-.83,2.07.07,1.76Z"/><path class="cls-1" d="M51.46,10.07c-.69-.46-5.74-3.24-5.74-3.24-.37-.22-.71-.22-.97-.07.17,0,.36.06.56.17,0,0,5.05,2.77,5.74,3.24.59.4.43,1.01.32,1.44-.33,1.29-.85,3.59-2.14,6.44-.7,1.54-2.81,5.31-3.06,5.89-.18.43-.62,1.18.08,1.9.42-.42,4.36-3.14,4.36-3.14-.19-.29-.65-1.12-.8-1.15-.14-.03-.72.52-1.43.84-.89.31-.65-.64-.07-1.76.72-1.37.79-1.51,1.32-2.67,1.29-2.85,1.81-5.15,2.14-6.44.11-.43.27-1.04-.32-1.44Z"/><path class="cls-19" d="M44.21,11.49l.16-.49.53-.17c.92-.29,1.38-.48,1.52-.89.09-.29.02-.6-.34-.81-.27-.16-.56-.15-.76-.11v-.7c.28-.06.71,0,1.13.24.71.42.94,1.1.74,1.73-.2.59-.73.84-1.33,1.02l-.38.1h0s1.19.7,1.19.7l-.22.67-2.22-1.3Z"/><path class="cls-19" d="M48.73,10.83h0s-.7-.04-.7-.04l.08-.68.98.06.6.35-1.16,3.49-.71-.41.92-2.77Z"/><polygon class="cls-3" points="48.65 16.3 43.63 13.37 44 12.23 49.02 15.17 48.65 16.3"/><path class="cls-8" d="M44.35,12.65l-.08.24.21.12.08-.24.13.07-.21.62-.13-.07.09-.26-.21-.12-.09.26-.13-.07.21-.62.13.07Z"/><path class="cls-8" d="M44.95,13.62s-.03.08-.03.11l-.11-.07v-.05s0,0,0,0c-.04.02-.09.02-.13-.01-.08-.05-.11-.14-.08-.22.04-.12.15-.12.3-.03h0s0-.07-.05-.11c-.04-.03-.09-.04-.12-.03v-.11s.1,0,.18.05c.13.08.15.19.11.3l-.05.16ZM44.87,13.44c-.07-.04-.12-.05-.14,0-.01.04,0,.07.03.08.03.02.06,0,.08-.01,0,0,0-.01.01-.02l.02-.05Z"/><path class="cls-8" d="M45.26,13.39v.24s-.02.08-.03.12h0s.04-.06.06-.1l.12-.18.13.08-.3.36-.13-.07v-.54s.14.08.14.08Z"/><path class="cls-8" d="M45.62,13.92c-.02.06.03.12.09.15.04.02.08.04.12.04l-.02.11s-.1-.03-.16-.06c-.14-.08-.19-.22-.14-.36.04-.12.15-.21.29-.12.13.08.14.22.11.33,0,.02-.02.04-.02.05l-.26-.15ZM45.8,13.91s.02-.1-.04-.13c-.05-.03-.09.01-.11.05l.15.09Z"/><path class="cls-8" d="M46.44,14.48s-.03.08-.03.11l-.11-.07v-.05s0,0,0,0c-.04.02-.09.02-.13-.01-.08-.05-.11-.14-.08-.21.04-.12.15-.12.3-.04h0s0-.07-.05-.11c-.04-.02-.09-.04-.12-.03v-.1s.1,0,.18.05c.13.08.15.19.11.3l-.05.16ZM46.35,14.31c-.07-.04-.12-.05-.14,0-.01.04,0,.07.03.08.03.02.07,0,.08-.01,0,0,0-.01,0-.02l.02-.05Z"/><path class="cls-23" d="M46.71,14.63s.06.08.1.1c.04.02.06.02.07,0,0-.02,0-.04-.04-.09-.07-.08-.09-.15-.07-.2.03-.08.12-.11.21-.05.05.03.09.07.11.09l-.05.09s-.05-.06-.08-.08c-.03-.02-.05-.01-.06,0,0,.02,0,.04.05.09.07.07.08.14.06.2-.03.09-.11.11-.22.04-.05-.03-.1-.07-.12-.11l.06-.09Z"/><path class="cls-23" d="M47.19,14.84c-.02.06.03.12.09.15.04.03.08.04.12.05l-.02.11s-.1-.03-.16-.06c-.14-.08-.19-.21-.14-.36.04-.12.15-.21.29-.12.13.08.14.22.11.33,0,.02-.02.04-.02.05l-.26-.15ZM47.37,14.83s.02-.1-.04-.13c-.05-.03-.09,0-.11.04l.15.09Z"/><path class="cls-23" d="M47.84,15.31s-.03.09-.03.11l-.11-.07v-.05s0,0,0,0c-.04.02-.09.02-.13-.01-.08-.05-.11-.14-.08-.22.04-.12.15-.12.3-.03h0s0-.07-.05-.11c-.04-.02-.09-.03-.12-.03v-.1s.1,0,.18.05c.13.08.15.19.11.3l-.05.16ZM47.76,15.13c-.07-.04-.12-.05-.14,0-.01.04,0,.07.03.08.03.02.06.01.08-.01,0,0,0-.02.01-.02l.02-.05Z"/><path class="cls-23" d="M48.24,14.98l-.04.12.09.05-.03.1-.09-.05-.05.16c-.02.05-.01.09.02.11.02,0,.03.01.04.02l-.04.11s-.05-.01-.09-.04c-.04-.02-.07-.06-.08-.09-.01-.04-.01-.09.01-.16l.06-.18-.05-.03.03-.1.05.03.03-.08.14.04Z"/><path class="cls-23" d="M48.13,15.73c.05-.07.11-.15.15-.23l.13.07c-.06.08-.13.15-.19.2l-.09-.04Z"/><path class="cls-3" d="M42.93,13.46l-.02.13s-.01.07-.02.11h0s.04-.06.05-.08l.07-.11.07.04v.13s-.02.08-.03.11h0s.03-.06.05-.09l.06-.1.08.05-.18.25-.08-.05v-.12s.01-.06.02-.1h0s-.03.06-.05.08l-.06.09-.08-.05.02-.34.09.05Z"/><path class="cls-3" d="M43.29,13.89s.02.08.06.1c.03.02.05.03.08.03v.07s-.08-.02-.11-.04c-.09-.05-.12-.14-.09-.24.02-.08.09-.13.19-.08.09.05.1.15.07.22,0,.02-.01.03-.02.04l-.17-.1ZM43.41,13.88s.01-.07-.03-.09c-.04-.02-.06,0-.07.03l.1.06Z"/><path class="cls-3" d="M43.73,13.77l.08.05-.06.17h0s.06-.01.1,0c.07.04.09.12.06.21-.04.11-.11.12-.18.09-.03-.02-.06-.05-.07-.1h0s-.02.04-.02.04l-.07-.04s.02-.05.03-.09l.11-.34ZM43.72,14.13s0,.01,0,.02c0,.03,0,.06.03.07.04.02.07,0,.09-.05.02-.05,0-.09-.03-.12-.02-.01-.05,0-.06.02,0,0,0,0,0,.01v.04Z"/><path class="cls-3" d="M43.99,14.2s.02-.07.03-.1l.07.04-.02.06h0s.07-.04.09-.02c0,0,.01,0,.02.01l-.03.09s-.01,0-.02-.01c-.03-.02-.06-.01-.07.01,0,0,0,.01,0,.02l-.05.15-.08-.05.07-.2Z"/><path class="cls-3" d="M44.13,14.52l.1-.3.08.05-.1.3-.08-.05ZM44.34,14.19s-.03.04-.06.02c-.03-.02-.04-.05-.03-.07,0-.03.03-.04.06-.02.03.02.04.04.03.07Z"/><path class="cls-3" d="M44.35,14.4s.02-.07.03-.1l.07.04v.04s0,0,0,0c.02-.01.05-.03.1,0,.05.03.08.1.05.19l-.06.18-.08-.05.05-.17s0-.07-.02-.09c-.02-.01-.04,0-.06,0,0,0,0,.01,0,.02l-.06.17-.08-.05.07-.2Z"/><path class="cls-3" d="M44.87,14.9c-.02.06-.05.1-.09.11-.04.01-.08,0-.12-.03-.04-.02-.07-.05-.09-.08l.04-.06s.04.05.07.07c.04.02.08.02.1-.04v-.02s0,0,0,0c-.02.02-.06.01-.09,0-.07-.04-.09-.13-.06-.21.03-.1.11-.12.17-.08.04.02.05.05.06.09h0v-.03s.09.04.09.04c0,.02-.02.04-.03.09l-.06.17ZM44.83,14.72s0-.01,0-.02c0-.03,0-.05-.03-.07-.03-.02-.06,0-.08.05-.02.04,0,.09.03.11.02.01.04,0,.06-.01,0,0,0-.02.01-.02v-.04Z"/><path class="cls-3" d="M45.2,14.79v.17s-.01.04-.01.06h0s.02-.03.03-.05l.08-.13.09.05-.13.16c-.08.1-.12.13-.16.14-.04,0-.07,0-.09,0v-.09s.03,0,.05,0,.03,0,.05-.02c0,0,0,0,0,0,0,0,0,0,0-.02v-.33s.08.05.08.05Z"/><path class="cls-3" d="M45.64,15.22c-.04.11-.12.12-.2.08-.08-.05-.12-.14-.09-.23.03-.1.11-.13.2-.07.08.05.12.14.09.23ZM45.45,15.11c-.02.05-.01.1.02.12.03.02.07,0,.08-.06.01-.04.01-.1-.02-.12-.04-.02-.07.01-.08.06Z"/><path class="cls-3" d="M45.93,15.46s-.02.07-.03.1l-.07-.04v-.04s0,0,0,0c-.02.01-.05.03-.1,0-.06-.03-.08-.09-.05-.19l.06-.17.08.05-.05.16s-.01.08.02.09c.02.01.04,0,.05,0,0,0,0,0,0-.02l.06-.18.08.05-.07.2Z"/><path class="cls-3" d="M46.24,15.39v.17s-.01.05-.01.06h0s.02-.03.03-.05l.08-.13.09.05-.13.16c-.08.1-.12.13-.16.14-.04.01-.07,0-.09,0v-.09s.03,0,.05,0c.02,0,.03,0,.05-.02,0,0,0,0,0-.01,0,0,0,0,0-.02v-.33s.08.05.08.05Z"/><path class="cls-3" d="M46.68,15.83c-.04.11-.12.12-.2.08-.08-.05-.12-.14-.09-.23.03-.1.11-.12.2-.07.08.05.12.14.09.23ZM46.48,15.71c-.02.05-.01.1.02.12.03.02.07,0,.08-.06.01-.04.01-.1-.02-.12-.04-.02-.07.01-.08.06Z"/><path class="cls-3" d="M46.97,16.06s-.02.07-.03.1l-.07-.04v-.04s0,0,0,0c-.02.01-.05.03-.1,0-.06-.03-.08-.09-.05-.18l.06-.17.08.05-.05.16s-.01.08.02.09c.02.01.04,0,.05,0,0,0,0-.01,0-.02l.06-.18.08.05-.07.2Z"/><path class="cls-3" d="M47.07,16s.02-.07.03-.1l.07.04-.02.06h0s.07-.03.09-.02c0,0,.01,0,.02.01l-.03.09s-.01,0-.02-.02c-.03-.02-.06-.01-.07.01,0,0,0,.01,0,.02l-.05.15-.08-.05.07-.2Z"/><path class="cls-3" d="M47.64,16.39c-.04.11-.12.12-.2.08-.08-.05-.12-.14-.09-.23.03-.1.11-.12.2-.07.08.05.12.14.09.23ZM47.44,16.28c-.02.05-.01.1.03.12.03.02.07,0,.08-.06.01-.04.01-.1-.02-.12-.04-.02-.07.01-.09.06Z"/><path class="cls-3" d="M47.71,16.37s.02-.07.03-.1l.07.04v.06s-.01,0-.01,0c.03-.04.07-.04.09-.02,0,0,.01,0,.02.01l-.03.09s-.01,0-.02-.02c-.03-.02-.06-.01-.07.01,0,0,0,.01,0,.02l-.05.15-.08-.05.07-.2Z"/><path class="cls-3" d="M48.25,16.41l-.11.34s-.02.07-.03.09l-.08-.04v-.04s0,0,0,0c-.03.02-.07.02-.1,0-.06-.04-.1-.13-.06-.22.03-.1.11-.13.17-.09.03.02.06.05.06.08h0s.05-.16.05-.16l.08.05ZM48.08,16.62s0-.01,0-.02c0-.03,0-.06-.03-.07-.04-.02-.07,0-.09.05-.02.05,0,.1.03.12.02.01.05,0,.06-.02,0,0,0-.01,0-.02v-.04Z"/><path class="cls-3" d="M48.28,16.8s.02.08.06.1c.03.02.05.03.08.03v.07s-.08-.02-.11-.04c-.09-.05-.13-.14-.09-.24.02-.07.09-.13.19-.08.09.05.1.14.07.22,0,.02-.01.03-.01.04l-.17-.1ZM48.4,16.8s.01-.07-.03-.09c-.04-.02-.06,0-.07.03l.1.06Z"/><path class="cls-3" d="M48.53,16.85s.02-.07.03-.1l.07.04v.06s-.01,0-.01,0c.03-.03.07-.03.09-.02,0,0,.01,0,.02.01l-.03.09s-.01,0-.02-.01c-.03-.02-.06-.01-.07.01,0,0,0,.01,0,.02l-.05.15-.08-.05.07-.2Z"/><path class="cls-23" d="M48.83,17.27s-.04-.05-.03-.08c.01-.03.04-.04.07-.03s.04.05.03.08c-.01.03-.04.04-.07.03h0ZM48.84,17.11l.08-.28.09.05-.1.27-.06-.04Z"/><path class="cls-12" d="M45.96,25.67c-.21-.21-.18-.36-.23-.57l-6.74-3.9c.09.33.17.57.45.73"/><path class="cls-3" d="M45.96,25.67c-.15-.11-.25-.44-.24-.55.02-.03-6.87-3.89-6.71-3.93.07.28.16.59.43.74-.3-.15-.4-.49-.49-.78.06.03,6.73,3.9,6.79,3.93.05.2.04.44.21.59h0Z"/><path class="cls-9" d="M41.99,16.9c-.08-.52.29-1,.81-1.08.52-.09,1,.26,1.07.77.07.51-.29,1-.81,1.08-.52.09-1-.26-1.07-.77h0ZM43.05,17.1c.2-.07.3-.29.24-.49-.07-.19-.28-.29-.48-.22-.2.07-.3.29-.24.49.07.19.28.29.48.22h0Z"/><path class="cls-4" d="M42.41,17.44c-.08-.05-.03-.24-.08-.32-.06-.08-.23-.13-.25-.23-.01-.11.15-.2.18-.29.02-.1-.07-.26,0-.34.05-.08.24-.04.33-.09.09-.06.14-.24.24-.25.11-.01.19.14.29.17.1.02.27-.08.34-.02.08.05.04.24.09.32.06.08.23.13.25.23.01.11-.15.2-.18.29-.02.1.07.26,0,.34-.06.07-.24.04-.33.09-.09.06-.14.24-.24.25-.11.01-.19-.14-.29-.17-.1-.02-.27.08-.35.02h0ZM42.98,17.09c.19-.03.33-.21.3-.4-.02-.18-.21-.33-.4-.29-.2.02-.33.21-.3.4.02.18.2.32.4.29h0Z"/><path class="cls-10" d="M42.54,17.82c.6-.09,1.12.31,1.16.91.02.28-.1.6-.27.82-.9.1-1.52-.22-1.64-1.29.18-.21.46-.39.75-.44h0Z"/><path class="cls-10" d="M41.79,19.31l.71-1.11.17.1-.71,1.11-.17-.1h0ZM42.57,19.8l-.15-.13.87-.99.15.13-.87.99h0Z"/><path class="cls-10" d="M42.42,20.27l-.14-.14,1.08-1.01.14.14-1.08,1.01h0ZM41.48,19.36l.75-1.27.17.1-.75,1.27-.17-.1h0ZM41.99,19.28l.74-1.09.17.11-.59.87.78-.97.16.12-.93,1.14-.14-.11-.02.03-.17-.11h0ZM42.48,19.66l-.14-.14.81-.82.14.14-.81.82h0Z"/><path class="cls-10" d="M42.19,20.1l-.15-.13.88-.98.15.13-.88.98h0ZM41.6,19.54l.83-1.02.16.12-.83,1.02-.16-.12h0ZM42.48,20.21l-.16-.12.94-1.14.16.12-.94,1.14h0ZM41.71,19.03l.82-1.03.16.12-.82,1.03-.16-.12h0Z"/><path class="cls-10" d="M41.96,19.68l-.15-.13.95-1.13.15.13-.95,1.13h0ZM42.39,19.49l-.14-.14.91-.95.14.14-.92.95h0Z"/><polygon class="cls-10" points="42.02 18.17 41.19 19.38 41.35 19.49 42.19 18.28 42.02 18.17 42.02 18.17"/><path class="cls-13" d="M41.04,19.92v-.05s.9-1.48.9-1.48l.13.1s.04.04.02.08c-.04.09-.05.19-.03.3.07.3.37.54.69.54.12,0,.22-.04.29-.09.02-.02.05-.02.07,0l.13.1-1.26,1.21h-.04c-.22-.33-.54-.61-.91-.71h0Z"/><path class="cls-14" d="M41.04,19.92l-.06-.34.8-1.31.2.15-.94,1.5h0ZM41.95,20.63l1.28-1.23.2.15-1.13,1.06-.35.02h0Z"/><polygon class="cls-9" points="46.24 19.25 46.11 19.29 45.53 17.44 45.66 17.4 46.24 19.25 46.24 19.25"/><path class="cls-9" d="M45.41,17.38h-.02c-.06.02-.09.09-.07.14l.57,1.84c.02.06.08.09.14.07h.02c.06-.02.09-.09.07-.14l-.57-1.84c-.02-.06-.08-.09-.14-.07h0Z"/><polygon class="cls-9" points="45.52 18.35 45.33 18.41 45.4 18.63 45.59 18.56 45.52 18.35 45.52 18.35"/><path class="cls-9" d="M45.09,17.62l.19-.06.25.81-.19.06-.25-.81h0ZM45.39,18.6l.19-.06.25.81-.19.06-.25-.81h0Z"/><path class="cls-9" d="M45.6,19.46l-.56-1.79s0-.03-.01-.06c0-.03,0-.06.04-.07s.06,0,.07.04c.01.03.02.06.02.09,0,.03,0,.05,0,.06,0,0,0,.02,0,.02,0,0,0,.01,0,.02,0,.01,0,.03.01.06s.02.04.02.05c0,.01.02.02.03.03.01.01.02.03.04.05.01.02.03.05.04.08s.01.06.02.09c0,.02,0,.05,0,.06,0,0,0,.02,0,.02,0,0,0,.01,0,.02,0,.01,0,.03,0,.05h0s0,0,0,0h0s.01.04.02.05c0,.01.02.02.03.03,0,0,0,0,0,0,0,0,0,0,0,.01,0,0,.01.02.02.03.01.02.03.04.04.08,0,.03.01.06.01.09,0,.01,0,.02,0,.03,0,0,0,.02,0,.03,0,.02,0,.03,0,.04,0,.01,0,.03.01.06s.02.04.02.05c0,.01.02.02.03.03.01.01.02.03.04.05.01.02.03.05.04.08s.01.06.02.09c0,.03,0,.05,0,.06,0,.02,0,.03,0,.04,0,.01,0,.03.01.06s.02.04.02.05c0,.01.02.02.03.03,0,0,.01.01.02.02,0,0,.01.02.02.03.01.02.03.05.04.08,0,.03,0,.06-.04.07s-.06,0-.07-.04h0Z"/><polygon class="cls-9" points="45.03 17.6 44.9 17.65 45.47 19.5 45.6 19.46 45.03 17.6 45.03 17.6"/><path class="cls-9" d="M44.79,17.58h-.02c-.06.02-.09.09-.07.14l.57,1.84c.02.06.08.09.14.07h.02c.06-.02.09-.09.07-.14l-.57-1.84c-.02-.06-.08-.09-.14-.07h0Z"/><path class="cls-9" d="M44.57,17.69h0s0,0,0,0l.05-.02s.07,0,.08.04l.58,1.86s0,.05-.03.06l-.07.02h0s0,0,0,0c-.14.05-.29-.05-.34-.22l-.42-1.36c-.05-.17.02-.34.16-.39h0Z"/><path class="cls-9" d="M45.95,18.49s0-.05,0-.06c0,0,0-.02,0-.02,0,0,0-.01,0-.02,0-.01,0-.03-.01-.06,0-.02-.01-.04-.02-.05,0,0,0-.01-.01-.02,0,0,0,0,0,0,0,0,0,0,0,0-.01-.01-.02-.03-.04-.05-.01-.02-.02-.05-.03-.08h0s0,0,0,0c-.01-.03-.02-.06-.02-.09,0-.01,0-.02,0-.03,0-.01,0-.02,0-.03,0-.02,0-.03,0-.04,0-.01,0-.03-.01-.06s-.02-.04-.02-.05c0-.01-.02-.02-.03-.04-.01-.01-.02-.03-.04-.05-.01-.02-.03-.05-.04-.08s-.02-.06-.02-.09c0-.01,0-.02,0-.04,0-.01,0-.02,0-.03,0-.02,0-.03,0-.05,0-.01,0-.03-.01-.06,0-.03.07-.06.08-.02l.6,1.93s-.07.06-.08.02c0-.03-.02-.04-.02-.05,0,0,0-.01-.01-.02,0,0,0-.01-.01-.02-.01-.01-.02-.03-.04-.05-.01-.02-.03-.05-.04-.09s-.02-.06-.02-.09c0-.03,0-.05,0-.06,0-.02,0-.03,0-.04,0-.01,0-.03-.01-.06s-.02-.04-.02-.05c0-.01-.02-.02-.03-.04-.01-.01-.02-.03-.04-.05-.01-.02-.03-.05-.04-.08s-.02-.06-.02-.09h0Z"/><path class="cls-9" d="M45.22,18.55l-.11.34.28.21c-.04-.19-.09-.38-.17-.55h0Z"/><path class="cls-9" d="M45.54,18.63s0-.05,0-.06c0,0,0-.02,0-.02,0,0,0-.01,0-.02,0-.01,0-.03-.01-.06,0-.02-.01-.04-.02-.05,0,0,0-.01-.01-.02,0,0,0,0,0,0,0,0,0,0,0,0-.01-.01-.02-.03-.04-.05-.01-.02-.02-.05-.03-.08h0s0,0,0,0c-.01-.03-.02-.06-.02-.09,0-.01,0-.02,0-.03,0-.01,0-.02,0-.03,0-.02,0-.03,0-.04,0-.01,0-.03-.01-.06s-.02-.04-.02-.05c0-.01-.02-.02-.03-.04-.01-.01-.02-.03-.04-.05-.01-.02-.03-.05-.04-.08s-.02-.06-.02-.09c0-.01,0-.02,0-.04,0-.01,0-.02,0-.03,0-.02,0-.03,0-.05,0-.01,0-.03-.01-.06,0-.03.07-.06.08-.02l.6,1.93s-.07.06-.08.02c0-.03-.02-.04-.02-.05,0,0,0-.01-.01-.02,0,0,0-.01-.01-.02-.01-.01-.02-.03-.04-.05-.01-.02-.03-.05-.04-.09s-.02-.06-.02-.09c0-.03,0-.05,0-.06,0-.02,0-.03,0-.04,0-.01,0-.03-.01-.06s-.02-.04-.02-.05c0-.01-.02-.02-.03-.04-.01-.01-.02-.03-.04-.05-.01-.02-.03-.05-.04-.08s-.02-.06-.02-.09h0Z"/><path class="cls-9" d="M45.86,18.37l-.28-.21.11-.34c.07.18.14.37.17.55h0Z"/><path class="cls-9" d="M46.44,19.25c.23-.08.31-.48.18-.91l-.13-.42c-.13-.42-.42-.7-.65-.63h0s-.06.02-.06.02c-.03,0-.06.04-.04.08l.57,1.86s.04.04.06.03l.07-.02h0Z"/><path class="cls-14" d="M43.7,21.24l.17-1.77,1.48.26-.55,1.7s-.03.05-.08.05l-.97-.17s-.06-.04-.05-.07h0Z"/><path class="cls-10" d="M44.26,21.09h0s-.56-.1-.56-.1c-.01,0-.02-.01-.02-.03l.11-1.12s.01-.03.03-.02l.76.13h0s.68.12.68.12c.02,0,.03.01.02.03l-.35,1.08s-.02.02-.03.02l-.64-.11h0Z"/><polygon class="cls-16" points="43.86 19.59 43.87 19.48 45.35 19.74 45.32 19.85 43.86 19.59 43.86 19.59"/><polygon class="cls-15" points="44 19.07 44.06 18.96 45.36 19.19 45.36 19.31 44 19.07 44 19.07"/><path class="cls-10" d="M45.5,19.61v-.25c0-.07-.03-.11-.08-.12h-.05s0-.09,0-.09c0-.06-.03-.09-.07-.09l-.49-.09h0s-.63-.11-.63-.11c-.04,0-.08.01-.1.06l-.04.08h-.04c-.05-.02-.1,0-.13.07l-.11.23c-.04.09-.03.19.07.21l.71.13h0s.81.14.81.14c.1.02.15-.07.15-.17Z"/><path class="cls-4" d="M44.03,20.7c-.09-.21,0-.46.22-.56.22-.1.47,0,.56.2.09.21,0,.46-.22.56-.22.1-.47,0-.56-.2h0ZM44.31,20.75c.13.01.29-.08.35-.21.03-.06.03-.12.01-.16,0-.01-.01-.02-.03-.01-.1.04-.15.1-.21.16-.05.06-.11.13-.19.18-.01,0-.01.02,0,.02.02,0,.04.01.06.01h0ZM44.2,20.67c.09-.05.14-.11.2-.18.05-.06.11-.12.2-.17.02,0,.01-.02,0-.02-.02-.01-.04-.02-.07-.02-.13-.01-.29.08-.35.21-.03.06-.03.12,0,.17,0,.01.02.01.03,0h0Z"/><path class="cls-2" d="M34.07,13.28c-.67-.39-1.23-.08-1.41.52-.3,1.02-.78,3.51-1.73,6.24-1.09,3.14-2.89,5.43-3.12,5.9-.4.82-.56,1.8.5,2.41,1.06.61,6.7,3.84,6.7,3.84-.65-.65-.33-1.31-.08-1.9s2.36-4.36,3.06-5.89c1.29-2.85,1.81-5.15,2.14-6.44.11-.43.27-1.04-.32-1.44-.69-.46-5.74-3.24-5.74-3.24Z"/><path class="cls-5" d="M37.14,28.73c.71-.32,1.29-.87,1.43-.84l-1.5-.92c-.59,1.12-.83,2.07.07,1.76Z"/><path class="cls-1" d="M40.21,16.42c-.69-.46-5.74-3.24-5.74-3.24-.37-.22-.71-.22-.97-.07.17,0,.36.06.56.17,0,0,5.05,2.77,5.74,3.24.59.4.43,1.01.32,1.44-.33,1.29-.85,3.59-2.14,6.44-.7,1.54-2.81,5.31-3.06,5.89-.18.43-.62,1.18.08,1.9.42-.42,4.36-3.14,4.36-3.14-.19-.29-.65-1.12-.8-1.15-.14-.03-.72.52-1.43.84-.89.31-.65-.64-.07-1.76.72-1.37.79-1.51,1.32-2.67,1.29-2.85,1.81-5.15,2.14-6.44.11-.43.27-1.04-.32-1.44Z"/><path class="cls-19" d="M32.96,17.83l.16-.5.53-.17c.92-.29,1.38-.48,1.52-.89.09-.28.02-.6-.34-.81-.27-.16-.56-.14-.76-.11l-.02-.7c.3-.06.72,0,1.14.24.71.42.95,1.1.74,1.73-.2.59-.73.84-1.34,1.02l-.38.1h0s1.19.7,1.19.7l-.22.67-2.22-1.3Z"/><path class="cls-19" d="M38.53,18.98c-.36,1.07-1,1.59-1.79,1.13-.81-.47-.9-1.49-.57-2.48.34-1.02.98-1.59,1.79-1.12.83.49.89,1.51.57,2.47ZM36.9,18.06c-.27.8-.22,1.28.06,1.45.28.17.57-.14.84-.94.26-.77.24-1.27-.05-1.44-.27-.16-.57.11-.85.93Z"/><polygon class="cls-3" points="37.4 22.64 32.38 19.71 32.76 18.58 37.78 21.51 37.4 22.64"/><path class="cls-8" d="M33.1,18.99l-.08.24.21.12.08-.24.13.07-.21.62-.13-.07.09-.26-.21-.12-.09.26-.13-.07.21-.62.13.07Z"/><path class="cls-8" d="M33.71,19.96s-.03.08-.03.11l-.11-.07v-.05s0,0,0,0c-.04.02-.09.02-.13-.01-.08-.05-.11-.14-.08-.21.04-.12.15-.12.3-.04h0s0-.07-.05-.11c-.04-.03-.09-.03-.12-.03v-.1s.1,0,.18.05c.13.08.15.19.11.3l-.05.16ZM33.62,19.79c-.07-.04-.12-.05-.14,0-.01.04,0,.07.03.08.03.02.07,0,.08-.01,0,0,0-.01.01-.02l.02-.05Z"/><path class="cls-8" d="M34.02,19.73l-.02.24s0,.08-.01.12h0s.04-.06.06-.1l.12-.18.13.08-.3.37-.13-.07v-.54s.14.08.14.08Z"/><path class="cls-8" d="M34.37,20.26c-.02.06.03.12.09.15.04.02.08.04.12.05v.1c-.06,0-.12-.03-.17-.06-.14-.08-.19-.22-.14-.36.04-.12.14-.21.29-.12.13.08.14.22.11.33,0,.02-.02.04-.02.05l-.26-.15ZM34.55,20.25s.02-.1-.04-.13c-.05-.03-.09.01-.11.05l.15.09Z"/><path class="cls-8" d="M35.19,20.83s-.03.08-.03.11l-.11-.07v-.05s0,0,0,0c-.04.02-.09.02-.13-.01-.08-.05-.11-.14-.08-.21.04-.12.15-.12.29-.04h0s0-.07-.05-.11c-.04-.02-.09-.03-.12-.03v-.1s.1,0,.18.05c.13.08.15.19.11.3l-.05.16ZM35.1,20.66c-.07-.04-.12-.05-.14,0-.01.04,0,.07.03.08.03.02.07.01.08-.01,0,0,0-.01.01-.02l.02-.05Z"/><path class="cls-23" d="M35.46,20.97s.06.08.1.1c.04.02.06.02.07,0,0-.02,0-.04-.04-.09-.07-.08-.09-.15-.07-.2.03-.09.11-.11.21-.05.05.03.09.06.11.09l-.05.08s-.04-.06-.08-.08c-.03-.02-.05-.01-.06,0,0,.02,0,.04.05.09.07.07.08.14.06.2-.03.08-.11.11-.23.04-.05-.03-.1-.07-.12-.11l.06-.09Z"/><path class="cls-23" d="M35.94,21.18c-.02.06.03.12.09.15.04.03.08.04.12.05v.11c-.06,0-.12-.03-.17-.06-.14-.08-.19-.22-.14-.36.04-.11.15-.2.29-.12.13.08.14.22.1.33,0,.02-.02.04-.02.05l-.26-.15ZM36.12,21.17s.02-.1-.04-.13c-.05-.03-.09.01-.11.05l.15.09Z"/><path class="cls-23" d="M36.6,21.65s-.03.09-.03.11l-.11-.07v-.05s0,0,0,0c-.04.02-.09.02-.13-.01-.08-.05-.11-.14-.08-.22.04-.12.15-.12.3-.03h0s0-.07-.05-.11c-.04-.02-.09-.03-.12-.03v-.11s.1,0,.18.05c.13.08.15.19.11.3l-.05.16ZM36.51,21.48c-.07-.04-.12-.05-.14,0-.01.04,0,.07.03.08.03.02.07,0,.08-.01,0,0,0-.01.01-.02l.02-.05Z"/><path class="cls-23" d="M36.99,21.33l-.04.12.09.05-.03.1-.09-.05-.05.16c-.02.05-.01.09.02.11.02.01.03.01.04.02l-.03.11s-.05-.01-.09-.04c-.04-.02-.07-.06-.08-.09-.02-.04-.01-.09,0-.16l.06-.19-.05-.03.03-.1.05.03.03-.08.14.04Z"/><path class="cls-23" d="M36.88,22.08c.05-.07.11-.15.15-.23l.13.07c-.06.08-.13.15-.19.2l-.09-.04Z"/><path class="cls-3" d="M31.68,19.81l-.02.14s0,.07-.02.11h0s.04-.06.05-.08l.07-.11.07.04v.13s-.02.08-.03.11h0s.03-.06.05-.09l.06-.11.08.05-.18.25-.08-.05v-.12s.02-.06.02-.1h0s-.03.06-.05.08l-.06.09-.08-.05.02-.34.09.05Z"/><path class="cls-3" d="M32.05,20.23s.02.08.06.1c.03.02.05.03.08.03v.07s-.08-.02-.11-.04c-.09-.05-.12-.14-.09-.24.02-.08.09-.13.19-.08.09.05.1.14.07.22,0,.02-.01.03-.02.04l-.17-.1ZM32.17,20.23s.01-.06-.03-.09c-.04-.02-.06,0-.07.03l.1.06Z"/><path class="cls-3" d="M32.49,20.12l.08.05-.06.17h0s.06-.01.1,0c.06.04.09.12.06.22-.04.11-.11.12-.18.09-.03-.02-.06-.05-.07-.1h0l-.02.04-.07-.04s.02-.05.03-.09l.11-.34ZM32.47,20.47s0,.01,0,.02c0,.03,0,.06.03.07.04.02.07,0,.09-.05.02-.05,0-.09-.03-.12-.02-.01-.05,0-.06.02,0,0,0,0,0,.02v.04Z"/><path class="cls-3" d="M32.74,20.54s.02-.07.03-.1l.07.04v.06s-.01,0-.01,0c.03-.04.07-.04.09-.02,0,0,.01,0,.02.01l-.03.09s-.01-.01-.02-.02c-.03-.02-.06-.01-.07.01,0,0,0,.01,0,.02l-.05.15-.08-.05.07-.2Z"/><path class="cls-3" d="M32.88,20.86l.1-.3.08.05-.1.3-.08-.05ZM33.1,20.53s-.03.04-.06.02c-.03-.02-.04-.05-.03-.07,0-.03.03-.04.06-.02.03.02.04.04.03.07Z"/><path class="cls-3" d="M33.1,20.75s.02-.07.03-.1l.07.04v.04s0,0,0,0c.02-.01.05-.03.1,0,.05.03.08.1.05.19l-.06.17-.08-.05.05-.17s0-.07-.02-.09c-.02-.01-.04,0-.05,0,0,0,0,.01-.01.02l-.06.17-.08-.05.07-.2Z"/><path class="cls-3" d="M33.63,21.25c-.02.06-.05.1-.09.11-.04.01-.08,0-.12-.03-.04-.02-.07-.05-.09-.08l.04-.06s.04.05.07.07c.04.02.08.02.1-.04v-.02s0,0,0,0c-.02.01-.05.01-.08,0-.07-.04-.1-.13-.07-.21.03-.1.11-.12.17-.09.04.02.06.05.06.09h0s.01-.03.01-.03l.07.04s-.02.04-.03.09l-.06.17ZM33.59,21.07s0-.01,0-.02c0-.03,0-.05-.03-.07-.03-.02-.07,0-.08.05-.01.04,0,.09.03.11.02.01.04,0,.06-.01,0,0,0-.02.01-.02v-.04Z"/><path class="cls-3" d="M33.95,21.13v.17s-.01.05-.01.06h0s.02-.03.03-.05l.08-.13.09.05-.13.16c-.08.1-.12.13-.16.14-.04.01-.07,0-.09,0v-.09s.03,0,.05,0c.02,0,.04,0,.05-.02,0,0,0,0,0-.01,0,0,0,0,0-.02v-.33s.08.05.08.05Z"/><path class="cls-3" d="M34.4,21.57c-.04.11-.12.12-.2.07-.08-.05-.12-.14-.09-.23.03-.1.11-.12.2-.07.08.05.12.14.09.23ZM34.2,21.45c-.02.05-.01.1.03.12.03.02.07,0,.08-.06.01-.04.01-.1-.02-.12-.04-.02-.07.01-.08.06Z"/><path class="cls-3" d="M34.68,21.8s-.02.07-.03.1l-.07-.04v-.04s0,0,0,0c-.02.01-.05.03-.1,0-.06-.03-.08-.09-.05-.18l.06-.17.08.05-.05.16s0,.08.02.09c.02.01.04,0,.05,0,0,0,0,0,.01-.02l.06-.18.08.05-.07.2Z"/><path class="cls-3" d="M34.99,21.74v.17s-.01.04-.01.06h0s.02-.03.03-.05l.08-.13.09.05-.13.16c-.08.1-.12.13-.16.14-.04,0-.07,0-.09,0v-.09s.03,0,.05,0c.02,0,.04,0,.05-.02,0,0,0,0,0-.01,0,0,0,0,0-.02v-.33s.08.05.08.05Z"/><path class="cls-3" d="M35.43,22.17c-.04.11-.12.12-.2.08-.08-.05-.12-.14-.09-.24.03-.1.11-.12.2-.07.08.05.12.14.09.23ZM35.24,22.06c-.02.05-.01.1.03.12.03.02.07,0,.08-.06.01-.04.01-.1-.02-.12-.04-.02-.07.01-.08.06Z"/><path class="cls-3" d="M35.72,22.41s-.02.07-.03.1l-.07-.04v-.04s0,0,0,0c-.02.01-.05.03-.1,0-.06-.03-.08-.09-.05-.19l.06-.17.08.05-.05.16s0,.08.02.1c.02.01.04,0,.05,0,0,0,0,0,.01-.02l.06-.18.08.05-.07.2Z"/><path class="cls-3" d="M35.82,22.34s.02-.07.03-.1l.07.04v.06s-.01,0-.01,0c.03-.04.07-.03.09-.02,0,0,.01,0,.02.01l-.03.09s-.01,0-.02-.02c-.03-.02-.06-.01-.07.01,0,0,0,.01,0,.02l-.05.15-.08-.05.07-.2Z"/><path class="cls-3" d="M36.39,22.73c-.04.11-.12.12-.2.08-.08-.05-.12-.14-.09-.24.03-.1.11-.12.2-.07.08.05.12.14.09.23ZM36.2,22.62c-.02.05-.01.1.02.12.03.02.07,0,.08-.06.01-.04.01-.1-.02-.12-.04-.02-.07.01-.08.06Z"/><path class="cls-3" d="M36.46,22.72s.02-.07.03-.1l.07.04-.02.06h0s.07-.04.09-.02c0,0,.01,0,.02.01l-.03.09s-.01,0-.02-.02c-.03-.02-.06-.01-.07.01,0,0,0,.01,0,.02l-.05.15-.08-.05.07-.2Z"/><path class="cls-3" d="M37.01,22.76l-.11.34s-.02.07-.03.09l-.07-.04v-.04s0,0,0,0c-.03.02-.07.02-.1,0-.06-.04-.1-.13-.06-.22.03-.1.11-.12.17-.09.03.02.06.05.06.08l.05-.16.08.05ZM36.84,22.97s0-.01,0-.02c0-.03,0-.06-.03-.07-.04-.02-.07,0-.09.05-.02.05,0,.1.03.12.02.01.05,0,.06-.02,0,0,0-.01,0-.02v-.04Z"/><path class="cls-3" d="M37.04,23.15s.02.08.06.1c.03.02.05.03.08.03v.07s-.08-.02-.11-.04c-.09-.05-.12-.14-.09-.24.02-.08.09-.13.19-.08.09.05.1.15.07.22,0,.02-.01.03-.02.04l-.17-.1ZM37.15,23.14s.01-.06-.03-.09c-.04-.02-.06,0-.07.03l.1.06Z"/><path class="cls-3" d="M37.29,23.2s.02-.07.03-.1l.07.04-.02.06h0s.07-.03.09-.02c0,0,.01,0,.02.01l-.03.09s-.01-.01-.02-.02c-.03-.02-.06-.01-.07.01,0,0,0,.01,0,.02l-.05.15-.08-.05.07-.2Z"/><path class="cls-23" d="M37.58,23.62s-.04-.05-.03-.08c.01-.03.04-.04.07-.03.03.02.04.05.03.08-.01.03-.04.04-.07.03h0ZM37.6,23.46l.08-.28.09.05-.1.27-.06-.04Z"/><path class="cls-21" d="M34.71,32.01c-.21-.21-.18-.36-.23-.57l-6.74-3.9c.09.33.17.57.45.73"/><path class="cls-3" d="M34.71,32.01c-.15-.11-.25-.44-.24-.55.02-.03-6.87-3.89-6.71-3.93.07.28.16.59.43.74-.3-.15-.4-.49-.49-.78.06.03,6.73,3.9,6.79,3.93.05.2.04.44.21.59h0Z"/><path class="cls-9" d="M30.74,23.25c-.08-.52.29-1,.81-1.08.52-.09,1,.26,1.07.77.07.51-.29,1-.81,1.08-.52.09-1-.26-1.07-.77h0ZM31.8,23.45c.2-.07.3-.29.24-.49-.07-.19-.28-.29-.48-.22-.2.07-.3.29-.24.49.07.19.28.29.48.22h0Z"/><path class="cls-4" d="M31.16,23.78c-.08-.05-.03-.24-.08-.32-.06-.08-.23-.13-.25-.23-.01-.11.15-.2.18-.29.02-.1-.07-.26,0-.34.05-.08.24-.04.33-.09.09-.06.14-.24.24-.25.11-.01.19.14.29.17.1.02.27-.08.34-.02.08.05.04.24.09.32.06.08.23.13.25.23.01.11-.15.2-.18.29-.02.1.07.26,0,.34-.06.07-.24.04-.33.09-.09.06-.14.24-.24.25-.11.01-.19-.14-.29-.17-.1-.02-.27.08-.35.02h0ZM31.73,23.44c.19-.03.33-.21.3-.4-.02-.18-.21-.33-.4-.29-.2.02-.33.21-.3.4.02.18.2.32.4.29h0Z"/><path class="cls-10" d="M31.29,24.17c.6-.09,1.12.31,1.16.91.02.28-.1.6-.27.82-.9.1-1.52-.22-1.64-1.29.18-.21.46-.39.75-.44h0Z"/><path class="cls-10" d="M30.54,25.66l.71-1.11.17.1-.71,1.11-.17-.1h0ZM31.32,26.14l-.15-.13.87-.99.15.13-.87.99h0Z"/><path class="cls-10" d="M31.17,26.62l-.14-.14,1.08-1.01.14.14-1.08,1.01h0ZM30.24,25.71l.75-1.27.17.1-.75,1.27-.17-.1h0ZM30.74,25.63l.74-1.09.17.11-.59.87.78-.97.16.12-.93,1.14-.14-.11-.02.03-.17-.11h0ZM31.23,26l-.14-.14.81-.82.14.14-.81.82h0Z"/><path class="cls-10" d="M30.95,26.44l-.15-.13.88-.98.15.13-.88.98h0ZM30.35,25.89l.83-1.02.16.12-.83,1.02-.16-.12h0ZM31.24,26.55l-.16-.12.94-1.14.16.12-.94,1.14h0ZM30.46,25.38l.82-1.03.16.12-.82,1.03-.16-.12h0Z"/><path class="cls-10" d="M30.71,26.02l-.15-.13.95-1.13.15.13-.95,1.13h0ZM31.14,25.84l-.14-.14.91-.95.14.14-.92.95h0Z"/><polygon class="cls-10" points="30.78 24.51 29.94 25.72 30.1 25.83 30.94 24.62 30.78 24.51 30.78 24.51"/><path class="cls-13" d="M29.8,26.26v-.05s.9-1.48.9-1.48l.13.1s.04.04.02.08c-.04.09-.05.19-.03.3.07.3.37.54.69.54.12,0,.22-.04.29-.09.02-.02.05-.02.07,0l.13.1-1.26,1.21h-.04c-.22-.33-.54-.61-.91-.71h0Z"/><path class="cls-14" d="M29.8,26.26l-.06-.34.8-1.31.2.15-.94,1.5h0ZM30.71,26.98l1.28-1.23.2.15-1.13,1.06-.35.02h0Z"/><polygon class="cls-9" points="34.99 25.6 34.86 25.64 34.29 23.78 34.41 23.74 34.99 25.6 34.99 25.6"/><path class="cls-9" d="M34.16,23.72h-.02c-.06.02-.09.09-.07.14l.57,1.84c.02.06.08.09.14.07h.02c.06-.02.09-.09.07-.14l-.57-1.84c-.02-.06-.08-.09-.14-.07h0Z"/><polygon class="cls-9" points="34.27 24.69 34.08 24.75 34.15 24.97 34.34 24.91 34.27 24.69 34.27 24.69"/><path class="cls-9" d="M33.84,23.97l.19-.06.25.81-.19.06-.25-.81h0ZM34.14,24.94l.19-.06.25.81-.19.06-.25-.81h0Z"/><path class="cls-9" d="M34.35,25.8l-.56-1.79s0-.03-.01-.06c0-.03,0-.06.04-.07s.06,0,.07.04c.01.03.02.06.02.09,0,.03,0,.05,0,.06,0,0,0,.02,0,.02,0,0,0,.01,0,.02,0,.01,0,.03.01.06s.02.04.02.05c0,.01.02.02.03.03.01.01.02.03.04.05.01.02.03.05.04.08s.01.06.02.09c0,.02,0,.05,0,.06,0,0,0,.02,0,.02,0,0,0,.01,0,.02,0,.01,0,.03,0,.05h0s0,0,0,0h0s.01.04.02.05c0,.01.02.02.03.03,0,0,0,0,0,0,0,0,0,0,0,.01,0,0,.01.02.02.03.01.02.03.04.04.08,0,.03.01.06.01.09,0,.01,0,.02,0,.03,0,0,0,.02,0,.03,0,.02,0,.03,0,.04,0,.01,0,.03.01.06s.02.04.02.05c0,.01.02.02.03.03.01.01.02.03.04.05.01.02.03.05.04.08s.01.06.02.09c0,.03,0,.05,0,.06,0,.02,0,.03,0,.04,0,.01,0,.03.01.06s.02.04.02.05c0,.01.02.02.03.03,0,0,.01.01.02.02,0,0,.01.02.02.03.01.02.03.05.04.08,0,.03,0,.06-.04.07s-.06,0-.07-.04h0Z"/><polygon class="cls-9" points="33.78 23.95 33.65 23.99 34.23 25.85 34.35 25.81 33.78 23.95 33.78 23.95"/><path class="cls-9" d="M33.55,23.92h-.02c-.06.02-.09.09-.07.14l.57,1.84c.02.06.08.09.14.07h.02c.06-.02.09-.09.07-.14l-.57-1.84c-.02-.06-.08-.09-.14-.07h0Z"/><path class="cls-9" d="M33.33,24.04h0s0,0,0,0l.05-.02s.07,0,.08.04l.58,1.86s0,.05-.03.06l-.07.02h0s0,0,0,0c-.14.05-.29-.05-.34-.22l-.42-1.36c-.05-.17.02-.34.16-.39h0Z"/><path class="cls-9" d="M34.7,24.84s0-.05,0-.06c0,0,0-.02,0-.02,0,0,0-.01,0-.02,0-.01,0-.03-.01-.06,0-.02-.01-.04-.02-.05,0,0,0-.01-.01-.02,0,0,0,0,0,0,0,0,0,0,0,0-.01-.01-.02-.03-.04-.05-.01-.02-.02-.05-.03-.08h0s0,0,0,0c-.01-.03-.02-.06-.02-.09,0-.01,0-.02,0-.03,0-.01,0-.02,0-.03,0-.02,0-.03,0-.04,0-.01,0-.03-.01-.06s-.02-.04-.02-.05c0-.01-.02-.02-.03-.04-.01-.01-.02-.03-.04-.05-.01-.02-.03-.05-.04-.08s-.02-.06-.02-.09c0-.01,0-.02,0-.04,0-.01,0-.02,0-.03,0-.02,0-.03,0-.05,0-.01,0-.03-.01-.06,0-.03.07-.06.08-.02l.6,1.93s-.07.06-.08.02c0-.03-.02-.04-.02-.05,0,0,0-.01-.01-.02,0,0,0-.01-.01-.02-.01-.01-.02-.03-.04-.05-.01-.02-.03-.05-.04-.09s-.02-.06-.02-.09c0-.03,0-.05,0-.06,0-.02,0-.03,0-.04,0-.01,0-.03-.01-.06s-.02-.04-.02-.05c0-.01-.02-.02-.03-.04-.01-.01-.02-.03-.04-.05-.01-.02-.03-.05-.04-.08s-.02-.06-.02-.09h0Z"/><path class="cls-9" d="M33.97,24.89l-.11.34.28.21c-.04-.19-.09-.38-.17-.55h0Z"/><path class="cls-9" d="M34.29,24.97s0-.05,0-.06c0,0,0-.02,0-.02,0,0,0-.01,0-.02,0-.01,0-.03-.01-.06,0-.02-.01-.04-.02-.05,0,0,0-.01-.01-.02,0,0,0,0,0,0,0,0,0,0,0,0-.01-.01-.02-.03-.04-.05-.01-.02-.02-.05-.03-.08h0s0,0,0,0c-.01-.03-.02-.06-.02-.09,0-.01,0-.02,0-.03,0-.01,0-.02,0-.03,0-.02,0-.03,0-.04,0-.01,0-.03-.01-.06s-.02-.04-.02-.05c0-.01-.02-.02-.03-.04-.01-.01-.02-.03-.04-.05-.01-.02-.03-.05-.04-.08s-.02-.06-.02-.09c0-.01,0-.02,0-.04,0-.01,0-.02,0-.03,0-.02,0-.03,0-.05,0-.01,0-.03-.01-.06,0-.03.07-.06.08-.02l.6,1.93s-.07.06-.08.02c0-.03-.02-.04-.02-.05,0,0,0-.01-.01-.02,0,0,0-.01-.01-.02-.01-.01-.02-.03-.04-.05-.01-.02-.03-.05-.04-.09s-.02-.06-.02-.09c0-.03,0-.05,0-.06,0-.02,0-.03,0-.04,0-.01,0-.03-.01-.06s-.02-.04-.02-.05c0-.01-.02-.02-.03-.04-.01-.01-.02-.03-.04-.05-.01-.02-.03-.05-.04-.08s-.02-.06-.02-.09h0Z"/><path class="cls-9" d="M34.61,24.71l-.28-.21.11-.34c.07.18.14.37.17.55h0Z"/><path class="cls-9" d="M35.19,25.59c.23-.08.31-.48.18-.91l-.13-.42c-.13-.42-.42-.7-.65-.63h0s-.06.02-.06.02c-.03,0-.06.04-.04.08l.57,1.86s.04.04.06.03l.07-.02h0Z"/><path class="cls-14" d="M32.45,27.59l.17-1.77,1.48.26-.55,1.7s-.03.05-.08.05l-.97-.17s-.06-.04-.05-.07h0Z"/><path class="cls-10" d="M33.02,27.43h0s-.56-.1-.56-.1c-.01,0-.02-.01-.02-.03l.11-1.12s.01-.03.03-.02l.76.13h0s.68.12.68.12c.02,0,.03.01.02.03l-.35,1.08s-.02.02-.03.02l-.64-.11h0Z"/><polygon class="cls-16" points="32.61 25.93 32.62 25.82 34.11 26.08 34.07 26.19 32.61 25.93 32.61 25.93"/><polygon class="cls-15" points="32.76 25.42 32.81 25.3 34.12 25.53 34.12 25.66 32.76 25.42 32.76 25.42"/><path class="cls-10" d="M34.25,25.96v-.25c0-.07-.03-.11-.08-.12h-.05s0-.09,0-.09c0-.06-.03-.09-.07-.09l-.49-.09h0s-.63-.11-.63-.11c-.04,0-.08.01-.1.06l-.04.08h-.04c-.05-.02-.1,0-.13.07l-.11.23c-.04.09-.03.19.07.21l.71.13h0s.81.14.81.14c.1.02.15-.07.15-.17Z"/><path class="cls-4" d="M32.78,27.04c-.09-.21,0-.46.22-.56.22-.1.47,0,.56.2.09.21,0,.46-.22.56-.22.1-.47,0-.56-.2h0ZM33.06,27.09c.13.01.29-.08.35-.21.03-.06.03-.12.01-.16,0-.01-.01-.02-.03-.01-.1.04-.15.1-.21.16-.05.06-.11.13-.19.18-.01,0-.01.02,0,.02.02,0,.04.01.06.01h0ZM32.96,27.02c.09-.05.14-.11.2-.18.05-.06.11-.12.2-.17.02,0,.01-.02,0-.02-.02-.01-.04-.02-.07-.02-.13-.01-.29.08-.35.21-.03.06-.03.12,0,.17,0,.01.02.01.03,0h0Z"/></g></g></svg>