<?xml version="1.0" encoding="UTF-8"?><svg xmlns="http://www.w3.org/2000/svg" xmlns:xlink="http://www.w3.org/1999/xlink" viewBox="0 0 115.27 132.55"><defs><style>.cls-1{fill:#825a25;}.cls-2{fill:url(#_名称未設定グラデーション_4-3);}.cls-3,.cls-4{fill:#738cb4;}.cls-5{fill:#7c7c7c;}.cls-6{stroke:#a8a7a7;stroke-width:.12px;}.cls-6,.cls-7,.cls-8{fill:none;}.cls-6,.cls-8{stroke-linecap:round;stroke-linejoin:round;}.cls-9{fill:#313333;}.cls-10{fill:url(#_名称未設定グラデーション_4-2);}.cls-11{fill:#70a54a;}.cls-12{fill:#1c3c7e;}.cls-13{opacity:.6;}.cls-13,.cls-14,.cls-15{fill:#c2beb7;}.cls-4,.cls-16,.cls-17,.cls-14,.cls-18,.cls-19{opacity:.5;}.cls-4,.cls-14{mix-blend-mode:multiply;}.cls-20,.cls-21,.cls-22,.cls-23{opacity:.2;}.cls-20,.cls-19{fill:#db7978;}.cls-24{fill:#ba403e;}.cls-25{fill:#2b2725;}.cls-16,.cls-23{fill:#e3bc69;}.cls-21,.cls-18,.cls-26{fill:#dfdeda;}.cls-27{fill:#b3941b;}.cls-28{clip-path:url(#clippath-1);}.cls-29{isolation:isolate;}.cls-30{fill:#d19036;}.cls-31{fill:url(#_名称未設定グラデーション_4);}.cls-17,.cls-22{fill:#cedb98;}.cls-32{fill:#ebebe8;}.cls-33{fill:url(#_名称未設定グラデーション_4-4);}.cls-8{stroke:#7c7c7c;stroke-width:.07px;}.cls-34{fill:#0f0f0f;}.cls-35{fill:#504540;}.cls-36{fill:#d6d2d1;}.cls-37{fill:#5f5e5d;}.cls-38{fill:#333535;}.cls-39{fill:#7c5d2f;}.cls-40{fill:#a9a49c;}.cls-41{fill:#8b3323;}.cls-42{fill:#352f2c;}.cls-43{fill:#808281;}.cls-44{clip-path:url(#clippath);}</style><linearGradient id="_名称未設定グラデーション_4" x1="20.61" y1="44.12" x2="27.71" y2="40.02" gradientUnits="userSpaceOnUse"><stop offset="0" stop-color="#504540"/><stop offset="1" stop-color="#352f2c"/></linearGradient><linearGradient id="_名称未設定グラデーション_4-2" x1="4712.34" y1="49.15" x2="4717.17" y2="55.11" gradientTransform="translate(4721.87) rotate(-180) scale(1 -1)" xlink:href="#_名称未設定グラデーション_4"/><clipPath id="clippath"><polygon class="cls-7" points="25.04 81.91 20.47 84.34 20.47 92.71 28.85 91.87 25.04 81.91"/></clipPath><linearGradient id="_名称未設定グラデーション_4-3" x1="82.6" y1="5.78" x2="89.7" y2="1.68" xlink:href="#_名称未設定グラデーション_4"/><linearGradient id="_名称未設定グラデーション_4-4" x1="4650.35" y1="10.81" x2="4655.18" y2="16.77" gradientTransform="translate(4721.87) rotate(-180) scale(1 -1)" xlink:href="#_名称未設定グラデーション_4"/><clipPath id="clippath-1"><polygon class="cls-7" points="87.03 43.57 82.46 46 82.46 54.37 90.84 53.53 87.03 43.57"/></clipPath></defs><g class="cls-29"><g id="_レイヤー_2"><g id="unit"><g id="unit02"><g class="cls-29"><path class="cls-31" d="M20.14,38.58c-.54-.34-1.28-.33-2.1.11l10.99,6.4c.82-.44,1.56-.45,2.1-.11l-10.99-6.4Z"/><path class="cls-42" d="M11.31,127.36l-.03-69.43L.29,51.53l-.29,69.18c0,.93.33,1.6.86,1.93l11.31,6.64c-.53-.33-.86-1-.86-1.93Z"/><polygon class="cls-35" points="18.04 38.69 3.25 46.56 14.23 52.95 29.03 45.08 18.04 38.69"/><path class="cls-10" d="M3.25,46.56c-1.63.87-2.96,3.1-2.95,4.98l10.99,6.4c0-1.88,1.32-4.11,2.95-4.98l-10.99-6.4Z"/><path class="cls-25" d="M31.99,46.91c0-1.88-1.34-2.7-2.97-1.83l-14.79,7.87c-1.63.87-2.96,3.1-2.95,4.98l.03,69.43c0,1.88,1.34,2.69,2.97,1.82l14.79-7.87c1.63-.87,2.95-3.09,2.95-4.97l-.03-69.43Z"/></g><path class="cls-34" d="M13.21,85.96l12.68-6.8c.27-.14.6-.72.6-1.03v-27.74c-.01-.44-.24-.59-.61-.39l-12.68,6.8c-.27.14-.6.72-.6,1.03v27.74c.01.44.24.59.61.39Z"/><polygon class="cls-32" points="25.26 51.77 13.81 57.91 13.82 84.2 25.27 78.06 25.26 51.77"/><polygon class="cls-38" points="25.26 51.77 13.81 57.91 13.82 62.13 25.27 55.99 25.26 51.77"/><path class="cls-41" d="M16.47,57.82c.22.53-.06,1.55-.63,2.26-.57.72-1.21.86-1.43.33s.06-1.55.63-2.26,1.21-.86,1.43-.33Z"/><path class="cls-12" d="M19.25,56.32c.22.53-.06,1.55-.63,2.26-.57.72-1.21.86-1.43.33s.06-1.55.63-2.26c.57-.72,1.21-.86,1.43-.33Z"/><path class="cls-1" d="M22.04,54.83c.22.53-.06,1.55-.63,2.26s-1.21.86-1.43.33c-.22-.53.06-1.55.63-2.26.57-.72,1.21-.86,1.43-.33Z"/><path class="cls-27" d="M24.82,53.33c.22.53-.06,1.55-.63,2.26s-1.21.86-1.43.33.06-1.55.63-2.26,1.21-.86,1.43-.33Z"/><line class="cls-6" x1="16.51" y1="61.48" x2="16.51" y2="82.31"/><line class="cls-8" x1="21.91" y1="62.22" x2="23.68" y2="61.27"/><line class="cls-8" x1="21.91" y1="61.65" x2="22.57" y2="61.3"/><path class="cls-5" d="M22,60.96l1.52-.8c.12-.06.26-.3.26-.44v-1.82c0-.07-.04-.09-.09-.06l-1.52.8c-.12.06-.26.3-.26.44v1.82c0,.07.04.09.09.06Z"/><line class="cls-8" x1="17.91" y1="64.51" x2="19.68" y2="63.56"/><line class="cls-8" x1="17.91" y1="63.95" x2="18.57" y2="63.6"/><path class="cls-5" d="M18,63.26l1.52-.8c.12-.06.26-.3.26-.44v-1.82c0-.07-.04-.09-.09-.06l-1.52.8c-.12.06-.26.3-.26.44v1.82c0,.07.04.09.09.06Z"/><path class="cls-43" d="M14.43,64.81l1.18-.61c.09-.05.2-.23.2-.34v-1.41c0-.05-.03-.07-.07-.05l-1.18.61c-.09.05-.2.23-.2.34v1.41c0,.05.03.07.07.05Z"/><path class="cls-43" d="M14.43,67.6l1.18-.61c.09-.05.2-.23.2-.34v-1.41c0-.05-.03-.07-.07-.05l-1.18.61c-.09.05-.2.23-.2.34v1.41c0,.05.03.07.07.05Z"/><path class="cls-43" d="M14.44,70.39l1.18-.61c.09-.05.2-.23.2-.34v-1.41c0-.05-.03-.07-.07-.05l-1.18.61c-.09.05-.2.23-.2.34v1.41c0,.05.03.07.07.05Z"/><path class="cls-43" d="M14.44,73.17l1.18-.61c.09-.05.2-.23.2-.34v-1.41c0-.05-.03-.07-.07-.05l-1.18.61c-.09.05-.2.23-.2.34v1.41c0,.05.03.07.07.05Z"/><path class="cls-43" d="M14.44,75.96l1.18-.61c.09-.05.2-.23.2-.34v-1.41c0-.05-.03-.07-.07-.05l-1.18.61c-.09.05-.2.23-.2.34v1.41c0,.05.03.07.07.05Z"/><path class="cls-43" d="M14.44,78.75l1.18-.61c.09-.05.2-.23.2-.34v-1.41c0-.05-.03-.07-.07-.05l-1.18.61c-.09.05-.2.23-.2.34v1.41c0,.05.03.07.07.05Z"/><path class="cls-43" d="M14.44,81.54l1.18-.61c.09-.05.2-.23.2-.34v-1.41c0-.05-.03-.07-.07-.05l-1.18.61c-.09.05-.2.23-.2.34v1.41c0,.05.03.07.07.05Z"/><line class="cls-8" x1="21.92" y1="67.79" x2="23.69" y2="66.84"/><line class="cls-8" x1="21.92" y1="67.23" x2="22.57" y2="66.88"/><path class="cls-5" d="M22.01,66.54l1.52-.8c.12-.06.26-.3.26-.44v-1.82c0-.07-.04-.09-.09-.06l-1.52.8c-.12.06-.26.3-.26.44v1.82c0,.07.04.09.09.06Z"/><line class="cls-8" x1="17.92" y1="70.09" x2="19.69" y2="69.14"/><line class="cls-8" x1="17.92" y1="69.52" x2="18.57" y2="69.17"/><path class="cls-5" d="M18.01,68.83l1.52-.8c.12-.06.26-.3.26-.44v-1.82c0-.07-.04-.09-.09-.06l-1.52.8c-.12.06-.26.3-.26.44v1.82c0,.07.04.09.09.06Z"/><line class="cls-8" x1="21.92" y1="73.37" x2="23.69" y2="72.42"/><line class="cls-8" x1="21.92" y1="72.81" x2="22.57" y2="72.45"/><path class="cls-5" d="M22.01,72.11l1.52-.8c.12-.06.26-.3.26-.44v-1.82c0-.07-.04-.09-.09-.06l-1.52.8c-.12.06-.26.3-.26.44v1.82c0,.07.04.09.09.06Z"/><line class="cls-8" x1="17.92" y1="75.66" x2="19.69" y2="74.71"/><line class="cls-8" x1="17.92" y1="75.1" x2="18.57" y2="74.75"/><path class="cls-5" d="M18.01,74.41l1.52-.8c.12-.06.26-.3.26-.44v-1.82c0-.07-.04-.09-.09-.06l-1.52.8c-.12.06-.26.3-.26.44v1.82c0,.07.04.09.09.06Z"/><line class="cls-8" x1="21.92" y1="78.95" x2="23.69" y2="78"/><line class="cls-8" x1="21.92" y1="78.38" x2="22.58" y2="78.03"/><path class="cls-5" d="M22.01,77.69l1.52-.8c.12-.06.26-.3.26-.44v-1.82c0-.07-.04-.09-.09-.06l-1.52.8c-.12.06-.26.3-.26.44v1.82c0,.07.04.09.09.06Z"/><line class="cls-8" x1="17.92" y1="81.24" x2="19.69" y2="80.29"/><line class="cls-8" x1="17.92" y1="80.68" x2="18.58" y2="80.32"/><path class="cls-5" d="M18.01,79.98l1.52-.8c.12-.06.26-.3.26-.44v-1.82c0-.07-.04-.09-.09-.06l-1.52.8c-.12.06-.26.3-.26.44v1.82c0,.07.04.09.09.06Z"/><polygon class="cls-15" points="17.36 87.64 12.6 90.17 12.6 88.57 17.36 86.03 17.36 87.64"/><path class="cls-13" d="M27.58,80.78v4l3.53-1.88v-4l-3.53,1.88ZM30.97,82.82l-3.24,1.72v-3.67l3.24-1.72v3.67Z"/><polygon class="cls-37" points="16.09 89.77 12.6 91.63 12.6 90.93 16.09 89.07 16.09 89.77"/><polygon class="cls-9" points="28.18 61.28 31.11 59.71 31.11 65.19 28.19 66.75 28.18 61.28"/><polygon class="cls-34" points="28.19 70.4 31.11 68.83 31.11 69.58 28.19 71.15 28.19 70.4"/><polygon class="cls-3" points="28.19 69.74 31.11 68.17 31.11 68.49 28.19 70.06 28.19 69.74"/><polygon class="cls-3" points="26.89 62 27.44 61.74 27.44 67.22 26.9 67.48 26.89 62"/><polygon class="cls-3" points="26.89 56.62 27.43 56.37 27.44 59.48 26.89 59.74 26.89 56.62"/><polygon class="cls-34" points="28.18 55.84 28.72 55.58 28.73 58.69 28.18 58.95 28.18 55.84"/><polygon class="cls-34" points="29.37 64.72 29.37 60.64 31.11 59.71 31.11 63.79 29.37 64.72"/><polygon class="cls-15" points="25.04 81.91 20.47 84.34 20.47 92.71 25.04 90.28 25.04 81.91"/><polygon class="cls-14" points="23.19 89.13 23.19 82.9 20.47 84.34 20.47 90.57 23.19 89.13"/><path class="cls-36" d="M25.3,88.84s-2.27,1.09-2.97,1.38l1.1,2.18,2.89-1.54-1.02-2.01Z"/><path class="cls-15" d="M22.33,90.22c-.07.03-.13.05-.2.08l1.1,2.17.2-.08-1.1-2.18Z"/><g class="cls-44"><path class="cls-26" d="M26.81,90.03s-3.13-6.18-3.13-6.18c-.02-.04-.04-.07-.06-.09-.03-.03-.06-.06-.08-.08-.04-.03-.09-.04-.12-.02l-.57.21s-3.21,1.72-3.21,1.72c.01,0,.58-.22.58-.22.04-.01.08,0,.12.02.03.02.06.04.08.08.02.03.04.06.06.09l3.12,6.14c.07.15.06.26,0,.29l3.2-1.71c.06-.03.07-.14.02-.26Z"/><path class="cls-15" d="M23.59,91.72l-3.12-6.14c-.04-.08-.09-.14-.15-.17-.04-.03-.09-.04-.12-.02l-.57.21c-.07.02-.08.13-.02.25l3.16,6.23c.03.06.08.11.12.14.04.02.07.03.1.02l.57-.21c.08-.03.09-.16.02-.3Z"/></g><path class="cls-3" d="M24.44,85.98l-.88-1.73c-.03-.05-.09-.07-.14-.05l-2.52,1.35s-.06.08-.04.13l.87,1.72c.03.05.09.07.14.05l2.53-1.34s.06-.08.04-.13Z"/><path class="cls-4" d="M24.44,85.98l-.88-1.73c-.03-.05-.09-.07-.14-.05l-2.52,1.35s-.06.08-.04.13l.04.08,2.43-1.3s.11,0,.14.05l.84,1.65.1-.05s.06-.08.04-.13Z"/><path class="cls-40" d="M22.9,87.92l-.42.22c-.11.06-.24.01-.3-.1l-.09-.17c-.05-.1-.02-.23.08-.28l.42-.23c.11-.06.24-.01.3.1l.09.17c.05.1.02.23-.08.28ZM23.84,87.19l-.09-.17c-.06-.11-.19-.16-.3-.1l-.42.22c-.1.05-.13.18-.08.28l.09.17c.06.11.19.16.3.1l.42-.22c.1-.05.13-.18.08-.28ZM24.7,86.73l-.09-.17c-.06-.11-.19-.16-.3-.1l-.42.23c-.1.05-.13.18-.08.28l.09.17c.06.11.19.16.3.1l.42-.22c.1-.05.13-.18.08-.28ZM23.34,88.33l-.09-.17c-.06-.11-.19-.16-.3-.1l-.42.22c-.1.05-.13.18-.08.28l.09.17c.06.11.19.16.3.1l.42-.22c.1-.05.13-.18.08-.28ZM24.2,87.87l-.09-.17c-.06-.11-.19-.16-.3-.1l-.42.23c-.1.05-.13.18-.08.28l.09.17c.06.11.19.16.3.1l.42-.22c.1-.05.13-.18.08-.28ZM25.06,87.41l-.09-.17c-.06-.11-.19-.16-.3-.1l-.42.23c-.1.05-.13.18-.08.28l.09.17c.06.11.19.16.3.1l.42-.22c.1-.05.13-.18.08-.28ZM23.7,89.01l-.09-.17c-.06-.11-.19-.16-.3-.1l-.42.23c-.1.05-.13.18-.08.28l.09.17c.06.11.19.16.3.1l.42-.22c.1-.05.13-.18.08-.28ZM24.56,88.55l-.09-.17c-.06-.11-.19-.16-.3-.1l-.42.23c-.1.05-.13.18-.08.28l.09.17c.06.11.19.16.3.1l.42-.22c.1-.05.13-.18.08-.28ZM25.42,88.09l-.09-.17c-.06-.11-.19-.16-.3-.1l-.42.22c-.1.05-.13.18-.08.28l.09.17c.06.11.19.16.3.1l.42-.22c.1-.05.13-.18.08-.28ZM24.06,89.69l-.09-.17c-.06-.11-.19-.16-.3-.1l-.42.23c-.1.05-.13.18-.08.28l.09.17c.06.11.19.16.3.1l.42-.22c.1-.05.13-.18.08-.28ZM24.92,89.23l-.09-.17c-.06-.11-.19-.16-.3-.1l-.42.23c-.1.05-.13.18-.08.28l.09.17c.06.11.19.16.3.1l.42-.22c.1-.05.13-.18.08-.28ZM25.78,88.78l-.09-.17c-.06-.11-.19-.16-.3-.1l-.42.22c-.1.05-.13.18-.08.28l.09.17c.06.11.19.16.3.1l.42-.22c.1-.05.13-.18.08-.28Z"/><path class="cls-18" d="M22.22,87.99l-.09-.17c-.03-.06-.03-.12,0-.18.01-.01.03-.03.05-.04l.42-.23c.11-.06.24-.01.3.1l.09.17c.03.06.03.12,0,.18-.01.01-.03.03-.05.04l-.42.22c-.1.06-.24.01-.3-.1ZM24.31,86.46l-.42.23s-.03.02-.05.04c-.02.06-.03.12,0,.18l.09.17c.06.11.19.16.3.1l.42-.22s.03-.02.05-.04c.02-.06.03-.12,0-.18l-.09-.17c-.06-.11-.19-.16-.3-.1ZM22.88,88.77l.42-.22s.03-.02.05-.04c.02-.06.03-.12,0-.18l-.09-.17c-.06-.11-.19-.16-.3-.1l-.42.22s-.03.02-.05.04c-.02.06-.03.12,0,.18l.09.17c.06.11.19.16.3.1ZM23.6,90.13l.42-.22s.03-.02.05-.04c.02-.06.03-.12,0-.18l-.09-.17c-.06-.11-.19-.16-.3-.1l-.42.23s-.03.02-.05.04c-.02.06-.03.12,0,.18l.09.17c.06.11.19.16.3.1ZM23.24,89.45l.42-.22s.03-.02.05-.04c.02-.06.03-.12,0-.18l-.09-.17c-.06-.11-.19-.16-.3-.1l-.42.22s-.03.02-.05.04c-.02.06-.03.12,0,.18l.09.17c.06.11.19.16.3.1ZM24.67,87.14l-.42.23s-.03.02-.05.04c-.02.06-.03.12,0,.18l.09.17c.06.11.19.16.3.1l.42-.22s.03-.02.05-.04c.02-.06.03-.12,0-.18l-.09-.17c-.06-.11-.19-.16-.3-.1ZM24.45,89.68l.42-.22s.03-.02.05-.04c.02-.06.03-.12,0-.18l-.09-.17c-.06-.11-.19-.16-.3-.1l-.42.23s-.03.02-.05.04c-.02.06-.03.12,0,.18l.09.17c.06.11.19.16.3.1ZM23.45,86.92l-.42.22s-.03.02-.05.04c-.02.06-.03.12,0,.18l.09.17c.06.11.19.16.3.1l.42-.22s.03-.02.05-.04c.02-.06.03-.12,0-.18l-.09-.17c-.06-.11-.19-.16-.3-.1ZM25.31,89.22l.42-.22s.03-.02.05-.04c.02-.06.03-.12,0-.18l-.09-.17c-.06-.11-.19-.16-.3-.1l-.42.22s-.03.02-.05.04c-.02.06-.03.12,0,.18l.09.17c.06.11.19.16.3.1ZM24.56,88.55l-.09-.17c-.06-.11-.19-.16-.3-.1l-.42.23s-.03.02-.05.04c-.02.06-.03.12,0,.18l.09.17c.06.11.19.16.3.1l.42-.22s.03-.02.05-.04c.02-.06.03-.12,0-.18ZM25.03,87.82l-.42.23s-.03.02-.05.04c-.02.06-.03.12,0,.18l.09.17c.06.11.19.16.3.1l.42-.22s.03-.02.05-.04c.02-.06.03-.12,0-.18l-.09-.17c-.06-.11-.19-.16-.3-.1ZM23.35,88.04l.09.17c.06.11.19.16.3.1l.42-.22s.03-.02.05-.04c.02-.06.03-.12,0-.18l-.09-.17c-.06-.11-.19-.16-.3-.1l-.42.23s-.03.02-.05.04c-.02.06-.03.12,0,.18Z"/><path class="cls-21" d="M22.18,88.05l-.09-.17c-.03-.06-.03-.12,0-.18.01-.01.03-.03.05-.04l.42-.23c.11-.06.24-.01.3.1l.09.17c.03.06.03.12,0,.18-.01.01-.03.03-.05.04l-.42.22c-.11.06-.24.01-.3-.1ZM24.28,86.52l-.42.23s-.03.02-.05.04c-.02.06-.03.12,0,.18l.09.17c.06.11.19.16.3.1l.42-.22s.03-.02.05-.04c.02-.06.03-.12,0-.18l-.09-.17c-.06-.11-.19-.16-.3-.1ZM22.84,88.83l.42-.22s.03-.02.05-.04c.02-.06.03-.12,0-.18l-.09-.17c-.06-.11-.19-.16-.3-.1l-.42.23s-.03.02-.05.04c-.02.06-.03.12,0,.18l.09.17c.06.11.19.16.3.1ZM23.56,90.19l.42-.22s.03-.02.05-.04c.02-.06.03-.12,0-.18l-.09-.17c-.06-.11-.19-.16-.3-.1l-.42.22s-.03.02-.05.04c-.02.06-.03.12,0,.18l.09.17c.06.11.19.16.3.1ZM23.2,89.51l.42-.22s.03-.02.05-.04c.02-.06.03-.12,0-.18l-.09-.17c-.06-.11-.19-.16-.3-.1l-.42.23s-.03.02-.05.04c-.02.06-.03.12,0,.18l.09.17c.06.11.19.16.3.1ZM24.64,87.2l-.42.23s-.03.02-.05.04c-.02.06-.03.12,0,.18l.09.17c.06.11.19.16.3.1l.42-.22s.03-.02.05-.04c.02-.06.03-.12,0-.18l-.09-.17c-.06-.11-.19-.16-.3-.1ZM24.42,89.74l.42-.22s.03-.02.05-.04c.02-.06.03-.12,0-.18l-.09-.17c-.06-.11-.19-.16-.3-.1l-.42.23s-.03.02-.05.04c-.02.06-.03.12,0,.18l.09.17c.06.11.19.16.3.1ZM23.42,86.98l-.42.22s-.03.02-.05.04c-.02.06-.03.12,0,.18l.09.17c.06.11.19.16.3.1l.42-.22s.03-.02.05-.04c.02-.06.03-.12,0-.18l-.09-.17c-.06-.11-.19-.16-.3-.1ZM25.28,89.28l.42-.22s.03-.02.05-.04c.02-.06.03-.12,0-.18l-.09-.17c-.06-.11-.19-.16-.3-.1l-.42.23s-.03.02-.05.04c-.02.06-.03.12,0,.18l.09.17c.06.11.19.16.3.1ZM24.52,88.61l-.09-.17c-.06-.11-.19-.16-.3-.1l-.42.23s-.03.02-.05.04c-.02.06-.03.12,0,.18l.09.17c.06.11.19.16.3.1l.42-.22s.03-.02.05-.04c.02-.06.03-.12,0-.18ZM25,87.89l-.42.23s-.03.02-.05.04c-.02.06-.03.12,0,.18l.09.17c.06.11.19.16.3.1l.42-.22s.03-.02.05-.04c.02-.06.03-.12,0-.18l-.09-.17c-.06-.11-.19-.16-.3-.1ZM23.32,88.1l.09.17c.06.11.19.16.3.1l.42-.22s.03-.02.05-.04c.02-.06.03-.12,0-.18l-.09-.17c-.06-.11-.19-.16-.3-.1l-.42.22s-.03.02-.05.04c-.02.06-.03.12,0,.18Z"/><path class="cls-24" d="M24.42,90.37l-.09-.17c-.06-.11-.19-.16-.3-.1l-.42.23c-.1.05-.13.18-.08.28l.09.17c.06.11.19.16.3.1l.42-.22c.1-.05.13-.18.08-.28Z"/><path class="cls-30" d="M25.28,89.92l-.09-.17c-.06-.11-.19-.16-.3-.1l-.42.22c-.1.05-.13.18-.08.28l.09.17c.06.11.19.16.3.1l.42-.22c.1-.05.13-.18.08-.28Z"/><path class="cls-11" d="M26.14,89.46l-.09-.17c-.06-.11-.19-.16-.3-.1l-.42.23c-.1.05-.13.18-.08.28l.09.17c.06.11.19.16.3.1l.42-.22c.1-.05.13-.18.08-.28Z"/><path class="cls-19" d="M23.96,90.82l.42-.22s.03-.02.05-.04c.02-.06.03-.12,0-.18l-.09-.17c-.06-.11-.19-.16-.3-.1l-.42.23s-.03.02-.05.04c-.02.06-.03.12,0,.18l.09.17c.06.11.19.16.3.1Z"/><path class="cls-16" d="M24.81,90.36l.42-.22s.03-.02.05-.04c.02-.06.03-.12,0-.18l-.09-.17c-.06-.11-.19-.16-.3-.1l-.42.22s-.03.02-.05.04c-.02.06-.03.12,0,.18l.09.17c.06.11.19.16.3.1Z"/><path class="cls-17" d="M25.67,89.9l.42-.22s.03-.02.05-.04c.02-.06.03-.12,0-.18l-.09-.17c-.06-.11-.19-.16-.3-.1l-.42.23s-.03.02-.05.04c-.02.06-.03.12,0,.18l.09.17c.06.11.19.16.3.1Z"/><path class="cls-20" d="M23.92,90.88l.42-.22s.03-.02.05-.04c.02-.06.03-.12,0-.18l-.09-.17c-.06-.11-.19-.16-.3-.1l-.42.23s-.03.02-.05.04c-.02.06-.03.12,0,.18l.09.17c.06.11.19.16.3.1Z"/><path class="cls-23" d="M24.78,90.42l.42-.22s.03-.02.05-.04c.02-.06.03-.12,0-.18l-.09-.17c-.06-.11-.19-.16-.3-.1l-.42.23s-.03.02-.05.04c-.02.06-.03.12,0,.18l.09.17c.06.11.19.16.3.1Z"/><path class="cls-22" d="M25.64,89.96l.42-.22s.03-.02.05-.04c.02-.06.03-.12,0-.18l-.09-.17c-.06-.11-.19-.16-.3-.1l-.42.22s-.03.02-.05.04c-.02.06-.03.12,0,.18l.09.17c.06.11.19.16.3.1Z"/><path class="cls-39" d="M42.54,54.97s0-.07,0-.1c-.15-.65-.28-1.31-.38-1.97-.45-1.33-1.29-2.53-2.62-2.52-2.28-1.84-6.93,1.74-6.93,3.12,0,.2.48.52.75.43-.12.65-.29,2.43-.15,2.57.14.14.39.22.38.5-.03.73-.81,1.66-.76,2,.05.31.72.17.79.24.2.23-.15,1.03.36,1.04-.2.44.25.57.43.72.19.15-.09.62.04.78.64.76,1.81.37,2.25.72.97-.71,3.4-2.07,5.4-1.77-.12-.17-.14-.86-.13-1.27.11-.11.14-.16.15-.35.06.1.04.08.05.23.07-.15.08-.15.07-.31h0c.05.08.08.09.07.18.06-.15,0-.46-.01-.63-.01-.17.32-1.48.26-3.6Z"/><path class="cls-39" d="M47.85,79.31c0-1.11.1-2.2.37-3.25-.28-2.62-.49-5.23-.8-7.81-.08-.77-.19-1.54-.36-2.27-.07-.35-.19-.75-.32-.95-.2-.26-.48-.49-.78-.68-.6-.4-1.44-.61-2.05-1.27-.3-.32-.44-.78-.53-1.12-.12-.32-.51-.53-.83-.73-1.11-.47-5.31,1.32-5.81,1.39-.5.08-1.76,1.11-1.97,1.34s-3.43,1.4-4.71,3.01c-.8,1.94-.37.86-1.9,1.7l-4.77-1.75c-1.22,1.91-1.48,3.56-1.86,5.53-.68,3.5,1.94,5.78,4.59,6.92.2.09.36.2.53.31v-.34l1.86-.12c-.31,4.76-.5,9.92-.41,13.53l-.94,1.05c-.02.47-.04.94-.07,1.41l1.06-1.19c.11,2.12.34,3.46.74,3.44.24,0,.69-.01,1.28-.01,1.22,4.38.36,9.38,1.33,11.07,1.06,1.86,2.61,17.01,2.61,19.36.19.14.37.26.55.36-.14.08-.27.16-.42.25-.95.62.22,2.24,1.34,2.46,1.12.22,1.18.45,1.3.95.13.5,3.12,1.06,3.56.11.38-.83.66-3.08-.43-4.57,1.14.87,2.69.36,2.69-.36,0-1.7-.22-2.32-.46-2.68.25-.21.48-.46.65-.8.93-1.86-2.39-13.67-1.59-14.87.8-1.19-.4-2.12.4-4.25.68-1.81,1.16-5.24,1.45-7.53,1.01-.17,1.68-.39,1.73-.7.27-1.46-.21-13.41-.34-14.87,1.45-.8,2.58-1.37,3.23-2.12.03.01.06.02.1.03Z"/><path class="cls-39" d="M25.4,66.82c.67,1.35.68,2.72.02,3.05s-1.83-.03-2.5-1.38c-.27-.53-1.04-1.06-1.1-1.53-.09-.73.76-1.79,1.16-1.99.66-.33,1.75.5,2.42,1.86Z"/><path class="cls-39" d="M24.07,65.25c.64.78.17.52.01.65s-.82-.39-1.46-1.17-1.23-1.29-1.07-1.42,1.88,1.16,2.52,1.94Z"/><ellipse class="cls-39" cx="22.93" cy="68.26" rx=".38" ry="1.84" transform="translate(-38.14 30.1) rotate(-39.43)"/></g><g id="unit01"><g class="cls-29"><path class="cls-2" d="M82.13.24c-.54-.34-1.28-.33-2.1.11l10.99,6.4c.82-.44,1.56-.45,2.1-.11L82.13.24Z"/><path class="cls-42" d="M73.3,89.02l-.03-69.43-10.99-6.4-.29,69.18c0,.93.33,1.6.86,1.93l11.31,6.64c-.53-.33-.86-1-.86-1.93Z"/><polygon class="cls-35" points="80.03 .35 65.23 8.22 76.22 14.61 91.01 6.74 80.03 .35"/><path class="cls-33" d="M65.23,8.22c-1.63.87-2.96,3.1-2.95,4.98l10.99,6.4c0-1.88,1.32-4.11,2.95-4.98l-10.99-6.4Z"/><path class="cls-25" d="M93.98,8.57c0-1.88-1.34-2.7-2.97-1.83l-14.79,7.87c-1.63.87-2.96,3.1-2.95,4.98l.03,69.43c0,1.88,1.34,2.69,2.97,1.82l14.79-7.87c1.63-.87,2.95-3.09,2.95-4.97l-.03-69.43Z"/></g><path class="cls-34" d="M75.2,47.63l12.68-6.8c.27-.14.6-.72.6-1.03V12.06c-.01-.44-.24-.59-.61-.39l-12.68,6.8c-.27.14-.6.72-.6,1.03v27.74c.01.44.24.59.61.39Z"/><polygon class="cls-32" points="87.25 13.43 75.8 19.57 75.81 45.86 87.26 39.72 87.25 13.43"/><polygon class="cls-38" points="87.25 13.43 75.8 19.57 75.8 23.79 87.25 17.65 87.25 13.43"/><path class="cls-41" d="M78.46,19.48c.22.53-.06,1.55-.63,2.26s-1.21.86-1.43.33.06-1.55.63-2.26,1.21-.86,1.43-.33Z"/><path class="cls-12" d="M81.24,17.98c.22.53-.06,1.55-.63,2.26-.57.72-1.21.86-1.43.33s.06-1.55.63-2.26,1.21-.86,1.43-.33Z"/><path class="cls-1" d="M84.02,16.49c.22.53-.06,1.55-.63,2.26s-1.21.86-1.43.33c-.22-.53.06-1.55.63-2.26s1.21-.86,1.43-.33Z"/><path class="cls-27" d="M86.8,14.99c.22.53-.06,1.55-.63,2.26s-1.21.86-1.43.33.06-1.55.63-2.26,1.21-.86,1.43-.33Z"/><line class="cls-6" x1="78.49" y1="23.14" x2="78.5" y2="43.97"/><line class="cls-8" x1="83.9" y1="23.88" x2="85.67" y2="22.93"/><line class="cls-8" x1="83.9" y1="23.31" x2="84.55" y2="22.96"/><path class="cls-5" d="M83.99,22.62l1.52-.8c.12-.06.26-.3.26-.44v-1.82c0-.07-.04-.09-.09-.06l-1.52.8c-.12.06-.26.3-.26.44v1.82c0,.07.04.09.09.06Z"/><line class="cls-8" x1="79.9" y1="26.17" x2="81.67" y2="25.22"/><line class="cls-8" x1="79.9" y1="25.61" x2="80.55" y2="25.26"/><path class="cls-5" d="M79.99,24.92l1.52-.8c.12-.06.26-.3.26-.44v-1.82c0-.07-.04-.09-.09-.06l-1.52.8c-.12.06-.26.3-.26.44v1.82c0,.07.04.09.09.06Z"/><path class="cls-43" d="M76.42,26.47l1.18-.61c.09-.05.2-.23.2-.34v-1.41c0-.05-.03-.07-.07-.05l-1.18.61c-.09.05-.2.23-.2.34v1.41c0,.05.03.07.07.05Z"/><path class="cls-43" d="M76.42,29.26l1.18-.61c.09-.05.2-.23.2-.34v-1.41c0-.05-.03-.07-.07-.05l-1.18.61c-.09.05-.2.23-.2.34v1.41c0,.05.03.07.07.05Z"/><path class="cls-43" d="M76.42,32.05l1.18-.61c.09-.05.2-.23.2-.34v-1.41c0-.05-.03-.07-.07-.05l-1.18.61c-.09.05-.2.23-.2.34v1.41c0,.05.03.07.07.05Z"/><path class="cls-43" d="M76.42,34.84l1.18-.61c.09-.05.2-.23.2-.34v-1.41c0-.05-.03-.07-.07-.05l-1.18.61c-.09.05-.2.23-.2.34v1.41c0,.05.03.07.07.05Z"/><path class="cls-43" d="M76.42,37.62l1.18-.61c.09-.05.2-.23.2-.34v-1.41c0-.05-.03-.07-.07-.05l-1.18.61c-.09.05-.2.23-.2.34v1.41c0,.05.03.07.07.05Z"/><path class="cls-43" d="M76.42,40.41l1.18-.61c.09-.05.2-.23.2-.34v-1.41c0-.05-.03-.07-.07-.05l-1.18.61c-.09.05-.2.23-.2.34v1.41c0,.05.03.07.07.05Z"/><path class="cls-43" d="M76.43,43.2l1.18-.61c.09-.05.2-.23.2-.34v-1.41c0-.05-.03-.07-.07-.05l-1.18.61c-.09.05-.2.23-.2.34v1.41c0,.05.03.07.07.05Z"/><line class="cls-8" x1="83.9" y1="29.45" x2="85.67" y2="28.51"/><line class="cls-8" x1="83.9" y1="28.89" x2="84.56" y2="28.54"/><path class="cls-5" d="M83.99,28.2l1.52-.8c.12-.06.26-.3.26-.44v-1.82c0-.07-.04-.09-.09-.06l-1.52.8c-.12.06-.26.3-.26.44v1.82c0,.07.04.09.09.06Z"/><line class="cls-8" x1="79.9" y1="31.75" x2="81.67" y2="30.8"/><line class="cls-8" x1="79.9" y1="31.18" x2="80.56" y2="30.83"/><path class="cls-5" d="M79.99,30.49l1.52-.8c.12-.06.26-.3.26-.44v-1.82c0-.07-.04-.09-.09-.06l-1.52.8c-.12.06-.26.3-.26.44v1.82c0,.07.04.09.09.06Z"/><line class="cls-8" x1="83.9" y1="35.03" x2="85.67" y2="34.08"/><line class="cls-8" x1="83.9" y1="34.47" x2="84.56" y2="34.11"/><path class="cls-5" d="M83.99,33.77l1.52-.8c.12-.06.26-.3.26-.44v-1.82c0-.07-.04-.09-.09-.06l-1.52.8c-.12.06-.26.3-.26.44v1.82c0,.07.04.09.09.06Z"/><line class="cls-8" x1="79.9" y1="37.32" x2="81.67" y2="36.38"/><line class="cls-8" x1="79.9" y1="36.76" x2="80.56" y2="36.41"/><path class="cls-5" d="M79.99,36.07l1.52-.8c.12-.06.26-.3.26-.44v-1.82c0-.07-.04-.09-.09-.06l-1.52.8c-.12.06-.26.3-.26.44v1.82c0,.07.04.09.09.06Z"/><line class="cls-8" x1="83.91" y1="40.61" x2="85.68" y2="39.66"/><line class="cls-8" x1="83.91" y1="40.04" x2="84.56" y2="39.69"/><path class="cls-5" d="M84,39.35l1.52-.8c.12-.06.26-.3.26-.44v-1.82c0-.07-.04-.09-.09-.06l-1.52.8c-.12.06-.26.3-.26.44v1.82c0,.07.04.09.09.06Z"/><line class="cls-8" x1="79.91" y1="42.9" x2="81.68" y2="41.95"/><line class="cls-8" x1="79.91" y1="42.34" x2="80.56" y2="41.98"/><path class="cls-5" d="M80,41.64l1.52-.8c.12-.06.26-.3.26-.44v-1.82c0-.07-.04-.09-.09-.06l-1.52.8c-.12.06-.26.3-.26.44v1.82c0,.07.04.09.09.06Z"/><polygon class="cls-15" points="79.34 49.3 74.58 51.83 74.58 50.23 79.34 47.7 79.34 49.3"/><path class="cls-13" d="M89.57,42.44v4l3.53-1.88v-4l-3.53,1.88ZM92.95,44.48l-3.24,1.72v-3.67l3.24-1.72v3.67Z"/><polygon class="cls-37" points="78.08 51.43 74.58 53.29 74.58 52.59 78.08 50.73 78.08 51.43"/><polygon class="cls-9" points="90.17 22.94 93.09 21.37 93.1 26.85 90.17 28.42 90.17 22.94"/><polygon class="cls-34" points="90.17 32.06 93.1 30.49 93.1 31.24 90.17 32.81 90.17 32.06"/><polygon class="cls-3" points="90.17 31.4 93.1 29.83 93.1 30.15 90.17 31.72 90.17 31.4"/><polygon class="cls-3" points="88.88 23.66 89.42 23.4 89.42 28.88 88.88 29.14 88.88 23.66"/><polygon class="cls-3" points="88.88 18.29 89.42 18.03 89.42 21.14 88.88 21.4 88.88 18.29"/><polygon class="cls-34" points="90.17 17.5 90.71 17.24 90.71 20.35 90.17 20.61 90.17 17.5"/><polygon class="cls-34" points="91.35 26.38 91.35 22.3 93.09 21.37 93.1 25.45 91.35 26.38"/><polygon class="cls-15" points="87.03 43.57 82.46 46 82.46 54.37 87.03 51.94 87.03 43.57"/><polygon class="cls-14" points="85.18 50.79 85.18 44.56 82.46 46 82.46 52.23 85.18 50.79"/><path class="cls-36" d="M87.28,50.5s-2.27,1.09-2.97,1.38l1.1,2.18,2.89-1.54-1.02-2.01Z"/><path class="cls-15" d="M84.31,51.88c-.07.03-.13.05-.2.08l1.1,2.17.2-.08-1.1-2.18Z"/><g class="cls-28"><path class="cls-26" d="M88.79,51.69s-3.13-6.18-3.13-6.18c-.02-.04-.04-.07-.06-.09-.03-.03-.06-.06-.08-.08-.04-.03-.09-.04-.12-.02l-.57.21s-3.21,1.72-3.21,1.72c.01,0,.58-.22.58-.22.04-.01.08,0,.12.02.03.02.06.04.08.08.02.03.04.06.06.09l3.12,6.14c.07.15.06.26,0,.29l3.2-1.71c.06-.03.07-.14.02-.26Z"/><path class="cls-15" d="M85.57,53.38l-3.12-6.14c-.04-.08-.09-.14-.15-.17-.04-.03-.09-.04-.12-.02l-.57.21c-.07.02-.08.13-.02.25l3.16,6.23c.03.06.08.11.12.14.04.02.07.03.1.02l.57-.21c.08-.03.09-.16.02-.3Z"/></g><path class="cls-3" d="M86.43,47.64l-.88-1.73c-.03-.05-.09-.07-.14-.05l-2.52,1.35s-.06.08-.04.13l.87,1.72c.03.05.09.07.14.05l2.53-1.34s.06-.08.04-.13Z"/><path class="cls-4" d="M86.43,47.64l-.88-1.73c-.03-.05-.09-.07-.14-.05l-2.52,1.35s-.06.08-.04.13l.04.08,2.43-1.3s.11,0,.14.05l.84,1.65.1-.05s.06-.08.04-.13Z"/><path class="cls-40" d="M84.88,49.58l-.42.22c-.11.06-.24.01-.3-.1l-.09-.17c-.05-.1-.02-.23.08-.28l.42-.23c.11-.06.24-.01.3.1l.09.17c.05.1.02.23-.08.28ZM85.82,48.85l-.09-.17c-.06-.11-.19-.16-.3-.1l-.42.22c-.1.05-.13.18-.08.28l.09.17c.06.11.19.16.3.1l.42-.22c.1-.05.13-.18.08-.28ZM86.68,48.39l-.09-.17c-.06-.11-.19-.16-.3-.1l-.42.23c-.1.05-.13.18-.08.28l.09.17c.06.11.19.16.3.1l.42-.22c.1-.05.13-.18.08-.28ZM85.32,49.99l-.09-.17c-.06-.11-.19-.16-.3-.1l-.42.22c-.1.05-.13.18-.08.28l.09.17c.06.11.19.16.3.1l.42-.22c.1-.05.13-.18.08-.28ZM86.18,49.53l-.09-.17c-.06-.11-.19-.16-.3-.1l-.42.23c-.1.05-.13.18-.08.28l.09.17c.06.11.19.16.3.1l.42-.22c.1-.05.13-.18.08-.28ZM87.04,49.07l-.09-.17c-.06-.11-.19-.16-.3-.1l-.42.23c-.1.05-.13.18-.08.28l.09.17c.06.11.19.16.3.1l.42-.22c.1-.05.13-.18.08-.28ZM85.68,50.67l-.09-.17c-.06-.11-.19-.16-.3-.1l-.42.23c-.1.05-.13.18-.08.28l.09.17c.06.11.19.16.3.1l.42-.22c.1-.05.13-.18.08-.28ZM86.54,50.21l-.09-.17c-.06-.11-.19-.16-.3-.1l-.42.23c-.1.05-.13.18-.08.28l.09.17c.06.11.19.16.3.1l.42-.22c.1-.05.13-.18.08-.28ZM87.4,49.76l-.09-.17c-.06-.11-.19-.16-.3-.1l-.42.22c-.1.05-.13.18-.08.28l.09.17c.06.11.19.16.3.1l.42-.22c.1-.05.13-.18.08-.28ZM86.04,51.35l-.09-.17c-.06-.11-.19-.16-.3-.1l-.42.23c-.1.05-.13.18-.08.28l.09.17c.06.11.19.16.3.1l.42-.22c.1-.05.13-.18.08-.28ZM86.9,50.89l-.09-.17c-.06-.11-.19-.16-.3-.1l-.42.23c-.1.05-.13.18-.08.28l.09.17c.06.11.19.16.3.1l.42-.22c.1-.05.13-.18.08-.28ZM87.76,50.44l-.09-.17c-.06-.11-.19-.16-.3-.1l-.42.22c-.1.05-.13.18-.08.28l.09.17c.06.11.19.16.3.1l.42-.22c.1-.05.13-.18.08-.28Z"/><path class="cls-18" d="M84.21,49.65l-.09-.17c-.03-.06-.03-.12,0-.18.01-.01.03-.03.05-.04l.42-.23c.11-.06.24-.01.3.1l.09.17c.03.06.03.12,0,.18-.01.01-.03.03-.05.04l-.42.22c-.1.06-.24.01-.3-.1ZM86.3,48.12l-.42.23s-.03.02-.05.04c-.02.06-.03.12,0,.18l.09.17c.06.11.19.16.3.1l.42-.22s.03-.02.05-.04c.02-.06.03-.12,0-.18l-.09-.17c-.06-.11-.19-.16-.3-.1ZM84.86,50.43l.42-.22s.03-.02.05-.04c.02-.06.03-.12,0-.18l-.09-.17c-.06-.11-.19-.16-.3-.1l-.42.22s-.03.02-.05.04c-.02.06-.03.12,0,.18l.09.17c.06.11.19.16.3.1ZM85.58,51.79l.42-.22s.03-.02.05-.04c.02-.06.03-.12,0-.18l-.09-.17c-.06-.11-.19-.16-.3-.1l-.42.23s-.03.02-.05.04c-.02.06-.03.12,0,.18l.09.17c.06.11.19.16.3.1ZM85.22,51.11l.42-.22s.03-.02.05-.04c.02-.06.03-.12,0-.18l-.09-.17c-.06-.11-.19-.16-.3-.1l-.42.22s-.03.02-.05.04c-.02.06-.03.12,0,.18l.09.17c.06.11.19.16.3.1ZM86.66,48.8l-.42.23s-.03.02-.05.04c-.02.06-.03.12,0,.18l.09.17c.06.11.19.16.3.1l.42-.22s.03-.02.05-.04c.02-.06.03-.12,0-.18l-.09-.17c-.06-.11-.19-.16-.3-.1ZM86.44,51.34l.42-.22s.03-.02.05-.04c.02-.06.03-.12,0-.18l-.09-.17c-.06-.11-.19-.16-.3-.1l-.42.23s-.03.02-.05.04c-.02.06-.03.12,0,.18l.09.17c.06.11.19.16.3.1ZM85.44,48.58l-.42.22s-.03.02-.05.04c-.02.06-.03.12,0,.18l.09.17c.06.11.19.16.3.1l.42-.22s.03-.02.05-.04c.02-.06.03-.12,0-.18l-.09-.17c-.06-.11-.19-.16-.3-.1ZM87.3,50.88l.42-.22s.03-.02.05-.04c.02-.06.03-.12,0-.18l-.09-.17c-.06-.11-.19-.16-.3-.1l-.42.22s-.03.02-.05.04c-.02.06-.03.12,0,.18l.09.17c.06.11.19.16.3.1ZM86.54,50.21l-.09-.17c-.06-.11-.19-.16-.3-.1l-.42.23s-.03.02-.05.04c-.02.06-.03.12,0,.18l.09.17c.06.11.19.16.3.1l.42-.22s.03-.02.05-.04c.02-.06.03-.12,0-.18ZM87.02,49.48l-.42.23s-.03.02-.05.04c-.02.06-.03.12,0,.18l.09.17c.06.11.19.16.3.1l.42-.22s.03-.02.05-.04c.02-.06.03-.12,0-.18l-.09-.17c-.06-.11-.19-.16-.3-.1ZM85.34,49.7l.09.17c.06.11.19.16.3.1l.42-.22s.03-.02.05-.04c.02-.06.03-.12,0-.18l-.09-.17c-.06-.11-.19-.16-.3-.1l-.42.23s-.03.02-.05.04c-.02.06-.03.12,0,.18Z"/><path class="cls-21" d="M84.17,49.71l-.09-.17c-.03-.06-.03-.12,0-.18.01-.01.03-.03.05-.04l.42-.23c.11-.06.24-.01.3.1l.09.17c.03.06.03.12,0,.18-.01.01-.03.03-.05.04l-.42.22c-.11.06-.24.01-.3-.1ZM86.26,48.18l-.42.23s-.03.02-.05.04c-.02.06-.03.12,0,.18l.09.17c.06.11.19.16.3.1l.42-.22s.03-.02.05-.04c.02-.06.03-.12,0-.18l-.09-.17c-.06-.11-.19-.16-.3-.1ZM84.82,50.49l.42-.22s.03-.02.05-.04c.02-.06.03-.12,0-.18l-.09-.17c-.06-.11-.19-.16-.3-.1l-.42.23s-.03.02-.05.04c-.02.06-.03.12,0,.18l.09.17c.06.11.19.16.3.1ZM85.54,51.85l.42-.22s.03-.02.05-.04c.02-.06.03-.12,0-.18l-.09-.17c-.06-.11-.19-.16-.3-.1l-.42.22s-.03.02-.05.04c-.02.06-.03.12,0,.18l.09.17c.06.11.19.16.3.1ZM85.18,51.17l.42-.22s.03-.02.05-.04c.02-.06.03-.12,0-.18l-.09-.17c-.06-.11-.19-.16-.3-.1l-.42.23s-.03.02-.05.04c-.02.06-.03.12,0,.18l.09.17c.06.11.19.16.3.1ZM86.62,48.86l-.42.23s-.03.02-.05.04c-.02.06-.03.12,0,.18l.09.17c.06.11.19.16.3.1l.42-.22s.03-.02.05-.04c.02-.06.03-.12,0-.18l-.09-.17c-.06-.11-.19-.16-.3-.1ZM86.4,51.4l.42-.22s.03-.02.05-.04c.02-.06.03-.12,0-.18l-.09-.17c-.06-.11-.19-.16-.3-.1l-.42.23s-.03.02-.05.04c-.02.06-.03.12,0,.18l.09.17c.06.11.19.16.3.1ZM85.4,48.64l-.42.22s-.03.02-.05.04c-.02.06-.03.12,0,.18l.09.17c.06.11.19.16.3.1l.42-.22s.03-.02.05-.04c.02-.06.03-.12,0-.18l-.09-.17c-.06-.11-.19-.16-.3-.1ZM87.26,50.94l.42-.22s.03-.02.05-.04c.02-.06.03-.12,0-.18l-.09-.17c-.06-.11-.19-.16-.3-.1l-.42.23s-.03.02-.05.04c-.02.06-.03.12,0,.18l.09.17c.06.11.19.16.3.1ZM86.51,50.27l-.09-.17c-.06-.11-.19-.16-.3-.1l-.42.23s-.03.02-.05.04c-.02.06-.03.12,0,.18l.09.17c.06.11.19.16.3.1l.42-.22s.03-.02.05-.04c.02-.06.03-.12,0-.18ZM86.98,49.55l-.42.23s-.03.02-.05.04c-.02.06-.03.12,0,.18l.09.17c.06.11.19.16.3.1l.42-.22s.03-.02.05-.04c.02-.06.03-.12,0-.18l-.09-.17c-.06-.11-.19-.16-.3-.1ZM85.3,49.76l.09.17c.06.11.19.16.3.1l.42-.22s.03-.02.05-.04c.02-.06.03-.12,0-.18l-.09-.17c-.06-.11-.19-.16-.3-.1l-.42.22s-.03.02-.05.04c-.02.06-.03.12,0,.18Z"/><path class="cls-24" d="M86.4,52.03l-.09-.17c-.06-.11-.19-.16-.3-.1l-.42.23c-.1.05-.13.18-.08.28l.09.17c.06.11.19.16.3.1l.42-.22c.1-.05.13-.18.08-.28Z"/><path class="cls-30" d="M87.26,51.58l-.09-.17c-.06-.11-.19-.16-.3-.1l-.42.22c-.1.05-.13.18-.08.28l.09.17c.06.11.19.16.3.1l.42-.22c.1-.05.13-.18.08-.28Z"/><path class="cls-11" d="M88.12,51.12l-.09-.17c-.06-.11-.19-.16-.3-.1l-.42.23c-.1.05-.13.18-.08.28l.09.17c.06.11.19.16.3.1l.42-.22c.1-.05.13-.18.08-.28Z"/><path class="cls-19" d="M85.94,52.48l.42-.22s.03-.02.05-.04c.02-.06.03-.12,0-.18l-.09-.17c-.06-.11-.19-.16-.3-.1l-.42.23s-.03.02-.05.04c-.02.06-.03.12,0,.18l.09.17c.06.11.19.16.3.1Z"/><path class="cls-16" d="M86.8,52.02l.42-.22s.03-.02.05-.04c.02-.06.03-.12,0-.18l-.09-.17c-.06-.11-.19-.16-.3-.1l-.42.22s-.03.02-.05.04c-.02.06-.03.12,0,.18l.09.17c.06.11.19.16.3.1Z"/><path class="cls-17" d="M87.66,51.56l.42-.22s.03-.02.05-.04c.02-.06.03-.12,0-.18l-.09-.17c-.06-.11-.19-.16-.3-.1l-.42.23s-.03.02-.05.04c-.02.06-.03.12,0,.18l.09.17c.06.11.19.16.3.1Z"/><path class="cls-20" d="M85.9,52.54l.42-.22s.03-.02.05-.04c.02-.06.03-.12,0-.18l-.09-.17c-.06-.11-.19-.16-.3-.1l-.42.23s-.03.02-.05.04c-.02.06-.03.12,0,.18l.09.17c.06.11.19.16.3.1Z"/><path class="cls-23" d="M86.76,52.08l.42-.22s.03-.02.05-.04c.02-.06.03-.12,0-.18l-.09-.17c-.06-.11-.19-.16-.3-.1l-.42.23s-.03.02-.05.04c-.02.06-.03.12,0,.18l.09.17c.06.11.19.16.3.1Z"/><path class="cls-22" d="M87.62,51.62l.42-.22s.03-.02.05-.04c.02-.06.03-.12,0-.18l-.09-.17c-.06-.11-.19-.16-.3-.1l-.42.22s-.03.02-.05.04c-.02.06-.03.12,0,.18l.09.17c.06.11.19.16.3.1Z"/><path class="cls-39" d="M114.13,35c-.64-2.19-1.45-4.46-2.73-6.23-.66-.77-1.74-1.33-2.74-1.88l-1.55-.84c-.51-.31-1.05-.58-1.51-1.16-.06-.07-.08-.15-.07-.23v-.02c.19-1.83.13-3.76-.52-5.49-.34-.85-.82-1.66-1.56-2.22-.73-.56-1.67-.83-2.62-.91-5.09,0-4.21,6.62-3.57,9.29-1.95.85-3.87,1.33-5.36,1.94v-1.45c-.06.15-.13.3-.21.45-1.24,2.22-2.81,4.07-4.52,5.86.02.07.04.15.07.22.21.8.33,1.59.43,2.38.18,1.58.28,3.16.28,4.74,0,1.58-.02,3.16-.2,4.73-.38-3.14-.58-6.27-.95-9.37-.07-.68-.17-1.35-.31-2-.13.14-.27.27-.4.41.36.57.59,1.27.62,2.12.02.87-.03,1.72-.11,2.57-.01.27-.02.54-.03.81.22.46.38.99.44,1.58.22,2.1.12,4.04-.31,5.96.17-.14.32-.28.45-.43,2.23.73,4.62.33,5.19.33-.51,1.27-1.02,4.45.38,5.09-3.56,9.54.89,18.34.76,22.28-.13,3.94,2.29,16.66,2.04,18.45-1.4,1.4-1.78,2.8-.25,3.18,1.53.38,3.82.68,4.88.55,1.06-.13,1.19,0,.89-2.29.21-1.87-.34-18.36.34-21.63,1.27,3.94.44,8.41.64,12.72.08,1.87-.25,7.59-.04,8.52-.13,1.36-.42,2.16.3,2.42.72.25,3.52.55,4.33-.04.81-.59.3-2.04-.13-2.84,2.33-2.76,1.91-14.46,2.63-15.94s2.21-16.18,1.78-18.17c-.42-1.99-1.27-8.82-1.7-9.46.98-.72,2.42-1.7,1.87-3.65,1.09.41,2.39.25,3.21-.5.82-.76,1.05-1.95,1.08-3.06-.04-2.27-.55-4.59-1.14-6.8Z"/></g></g></g></g></svg>