<svg width="543" height="74" viewBox="0 0 543 74" fill="none" xmlns="http://www.w3.org/2000/svg">
<path d="M472.911 54.2504V0.652344H462.32V54.6148C462.32 69.6977 472.8 70.6325 481.505 70.7117V61.3641C478.445 61.3641 472.896 61.3641 472.896 54.2346L472.911 54.2504Z" fill="black"/>
<path d="M384.342 70.0937H373.592V62.7899C370.357 68.7154 363.587 71.6781 356.452 71.6781C340.152 71.6781 330.607 59.0034 330.607 44.6493C330.607 28.6317 342.181 17.7156 356.452 17.7156C365.711 17.7156 370.484 21.5972 373.592 25.1778V19.2841H384.342V70.0937ZM341.103 45.1404C341.103 51.7788 345.876 61.4591 357.371 61.4591C364.475 61.4591 369.152 57.7517 371.594 52.8561C372.862 50.5113 373.449 47.9764 373.639 45.3306C373.734 42.7956 373.259 40.1498 372.18 37.805C369.945 32.7192 364.966 28.3306 357.276 28.3306C346.954 28.3306 341.119 36.7276 341.119 45.0295V45.1246L341.103 45.1404Z" fill="black"/>
<path d="M528.629 54.9636C526.266 59.2254 521.462 62.1565 515.389 62.1565C508.286 62.2515 499.866 57.3876 499.295 49.054H542.201C543.247 39.9599 540.869 31.6263 534.527 25.083C529.691 20.0607 522.873 17.1296 515.104 17.1296C499.375 17.1296 487.816 30.1053 487.816 44.8714C487.816 59.6374 499.28 72.3279 515.294 72.3279C520.701 72.3279 525.806 70.8069 530.167 67.7809C533.56 65.4994 536.525 62.3307 538.84 58.3224M515.611 27.8556C525.695 27.8556 530.991 36.0783 531.372 40.4352H499.295C499.613 36.0941 505.543 27.8556 515.611 27.8556Z" fill="black"/>
<path d="M424.647 17.1928C417.67 17.1928 411.391 19.8862 407.523 24.0371V0.652344H396.788V56.722C396.788 56.722 403.448 69.0006 418.527 71.694C439.155 75.3696 452.489 60.2392 452.489 44.6493C452.489 31.2934 442.738 17.1928 424.631 17.1928H424.647ZM424.124 61.7285C414.959 61.7285 407.523 54.5039 407.523 44.7444V44.6493C407.523 34.7789 414.959 27.5544 424.124 27.5544C433.288 27.5544 440.614 34.7789 440.614 44.6493C440.614 54.5198 433.288 61.7443 424.124 61.7443V61.7285Z" fill="black"/>
<path d="M300.195 10.6811H281.057V1.22266H330.606V10.6811H311.706V71.282H300.179V10.6811H300.195Z" fill="black"/>
<path d="M79.6741 37.2504C78.3105 35.9037 77.6287 34.256 77.6287 32.3072C77.6287 30.3585 78.3105 28.6791 79.6741 27.3324C81.0376 25.9857 82.6866 25.3203 84.6369 25.3203C86.5871 25.3203 88.2361 25.9857 89.5839 27.3324C90.9316 28.6791 91.5975 30.3427 91.5975 32.3072C91.5975 34.2718 90.9316 35.9037 89.5839 37.2504C88.2361 38.597 86.5871 39.2625 84.6369 39.2625C82.6866 39.2625 81.0376 38.597 79.6741 37.2504Z" fill="black"/>
<path d="M79.6741 64.1684C78.3105 62.8217 77.6287 61.174 77.6287 59.2253C77.6287 57.2765 78.3105 55.6288 79.6741 54.2821C81.0376 52.9354 82.6866 52.27 84.6369 52.27C86.5871 52.27 88.2361 52.9354 89.5839 54.2821C90.9316 55.6288 91.5975 57.2765 91.5975 59.2253C91.5975 61.174 90.9316 62.8217 89.5839 64.1684C88.2361 65.5151 86.5871 66.1805 84.6369 66.1805C82.6866 66.1805 81.0376 65.5151 79.6741 64.1684Z" fill="black"/>
<path d="M232.46 35.5394C232.46 35.5394 236.487 17.8899 257.702 17.8899V31.3092H256.386C248.426 31.3092 244.684 35.3493 244.684 42.6372V71.3137H232.46V35.5394Z" fill="black"/>
<path d="M206.567 57.2447C204.189 60.1916 200.241 62.5522 194.247 62.5522C187.414 62.5522 180.104 56.7694 179.549 50.4321H220.917C222.138 40.8944 220.172 33.3846 213.623 26.366C208.755 21.2169 201.922 18.1433 193.962 18.1433C178.138 18.1433 166.722 31.5151 166.722 46.0118C166.722 61.4432 179.359 73.5 194.232 73.5C199.559 73.5 205.727 71.9157 210.04 68.8262C212.672 67.0359 215.018 64.7069 217.032 61.9027L206.567 57.2447ZM194.057 29.9466C204.126 29.9466 208.089 37.3771 208.565 40.4983H179.549C180.009 37.3771 183.989 29.9466 194.057 29.9466Z" fill="black"/>
<path d="M155.433 2.61694H142.732V23.6728C141.052 21.9934 135.137 18.1434 125.957 18.1434C112.765 18.1434 99.24 28.1564 99.24 45.7267C99.24 61.3483 110.006 73.4526 127.511 73.4526C146.791 73.4526 153.879 59.4946 155.433 55.7714V2.61694ZM127.701 61.7285C119.107 61.7285 112.147 54.5356 112.147 45.6633C112.147 36.7911 119.107 29.5982 127.701 29.5982C136.295 29.5982 143.255 36.7911 143.255 45.6633C143.255 54.5356 136.295 61.7285 127.701 61.7285Z" fill="black"/>
<path d="M69.7484 19.5536C65.2771 17.9059 63.2158 16.7176 59.4422 13.0895C50.3727 4.4232 36.6416 0.494043 23.1008 5.43717C11.5579 9.66735 2.8531 19.712 0.617439 32.0223C-0.46075 37.9477 -0.0960681 43.0968 1.29923 48.1984C1.61635 49.355 2.0286 50.4165 2.40914 51.3988C2.44085 51.478 2.52013 51.5413 2.61526 51.5413H16.2353C16.822 51.5413 17.1708 50.8759 16.8378 50.4006C14.2692 46.5982 12.8898 41.9244 13.2862 36.9179C14.1582 25.6691 23.6241 16.7493 35.833 16.7493C42.1119 16.7493 44.0462 18.0802 47.0113 19.1734C47.5821 19.3793 48.7078 19.8546 50.8959 19.8546H69.7008C69.8594 19.8546 69.8911 19.6328 69.7325 19.5694L69.7484 19.5536Z" fill="black"/>
<path d="M0.395517 57.4033C4.86683 59.051 6.92807 60.2392 10.7017 63.8674C19.7553 72.5495 33.5023 76.4787 47.0272 71.5197C58.5701 67.3054 67.2749 57.2448 69.5106 44.9345C70.5888 39.0091 70.2241 33.86 68.8288 28.7585C68.5117 27.6019 68.0994 26.5404 67.7189 25.5581C67.6872 25.4789 67.6079 25.4155 67.5128 25.4155H53.8927C53.306 25.4155 52.9572 26.0809 53.2902 26.5562C55.8588 30.3587 57.2383 35.0324 56.8419 40.0389C55.9698 51.2877 46.5039 60.2075 34.295 60.2075C28.0162 60.2075 26.0818 58.8767 23.1168 57.7835C22.546 57.5775 21.4202 57.1022 19.2321 57.1022H0.443084C0.284527 57.1022 0.252815 57.3241 0.411372 57.3874L0.395517 57.4033Z" fill="black"/>
</svg>
