<?xml version="1.0" encoding="UTF-8"?>
<svg id="_レイヤー_2" data-name="レイヤー 2" xmlns="http://www.w3.org/2000/svg" viewBox="0 0 57.64 56.51">
  <defs>
    <style>
      .cls-1 {
        fill: #003894;
      }

      .cls-2 {
        fill: #fff;
      }
    </style>
  </defs>
  <g id="_レイヤー_1-2" data-name="レイヤー 1">
    <g>
      <rect class="cls-1" width="57.64" height="56.51"/>
      <g>
        <path class="cls-2" d="M40.59,29.86l1.06-.64c.15-.09.25-.26.25-.45v-2.13c0-.15-.06-.28-.16-.38l-1.05-1.03c-.1-.09-.23-.15-.37-.15h-5.52c-.14,0-.26.05-.35.13l-.88.81h0c-.1.1-.17.23-.17.39v5.73s1.94,0,1.94,0v-2.12h2.69l2.04,2.12h2.35s.1,0,.14-.09c.03-.09-.03-.15-.03-.15l-1.94-2.03ZM39.88,28.43h-4.53s0-1.76,0-1.76h4.53c.12,0,.21.1.21.21v1.34c0,.12-.09.21-.21.21Z"/>
        <path class="cls-2" d="M52.54,25.32l-4.28,4.13v2.69s-2.29,0-2.29,0v-2.69l-4.28-4.12s-.04-.06-.04-.1c0-.08.07-.15.15-.15h2.56l2.65,2.62s.04.04.1.04.1-.04.1-.04l2.65-2.62h2.56c.08,0,.15.07.15.15,0,.04-.01.07-.04.1Z"/>
        <path class="cls-2" d="M18.5,30.38h4.62s0,1.76,0,1.76h-5.59c-.15,0-.28-.06-.38-.16l-.86-.89c-.09-.1-.15-.23-.15-.37v-5.65h2.15v5.09c0,.12.1.21.21.21Z"/>
        <path class="cls-2" d="M9.6,27.83h5.67v2.89c0,.14-.06.28-.15.37l-.86.89c-.1.1-.23.16-.38.16h-6.62c-.15,0-.28-.06-.38-.16l-.86-.89c-.09-.1-.15-.23-.15-.37v-4.31c0-.15.06-.29.17-.39l.88-.81c.09-.08.22-.14.35-.14h7.17v1.59h-6.33c-.12,0-.21.09-.21.21v3.46c0,.12.09.21.21.21h4.99c.12,0,.21-.09.21-.21v-.96s-3.7,0-3.7,0v-1.55Z"/>
        <path class="cls-2" d="M31.5,25.21c-.09-.08-.22-.14-.35-.14h-6.06c-.14,0-.26.05-.35.14l-.88.81c-.1.1-.17.23-.17.39v4.31c0,.14.06.28.15.37l.86.89c.1.1.23.16.38.16h6.08c.15,0,.28-.06.38-.16l.86-.89c.09-.1.15-.23.15-.37v-4.31c0-.15-.06-.29-.17-.39l-.88-.81ZM30.5,30.16c0,.12-.1.21-.21.21h-4.36c-.12,0-.21-.09-.21-.21v-3.11c0-.12.09-.21.21-.21h4.36c.12,0,.21.09.21.21v3.11Z"/>
      </g>
    </g>
  </g>
</svg>