<?xml version="1.0" encoding="UTF-8"?>
<svg id="_レイヤー_2" data-name="レイヤー 2" xmlns="http://www.w3.org/2000/svg" viewBox="0 0 85.48 33.88">
  <defs>
    <style>
      .cls-1 {
        fill: #231815;
      }
    </style>
  </defs>
  <g id="_レイヤー_2-2" data-name="レイヤー 2">
    <g>
      <g>
        <path class="cls-1" d="M15.41,6.2v-3.72h-.43v-.7h.43v-.6c0-.21.03-.4.09-.54.06-.15.15-.27.26-.37.1-.1.22-.17.36-.21s.27-.06.42-.06h.41v.84h-.4c-.17,0-.26.1-.26.3v.64h.66v.7h-.66v3.72h-.88Z"/>
        <path class="cls-1" d="M18,3.27c0-.18.01-.35.03-.5.02-.15.07-.28.13-.4.1-.19.25-.35.44-.46.19-.12.43-.17.7-.17s.51.06.7.17c.19.12.34.27.44.46.06.12.11.25.13.4.02.15.03.32.03.5v1.45c0,.18-.01.35-.03.5-.02.15-.07.28-.13.4-.1.19-.25.35-.44.46-.19.12-.43.17-.7.17s-.51-.06-.7-.17c-.19-.12-.34-.27-.44-.46-.06-.12-.11-.25-.13-.4-.02-.15-.03-.32-.03-.5v-1.45ZM18.88,4.86c0,.17.04.29.12.38.08.08.18.13.31.13s.24-.04.31-.13c.08-.08.12-.21.12-.38v-1.73c0-.17-.04-.29-.12-.38-.08-.08-.18-.13-.31-.13s-.24.04-.31.13c-.08.08-.12.21-.12.38v1.73Z"/>
        <path class="cls-1" d="M22.05,3.27c0-.18.01-.35.03-.5.02-.15.07-.28.13-.4.1-.19.25-.35.44-.46.19-.12.43-.17.7-.17s.51.06.7.17c.19.12.34.27.44.46.06.12.11.25.13.4.02.15.03.32.03.5v1.45c0,.18-.01.35-.03.5s-.07.28-.13.4c-.1.19-.25.35-.44.46-.19.12-.43.17-.7.17s-.51-.06-.7-.17c-.19-.12-.34-.27-.44-.46-.06-.12-.11-.25-.13-.4s-.03-.32-.03-.5v-1.45ZM22.93,4.86c0,.17.04.29.12.38.08.08.18.13.31.13s.24-.04.31-.13c.08-.08.12-.21.12-.38v-1.73c0-.17-.04-.29-.12-.38-.08-.08-.18-.13-.31-.13s-.24.04-.31.13c-.08.08-.12.21-.12.38v1.73Z"/>
        <path class="cls-1" d="M27.93,6.2v-.4c-.06.06-.11.12-.16.18-.05.06-.11.1-.17.14-.06.04-.14.07-.22.1s-.18.03-.28.03c-.37,0-.62-.14-.77-.42-.05-.1-.09-.22-.11-.37-.02-.14-.03-.34-.03-.58v-1.68c0-.32,0-.55.03-.71.03-.29.17-.51.41-.65.11-.08.27-.11.49-.11.17,0,.33.04.46.12.13.08.25.19.35.34h.02V0h.88v6.2h-.88ZM27.06,4.76c0,.18.03.33.1.44.07.11.18.17.33.17.13,0,.24-.05.32-.15.08-.1.12-.23.12-.4v-1.72c0-.14-.04-.25-.13-.34-.08-.09-.19-.14-.31-.14-.17,0-.28.05-.34.16s-.09.23-.09.37v1.62Z"/>
        <path class="cls-1" d="M33.21,6.2V0h.88v2.19h.02c.1-.14.21-.26.35-.34.14-.08.29-.12.46-.12.21,0,.38.04.5.11.12.08.21.17.29.29.06.09.09.21.11.37.02.15.03.39.03.71v1.68c0,.24-.01.44-.03.58-.02.15-.06.27-.11.37-.15.28-.4.42-.77.42-.22,0-.39-.04-.5-.13-.12-.09-.23-.19-.34-.32v.4h-.88ZM34.96,3.14c0-.14-.03-.26-.09-.37s-.17-.16-.34-.16c-.13,0-.23.05-.31.14s-.13.2-.13.34v1.72c0,.16.04.29.12.4.08.1.19.15.32.15.15,0,.26-.06.33-.17.07-.11.1-.26.1-.44v-1.62Z"/>
        <path class="cls-1" d="M40.05,1.78v4.41h-.88v-.43h-.02c-.09.14-.2.25-.33.34s-.29.13-.5.13c-.11,0-.22-.02-.33-.06-.11-.04-.21-.1-.29-.19-.09-.09-.16-.2-.21-.34-.05-.14-.08-.3-.08-.5V1.78h.88v3.06c0,.16.04.29.11.38s.18.14.32.14c.17,0,.28-.05.34-.16.06-.1.1-.26.1-.45V1.78h.88Z"/>
        <path class="cls-1" d="M43.24,3.02c0-.15-.05-.26-.14-.34-.09-.08-.19-.11-.31-.11-.14,0-.24.05-.32.14s-.11.19-.11.31c0,.08.02.16.06.24.04.08.14.15.31.21l.52.21c.33.13.55.3.68.52s.19.46.19.72c0,.19-.03.36-.1.52-.07.16-.16.3-.27.42-.12.12-.25.22-.41.29-.16.07-.34.1-.53.1-.36,0-.66-.11-.9-.34-.12-.11-.22-.25-.29-.41-.08-.17-.12-.36-.12-.58h.83c.02.12.06.24.13.34.07.1.18.16.35.16.13,0,.24-.04.34-.13.1-.08.15-.2.15-.35,0-.12-.03-.23-.1-.31-.06-.09-.18-.16-.34-.23l-.42-.16c-.28-.1-.49-.26-.65-.47s-.24-.46-.24-.75c0-.19.03-.36.1-.52.07-.16.16-.3.28-.41.11-.12.25-.2.4-.27.16-.06.32-.09.5-.09s.34.03.5.1c.15.06.28.15.39.27.11.12.2.25.26.41.06.16.09.33.09.51h-.83Z"/>
        <path class="cls-1" d="M45.54.89v-.89h.88v.89h-.88ZM45.54,6.2V1.78h.88v4.41h-.88Z"/>
        <path class="cls-1" d="M48,6.2V1.78h.88v.43h.02c.09-.14.2-.25.33-.34s.29-.13.5-.13c.11,0,.22.02.33.06.11.04.21.1.29.19.09.09.16.2.21.34.05.14.08.3.08.5v3.39h-.88v-3.06c0-.16-.04-.29-.11-.38s-.18-.14-.32-.14c-.17,0-.28.05-.34.16s-.1.26-.1.45v2.97h-.88Z"/>
        <path class="cls-1" d="M54.76,4.33h-1.74v.6c0,.14.04.25.12.32.08.08.18.11.31.11.17,0,.28-.05.33-.15s.09-.2.1-.3h.88c0,.39-.12.7-.35.94-.11.12-.25.22-.41.29-.16.07-.34.1-.54.1-.28,0-.51-.06-.7-.17-.19-.12-.34-.27-.44-.46-.06-.12-.11-.25-.13-.4-.02-.15-.03-.32-.03-.5v-1.45c0-.18.01-.35.03-.5.02-.15.07-.28.13-.4.1-.19.25-.35.44-.46.19-.12.43-.17.7-.17.2,0,.38.03.55.1s.3.17.42.29c.23.26.34.59.34.98v1.22ZM53.02,3.63h.86v-.5c0-.17-.04-.29-.12-.38-.08-.08-.18-.13-.31-.13s-.24.04-.31.13c-.08.08-.12.21-.12.38v.5Z"/>
        <path class="cls-1" d="M57.87,3.02c0-.15-.05-.26-.14-.34-.09-.08-.19-.11-.31-.11-.14,0-.24.05-.32.14s-.11.19-.11.31c0,.08.02.16.06.24.04.08.14.15.31.21l.52.21c.33.13.55.3.68.52.12.22.19.46.19.72,0,.19-.03.36-.1.52-.07.16-.16.3-.27.42-.12.12-.25.22-.41.29-.16.07-.34.1-.53.1-.36,0-.66-.11-.9-.34-.12-.11-.22-.25-.29-.41-.08-.17-.12-.36-.12-.58h.83c.02.12.06.24.13.34.07.1.18.16.35.16.13,0,.24-.04.34-.13.1-.08.15-.2.15-.35,0-.12-.03-.23-.1-.31-.06-.09-.18-.16-.34-.23l-.42-.16c-.28-.1-.49-.26-.65-.47-.16-.21-.24-.46-.24-.75,0-.19.03-.36.1-.52.07-.16.16-.3.28-.41.11-.12.25-.2.4-.27.16-.06.32-.09.5-.09s.34.03.5.1c.15.06.28.15.39.27.11.12.2.25.26.41.06.16.09.33.09.51h-.83Z"/>
        <path class="cls-1" d="M61.76,3.02c0-.15-.05-.26-.14-.34-.09-.08-.19-.11-.31-.11-.14,0-.24.05-.32.14s-.11.19-.11.31c0,.08.02.16.06.24.04.08.14.15.31.21l.52.21c.33.13.55.3.68.52s.19.46.19.72c0,.19-.03.36-.1.52-.07.16-.16.3-.27.42-.12.12-.25.22-.41.29-.16.07-.34.1-.53.1-.36,0-.66-.11-.9-.34-.12-.11-.22-.25-.29-.41-.08-.17-.12-.36-.12-.58h.83c.02.12.06.24.13.34.07.1.18.16.35.16.13,0,.24-.04.34-.13.1-.08.15-.2.15-.35,0-.12-.03-.23-.1-.31-.06-.09-.18-.16-.34-.23l-.42-.16c-.28-.1-.49-.26-.65-.47s-.24-.46-.24-.75c0-.19.03-.36.1-.52.07-.16.16-.3.28-.41.11-.12.25-.2.4-.27.16-.06.32-.09.5-.09s.34.03.5.1c.15.06.28.15.39.27.11.12.2.25.26.41.06.16.09.33.09.51h-.83Z"/>
        <path class="cls-1" d="M66.75,6.2V0h1.3c.51,0,.89.14,1.15.42.26.28.39.67.39,1.18v2.9c0,.58-.14,1.01-.42,1.28-.28.28-.68.41-1.2.41h-1.22ZM67.63.84v4.53h.41c.25,0,.42-.06.53-.19s.15-.32.15-.59V1.6c0-.24-.05-.43-.15-.57-.1-.13-.28-.2-.53-.2h-.41Z"/>
        <path class="cls-1" d="M70.86,6.2l1.24-3.25-1.15-2.95h.93l.66,1.84.67-1.84h.93l-1.17,2.95,1.27,3.25h-.93l-.77-2.09-.76,2.09h-.93Z"/>
      </g>
      <g>
        <path class="cls-1" d="M3.4,33.7V15.78H0v-2.79h9.74v2.79h-3.4v17.92h-2.94Z"/>
        <path class="cls-1" d="M14.55,17.88c0-.83.14-1.57.43-2.21.29-.64.67-1.17,1.15-1.6.46-.41.98-.72,1.57-.93.59-.21,1.18-.32,1.77-.32s1.19.11,1.77.32c.59.21,1.12.52,1.6.93.46.43.84.96,1.12,1.6.29.64.43,1.38.43,2.21v10.94c0,.87-.14,1.62-.43,2.24-.29.62-.66,1.13-1.12,1.54-.48.43-1.01.75-1.6.96-.59.21-1.18.32-1.77.32s-1.19-.11-1.77-.32-1.11-.53-1.57-.96c-.48-.41-.86-.92-1.15-1.54-.29-.62-.43-1.37-.43-2.24v-10.94ZM17.49,28.82c0,.72.2,1.25.59,1.59.39.34.86.51,1.4.51s1-.17,1.4-.51c.39-.34.59-.87.59-1.59v-10.94c0-.72-.2-1.25-.59-1.59-.39-.34-.86-.51-1.4-.51s-1,.17-1.4.51c-.39.34-.59.87-.59,1.59v10.94Z"/>
        <path class="cls-1" d="M31.03,33.7V12.99h8.76v2.79h-5.82v6.29h5.07v2.79h-5.07v8.85h-2.94Z"/>
        <path class="cls-1" d="M45.72,33.7V12.99h4.72c3.46,0,5.19,2.03,5.19,6.08,0,1.22-.19,2.26-.56,3.11-.37.85-1.03,1.54-1.97,2.07l3.17,9.46h-3.11l-2.74-8.85h-1.76v8.85h-2.94ZM48.66,15.78v6.46h1.67c.52,0,.93-.07,1.24-.22.31-.15.55-.35.72-.63.15-.27.26-.61.32-1,.06-.4.09-.86.09-1.38s-.03-.98-.09-1.38c-.06-.4-.17-.74-.35-1.03-.37-.54-1.06-.81-2.07-.81h-1.53Z"/>
        <path class="cls-1" d="M62.03,33.7V12.99h8.76v2.79h-5.82v6.08h5.07v2.79h-5.07v6.08h5.82v2.97h-8.76Z"/>
        <path class="cls-1" d="M76.72,33.7V12.99h8.76v2.79h-5.82v6.08h5.07v2.79h-5.07v6.08h5.82v2.97h-8.76Z"/>
      </g>
    </g>
  </g>
</svg>