<svg width="61" height="78" viewBox="0 0 61 78" fill="none" xmlns="http://www.w3.org/2000/svg">
<g clip-path="url(#clip0_3189_389)">
<path d="M55.33 23.1102C54.34 19.3102 53 15.8702 51.32 13.6602C51.17 13.4702 51.03 13.2902 50.88 13.1102C51.1 12.9702 51.31 12.8102 51.51 12.6402C53.03 11.3802 54.01 9.48023 54.01 7.35023C54.01 6.59023 53.88 5.85023 53.65 5.17023C53.39 4.40023 53 3.70023 52.51 3.08023C51.25 1.50023 49.32 0.490234 47.15 0.490234C43.36 0.490234 40.29 3.56023 40.29 7.35023C40.29 9.78023 41.56 11.9102 43.46 13.1302C43.09 13.5502 42.75 14.0302 42.41 14.5602C43.11 15.9602 43.51 17.5402 43.51 19.2102C43.51 21.8502 42.52 24.3502 40.78 26.2502C42.82 29.5102 44.36 34.0402 45.44 38.7902H57.39C57.39 34.9102 56.84 29.7802 55.77 25.0002C55.63 24.3602 55.48 23.7302 55.31 23.1002L55.33 23.1102Z" fill="#CCCCCC"/>
<path d="M42.8401 38.7998C41.7301 34.1098 40.1801 29.7698 38.1801 26.9298C37.9101 26.5498 37.6401 26.1898 37.3501 25.8598C37.8101 25.5598 38.2301 25.2098 38.6201 24.8198C40.0601 23.3898 40.9701 21.4098 40.9701 19.2198C40.9701 18.6998 40.9101 18.1898 40.8201 17.6998C40.6201 16.6898 40.2301 15.7398 39.6901 14.9098C38.2801 12.7398 35.8401 11.2998 33.0601 11.2998C28.6801 11.2998 25.1401 14.8398 25.1401 19.2198C25.1401 22.0198 26.6001 24.4798 28.8001 25.8898C28.0201 26.7798 27.3101 27.8998 26.6501 29.1798C26.9701 30.2998 27.1601 31.4798 27.1601 32.6998C27.1601 35.9298 25.9501 38.9798 23.8301 41.2998C26.1601 45.0298 27.9601 50.1198 29.2601 55.5198H44.8901C44.8901 51.4198 44.3601 46.1198 43.3201 41.0098C43.1701 40.2698 43.0101 39.5298 42.8301 38.7998H42.8401Z" fill="#CCCCCC"/>
<path d="M26.05 55.5203C25.04 51.4903 23.75 47.7203 22.19 44.7103C21.56 43.4903 20.88 42.4003 20.16 41.4703C19.98 41.2403 19.8 41.0203 19.62 40.8103C19.89 40.6303 20.15 40.4303 20.41 40.2303C22.62 38.4603 24.04 35.7503 24.04 32.7003C24.04 31.6703 23.88 30.6803 23.58 29.7503C22.33 25.8503 18.69 23.0303 14.37 23.0303C9.03 23.0303 4.7 27.3603 4.7 32.7003C4.7 36.1303 6.49 39.1303 9.17 40.8403C3.12 47.8203 0 66.0003 0 77.0303H28.82C28.82 71.6903 28.09 64.6803 26.65 58.0803C26.46 57.2203 26.26 56.3703 26.05 55.5303V55.5203Z" fill="#CCCCCC"/>
<path d="M36.5399 56.7502L19.1399 74.1502L13.4199 68.4302L30.8199 51.0302L13.4199 33.6202L19.1399 27.9102L36.5399 45.3102L53.9399 27.9102L59.6599 33.6202L42.2599 51.0302L59.6599 68.4302L53.9399 74.1502L36.5399 56.7502Z" fill="#999999"/>
<path d="M53.9402 28.6102L58.9602 33.6302L42.2602 50.3302L41.5602 51.0302L42.2602 51.7302L58.9602 68.4302L53.9402 73.4502L37.2402 56.7502L36.5402 56.0502L35.8402 56.7502L19.1402 73.4502L14.1202 68.4302L30.8202 51.7302L31.5202 51.0302L30.8202 50.3302L14.1202 33.6302L19.1402 28.6102L35.8402 45.3102L36.5402 46.0102L37.2402 45.3102L53.9402 28.6102ZM53.9402 27.2002L36.5402 44.6002L19.1402 27.2002L12.7202 33.6202L30.1202 51.0202L12.7202 68.4202L19.1402 74.8402L36.5402 57.4402L53.9402 74.8402L60.3602 68.4202L42.9602 51.0202L60.3602 33.6202L53.9402 27.2002Z" fill="white"/>
</g>
<defs>
<clipPath id="clip0_3189_389">
<rect width="60.36" height="76.53" fill="white" transform="translate(0 0.5)"/>
</clipPath>
</defs>
</svg>
