<svg width="61" height="77" viewBox="0 0 61 77" fill="none" xmlns="http://www.w3.org/2000/svg">
<g clip-path="url(#clip0_3162_447)">
<path d="M55.33 22.6102C54.34 18.8102 53 15.3702 51.32 13.1602C51.17 12.9702 51.03 12.7902 50.88 12.6102C51.1 12.4702 51.31 12.3102 51.51 12.1402C53.03 10.8802 54.01 8.98023 54.01 6.85023C54.01 6.09023 53.88 5.35023 53.65 4.67023C53.39 3.90023 53 3.20023 52.51 2.58023C51.25 1.00023 49.32 -0.00976562 47.15 -0.00976562C43.36 -0.00976562 40.29 3.06023 40.29 6.85023C40.29 9.28023 41.56 11.4102 43.46 12.6302C43.09 13.0502 42.75 13.5302 42.41 14.0602C43.11 15.4602 43.51 17.0402 43.51 18.7102C43.51 21.3502 42.52 23.8502 40.78 25.7502C42.82 29.0102 44.36 33.5402 45.44 38.2902H57.39C57.39 34.4102 56.84 29.2802 55.77 24.5002C55.63 23.8602 55.48 23.2302 55.31 22.6002L55.33 22.6102Z" fill="#DACDB6"/>
<path d="M42.8401 38.2998C41.7301 33.6098 40.1801 29.2698 38.1801 26.4298C37.9101 26.0498 37.6401 25.6898 37.3501 25.3598C37.8101 25.0598 38.2301 24.7098 38.6201 24.3198C40.0601 22.8898 40.9701 20.9098 40.9701 18.7198C40.9701 18.1998 40.9101 17.6898 40.8201 17.1998C40.6201 16.1898 40.2301 15.2398 39.6901 14.4098C38.2801 12.2398 35.8401 10.7998 33.0601 10.7998C28.6801 10.7998 25.1401 14.3398 25.1401 18.7198C25.1401 21.5198 26.6001 23.9798 28.8001 25.3898C28.0201 26.2798 27.3101 27.3998 26.6501 28.6798C26.9701 29.7998 27.1601 30.9798 27.1601 32.1998C27.1601 35.4298 25.9501 38.4798 23.8301 40.7998C26.1601 44.5298 27.9601 49.6198 29.2601 55.0198H44.8901C44.8901 50.9198 44.3601 45.6198 43.3201 40.5098C43.1701 39.7698 43.0101 39.0298 42.8301 38.2998H42.8401Z" fill="#DACDB6"/>
<path d="M26.05 55.0203C25.04 50.9903 23.75 47.2203 22.19 44.2103C21.56 42.9903 20.88 41.9003 20.16 40.9703C19.98 40.7403 19.8 40.5203 19.62 40.3103C19.89 40.1303 20.15 39.9303 20.41 39.7303C22.62 37.9603 24.04 35.2503 24.04 32.2003C24.04 31.1703 23.88 30.1803 23.58 29.2503C22.33 25.3503 18.69 22.5303 14.37 22.5303C9.03 22.5303 4.7 26.8603 4.7 32.2003C4.7 35.6303 6.49 38.6303 9.17 40.3403C3.12 47.3203 0 65.5003 0 76.5303H28.82C28.82 71.1903 28.09 64.1803 26.65 57.5803C26.46 56.7203 26.26 55.8703 26.05 55.0303V55.0203Z" fill="#DACDB6"/>
<path d="M36.5399 56.2502L19.1399 73.6502L13.4199 67.9302L30.8199 50.5302L13.4199 33.1202L19.1399 27.4102L36.5399 44.8102L53.9399 27.4102L59.6599 33.1202L42.2599 50.5302L59.6599 67.9302L53.9399 73.6502L36.5399 56.2502Z" fill="#C4AE88"/>
<path d="M53.9402 28.1102L58.9602 33.1302L42.2602 49.8302L41.5602 50.5302L42.2602 51.2302L58.9602 67.9302L53.9402 72.9502L37.2402 56.2502L36.5402 55.5502L35.8402 56.2502L19.1402 72.9502L14.1202 67.9302L30.8202 51.2302L31.5202 50.5302L30.8202 49.8302L14.1202 33.1302L19.1402 28.1102L35.8402 44.8102L36.5402 45.5102L37.2402 44.8102L53.9402 28.1102ZM53.9402 26.7002L36.5402 44.1002L19.1402 26.7002L12.7202 33.1202L30.1202 50.5202L12.7202 67.9202L19.1402 74.3402L36.5402 56.9402L53.9402 74.3402L60.3602 67.9202L42.9602 50.5202L60.3602 33.1202L53.9402 26.7002Z" fill="white"/>
</g>
<defs>
<clipPath id="clip0_3162_447">
<rect width="60.36" height="76.53" fill="white"/>
</clipPath>
</defs>
</svg>
