<svg width="76" height="72" viewBox="0 0 76 72" fill="none" xmlns="http://www.w3.org/2000/svg">
<g clip-path="url(#clip0_3162_638)">
<path d="M29.7098 55.5898C29.0898 55.5898 24.0698 61.2298 24.0698 65.8098C24.0698 68.9198 26.5998 71.4498 29.7098 71.4498C32.8198 71.4498 35.3498 68.9198 35.3498 65.8098C35.3498 60.6998 30.3298 55.5898 29.7098 55.5898ZM29.7098 69.5498C28.4598 69.5498 27.4498 68.5398 27.4498 67.2898C27.4498 65.4598 29.4598 63.1998 29.7098 63.1998C29.9598 63.1998 31.9598 65.2398 31.9598 67.2898C31.9598 68.5398 30.9498 69.5498 29.7098 69.5498Z" fill="#999999"/>
<path d="M45.66 55.5898C45.04 55.5898 40.02 61.2298 40.02 65.8098C40.02 68.9198 42.55 71.4498 45.66 71.4498C48.77 71.4498 51.3 68.9198 51.3 65.8098C51.3 60.6998 46.28 55.5898 45.66 55.5898ZM45.66 69.5498C44.41 69.5498 43.4 68.5398 43.4 67.2898C43.4 65.4598 45.41 63.1998 45.66 63.1998C45.91 63.1998 47.91 65.2398 47.91 67.2898C47.91 68.5398 46.9 69.5498 45.66 69.5498Z" fill="#999999"/>
<path d="M64.7398 55.99C64.1498 55.79 57.6098 59.58 56.1798 63.93C55.1998 66.89 56.8098 70.08 59.7598 71.06C62.7198 72.04 65.9098 70.43 66.8898 67.47C68.4898 62.62 65.3398 56.19 64.7398 55.99ZM63.2098 67.81C62.8198 68.99 61.5398 69.63 60.3598 69.24C59.1798 68.85 58.5398 67.57 58.9298 66.39C59.5098 64.65 62.1198 63.14 62.3498 63.22C62.5898 63.3 63.8498 65.87 63.2098 67.81Z" fill="#999999"/>
<path d="M10.6302 55.9903C10.0402 56.1903 6.88018 62.6103 8.48018 67.4703C9.46018 70.4303 12.6502 72.0303 15.6102 71.0603C18.5702 70.0803 20.1702 66.8903 19.1902 63.9303C17.7502 59.5803 11.2202 55.8003 10.6302 55.9903ZM15.0102 69.2403C13.8302 69.6303 12.5502 68.9903 12.1602 67.8103C11.5202 65.8703 12.7802 63.3003 13.0202 63.2203C13.2602 63.1403 15.8702 64.6503 16.4402 66.3903C16.8302 67.5703 16.1902 68.8503 15.0102 69.2403Z" fill="#999999"/>
<path d="M71.51 22.9898H66.02V17.6598C66.02 16.5898 65.8 15.5598 65.41 14.6298C64.82 13.2298 63.83 12.0398 62.59 11.2098C61.35 10.3698 59.84 9.87977 58.23 9.87977H41.1V7.19977H42.14C44.13 7.19977 45.73 5.58977 45.73 3.59977C45.73 1.60977 44.12 0.00976562 42.14 0.00976562H33.21C31.22 0.00976562 29.62 1.61977 29.62 3.59977C29.62 5.57977 31.23 7.19977 33.21 7.19977H34.26V9.87977H17.13C16.06 9.87977 15.03 10.0998 14.1 10.4898C12.7 11.0798 11.52 12.0698 10.68 13.3098C9.84 14.5498 9.35 16.0598 9.35 17.6598V22.9898H3.86C1.73 22.9898 0 24.7198 0 26.8498C0 28.9798 1.73 30.7098 3.86 30.7098C5.75 30.7098 8.34 31.8598 9.35 34.1398V41.5198C9.35 43.4098 9.73 45.2198 10.43 46.8698C11.47 49.3398 13.21 51.4298 15.4 52.9098C17.59 54.3898 20.24 55.2598 23.08 55.2598H52.28C54.17 55.2598 55.98 54.8798 57.63 54.1798C60.1 53.1398 62.19 51.3998 63.67 49.2098C65.15 47.0198 66.02 44.3698 66.02 41.5298V34.1498C67.03 31.8698 69.61 30.7198 71.51 30.7198C73.64 30.7198 75.37 28.9898 75.37 26.8598C75.37 24.7298 73.64 22.9998 71.51 22.9998V22.9898ZM61.02 41.5198C61.02 42.7398 60.78 43.8698 60.33 44.9198C59.67 46.4798 58.56 47.8198 57.16 48.7598C55.76 49.6998 54.1 50.2498 52.28 50.2498H23.08C21.86 50.2498 20.73 50.0098 19.68 49.5698C18.12 48.9098 16.78 47.7998 15.84 46.3998C14.9 44.9998 14.35 43.3398 14.35 41.5198V24.8198H61.01V41.5198H61.02ZM61.02 21.1498H14.35V17.6498C14.35 17.2498 14.43 16.8998 14.57 16.5698C14.78 16.0798 15.14 15.6398 15.58 15.3398C16.03 15.0398 16.54 14.8698 17.14 14.8698H58.24C58.63 14.8698 58.99 14.9498 59.32 15.0898C59.81 15.2998 60.25 15.6598 60.55 16.0998C60.85 16.5498 61.02 17.0598 61.02 17.6498V21.1398V21.1498Z" fill="#999999"/>
</g>
<defs>
<clipPath id="clip0_3162_638">
<rect width="75.37" height="71.45" fill="white"/>
</clipPath>
</defs>
</svg>
