<svg width="80" height="77" viewBox="0 0 80 77" fill="none" xmlns="http://www.w3.org/2000/svg">
<g clip-path="url(#clip0_3162_475)">
<path d="M80.0002 8.94141H68.1172V76.9996H80.0002V8.94141Z" fill="#999999"/>
<path d="M57.7055 26.8536C57.7055 33.2866 55.7297 39.2571 52.3525 44.2045V77.0003H64.2355V26.5312H57.6915C57.6915 26.6434 57.7055 26.7555 57.7055 26.8536Z" fill="#999999"/>
<path d="M36.5879 77.0005H48.4709V48.8438C45.1498 52.1093 41.1001 54.6181 36.5879 56.1177V77.0005Z" fill="#999999"/>
<path d="M20.8232 57.1263V77H32.7062V57.1403C30.8005 57.5047 28.8527 57.715 26.8488 57.715C24.845 57.715 22.771 57.5047 20.8232 57.1123V57.1263Z" fill="#999999"/>
<path d="M53.6977 26.8533C53.6977 12.0531 41.6605 0 26.8488 0C12.0371 0 0 12.0531 0 26.8533C0 41.6534 12.0511 53.7066 26.8488 53.7066C41.6465 53.7066 53.6977 41.6534 53.6977 26.8533ZM25.3635 6.90954V24.0783L11.0843 14.5619C14.4614 10.2312 19.5761 7.34401 25.3635 6.90954ZM6.83833 26.8533C6.83833 23.2794 7.79121 19.9297 9.43072 17.0286L24.6068 27.1476L12.5276 40.7985C9.01033 37.1826 6.83833 32.2772 6.83833 26.8533ZM27.9559 27.8344C28.1941 27.5681 28.3342 27.2177 28.3342 26.8533V6.90954C38.6758 7.68038 46.8593 16.3138 46.8593 26.8533C46.8593 37.3928 37.877 46.8671 26.8488 46.8671C22.2946 46.8671 18.1188 45.3254 14.7556 42.7606L27.9699 27.8344H27.9559Z" fill="#999999"/>
</g>
<defs>
<clipPath id="clip0_3162_475">
<rect width="80" height="77" fill="white"/>
</clipPath>
</defs>
</svg>
