<svg width="89" height="93" viewBox="0 0 89 93" fill="none" xmlns="http://www.w3.org/2000/svg">
<g clip-path="url(#clip0_3162_468)">
<path d="M87.6002 7.48C86.7902 5.64 85.5602 4 83.9102 2.69C81.5802 0.84 78.9202 0 76.3402 0C73.6602 0 71.0802 0.89 68.9702 2.46C67.6202 3.46 66.4802 4.75 65.6302 6.25C64.7902 4.75 63.6402 3.46 62.2902 2.46C60.2002 0.89 57.6102 0 54.9302 0C52.3502 0 49.6902 0.84 47.3702 2.69C45.7202 4 44.4802 5.65 43.6802 7.48C42.8702 9.32 42.4902 11.34 42.4902 13.44C42.4902 17.94 44.2602 22.79 47.5602 27.08C50.4502 30.83 54.1002 34.45 57.3002 37.73C58.9002 39.37 60.3902 40.93 61.6102 42.36C62.8302 43.79 63.7702 45.09 64.2902 46.17C64.4702 46.54 64.7602 46.76 64.9702 46.88C65.0802 46.94 65.1802 46.98 65.2602 47L65.3902 47.03H65.4702C65.4702 47.03 65.5302 47.06 65.6502 47.06C65.7602 47.06 65.7902 47.06 65.8302 47.05C65.9402 47.03 66.0002 47.01 66.0902 46.98C66.2202 46.94 66.3702 46.87 66.5402 46.74C66.7102 46.62 66.8902 46.43 67.0202 46.16C67.5402 45.09 68.4802 43.78 69.7002 42.35C71.5302 40.21 73.9602 37.78 76.4702 35.2C78.9802 32.62 81.5702 29.88 83.7402 27.07C87.0402 22.79 88.8002 17.94 88.8102 13.43C88.8102 11.33 88.4202 9.31 87.6102 7.47L87.6002 7.48Z" fill="#999999"/>
<path d="M12.6402 39.3001C12.6402 39.3001 20.9702 40.9701 31.8102 30.1301C36.8102 36.8001 40.1502 40.1301 40.1502 40.1301V50.1301C43.5002 46.6801 45.5702 41.9801 45.5702 36.7901C45.5702 26.2001 36.9902 17.6201 26.4002 17.6201C15.8102 17.6201 7.22021 26.2101 7.22021 36.8001C7.22021 41.9901 9.29022 46.6901 12.6402 50.1401V39.3001Z" fill="#999999"/>
<path d="M39.25 61.4202C37.9 62.1602 26.39 87.4302 26.39 87.4302C26.39 87.4302 14.88 62.1602 13.53 61.4202C0.58 66.0902 0 76.5602 0 93.0002H52.78C52.78 76.5602 52.2 66.0902 39.24 61.4102L39.25 61.4202Z" fill="#999999"/>
<path d="M20.6499 60.29V67.94L26.3899 65.99L32.1299 67.94V60.29L26.3899 62.24L20.6499 60.29Z" fill="#999999"/>
</g>
<defs>
<clipPath id="clip0_3162_468">
<rect width="88.79" height="93" fill="white"/>
</clipPath>
</defs>
</svg>
