<svg width="51" height="82" viewBox="0 0 51 82" fill="none" xmlns="http://www.w3.org/2000/svg">
<path d="M9.50605 56.5639C7.07247 56.5639 5.09146 54.5991 5.09146 52.1854V10.3004C5.09146 7.88677 7.07247 5.92197 9.50605 5.92197H35.011C37.4446 5.92197 39.4256 7.88677 39.4256 10.3004V38.04H42.9152C43.4769 38.04 44.0188 38.1601 44.5191 38.3688V8.07577C44.5191 3.61461 40.8727 0 36.3767 0H8.14436C3.64839 0 0 3.61461 0 8.07577V61.2967C0 65.7599 3.64839 69.3745 8.14436 69.3745H20.0284V68.2661L14.7881 56.5639H9.50804H9.50605ZM16.4555 1.49821H28.0616C28.7663 1.49821 29.3399 2.06521 29.3399 2.76411C29.3399 3.46301 28.7683 4.03001 28.0616 4.03001H16.4555C15.7488 4.03001 15.1771 3.46301 15.1771 2.76411C15.1771 2.06521 15.7488 1.49821 16.4555 1.49821ZM48.4592 75.0523H25.368C24.7666 75.0523 24.2782 75.5091 24.2782 76.0682V80.9822C24.2782 81.5452 24.7666 82 25.368 82H48.4592C49.0607 82 49.551 81.5452 49.551 80.9822V76.0682C49.551 75.5071 49.0607 75.0523 48.4592 75.0523ZM49.9142 43.2788H45.0034C44.5548 43.2788 44.1737 43.5288 44.003 43.8891V42.009C44.003 41.4479 43.5147 40.9931 42.9132 40.9931H38.0044C37.5558 40.9931 37.1707 41.2431 37.0019 41.6034V40.2312C37.0019 39.6701 36.5136 39.2173 35.9122 39.2173H30.9994C30.5508 39.2173 30.1697 39.4673 30.0009 39.8276V26.515C30.0009 25.9539 29.5126 25.4991 28.9112 25.4991H24.0004C23.3989 25.4991 22.9086 25.9539 22.9086 26.515V48.8326L19.159 40.4616C18.9069 39.9024 18.2122 39.6426 17.6087 39.8788L12.7078 41.8121C12.1064 42.0503 11.8265 42.6961 12.0806 43.2572L22.9999 67.642V71.987C22.9999 72.5481 23.4862 73.0009 24.0917 73.0009H49.9083C50.5097 73.0009 51 72.5481 51 71.987V44.2967C51 43.7356 50.5097 43.2808 49.9083 43.2808L49.9142 43.2788Z" fill="#C4AE89"/>
</svg>
