<svg width="55" height="72" viewBox="0 0 55 72" fill="none" xmlns="http://www.w3.org/2000/svg">
<g clip-path="url(#clip0_3162_592)">
<path d="M50.9121 63.1926H50.5375V58.6822C50.5375 51.7182 47.4457 45.1429 41.8277 40.171L38.457 37.183L38.1542 36.9076L37.7956 36.7133C37.3254 36.4542 37.1581 36.1708 37.1581 36.0088C37.1581 35.8469 37.3254 35.5634 37.7956 35.3043L38.1542 35.11L38.457 34.8347L41.8277 31.8466C47.4457 26.8747 50.5375 20.2913 50.5375 13.3355V8.81698H50.9121C53.1672 8.81698 55 6.95453 55 4.6629C55 2.37127 53.1672 0.508815 50.9121 0.508815H4.08795C1.8328 0.500718 0 2.36317 0 4.6548C0 6.94643 1.8328 8.80888 4.08795 8.80888H4.46247V13.3274C4.46247 20.2913 7.55433 26.8666 13.1723 31.8385L16.543 34.8266L16.8458 35.1019L17.2044 35.2962C17.6746 35.5553 17.8419 35.8388 17.8419 36.0007C17.8419 36.1627 17.6746 36.4461 17.2044 36.7052L16.8458 36.8996L16.543 37.1749L13.1723 40.1629C7.55433 45.1348 4.46247 51.7182 4.46247 58.6741V63.1845H4.08795C1.8328 63.1845 0 65.0469 0 67.3385C0 69.6302 1.8328 71.4926 4.08795 71.4926H50.9121C53.1672 71.4926 55 69.6302 55 67.3385C55 65.0469 53.1672 63.1845 50.9121 63.1845V63.1926ZM8.23167 57.2975C8.27152 56.7387 8.33527 56.1881 8.42292 55.6294C8.44683 55.4998 8.46276 55.3702 8.48667 55.2407C8.59823 54.6172 8.74167 53.9936 8.91698 53.3863C8.93292 53.3377 8.94089 53.2892 8.95682 53.2406C9.55448 51.1838 10.4948 49.216 11.7459 47.3779C11.7618 47.3536 11.7777 47.3293 11.7937 47.305C12.1842 46.7382 12.6065 46.1794 13.0607 45.6369C13.1245 45.5559 13.1882 45.483 13.2599 45.4021C13.6743 44.9162 14.1126 44.4465 14.5748 43.985C14.6943 43.8635 14.8138 43.7501 14.9334 43.6368C15.1565 43.4262 15.3796 43.2076 15.6187 43.0052L18.9894 40.0171C22.4239 38.1142 22.4239 33.8791 18.9894 31.9762L15.6187 28.9882C15.3876 28.7776 15.1565 28.5671 14.9334 28.3566C14.8138 28.2432 14.6943 28.1217 14.5748 28.0084C14.1126 27.5468 13.6743 27.0771 13.2599 26.5913C13.1962 26.5103 13.1245 26.4374 13.0607 26.3564C12.6145 25.8139 12.1921 25.2633 11.7937 24.6883C11.7777 24.664 11.7618 24.6397 11.7459 24.6155C10.4948 22.7773 9.56245 20.8096 8.95682 18.7528C8.94089 18.7042 8.93292 18.6556 8.91698 18.607C8.74167 17.9916 8.59823 17.3762 8.48667 16.7527C8.46276 16.6231 8.43886 16.4935 8.42292 16.364C8.33527 15.8133 8.27152 15.2546 8.23167 14.6959C8.21574 14.4934 8.20777 14.2991 8.1998 14.0966C8.19183 13.8375 8.17589 13.5703 8.17589 13.3112V8.79269H46.8241V13.3112C46.8241 13.5703 46.8161 13.8375 46.8002 14.0966C46.8002 14.2991 46.7843 14.4934 46.7683 14.6959C46.7285 15.2546 46.6647 15.8052 46.5771 16.364C46.5532 16.4935 46.5372 16.6231 46.5133 16.7527C46.4018 17.3762 46.2583 17.9997 46.083 18.607C46.0671 18.6556 46.0591 18.7042 46.0432 18.7528C45.4455 20.8096 44.5052 22.7773 43.2541 24.6155C43.2382 24.6397 43.2223 24.664 43.2063 24.6883C42.8159 25.2552 42.3935 25.8139 41.9393 26.3564C41.8755 26.4374 41.8118 26.5103 41.7401 26.5913C41.3257 27.0771 40.8874 27.5468 40.4252 28.0084C40.3057 28.1298 40.1862 28.2432 40.0667 28.3566C39.8435 28.5671 39.6204 28.7857 39.3813 28.9882L36.0106 31.9762C32.5761 33.8791 32.5761 38.1142 36.0106 40.0171L39.3813 43.0052C39.6124 43.2157 39.8435 43.4262 40.0667 43.6368C40.1862 43.7501 40.3057 43.8716 40.4252 43.985C40.8874 44.4465 41.3257 44.9162 41.7401 45.4021C41.8038 45.483 41.8755 45.5559 41.9393 45.6369C42.3855 46.1794 42.8079 46.7301 43.2063 47.305C43.2223 47.3293 43.2382 47.3536 43.2541 47.3779C44.5052 49.216 45.4376 51.1919 46.0432 53.2406C46.0591 53.2892 46.0671 53.3377 46.083 53.3863C46.2583 54.0017 46.4018 54.6172 46.5133 55.2407C46.5372 55.3702 46.5611 55.4998 46.5771 55.6294C46.6647 56.18 46.7285 56.7387 46.7683 57.2975C46.7843 57.4999 46.7922 57.6943 46.8002 57.8967C46.8082 58.1558 46.8241 58.423 46.8241 58.6822V63.1926H8.17589V58.6822C8.17589 58.423 8.18386 58.1558 8.1998 57.8967C8.20777 57.6943 8.21574 57.4999 8.23167 57.2975Z" fill="#999999"/>
<path d="M42.3696 58.6731C42.3696 53.7821 40.1622 49.1341 36.162 45.5873L33.094 42.8665C30.5121 41.247 28.9901 38.7205 28.9901 35.9916C28.9901 33.2627 30.5121 30.7363 33.094 29.1167L36.162 26.3959C38.3932 24.4201 40.0587 22.1042 41.0946 19.5939C41.1265 19.5291 41.1663 19.4563 41.1902 19.3915H41.1822C41.1822 19.3915 41.1822 19.3753 41.1902 19.3672H13.8336H13.8097C14.8457 21.9665 16.543 24.3634 18.838 26.3878L21.9059 29.1086C24.4878 30.7282 26.0098 33.2546 26.0098 35.9835C26.0098 38.7124 24.4878 41.2389 21.9059 42.8584L18.838 45.5792C14.8377 49.1179 12.6304 53.774 12.6304 58.665V59.4261H42.3616V58.665L42.3696 58.6731Z" fill="#999999"/>
</g>
<defs>
<clipPath id="clip0_3162_592">
<rect width="55" height="71" fill="white" transform="translate(0 0.5)"/>
</clipPath>
</defs>
</svg>
