<svg width="68" height="77" viewBox="0 0 68 77" fill="none" xmlns="http://www.w3.org/2000/svg">
<g clip-path="url(#clip0_3162_631)">
<path d="M66.94 74.5102L61.22 18.7402H5.93L0 76.5602H67.15L66.94 74.5102ZM4.12 72.8402L9.29 22.4602H57.87L63.04 72.8402H4.12Z" fill="#999999"/>
<path d="M19.4699 30.3799C18.1899 30.3799 17.1499 31.4199 17.1499 32.6999C17.1499 33.9799 18.1899 35.0199 19.4699 35.0199C20.7499 35.0199 21.7899 33.9799 21.7899 32.6999C21.7899 31.4199 20.7499 30.3799 19.4699 30.3799Z" fill="#999999"/>
<path d="M47.6799 30.3799C46.3999 30.3799 45.3599 31.4199 45.3599 32.6999C45.3599 33.9799 46.3999 35.0199 47.6799 35.0199C48.9599 35.0199 49.9999 33.9799 49.9999 32.6999C49.9999 31.4199 48.9599 30.3799 47.6799 30.3799Z" fill="#999999"/>
<path d="M24.81 7.35C27.06 5.1 30.15 3.72 33.58 3.72C37.01 3.72 40.1 5.1 42.35 7.35C44.6 9.6 45.98 12.69 45.98 16.12H49.7C49.69 7.22 42.48 0 33.58 0C24.68 0 17.46 7.22 17.46 16.12H21.18C21.18 12.69 22.57 9.6 24.81 7.35Z" fill="#999999"/>
</g>
<defs>
<clipPath id="clip0_3162_631">
<rect width="67.15" height="76.56" fill="white"/>
</clipPath>
</defs>
</svg>
