<svg width="92" height="78" viewBox="0 0 92 78" fill="none" xmlns="http://www.w3.org/2000/svg">
<g clip-path="url(#clip0_3162_554)">
<path d="M78.1976 34.728H14.4551V0H78.1824V34.728H78.1976ZM16.3531 32.8106H76.2844V1.9174H16.3531V32.7953V32.8106Z" fill="#999999"/>
<path d="M0 72.2629H21.2576C21.7132 68.5815 22.5786 65.2375 23.8085 62.5225H0V72.2629Z" fill="#999999"/>
<path d="M46.0226 62.5225C44.9142 63.5655 43.745 64.4552 42.5303 65.2222C43.2287 67.3543 43.7146 69.7472 44.0183 72.2782H91.9846V62.5378H46.0074L46.0226 62.5225Z" fill="#999999"/>
<path d="M70.9703 59.9457C70.9703 52.0154 68.9356 45.2047 66.0051 42.1522C68.8142 40.8331 70.7729 37.98 70.7729 34.6513C70.7729 30.0803 67.0984 26.3682 62.5735 26.3682C58.0487 26.3682 54.3742 30.0803 54.3742 34.6513C54.3742 37.98 56.3329 40.8331 59.1419 42.1522C56.2114 45.2047 54.1768 52.0154 54.1768 59.9457H70.9703Z" fill="#999999"/>
<path d="M38.3094 63.6269C38.9927 63.3354 39.7064 62.9673 40.4504 62.5225C44.2767 60.2522 48.5283 55.8959 48.8623 49.0239C48.9231 47.7815 47.9665 46.723 46.7366 46.6617C46.5392 46.6617 46.3721 46.7077 46.1899 46.7384C46.0685 46.7691 45.947 46.7691 45.8255 46.8151C45.6737 46.8764 45.537 46.9838 45.4004 47.0759C45.3093 47.1372 45.203 47.1832 45.1119 47.2599C44.9752 47.3826 44.8841 47.5514 44.7778 47.7048C44.7171 47.7815 44.6563 47.8582 44.6108 47.9502C44.4893 48.211 44.4134 48.5024 44.3982 48.8092C44.1553 53.8711 41.1185 56.7856 38.6435 58.3502C40.01 56.8623 40.8452 54.8989 40.8452 52.7207C40.8452 48.1496 37.1706 44.4375 32.6458 44.4375C28.1209 44.4375 24.4464 48.1496 24.4464 52.7207C24.4464 56.0493 26.4052 58.9177 29.199 60.2369C28.6068 60.8505 28.0754 61.6481 27.5743 62.5378C26.1926 64.9767 25.1297 68.3514 24.6134 72.2782C24.3705 74.0882 24.249 76.021 24.249 78.0151H41.0426C41.0426 76.0056 40.9059 74.0882 40.663 72.2782C40.2226 68.9189 39.3875 65.9431 38.3094 63.6269Z" fill="#999999"/>
</g>
<defs>
<clipPath id="clip0_3162_554">
<rect width="92" height="78" fill="white"/>
</clipPath>
</defs>
</svg>
