<svg width="102" height="70" viewBox="0 0 102 70" fill="none" xmlns="http://www.w3.org/2000/svg">
<g clip-path="url(#clip0_3162_527)">
<path d="M71.4501 63.2803C72.1501 63.2803 72.8401 63.6203 73.4501 64.3703C73.7401 64.7203 73.9801 65.1703 74.1601 65.6703H43.6401C43.8201 65.1603 44.0701 64.7203 44.3501 64.3703C44.9601 63.6203 45.6501 63.2803 46.3501 63.2803H71.4501Z" fill="#999999"/>
<path d="M62.1799 57.2402H55.6099V59.5902H62.1799V57.2402Z" fill="#999999"/>
<path d="M101.91 5.65C101.91 2.54 99.3798 0.01 96.2698 0H61.0198C57.9098 0 55.3798 2.53 55.3698 5.65V12.68H35.3998C30.9298 12.68 27.3098 16.31 27.2998 20.78V49.15C27.2998 53.62 30.9298 57.24 35.3998 57.25H51.9298V59.6H46.3498C42.3098 59.68 39.6598 63.43 39.6498 67.51V69.35H78.1498V67.51C78.1498 63.43 75.4898 59.68 71.4498 59.6H65.8698V57.25H82.3998C86.8698 57.25 90.4898 53.62 90.4998 49.15V33.23H96.2698C99.3798 33.23 101.91 30.7 101.92 27.58V5.65H101.91ZM86.8098 49.14C86.8098 51.56 84.8098 53.55 82.3898 53.56H35.3998C32.9798 53.56 30.9898 51.56 30.9798 49.14V20.77C30.9798 18.35 32.9798 16.36 35.3998 16.35H55.3698V18.6H33.1898V51.31H84.5998V33.22H86.8098V49.14Z" fill="#999999"/>
<path d="M98.9601 27.5702C98.9601 29.0502 97.7401 30.2702 96.2601 30.2702H71.0401L62.6201 37.8502L64.4701 32.5102C64.4701 32.5102 64.5201 32.4202 64.5601 32.3102L65.4201 30.2702H61.0101C59.5301 30.2702 58.3101 29.0502 58.3101 27.5702V5.6502C58.3101 4.1702 59.5301 2.9502 61.0101 2.9502H96.2601C97.7401 2.9502 98.9601 4.1702 98.9601 5.6502V27.5802V27.5702Z" fill="white"/>
<path d="M95.2001 7.33008H62.3201C61.5101 7.33008 60.8501 7.99008 60.8501 8.80008C60.8501 9.61008 61.5101 10.2701 62.3201 10.2701H95.2001C96.0101 10.2701 96.6701 9.61008 96.6701 8.80008C96.6701 7.99008 96.0101 7.33008 95.2001 7.33008Z" fill="#999999"/>
<path d="M95.2001 22.54H62.3201C61.5101 22.54 60.8501 23.2 60.8501 24.01C60.8501 24.82 61.5101 25.48 62.3201 25.48H95.2001C96.0101 25.48 96.6701 24.82 96.6701 24.01C96.6701 23.2 96.0101 22.54 95.2001 22.54Z" fill="#999999"/>
<path d="M95.2001 14.9297H62.3201C61.5101 14.9297 60.8501 15.5897 60.8501 16.3997C60.8501 17.2097 61.5101 17.8697 62.3201 17.8697H95.2001C96.0101 17.8697 96.6701 17.2097 96.6701 16.3997C96.6701 15.5897 96.0101 14.9297 95.2001 14.9297Z" fill="#999999"/>
<path d="M44.5801 38.8803H39.8701L39.5801 45.7203L29.5701 38.8803H1.87012V10.0303H44.5801V38.8803Z" fill="white"/>
<path d="M46.33 49.9504L46.54 13.2604C46.54 10.1504 44.01 7.62035 40.89 7.61035H5.65C2.53 7.62035 0 10.1404 0 13.2604V35.1903C0 38.3004 2.53 40.8304 5.64 40.8404L29.27 40.9104M15.1 40.8304H17.31H15.1ZM46.54 26.2204V23.9704V26.2204ZM2.94 13.2604C2.94 11.7804 4.16 10.5604 5.64 10.5604H40.89C42.37 10.5604 43.59 11.7804 43.59 13.2604V35.1903C43.59 36.6703 42.37 37.8904 40.89 37.8904H36.48L37.34 39.9304C37.39 40.0303 37.42 40.1004 37.43 40.1304L39.28 45.4704L30.86 37.8904H5.65C4.17 37.8904 2.95 36.6703 2.95 35.1903V13.2604H2.94ZM5.24 16.4104C5.24 17.2204 5.9 17.8804 6.71 17.8804H39.59C40.4 17.8804 41.06 17.2204 41.06 16.4104C41.06 15.5904 40.4 14.9404 39.59 14.9404H6.71C5.9 14.9404 5.24 15.6004 5.24 16.4104ZM5.24 31.6204C5.24 32.4304 5.9 33.0904 6.71 33.0904H39.59C40.4 33.0904 41.06 32.4304 41.06 31.6204C41.06 30.8104 40.4 30.1504 39.59 30.1504H6.71C5.9 30.1504 5.24 30.8104 5.24 31.6204ZM5.24 24.0104C5.24 24.8204 5.9 25.4804 6.71 25.4804H39.59C40.4 25.4804 41.06 24.8204 41.06 24.0104C41.06 23.2004 40.4 22.5404 39.59 22.5404H6.71C5.9 22.5404 5.24 23.2004 5.24 24.0104Z" fill="#999999"/>
</g>
<defs>
<clipPath id="clip0_3162_527">
<rect width="101.91" height="69.35" fill="white"/>
</clipPath>
</defs>
</svg>
