<svg width="73" height="78" viewBox="0 0 73 78" fill="none" xmlns="http://www.w3.org/2000/svg">
<g clip-path="url(#clip0_3162_393)">
<path d="M57.2978 4.93274L43.9012 7.01798L42.954 3.54994L0 15.2822L15.6126 72.4427L24.6035 69.987L66.5007 63.4629L57.3023 4.93149L57.2978 4.93274ZM3.12216 17.0773L41.1778 6.6829L55.4444 58.9153L24.0587 67.4879L23.3552 67.5959L23.3674 67.6767L17.3887 69.3097L3.12216 17.0773ZM46.623 63.9726L58.5666 60.7104L44.578 9.4958L55.186 7.84558L63.5906 61.3277L46.623 63.9726Z" fill="#C4AE88"/>
<path d="M13.7583 41.4471L21.9709 39.2039L19.7141 30.9414L11.5015 33.1846L13.7583 41.4471ZM14.6236 34.9796L17.938 34.0744L18.8488 37.4088L15.5344 38.3141L14.6236 34.9796Z" fill="#C4AE88"/>
<path d="M41.7835 28.2794L24.0215 33.1309L24.6945 35.5949L42.4566 30.7434L41.7835 28.2794Z" fill="#C4AE88"/>
<path d="M16.8833 52.8875L25.0959 50.6443L22.8391 42.3818L14.6265 44.625L16.8833 52.8875ZM17.7486 46.4201L21.063 45.5148L21.9738 48.8493L18.6594 49.7545L17.7486 46.4201Z" fill="#C4AE88"/>
<path d="M44.9095 39.7247L27.1475 44.5762L27.8205 47.0402L45.5825 42.1887L44.9095 39.7247Z" fill="#C4AE88"/>
<path d="M20.0078 64.3279L28.2204 62.0848L25.9636 53.8223L17.751 56.0654L20.0078 64.3279ZM20.8731 57.8605L24.1875 56.9552L25.0983 60.2897L21.7839 61.195L20.8731 57.8605Z" fill="#C4AE88"/>
<path d="M48.034 51.1642L30.272 56.0156L30.945 58.4796L48.707 53.6282L48.034 51.1642Z" fill="#C4AE88"/>
<path d="M10.8253 25.1435C10.5867 24.0357 10.2831 22.7081 10.0003 21.5827L10.0323 21.5739C10.534 22.6 11.1357 23.7224 11.6925 24.6443L13.6299 27.9013L14.9117 27.5512L15.0101 23.6788C15.0372 22.6073 15.0369 21.3453 14.9993 20.2172L15.0359 20.2072C15.3266 21.3256 15.7132 22.5068 16.0798 23.6687L17.1797 27.0653L18.7911 26.6252L15.871 17.9153L13.7881 18.4843L13.7029 22.0809C13.6947 23.2214 13.7256 24.3612 13.7901 25.4077L13.758 25.4164C13.2844 24.457 12.7496 23.4895 12.1739 22.4985L10.3181 19.432L8.22598 20.0035L10.0474 29.0134L11.5901 28.5921L10.8286 25.1376L10.8253 25.1435Z" fill="#C4AE88"/>
<path d="M24.8011 23.4498L21.5783 24.3301L20.9065 21.8707L23.7769 21.0867L23.3957 19.6912L20.5254 20.4752L19.9417 18.3382L22.9814 17.5079L22.5914 16.0802L17.8579 17.373L20.2745 26.2205L25.1911 24.8776L24.8011 23.4498Z" fill="#C4AE88"/>
<path d="M27.2837 21.3909C26.8535 19.8158 26.4818 18.581 26.1137 17.5036L26.1595 17.4911C26.7899 18.3583 27.6008 19.3098 28.3214 20.0929L31.2075 23.2392L32.9013 22.7766L30.4835 13.9246L28.9499 14.3434L29.6758 17.0009C30.0683 18.4378 30.4575 19.6827 30.871 20.7823L30.8481 20.7885C30.2394 19.9649 29.454 19.0164 28.7455 18.2597L25.9102 15.1737L24.0791 15.6738L26.4957 24.5212L28.0292 24.1024L27.287 21.385L27.2837 21.3909Z" fill="#C4AE88"/>
<path d="M37.733 21.5909C39.7243 21.047 40.617 19.5065 39.9088 16.9135L38.4911 11.723L36.7973 12.1856L38.259 17.5374C38.6893 19.1125 38.3106 19.9237 37.3951 20.1737C36.4795 20.4238 35.759 19.8931 35.3338 18.3364L33.872 12.9846L32.1782 13.4473L33.5997 18.6516C34.3105 21.2538 35.7553 22.1311 37.733 21.5909Z" fill="#C4AE88"/>
</g>
<defs>
<clipPath id="clip0_3162_393">
<rect width="58" height="64" fill="white" transform="translate(0 15.2822) rotate(-15.2769)"/>
</clipPath>
</defs>
</svg>
