<svg width="69" height="79" viewBox="0 0 69 79" fill="none" xmlns="http://www.w3.org/2000/svg">
<path d="M67.7528 22.5153H49.1305V1.2547C49.1305 0.560858 48.573 0 47.8833 0H36.5893C35.8995 0 35.342 0.560858 35.342 1.2547V22.5153H30.7267V1.2547C30.7267 0.560858 30.1692 0 29.4795 0H18.1854C17.4957 0 16.9382 0.560858 16.9382 1.2547V22.5153H1.24723C0.557518 22.5153 0 23.0761 0 23.77C0 25.1114 0.839151 26.6379 10.84 27.8405C13.7023 28.1874 17.0072 28.4534 20.5764 28.65C19.5648 30.1129 19.3522 32.1597 19.4614 33.4838V37.4503H14.6334C13.9437 37.4503 13.3862 38.0111 13.3862 38.705V46.2794C13.3862 46.8634 13.7885 47.3722 14.3518 47.4995L16.3462 47.9562C15.6335 54.9814 14.0299 58.0285 12.6217 59.3237C10.725 61.0757 6.78217 61.4399 1.59209 61.2434V78.9422C2.37376 78.9653 3.14969 78.9884 3.91987 78.9884C11.5182 78.9884 18.7429 77.6528 24.4963 72.3449C29.3703 67.8465 32.29 61.3359 33.5545 51.9169L34.4339 52.1193C34.5259 52.1424 34.6236 52.154 34.7098 52.154C34.9914 52.154 35.2673 52.0615 35.4857 51.8822C35.7846 51.6452 35.957 51.2867 35.957 50.8993V38.6992C35.957 38.0053 35.3995 37.4445 34.7098 37.4445H32.7958V35.6174C40.3942 35.1779 46.4809 32.9345 50.895 28.9565C51.0445 28.8235 51.1422 28.65 51.2112 28.4708C53.7114 28.2973 56.0564 28.0834 58.16 27.8347C68.1609 26.6321 69 25.0998 69 23.7642C69 23.0703 68.4425 22.5095 67.7528 22.5095V22.5153ZM31.5084 33.1716C30.8359 33.1947 30.3014 33.7498 30.3014 34.4263V37.4503H21.9501V33.3855C21.9501 33.3508 21.7374 29.9105 23.4617 29.4653L46.2567 29.3034C42.3771 31.674 37.4342 32.975 31.5084 33.1658V33.1716ZM33.4626 49.3324L16.5416 45.4353L15.8749 45.2791V39.9597H33.4626V49.3324ZM19.4327 9.66179H28.2322V22.3013H19.4327V9.66179ZM19.4327 2.50941H28.2322V7.15238H19.4327V2.50941ZM37.8365 9.66179H46.6361V22.3013H37.8365V9.66179ZM37.8365 2.50941H46.6361V7.15238H37.8365V2.50941Z" fill="#999999"/>
</svg>
