<svg width="314" height="334" viewBox="0 0 314 334" fill="none" xmlns="http://www.w3.org/2000/svg">
<g clip-path="url(#clip0_3059_1155)">
<path d="M154.79 290.291C221.108 290.291 274.87 236.529 274.87 170.211C274.87 103.893 221.108 50.1309 154.79 50.1309C88.4716 50.1309 34.71 103.893 34.71 170.211C34.71 236.529 88.4716 290.291 154.79 290.291Z" fill="#9E8963"/>
<path d="M117.42 317.36C117.3 317.36 117.18 317.34 117.06 317.31C49 299.29 1.45996 237.48 1.45996 167C1.45996 131.87 13.57 97.3803 35.55 69.8904C57.22 42.7904 87.6 23.5704 121.22 15.6604L119.93 3.93035C119.88 3.43035 120.09 2.93035 120.5 2.63035C120.75 2.45035 121.04 2.36035 121.34 2.36035C121.53 2.36035 121.73 2.40035 121.91 2.48035L157.58 18.1404C158.04 18.3404 158.36 18.7804 158.42 19.2804C158.47 19.7804 158.26 20.2804 157.85 20.5804L126.45 43.6304C126.2 43.8104 125.91 43.9004 125.61 43.9004C125.42 43.9004 125.22 43.8604 125.04 43.7804C124.58 43.5804 124.26 43.1404 124.2 42.6404L122.98 31.5304C60.67 47.0804 17.32 102.55 17.32 167C17.32 231.45 60.01 285.8 121.13 301.99C121.49 302.09 121.8 302.32 121.99 302.65C122.18 302.98 122.23 303.36 122.13 303.73L118.79 316.31C118.62 316.94 118.05 317.36 117.42 317.36Z" fill="#999999"/>
<path d="M121.33 3.77043L157 19.4304L125.6 42.4804L124.2 29.7704C61.08 44.7704 15.9 101.51 15.9 167C15.9 232.49 59.02 287.01 120.76 303.36L117.42 315.95C49.98 298.08 2.87004 236.83 2.87004 167C2.87004 97.1704 52.99 32.5604 122.76 16.7504L121.33 3.77043ZM121.33 0.94043C120.74 0.94043 120.15 1.13043 119.65 1.49043C118.83 2.09043 118.4 3.08043 118.51 4.09043L119.67 14.5704C86.23 22.7304 56.04 41.9904 34.44 69.0104C12.26 96.7504 0.0400391 131.55 0.0400391 167C0.0400391 238.12 48.01 300.49 116.7 318.69C116.94 318.75 117.19 318.79 117.43 318.79C118.68 318.79 119.83 317.95 120.17 316.68L123.51 304.09C123.7 303.36 123.6 302.59 123.22 301.94C122.84 301.29 122.22 300.82 121.49 300.62C60.99 284.6 18.74 229.65 18.74 167C18.74 104.35 60.92 49.2304 121.73 33.3104L122.78 42.8004C122.89 43.8104 123.53 44.6804 124.46 45.0804C124.83 45.2404 125.21 45.3204 125.6 45.3204C126.19 45.3204 126.78 45.1304 127.28 44.7704L158.68 21.7204C159.5 21.1204 159.93 20.1304 159.82 19.1204C159.71 18.1104 159.07 17.2404 158.14 16.8304L122.47 1.18043C122.1 1.02043 121.72 0.94043 121.33 0.94043Z" fill="white"/>
<path d="M192.67 331.64C192.48 331.64 192.28 331.6 192.1 331.52L156.43 315.86C155.97 315.66 155.65 315.22 155.59 314.72C155.54 314.22 155.75 313.72 156.16 313.42L187.56 290.37C187.81 290.19 188.1 290.1 188.4 290.1C188.59 290.1 188.79 290.14 188.97 290.22C189.43 290.42 189.75 290.86 189.81 291.36L191.03 302.47C253.32 286.93 296.68 231.46 296.68 167C296.68 102.54 253.58 47.6104 191.88 31.7504C191.52 31.6604 191.2 31.4204 191.01 31.1004C190.82 30.7804 190.76 30.3904 190.86 30.0304L194.1 17.4204C194.27 16.7804 194.84 16.3604 195.47 16.3604C195.59 16.3604 195.71 16.3704 195.82 16.4004C264.54 34.0604 312.53 95.9903 312.53 167C312.53 202.13 300.42 236.62 278.44 264.11C256.77 291.21 226.39 310.43 192.77 318.34L194.06 330.07C194.11 330.57 193.9 331.07 193.49 331.37C193.24 331.55 192.95 331.64 192.65 331.64H192.67Z" fill="#C7B18A"/>
<path d="M195.48 17.7707C263.57 35.2707 311.13 96.6307 311.13 167.001C311.13 237.371 261.02 301.441 191.25 317.251L192.68 330.231L157.01 314.571L188.41 291.521L189.81 304.231C252.93 289.231 298.11 232.501 298.11 167.011C298.11 101.521 254.56 46.4007 192.23 30.3807L195.47 17.7707M195.47 14.9307C194.21 14.9307 193.06 15.7807 192.73 17.0607L189.49 29.6707C189.3 30.4007 189.41 31.1707 189.8 31.8207C190.19 32.4707 190.81 32.9407 191.53 33.1207C252.61 48.8107 295.26 103.871 295.26 167.001C295.26 230.131 253.07 284.771 192.26 300.691L191.21 291.201C191.1 290.191 190.46 289.321 189.53 288.921C189.16 288.761 188.78 288.681 188.39 288.681C187.8 288.681 187.21 288.871 186.71 289.231L155.31 312.281C154.49 312.881 154.06 313.871 154.17 314.881C154.28 315.891 154.92 316.761 155.85 317.171L191.52 332.831C191.89 332.991 192.27 333.071 192.66 333.071C193.25 333.071 193.84 332.881 194.34 332.521C195.16 331.921 195.59 330.931 195.48 329.921L194.32 319.441C227.76 311.281 257.95 292.021 279.55 265.001C301.73 237.261 313.95 202.461 313.95 167.001C313.95 95.3407 265.52 32.8407 196.18 15.0207C195.94 14.9607 195.71 14.9307 195.47 14.9307Z" fill="white"/>
<path d="M166.59 169.66L166.23 182.68L161.6 178.17C158.01 182.8 154.11 187.16 149.95 191.19C149.81 191.33 149.67 191.47 149.53 191.6L149.1 192L148.24 192.8L147.38 193.6L146.95 194L146.51 194.39L144.74 195.93C144.59 196.06 144.45 196.19 144.3 196.31L143.85 196.68L142.94 197.42C141.75 198.43 140.5 199.36 139.27 200.32C138.65 200.79 138.02 201.24 137.39 201.7C137.08 201.93 136.77 202.16 136.45 202.38L135.49 203.04L134.53 203.7L134.05 204.03L133.56 204.35L131.62 205.62L129.65 206.83L129.16 207.13L128.66 207.42L127.66 208C124.99 209.54 122.27 210.96 119.5 212.26C116.73 213.56 113.92 214.73 111.06 215.77C109.63 216.28 108.19 216.77 106.74 217.2C105.29 217.63 103.83 218.03 102.36 218.34L102.34 218.26C103.72 217.68 105.07 217.02 106.4 216.33C107.73 215.64 109.02 214.9 110.31 214.15C112.87 212.62 115.35 210.99 117.74 209.25C120.13 207.51 122.44 205.67 124.66 203.76L125.49 203.04L125.9 202.68L126.31 202.31L127.93 200.83L129.51 199.31L129.9 198.93L130.28 198.54L131.05 197.76L131.82 196.98C132.07 196.72 132.32 196.45 132.57 196.18C133.06 195.65 133.56 195.12 134.05 194.58C135.01 193.49 135.98 192.42 136.89 191.29L137.58 190.46L137.93 190.04C138.04 189.9 138.15 189.76 138.26 189.61L139.59 187.91L139.92 187.48L140.24 187.04L140.88 186.17L141.52 185.3L141.84 184.87C141.94 184.72 142.04 184.57 142.15 184.43C145.14 180.16 147.81 175.7 150.15 171.11L144.05 169.02L155.5 162.82L166.95 156.62L166.59 169.64V169.66Z" fill="white"/>
<path d="M195.15 166.801H180.21V244.761H195.15V166.801Z" fill="white"/>
<path d="M175.68 191.96H160.74V244.75H175.68V191.96Z" fill="white"/>
<path d="M156.22 213.65H141.28V244.75H156.22V213.65Z" fill="white"/>
<path d="M136.75 227.36H121.81V244.76H136.75V227.36Z" fill="white"/>
<path d="M117.28 237.28H102.34V244.75H117.28V237.28Z" fill="white"/>
<path d="M71.566 115.44H95.461V118.41H71.566V115.44ZM74.158 120.165H93.004V122.973H74.158V120.165ZM71.917 124.323H95.11V130.128H91.843V127.239H75.049V130.128H71.917V124.323ZM81.691 113.334H85.066V121.731H81.691V113.334ZM84.931 128.076H88.171V134.448C88.171 134.862 88.234 135.132 88.36 135.258C88.504 135.366 88.819 135.42 89.305 135.42C89.413 135.42 89.584 135.42 89.818 135.42C90.07 135.42 90.34 135.42 90.628 135.42C90.934 135.42 91.213 135.42 91.465 135.42C91.717 135.42 91.906 135.42 92.032 135.42C92.338 135.42 92.563 135.348 92.707 135.204C92.869 135.042 92.977 134.736 93.031 134.286C93.103 133.818 93.157 133.125 93.193 132.207C93.409 132.369 93.688 132.531 94.03 132.693C94.39 132.855 94.75 132.999 95.11 133.125C95.488 133.233 95.821 133.332 96.109 133.422C96.001 134.718 95.812 135.717 95.542 136.419C95.272 137.139 94.885 137.634 94.381 137.904C93.877 138.192 93.193 138.336 92.329 138.336C92.167 138.336 91.924 138.336 91.6 138.336C91.294 138.336 90.952 138.336 90.574 138.336C90.214 138.336 89.872 138.336 89.548 138.336C89.242 138.336 89.008 138.336 88.846 138.336C87.802 138.336 86.992 138.219 86.416 137.985C85.858 137.751 85.471 137.346 85.255 136.77C85.039 136.212 84.931 135.447 84.931 134.475V128.076ZM78.262 128.076H81.61C81.52 129.426 81.34 130.659 81.07 131.775C80.8 132.891 80.35 133.89 79.72 134.772C79.108 135.654 78.226 136.419 77.074 137.067C75.94 137.733 74.446 138.291 72.592 138.741C72.502 138.453 72.358 138.138 72.16 137.796C71.962 137.454 71.737 137.112 71.485 136.77C71.251 136.446 71.026 136.167 70.81 135.933C72.43 135.627 73.717 135.24 74.671 134.772C75.625 134.304 76.345 133.746 76.831 133.098C77.317 132.45 77.65 131.712 77.83 130.884C78.028 130.056 78.172 129.12 78.262 128.076ZM109.717 121.407H120.949V124.674H109.717V121.407ZM98.161 134.043H122.866V137.31H98.161V134.043ZM107.881 113.631H111.364V135.852H107.881V113.631ZM134.152 136.608C132.91 136.608 131.812 136.437 130.858 136.095C129.904 135.735 129.085 135.177 128.401 134.421C127.735 133.665 127.231 132.693 126.889 131.505C126.547 130.317 126.376 128.895 126.376 127.239V116.223H130.345V127.59C130.345 128.976 130.498 130.074 130.804 130.884C131.11 131.694 131.542 132.279 132.1 132.639C132.676 132.981 133.36 133.152 134.152 133.152C134.944 133.152 135.628 132.981 136.204 132.639C136.78 132.279 137.221 131.694 137.527 130.884C137.851 130.074 138.013 128.976 138.013 127.59V116.223H141.847V127.239C141.847 128.895 141.676 130.317 141.334 131.505C140.992 132.693 140.488 133.665 139.822 134.421C139.156 135.177 138.346 135.735 137.392 136.095C136.438 136.437 135.358 136.608 134.152 136.608ZM146.654 136.23V116.223H153.215C154.691 116.223 156.014 116.421 157.184 116.817C158.372 117.213 159.308 117.87 159.992 118.788C160.694 119.688 161.045 120.93 161.045 122.514C161.045 124.026 160.694 125.277 159.992 126.267C159.308 127.239 158.381 127.959 157.211 128.427C156.059 128.895 154.763 129.129 153.323 129.129H150.65V136.23H146.654ZM150.65 125.97H153.053C154.421 125.97 155.438 125.682 156.104 125.106C156.788 124.53 157.13 123.666 157.13 122.514C157.13 121.362 156.77 120.561 156.05 120.111C155.348 119.643 154.304 119.409 152.918 119.409H150.65V125.97ZM171.166 122.25C171.779 122.33 172.466 122.39 173.226 122.43C173.999 122.457 174.779 122.47 175.566 122.47C176.366 122.457 177.133 122.43 177.866 122.39C178.599 122.337 179.233 122.284 179.766 122.23V124.81C179.153 124.864 178.479 124.91 177.746 124.95C177.013 124.977 176.259 124.99 175.486 124.99C174.713 124.99 173.953 124.977 173.206 124.95C172.473 124.91 171.793 124.864 171.166 124.81V122.25ZM172.766 130.79C172.686 131.124 172.626 131.424 172.586 131.69C172.546 131.944 172.526 132.204 172.526 132.47C172.526 132.684 172.579 132.884 172.686 133.07C172.793 133.244 172.953 133.397 173.166 133.53C173.393 133.65 173.679 133.744 174.026 133.81C174.386 133.864 174.819 133.89 175.326 133.89C176.219 133.89 177.059 133.85 177.846 133.77C178.633 133.677 179.466 133.544 180.346 133.37L180.386 136.07C179.746 136.19 179.006 136.284 178.166 136.35C177.339 136.417 176.359 136.45 175.226 136.45C173.506 136.45 172.226 136.164 171.386 135.59C170.546 135.004 170.126 134.197 170.126 133.17C170.126 132.784 170.153 132.384 170.206 131.97C170.273 131.544 170.359 131.077 170.466 130.57L172.766 130.79ZM168.086 120.91C168.033 121.044 167.973 121.23 167.906 121.47C167.839 121.71 167.773 121.944 167.706 122.17C167.653 122.397 167.613 122.57 167.586 122.69C167.546 122.97 167.479 123.337 167.386 123.79C167.306 124.23 167.219 124.73 167.126 125.29C167.046 125.837 166.966 126.397 166.886 126.97C166.806 127.544 166.739 128.097 166.686 128.63C166.646 129.164 166.626 129.63 166.626 130.03C166.626 130.217 166.626 130.43 166.626 130.67C166.639 130.91 166.666 131.13 166.706 131.33C166.799 131.104 166.899 130.877 167.006 130.65C167.113 130.424 167.219 130.197 167.326 129.97C167.433 129.73 167.526 129.504 167.606 129.29L168.846 130.27C168.659 130.817 168.466 131.404 168.266 132.03C168.079 132.657 167.906 133.25 167.746 133.81C167.599 134.357 167.486 134.81 167.406 135.17C167.379 135.317 167.353 135.484 167.326 135.67C167.313 135.857 167.306 136.004 167.306 136.11C167.306 136.217 167.306 136.344 167.306 136.49C167.319 136.65 167.333 136.797 167.346 136.93L165.026 137.09C164.826 136.397 164.646 135.477 164.486 134.33C164.326 133.17 164.246 131.91 164.246 130.55C164.246 129.804 164.279 129.044 164.346 128.27C164.413 127.497 164.493 126.757 164.586 126.05C164.679 125.33 164.766 124.677 164.846 124.09C164.939 123.504 165.019 123.017 165.086 122.63C165.113 122.35 165.146 122.037 165.186 121.69C165.239 121.33 165.273 120.99 165.286 120.67L168.086 120.91ZM186.256 114.441H205.372V116.952H186.256V114.441ZM183.853 118.545H207.667V121.056H183.853V118.545ZM194.005 115.062H197.353V119.841H194.005V115.062ZM189.901 127.509V128.805H201.457V127.509H189.901ZM189.901 130.749V132.045H201.457V130.749H189.901ZM189.901 124.296V125.565H201.457V124.296H189.901ZM186.607 122.217H204.886V134.151H186.607V122.217ZM197.218 135.393L199.837 133.827C200.809 134.169 201.799 134.547 202.807 134.961C203.815 135.357 204.769 135.753 205.669 136.149C206.587 136.545 207.379 136.896 208.045 137.202L204.427 138.714C203.905 138.408 203.257 138.057 202.483 137.661C201.709 137.283 200.872 136.896 199.972 136.5C199.072 136.104 198.154 135.735 197.218 135.393ZM191.251 133.746L194.194 135.069C193.474 135.555 192.628 136.032 191.656 136.5C190.684 136.968 189.676 137.391 188.632 137.769C187.606 138.147 186.634 138.471 185.716 138.741C185.536 138.525 185.302 138.264 185.014 137.958C184.726 137.652 184.429 137.355 184.123 137.067C183.835 136.779 183.574 136.545 183.34 136.365C184.294 136.167 185.257 135.942 186.229 135.69C187.219 135.42 188.146 135.123 189.01 134.799C189.892 134.457 190.639 134.106 191.251 133.746ZM224.218 120.705H235.045V123.675H224.218V120.705ZM214.039 126.942H220.573V129.237H214.039V126.942ZM214.066 130.83H220.519V133.098H214.066V130.83ZM210.502 115.548H224.245V118.275H210.502V115.548ZM227.512 113.28H230.671V120.732C230.671 122.064 230.599 123.504 230.455 125.052C230.329 126.582 230.068 128.148 229.672 129.75C229.276 131.334 228.691 132.891 227.917 134.421C227.161 135.951 226.153 137.364 224.893 138.66C224.731 138.426 224.506 138.165 224.218 137.877C223.93 137.607 223.633 137.337 223.327 137.067C223.021 136.797 222.733 136.581 222.463 136.419C223.669 135.303 224.614 134.07 225.298 132.72C225.982 131.37 226.477 129.993 226.783 128.589C227.107 127.167 227.305 125.781 227.377 124.431C227.467 123.081 227.512 121.848 227.512 120.732V113.28ZM230.887 122.352C231.103 124.224 231.409 126.033 231.805 127.779C232.201 129.525 232.714 131.109 233.344 132.531C233.992 133.935 234.802 135.096 235.774 136.014C235.522 136.212 235.252 136.464 234.964 136.77C234.676 137.076 234.397 137.391 234.127 137.715C233.875 138.057 233.668 138.381 233.506 138.687C232.444 137.553 231.571 136.176 230.887 134.556C230.203 132.918 229.654 131.091 229.24 129.075C228.844 127.059 228.52 124.944 228.268 122.73L230.887 122.352ZM230.86 115.089L233.371 114.144C233.821 114.828 234.244 115.593 234.64 116.439C235.054 117.267 235.342 117.996 235.504 118.626L232.831 119.679C232.705 119.067 232.444 118.329 232.048 117.465C231.67 116.601 231.274 115.809 230.86 115.089ZM215.74 113.307H218.818V121.785H215.74V113.307ZM216.091 127.914H218.521V137.391H216.091V127.914ZM214.147 123.918L215.794 123.405C216.028 123.891 216.244 124.422 216.442 124.998C216.64 125.574 216.766 126.069 216.82 126.483L215.065 127.05C215.029 126.636 214.921 126.132 214.741 125.538C214.561 124.944 214.363 124.404 214.147 123.918ZM218.575 123.27L220.627 123.756C220.393 124.332 220.168 124.908 219.952 125.484C219.736 126.06 219.538 126.555 219.358 126.969L217.684 126.537C217.846 126.069 218.008 125.529 218.17 124.917C218.35 124.305 218.485 123.756 218.575 123.27ZM210.826 120.489H222.544V123.081H213.472V138.579H210.826V120.489ZM221.113 120.489H223.84V135.609C223.84 136.221 223.777 136.716 223.651 137.094C223.525 137.472 223.282 137.769 222.922 137.985C222.544 138.201 222.094 138.327 221.572 138.363C221.068 138.417 220.474 138.444 219.79 138.444C219.754 138.102 219.664 137.679 219.52 137.175C219.394 136.671 219.241 136.248 219.061 135.906C219.439 135.924 219.79 135.933 220.114 135.933C220.438 135.933 220.663 135.924 220.789 135.906C221.005 135.906 221.113 135.789 221.113 135.555V120.489Z" fill="white"/>
</g>
<defs>
<clipPath id="clip0_3059_1155">
<rect width="313.92" height="332.12" fill="white" transform="translate(0.0400391 0.94043)"/>
</clipPath>
</defs>
</svg>
