<svg width="73" height="80" viewBox="0 0 73 80" fill="none" xmlns="http://www.w3.org/2000/svg">
<g clip-path="url(#clip0_3059_1272)">
<path d="M20.2015 27.4928C27.6983 27.4928 33.7708 21.4118 33.7708 13.915C33.7708 6.4182 27.6983 0.345703 20.2015 0.345703C12.7047 0.345703 6.6322 6.42673 6.6322 13.9235C6.6322 21.4203 12.7047 27.5014 20.2015 27.5014V27.4928ZM27.2719 31.0152L27.2207 31.0664C27.0245 31.0493 26.8454 31.0152 26.6407 31.0152H13.8731C13.6429 31.0152 13.4211 31.0493 13.1994 31.0749L13.1311 31.0152C6.09488 31.5525 0.5 37.8468 0.5 45.4886V65.8553H39.9115V45.4886C39.9115 37.8553 34.3081 31.5611 27.2719 31.0152Z" fill="#999999"/>
<path d="M60.6619 62.4604V59.0489C60.6619 59.0489 60.6619 59.0318 60.6619 59.0148C60.6619 55.4412 55.4508 52.7461 48.5339 52.7461C41.6171 52.7461 36.406 55.4412 36.406 59.0148C36.406 59.0403 36.406 59.0659 36.406 59.0915V62.1704C36.3548 62.1704 36.3122 62.1704 36.261 62.1704C29.3527 62.1704 24.1416 64.857 24.1416 68.422C24.1416 68.4391 24.1416 68.5073 24.1416 68.5243V73.0787C24.1416 76.6523 29.3527 79.3388 36.261 79.3388C42.6576 79.3388 47.5958 77.0275 48.2866 73.8548C48.7301 77.1811 53.7706 79.6374 60.3633 79.6374C66.9561 79.6374 72.2866 77.0361 72.4657 73.5649H72.4828V68.8314C72.4828 68.8314 72.4828 68.7632 72.4828 68.7205C72.4828 65.1896 67.4081 62.5286 60.6363 62.4519L60.6619 62.4604ZM48.5339 55.5777C54.2056 55.5777 57.8303 57.6075 57.8303 59.0148C57.8303 60.422 54.2141 62.4519 48.5339 62.4519C42.8538 62.4519 39.2375 60.4135 39.2375 59.0148C39.2375 57.616 42.8538 55.5777 48.5339 55.5777ZM36.2695 65.002C36.406 65.002 36.5425 65.0105 36.6789 65.019C37.5574 67.2621 40.6277 69.002 44.7813 69.6587C43.4337 70.7845 40.3889 71.8676 36.2695 71.8676C30.6576 71.8676 27.0243 69.8378 26.9817 68.422C26.9817 67.0233 30.5979 65.002 36.2695 65.002ZM45.5574 73.0872C45.5574 74.486 41.9412 76.5158 36.2695 76.5158C30.5979 76.5158 26.9817 74.486 26.9817 73.0872V72.5243C29.1736 73.8634 32.4742 74.6907 36.2695 74.6907C40.0648 74.6907 43.3655 73.8634 45.5574 72.5329V73.0872ZM48.5339 67.1086C42.8623 67.1086 39.2461 65.0787 39.2461 63.68V63.1342C41.438 64.4646 44.7216 65.2919 48.5339 65.2919C52.3463 65.2919 55.6384 64.4646 57.8303 63.1342V63.6885C57.8303 65.0872 54.2141 67.1171 48.5425 67.1171L48.5339 67.1086ZM69.6683 73.3858C69.6683 74.7845 66.052 76.8143 60.3804 76.8143C54.7088 76.8143 51.0926 74.7845 51.0926 73.3858V72.8655C53.438 74.2727 56.9348 74.9977 60.3633 74.9977C64.1928 74.9977 67.4849 74.196 69.6683 72.8655V73.3858ZM69.6683 68.7632V68.8058C69.5659 70.1789 65.8985 72.1747 60.3633 72.1747C56.0307 72.1747 52.858 70.938 51.6384 69.744C55.954 69.1981 59.2034 67.518 60.2695 65.2919C60.3036 65.2919 60.3292 65.2919 60.3548 65.2919C65.9923 65.2919 69.6086 67.3047 69.6683 68.7546C69.6683 68.7546 69.6683 68.7632 69.6683 68.7717V68.7632Z" fill="#999999"/>
<path d="M39.4424 33.2927H43.9882V38.845H53.0202V33.2927H57.5661L48.5 20.7725L39.4424 33.2927Z" fill="#999999"/>
<path d="M53.0203 40.1328H43.9883V42.9047H53.0203V40.1328Z" fill="#999999"/>
<path d="M53.0203 44.209H43.9883V46.9808H53.0203V44.209Z" fill="#999999"/>
<path d="M53.0203 48.2949H43.9883V51.0668H53.0203V48.2949Z" fill="#999999"/>
</g>
<defs>
<clipPath id="clip0_3059_1272">
<rect width="72" height="79.3092" fill="white" transform="translate(0.5 0.345703)"/>
</clipPath>
</defs>
</svg>
