<svg width="72" height="60" viewBox="0 0 72 60" fill="none" xmlns="http://www.w3.org/2000/svg">
<g clip-path="url(#clip0_3162_512)">
<path d="M37.7699 7.56103C37.7699 3.38544 31.4825 0 23.7277 0C15.973 0 9.68555 3.38544 9.68555 7.56103C9.68555 11.7366 15.973 15.1221 23.7277 15.1221C23.9852 15.1221 24.2361 15.1092 24.4871 15.1028L28.4771 18.7516L27.1836 14.8844C33.2651 14.0557 37.7699 11.0942 37.7699 7.56103ZM18.071 7.606C18.071 8.27409 17.5304 8.8137 16.8611 8.8137C16.1918 8.8137 15.6512 8.27409 15.6512 7.606C15.6512 6.9379 16.1918 6.39829 16.8611 6.39829C17.5304 6.39829 18.071 6.9379 18.071 7.606ZM24.9376 7.606C24.9376 8.27409 24.397 8.8137 23.7277 8.8137C23.0584 8.8137 22.5179 8.27409 22.5179 7.606C22.5179 6.9379 23.0584 6.39829 23.7277 6.39829C24.397 6.39829 24.9376 6.9379 24.9376 7.606ZM31.8107 7.606C31.8107 8.27409 31.2701 8.8137 30.6008 8.8137C29.9315 8.8137 29.3909 8.27409 29.3909 7.606C29.3909 6.9379 29.9315 6.39829 30.6008 6.39829C31.2701 6.39829 31.8107 6.9379 31.8107 7.606Z" fill="#C4AE88"/>
<path d="M19.3578 32.7618C19.6088 32.2094 20.0979 31.2972 20.9473 29.704C21.3399 28.9653 21.7775 28.1558 22.2216 27.3271H18.2959C16.79 27.3271 15.5737 28.5413 15.5737 30.0445C15.5737 31.5477 16.7965 32.7618 18.2959 32.7618H19.3513H19.3578Z" fill="#C4AE88"/>
<path d="M69.2777 27.3213H65.3521C65.8025 28.1564 66.2401 28.9658 66.6263 29.6982C67.4758 31.2977 67.9584 32.2035 68.2158 32.756H69.2712C70.7771 32.756 71.9935 31.5418 71.9935 30.0386C71.9935 28.5354 70.7707 27.3213 69.2712 27.3213H69.2777Z" fill="#C4AE88"/>
<path d="M19.918 56.3322C19.918 58.3558 21.5654 60.0003 23.5926 60.0003C25.6198 60.0003 27.2608 58.3558 27.2608 56.3322V52.8633H19.918V56.3322Z" fill="#C4AE88"/>
<path d="M60.313 56.3322C60.313 58.3558 61.9605 60.0003 63.9876 60.0003C66.0148 60.0003 67.6623 58.3558 67.6623 56.3322V52.8633H60.313V56.3322Z" fill="#C4AE88"/>
<path d="M67.1411 33.4435C67.3277 33.5013 60.3452 20.7047 60.0106 20.011C59.1289 18.1801 56.9473 17.0752 54.8236 17.0752H32.7628C30.6391 17.0752 28.4639 18.1801 27.5758 20.011C27.2412 20.7047 20.2587 33.4949 20.4453 33.4435C20.4453 33.4435 18.1865 35.6919 18.0127 35.8718C17.0603 36.8932 17.1311 37.7733 17.1311 38.6533V48.8354C17.1311 50.7369 17.4721 51.7775 19.7117 51.7775H67.8747C70.1207 51.7775 70.4618 50.7369 70.4618 48.8354V38.6533C70.4618 37.7668 70.5261 36.8868 69.5737 35.8718C69.4064 35.6919 67.1475 33.4435 67.1475 33.4435H67.1411ZM26.2179 29.5184C26.2179 29.5184 30.7035 21.4564 30.9673 20.9232C31.4178 20.0238 32.7113 19.3686 34.0306 19.3686H53.5429C54.8686 19.3686 56.1557 20.0238 56.6062 20.9232C56.8701 21.4499 61.362 29.5184 61.362 29.5184C61.7739 30.2636 61.4135 31.6448 60.1843 31.6448H27.3892C26.1665 31.6448 25.7996 30.2636 26.2179 29.5184ZM25.6194 47.4542C23.3413 47.4542 21.4943 45.6105 21.4943 43.3429C21.4943 41.0752 23.3413 39.2251 25.6194 39.2251C27.8976 39.2251 29.7381 41.0688 29.7381 43.3429C29.7381 45.6169 27.8912 47.4542 25.6194 47.4542ZM50.0485 48.5656C50.0485 48.8675 49.8039 49.1116 49.5015 49.1116H38.0785C37.776 49.1116 37.5315 48.8675 37.5315 48.5656V43.542C37.5315 43.2465 37.776 43.0024 38.0785 43.0024H49.5015C49.8039 43.0024 50.0485 43.2465 50.0485 43.542V48.5656ZM61.9605 47.4542C59.6824 47.4542 57.8354 45.6105 57.8354 43.3429C57.8354 41.0752 59.6824 39.2251 61.9605 39.2251C64.2387 39.2251 66.0857 41.0688 66.0857 43.3429C66.0857 45.6169 64.2387 47.4542 61.9605 47.4542Z" fill="#C4AE88"/>
<path d="M7.8577 11.0879H0V59.589H7.8577V11.0879Z" fill="#C4AE88"/>
</g>
<defs>
<clipPath id="clip0_3162_512">
<rect width="72" height="60" fill="white"/>
</clipPath>
</defs>
</svg>
