<svg width="76" height="76" viewBox="0 0 76 76" fill="none" xmlns="http://www.w3.org/2000/svg">
<path d="M69.3722 18.2726C69.3722 13.908 65.8167 10.5097 61.6099 10.5097C60.6382 10.5097 59.5092 10.6726 58.7004 11.1557C52.23 4.04429 43.1758 0 33.633 0C15.0415 0 0 15.0426 0 33.6354C0 52.2283 15.0415 67.2709 33.633 67.2709C40.7494 67.2709 47.7029 65.0071 53.3591 60.8V76H69.8553V54.0034H76V34.276C76 30.7203 73.0905 27.8051 69.5296 27.8051H66.7829C66.6201 26.8334 66.2998 25.7043 66.137 24.7326C68.0749 23.2777 69.3722 20.8511 69.3722 18.2617V18.2726ZM23.2869 5.016C23.1241 5.17886 22.9612 5.34171 22.9612 5.49914C22.7984 5.662 22.6355 5.662 22.6355 5.82486C22.1524 6.308 21.8267 6.95943 21.3436 7.44257L21.1808 7.60543C20.8551 8.08857 20.372 8.74 20.0463 9.386C19.8834 9.54886 19.8834 9.71171 19.7206 9.86914C19.3949 10.5151 18.9118 11.1611 18.5861 11.97C18.5861 12.1329 18.5861 12.2957 18.4233 12.4531C18.0976 13.0991 17.7773 13.7451 17.6145 14.3911C17.6145 14.554 17.4516 14.7169 17.4516 14.8743C17.2888 15.2 17.1259 15.5203 17.1259 15.846H8.88051C12.436 10.9929 17.4516 7.11143 23.2706 5.01057L23.2869 5.016ZM6.9535 19.0814H16.1706C16.0077 19.4071 16.0077 19.7274 16.0077 20.0531C16.0077 20.216 16.0077 20.3789 15.8449 20.5363C15.682 21.3451 15.5192 22.3169 15.3618 23.2831C15.3618 23.446 15.3618 23.7663 15.1989 23.9291C15.0361 24.738 14.8732 25.7097 14.8732 26.5186V26.8443C14.7104 27.816 14.7104 28.7823 14.5475 29.754V31.8549H3.2352C3.56089 27.3274 4.8528 22.9629 6.9535 19.0814ZM3.2352 35.2531H14.2327V37.354C14.2327 38.3257 14.3955 39.292 14.5584 40.2637V40.5894C14.7212 41.5611 14.7212 42.37 14.8841 43.1789C14.8841 43.3417 14.8841 43.662 15.0469 43.8249C15.2098 44.7966 15.3726 45.6054 15.53 46.5717C15.53 46.7346 15.53 46.8974 15.6929 47.0549C15.6929 47.3806 15.8557 47.7009 16.0186 48.0266H6.9535C4.8528 44.308 3.55546 39.938 3.2352 35.2531ZM8.89137 51.4249H16.9794C17.1422 51.7506 17.305 52.0709 17.305 52.3966C17.305 52.5594 17.4679 52.7223 17.4679 52.8797C17.7936 53.5257 17.951 54.3346 18.2767 54.9806C18.2767 55.1434 18.4395 55.1434 18.4395 55.3063C18.7652 55.9523 19.0855 56.7611 19.574 57.4071C19.7369 57.57 19.7369 57.7329 19.8997 57.8903C20.2254 58.5363 20.7085 59.0249 21.0342 59.6709L21.1971 59.8337C21.6802 60.4797 22.0059 60.9683 22.489 61.4514C22.6518 61.6143 22.6518 61.7771 22.8147 61.7771C22.9775 61.94 23.1403 62.1029 23.1403 62.2603C17.4788 60.1594 12.4685 56.278 8.90765 51.4249H8.89137ZM32.0209 63.878C27.3309 62.9063 23.2869 58.216 20.7031 51.4249H32.0209V63.878ZM32.0209 48.1949H19.5686C18.4341 44.3134 17.7882 39.9489 17.6307 35.2586H32.0209V48.1949ZM32.0209 32.0231H17.6307C17.7936 27.4957 18.4395 22.9683 19.5686 19.0869H32.0209V32.0231ZM32.0209 15.8514H20.7031C23.2923 9.06029 27.4938 4.20714 32.0209 3.39829V15.8514ZM55.9537 12.9363C55.628 13.262 55.3078 13.5823 55.1449 13.908C55.1449 14.0709 54.9821 14.0709 54.9821 14.2337C54.8192 14.5594 54.499 14.8797 54.499 15.3683V15.5311C54.499 15.694 54.3361 15.8569 54.3361 16.0143H50.2921C50.1293 15.6886 50.1293 15.3683 49.9664 15.0426C49.8036 14.7169 49.6407 14.3966 49.4833 14.0709C49.3205 13.5877 49.0002 12.9363 48.8374 12.4531C48.6745 12.1274 48.5117 11.8071 48.3543 11.4814C48.0286 10.9983 47.8712 10.5097 47.5455 10.0266C47.3826 9.70086 47.2198 9.38057 47.0624 9.05486C46.7367 8.57171 46.4164 8.08314 46.0907 7.6C45.9279 7.43714 45.765 7.11686 45.6076 6.954C44.9616 6.14514 44.4731 5.662 43.99 5.016V4.85314C48.3543 6.63371 52.5611 9.38057 55.9591 12.9417L55.9537 12.9363ZM59.9923 26.0354C60.4754 26.1983 60.9639 26.1983 61.6099 26.1983C62.093 26.1983 62.5815 26.1983 63.0646 26.0354H63.2275C63.3903 26.6814 63.5532 27.3274 63.7106 27.816H53.0388V27.3329C53.0388 26.524 52.8759 25.878 52.7131 25.0691C52.7131 24.7434 52.5502 24.2603 52.5502 23.9346C52.3874 22.8 52.2246 21.8337 51.9043 20.862C51.7415 20.216 51.5786 19.7274 51.4212 19.0814H54.1679C54.1679 22.4797 56.7571 25.3894 59.9869 26.0354H59.9923ZM35.2506 3.39829C35.4135 3.39829 35.5763 3.39829 35.5763 3.56114C35.902 3.56114 36.2223 3.724 36.548 3.88686C36.7108 3.88686 36.8737 4.04971 37.0311 4.21257C37.3568 4.37543 37.677 4.37543 37.8399 4.53829C38.0027 4.70114 38.1656 4.864 38.4858 4.864C38.8115 5.02686 38.9689 5.18971 39.2946 5.34714C39.6203 5.51 39.7777 5.67286 39.9406 5.83029C40.2663 5.99314 40.4237 6.156 40.5865 6.47629C40.7494 6.63914 40.9122 6.802 41.2325 7.12229C41.3953 7.28514 41.7156 7.60543 41.8784 7.76829C42.0413 7.93114 42.2041 8.25143 42.3615 8.41429C42.6872 8.74 42.8447 8.89743 43.1703 9.22314C43.3332 9.54886 43.496 9.70629 43.6535 10.032C43.8109 10.3577 43.9791 10.678 44.2994 11.0037C44.4623 11.3294 44.6251 11.6497 44.7825 11.8126C44.9454 12.1383 45.1082 12.4586 45.2656 12.7843C45.423 13.11 45.5913 13.4303 45.7487 13.756C45.9062 14.0817 46.0744 14.402 46.2318 14.8906C46.3947 15.2163 46.5575 15.5366 46.715 15.8623H35.2343V3.39829H35.2506ZM35.2506 19.0814H47.7029V19.2443C47.8657 19.57 47.8657 20.0531 48.0286 20.3789C48.1914 20.862 48.1914 21.1877 48.3543 21.6709C48.5171 22.154 48.5171 22.4797 48.68 22.9629C48.8428 23.446 48.8428 23.7717 49.0056 24.2549C49.0056 24.738 49.1685 25.0637 49.1685 25.5469C49.1685 26.03 49.3313 26.5186 49.3313 26.8389C49.3313 27.322 49.4942 27.8106 49.4942 28.1309C49.4942 28.4511 49.4942 28.7769 49.657 29.1026V29.2654C49.3313 29.5911 49.0111 29.7486 48.8482 30.0743V30.2371C48.5225 30.5629 48.3651 30.8831 48.2023 31.3717C48.2023 31.3717 48.2023 31.5346 48.0394 31.5346C48.0394 31.6974 47.8766 31.6974 47.8766 31.8603H35.4243V19.0869H35.2615L35.2506 19.0814ZM35.2506 35.2531H47.2198V48.1894H35.2506V35.2531ZM43.5015 57.5754C43.3386 57.7383 43.1758 57.9011 43.1758 58.0586C43.0129 58.2214 42.8501 58.3843 42.6927 58.7046C42.5298 58.8674 42.367 59.0303 42.367 59.1877C42.2041 59.3506 42.0413 59.5134 41.8839 59.6709C41.7265 59.8283 41.5582 59.9966 41.5582 60.154C41.3953 60.3169 41.2325 60.4797 41.0751 60.6371C40.9122 60.8 40.7494 60.9629 40.592 60.9629C40.4291 61.1257 40.2663 61.2886 40.1088 61.446C39.9514 61.6034 39.7832 61.6089 39.6257 61.7717C39.4683 61.9346 39.3001 62.0974 39.1426 62.0974C38.9798 62.2603 38.8169 62.2603 38.6595 62.4231C38.5021 62.586 38.3338 62.586 38.1764 62.7489C38.0136 62.7489 37.8507 62.9117 37.6933 62.9117C37.5305 63.0746 37.3676 63.0746 37.0474 63.2374C36.8845 63.2374 36.7217 63.4003 36.5642 63.4003C36.4068 63.4003 36.2386 63.5631 35.9183 63.5631C35.7554 63.5631 35.5926 63.726 35.4352 63.726H34.9521V51.2729H46.4327C46.2698 51.5986 46.2698 51.756 46.107 52.0817C45.9441 52.2446 45.9441 52.5649 45.7813 52.7277C45.6185 53.0534 45.6185 53.2109 45.4556 53.5366C45.2928 53.6994 45.2928 54.0197 45.1299 54.1826C44.9671 54.5083 44.8042 54.6657 44.8042 54.9914C44.6414 55.1543 44.6414 55.4746 44.4785 55.6374C44.3157 55.8003 44.1529 56.1206 43.9954 56.2834C43.838 56.4463 43.8326 56.6091 43.6697 56.9294C43.8326 57.0923 43.6697 57.4126 43.5069 57.5754H43.5015ZM53.3645 56.7666C50.6178 59.1931 47.3826 60.9737 43.9846 62.2657L44.1474 62.1029C44.4731 61.6197 44.9562 61.294 45.2819 60.8109L45.4448 60.648C45.9279 60.1649 46.2536 59.5134 46.5792 58.8674C46.7421 58.7046 46.7421 58.5417 46.9049 58.3843C47.2306 57.9011 47.5509 57.4126 47.7137 56.9294C47.8766 56.7666 47.8766 56.6037 48.0394 56.4463C48.3651 55.8003 48.6854 55.1543 49.0111 54.3454V54.1826H53.2179V56.772H53.3808L53.3645 56.7666Z" fill="#999999"/>
</svg>
