<svg width="51" height="82" viewBox="0 0 51 82" fill="none" xmlns="http://www.w3.org/2000/svg">
<path d="M9.82099 56.3737C7.43322 56.3737 5.4954 54.4319 5.4954 52.0506V10.6742C5.4954 8.28777 7.43834 6.35105 9.82099 6.35105H34.8236C37.2113 6.35105 39.1491 8.29288 39.1491 10.6742V38.0745H42.5697C43.1219 38.0745 43.6537 38.192 44.1394 38.4015V8.47685C44.1394 4.07195 40.5654 0.5 36.158 0.5H8.48139C4.07399 0.5 0.5 4.07195 0.5 8.47685V61.0494C0.5 65.4594 4.07399 69.0263 8.48139 69.0263H20.1288V67.9327L14.9902 56.3737H9.81588H9.82099ZM16.6315 1.98193H28.0079C28.6982 1.98193 29.2606 2.53892 29.2606 3.2339C29.2606 3.92887 28.6982 4.48587 28.0079 4.48587H16.6315C15.9413 4.48587 15.3788 3.92887 15.3788 3.2339C15.3788 2.53892 15.9413 1.98193 16.6315 1.98193ZM48.0049 74.6372H25.3696C24.7816 74.6372 24.301 75.0868 24.301 75.6387V80.4933C24.301 81.0503 24.7816 81.5 25.3696 81.5H48.0049C48.5929 81.5 49.0735 81.0503 49.0735 80.4933V75.6387C49.0735 75.0868 48.5929 74.6372 48.0049 74.6372ZM49.4314 43.251H44.6201C44.1803 43.251 43.8071 43.4963 43.6384 43.854V41.999C43.6384 41.4471 43.1628 40.9974 42.5697 40.9974H37.7584C37.3187 40.9974 36.9403 41.2478 36.7767 41.6004V40.2463C36.7767 39.6944 36.3012 39.2447 35.7081 39.2447H30.8917C30.4519 39.2447 30.0787 39.49 29.9151 39.8477V26.6994C29.9151 26.1475 29.4396 25.6978 28.8465 25.6978H24.0351C23.4471 25.6978 22.9665 26.1475 22.9665 26.6994V48.7443L19.2903 40.4762C19.0448 39.9243 18.3597 39.6637 17.7717 39.8988L12.9655 41.8099C12.3775 42.045 12.1014 42.6838 12.3519 43.2357L23.0534 67.3246V71.6171C23.0534 72.169 23.5289 72.6187 24.122 72.6187H49.4314C50.0194 72.6187 50.5 72.169 50.5 71.6171V44.2628C50.5 43.7109 50.0194 43.2612 49.4314 43.2612V43.251Z" fill="#C4AE88"/>
<path d="M19.3583 36.617C18.3988 36.617 17.6229 37.3733 17.6229 38.3085C17.6229 39.2437 18.3988 40 19.3583 40C20.3177 40 21.0936 39.2437 21.0936 38.3085C21.0936 37.3733 20.3177 36.617 19.3583 36.617ZM28.8685 36.617C27.9091 36.617 27.1332 37.3733 27.1332 38.3085C27.1332 39.2437 27.9091 40 28.8685 40C29.828 40 30.6039 39.2437 30.6039 38.3085C30.6039 37.3733 29.828 36.617 28.8685 36.617ZM31.4375 18C29.1569 18 27.1909 19.344 26.3311 21.2655H16.4276C16.3751 21.2655 16.3227 21.2757 16.2703 21.2808C16.1812 21.2706 16.092 21.2655 16.0029 21.2706C15.615 19.758 15.3581 18.741 15.3581 18.741C15.2637 18.3731 14.9229 18.1124 14.5297 18.1124H10.8546C10.3827 18.1124 10 18.4855 10 18.9454C10 19.4053 10.3827 19.7784 10.8546 19.7784H13.8639C14.0054 20.3303 14.9177 23.9075 15.8351 27.5206L16.7683 31.4044C16.7998 31.5322 16.8522 31.6497 16.9151 31.7621C17.4814 33.9954 17.906 35.6409 17.906 35.6409C18.0004 36.0088 18.3412 36.2695 18.7344 36.2695H30.6511C31.1229 36.2695 31.5056 35.8964 31.5056 35.4365C31.5056 34.9765 31.1229 34.6035 30.6511 34.6035H19.4002C19.3373 34.3684 19.1328 33.5661 18.8497 32.4469H30.2684C30.9237 32.4469 31.4951 31.9972 31.6315 31.3738L32.1924 28.8033C34.9029 28.4404 37 26.1714 37 23.4323C37 20.4376 34.4992 18.0051 31.4322 18.0051L31.4375 18ZM17.712 24.4748C17.712 24.1017 18.0214 23.7951 18.4093 23.7951H25.8907C25.9221 24.2653 26.0165 24.7201 26.1633 25.1494H18.4093C18.0266 25.1494 17.712 24.8479 17.712 24.4697V24.4748ZM18.2835 26.9738C18.2835 26.6007 18.5928 26.2941 18.9808 26.2941H26.719C27.0493 26.8102 27.4635 27.2702 27.9458 27.6483H18.9808C18.5981 27.6483 18.2835 27.3468 18.2835 26.9686V26.9738ZM29.2932 30.1473H19.547C19.1643 30.1473 18.8497 29.8458 18.8497 29.4676C18.8497 29.0894 19.159 28.7879 19.547 28.7879H29.2932C29.6759 28.7879 29.9905 29.0894 29.9905 29.4676C29.9905 29.8458 29.6812 30.1473 29.2932 30.1473ZM31.4375 27.1986C29.3089 27.1986 27.5736 25.5071 27.5736 23.4323C27.5736 21.3575 29.3089 19.666 31.4375 19.666C33.566 19.666 35.3014 21.3575 35.3014 23.4323C35.3014 25.5071 33.566 27.1986 31.4375 27.1986ZM29.0783 22.5993C28.6064 22.5993 28.2237 22.9724 28.2237 23.4323C28.2237 23.8922 28.6064 24.2653 29.0783 24.2653H33.7967C34.2685 24.2653 34.6513 23.8922 34.6513 23.4323C34.6513 22.9724 34.2685 22.5993 33.7967 22.5993H29.0783ZM32.292 21.1326C32.292 20.6727 31.9093 20.2997 31.4375 20.2997C30.9656 20.2997 30.5829 20.6727 30.5829 21.1326V25.7319C30.5829 26.1919 30.9656 26.5649 31.4375 26.5649C31.9093 26.5649 32.292 26.1919 32.292 25.7319V21.1326Z" fill="#C4AE88"/>
</svg>
