<svg width="73" height="82" viewBox="0 0 73 82" fill="none" xmlns="http://www.w3.org/2000/svg">
<g clip-path="url(#clip0_3059_1264)">
<path d="M39.0449 30.5371C44.8533 30.9683 48.2943 34.6038 47.3643 40.5136" stroke="#C7B18A" stroke-miterlimit="10"/>
<path d="M42.3677 25.6338C49.8162 26.1833 54.2296 30.8503 53.0459 38.4257" stroke="#C7B18A" stroke-miterlimit="10"/>
<path d="M60.4521 0.835938C53.7982 0.835938 48.4126 6.23002 48.4126 12.8754C48.4126 19.5208 53.8067 24.9148 60.4521 24.9148C67.0974 24.9148 72.4915 19.5208 72.4915 12.8754C72.4915 6.23002 67.1059 0.835938 60.4521 0.835938ZM65.4403 13.1375H61.1961V14.6255H65.4403V16.0121H61.1961V20.8566H59.725V16.0121H55.4807V14.6255H59.725V13.1375H55.4807V11.7509H59.5051L55.5145 6.29766H57.2055L60.4774 10.7617L63.7494 6.29766H65.4403L61.4497 11.7509H65.4488V13.1375H65.4403Z" fill="#999999"/>
<path d="M29.5333 42.3227C28.3412 42.3227 27.3689 43.295 27.3689 44.4871V56.8563C27.352 57.1691 27.0899 57.4227 26.7771 57.4227C26.4643 57.4227 26.2022 57.1691 26.1852 56.8563V56.8224V55.8671V39.5495C26.1852 38.2475 25.1284 37.1907 23.8264 37.1907C22.5244 37.1907 21.4675 38.2475 21.4675 39.5495V56.8563C21.4506 57.1691 21.1885 57.4227 20.8757 57.4227C20.5629 57.4227 20.3008 57.1691 20.2839 56.8563V56.8224V55.8671V36.6919C20.2839 35.3898 19.2271 34.333 17.925 34.333C16.623 34.333 15.5662 35.3898 15.5662 36.6919V56.8563C15.5493 57.1691 15.2872 57.4227 14.9744 57.4227C14.6615 57.4227 14.3994 57.1691 14.3825 56.8563V40.5134C14.3825 39.2114 13.3257 38.1545 12.0237 38.1545C10.7217 38.1545 9.66482 39.2114 9.66482 40.5134V62.3772L6.21531 56.3997C5.3783 54.9455 3.50982 54.4467 2.05561 55.2837C0.601408 56.1207 0.102582 57.9892 0.939595 59.4434C0.939595 59.4434 9.30972 74.7971 10.8992 76.767C12.7846 79.1005 15.3633 80.4025 17.6968 80.69C20.0302 80.9859 22.3215 80.9352 24.4098 80.3011C26.5065 79.667 31.7062 75.6595 31.7062 66.968L31.7231 56.8478V44.4786C31.7231 43.2865 30.7508 42.3142 29.5587 42.3142L29.5333 42.3227Z" fill="#CCCCCC"/>
<path d="M42.0969 50.1858C41.0485 49.6109 39.7296 49.9998 39.1631 51.0482L33.2449 61.9124C33.0758 62.183 32.7291 62.276 32.4501 62.1238C32.1711 61.9716 32.0612 61.625 32.1965 61.346L32.2134 61.3206L32.6699 60.4836L40.4821 46.1614C41.1077 45.02 40.685 43.5912 39.5436 42.9655C38.4022 42.3399 36.9734 42.7626 36.3477 43.904L28.0621 59.097C27.8931 59.3676 27.5464 59.4606 27.2674 59.3084C26.9884 59.1562 26.8785 58.8096 27.0138 58.5306L27.0307 58.5052L27.4872 57.6682L36.6606 40.8349C37.2862 39.6936 36.8635 38.2647 35.7221 37.6391C34.5807 37.0134 33.1519 37.4362 32.5262 38.5775L23.3529 55.4108L22.8963 56.2478L22.8794 56.2732C22.7103 56.5437 22.3637 56.6367 22.0847 56.4845C21.8057 56.3324 21.6958 55.9857 21.8311 55.7067L21.848 55.6729L22.3045 54.8359L29.6516 41.3591C30.2773 40.2178 29.8545 38.7889 28.7132 38.1633C27.5718 37.5376 26.1429 37.9604 25.5173 39.1017L17.6967 53.4493L16.1918 56.214L15.0504 58.3023L14.8813 51.4033C14.839 49.7208 13.444 48.3934 11.7615 48.4357C10.0791 48.478 8.75168 49.873 8.79395 51.5555C8.79395 51.5555 8.79395 69.0397 9.24205 71.5339C9.77469 74.4845 11.4234 76.8603 13.3341 78.2384C15.2449 79.6165 17.274 80.6649 19.4215 81.113C21.569 81.5611 28.0537 80.5296 32.2134 72.8951L37.0748 64.0177L42.9931 53.1534C43.568 52.105 43.1791 50.7861 42.1307 50.2196L42.0969 50.1858Z" fill="#999999"/>
</g>
<defs>
<clipPath id="clip0_3059_1264">
<rect width="72" height="80.3279" fill="white" transform="translate(0.5 0.835938)"/>
</clipPath>
</defs>
</svg>
