<svg width="78" height="49" viewBox="0 0 78 49" fill="none" xmlns="http://www.w3.org/2000/svg">
<path d="M19 14.0043L20.5119 15C21.797 13.2584 23.7889 12.0664 26 11.7202L25.6976 10C22.9914 10.4247 20.5724 11.8737 19 14.0007V14.0043Z" fill="#C4AE88"/>
<path d="M14 12.1652L15.6607 13C17.9856 9.33044 22.2876 6.94087 27 6.69391L26.8906 5C21.5218 5.28174 16.6492 7.9913 14 12.1652Z" fill="#C4AE88"/>
<path d="M10 11.1697L11.5426 12C14.4858 5.83845 20.4965 1.89731 27 1.83344L26.9858 0C19.8298 0.0713838 13.2411 4.39574 10 11.1697Z" fill="#C4AE88"/>
<path d="M76.2227 22.7366L71.0386 14.4813C69.2865 11.6922 66.2221 10 62.9307 10H38.7945C34.7352 10 30.8417 11.6345 28.0008 14.5354L21.1115 21.564L4.68303 25.3705C1.93955 26.0092 0 28.4518 0 31.2698V37.7283C0 39.1174 1.1284 40.2503 2.51997 40.2503H11.2551C11.2443 40.4235 11.2263 40.5967 11.2263 40.7735C11.2263 45.3161 14.9071 49 19.4495 49C23.992 49 27.6692 45.3161 27.6692 40.7735C27.6692 40.5967 27.6511 40.4235 27.6403 40.2503H53.4889C53.4781 40.4235 53.4601 40.5967 53.4601 40.7735C53.4601 45.3161 57.1409 49 61.6797 49C66.2185 49 69.8993 45.3161 69.8993 40.7735C69.8993 40.5967 69.8849 40.4235 69.8741 40.2503H75.48C76.8716 40.2503 78 39.121 78 37.7283V28.9137C78 26.7272 77.3835 24.5912 76.2227 22.7402V22.7366ZM19.4495 44.0497C17.6398 44.0497 16.1761 42.5812 16.1761 40.7699C16.1761 38.9586 17.6398 37.4938 19.4495 37.4938C21.2593 37.4938 22.723 38.9623 22.723 40.7699C22.723 42.5776 21.2557 44.0497 19.4495 44.0497ZM40.2402 23.3608H25.434L31.1012 17.577C33.1129 15.524 35.9212 14.3442 38.7945 14.3442H40.2402V23.3608ZM57.1301 23.3608H44.0363V14.3442H57.1301V23.3608ZM61.6833 44.0497C59.8772 44.0497 58.4099 42.5812 58.4099 40.7699C58.4099 38.9586 59.8772 37.4938 61.6833 37.4938C63.4895 37.4938 64.9567 38.9623 64.9567 40.7699C64.9567 42.5776 63.4931 44.0497 61.6833 44.0497ZM60.9298 23.3608V14.3442H62.9307C64.7404 14.3442 66.3988 15.2606 67.3577 16.7941L71.482 23.3608H60.9298Z" fill="#C4AE88"/>
</svg>
