<svg width="73" height="66" viewBox="0 0 73 66" fill="none" xmlns="http://www.w3.org/2000/svg">
<g clip-path="url(#clip0_3059_1233)">
<path d="M72.3799 1.32523C72.0095 0.344141 70.9183 -0.156415 69.9372 0.213997L56.5623 5.19954C55.9416 5.42979 55.4911 5.96038 55.361 6.61111L50.9461 29.1461H38.3821V16.7524H43.9784C45.0295 16.7524 45.8705 15.9014 45.8705 14.8603C45.8705 13.8191 45.0195 12.9682 43.9784 12.9682H2.39214C1.82151 12.9682 1.29092 13.2184 0.930518 13.6589C0.570118 14.0994 0.429962 14.6701 0.540085 15.2307L3.73363 31.3886C3.73363 31.3886 3.73363 31.4387 3.74364 31.4687L6.89715 47.4365C7.07735 48.3275 7.8482 48.9682 8.75922 48.9682H11.9528L8.93942 53.6534C8.56901 54.234 8.53897 54.9748 8.86934 55.5855C9.19971 56.1962 9.84042 56.5766 10.5312 56.5766H12.0729C11.282 57.5677 10.8015 58.8091 10.8015 60.1706C10.8015 63.3441 13.3844 65.937 16.5679 65.937C19.7514 65.937 22.3343 63.3542 22.3343 60.1706C22.3343 58.8091 21.8538 57.5577 21.0629 56.5766H36.7904C35.9995 57.5677 35.519 58.8091 35.519 60.1706C35.519 63.3441 38.1018 65.937 41.2854 65.937C44.4689 65.937 47.0518 63.3542 47.0518 60.1706C47.0518 58.8091 46.5712 57.5577 45.7804 56.5766H47.3221C48.3732 56.5766 49.2142 55.7257 49.2142 54.6845C49.2142 53.6434 48.3632 52.7924 47.3221 52.7924H14.005L16.4578 48.9782H49.3844C50.2954 48.9782 51.0662 48.3375 51.2464 47.4465L58.8949 8.41311L71.2687 3.79798C72.2498 3.42757 72.7503 2.33636 72.3799 1.35527V1.32523ZM16.5679 62.1228C15.4767 62.1228 14.5957 61.2418 14.5957 60.1506C14.5957 59.0594 15.4767 58.1784 16.5679 58.1784C17.6591 58.1784 18.5401 59.0594 18.5401 60.1506C18.5401 61.2418 17.6591 62.1228 16.5679 62.1228ZM41.2854 62.1228C40.1941 62.1228 39.3132 61.2418 39.3132 60.1506C39.3132 59.0594 40.1941 58.1784 41.2854 58.1784C42.3766 58.1784 43.2575 59.0594 43.2575 60.1506C43.2575 61.2418 42.3766 62.1228 41.2854 62.1228ZM34.6079 29.1461H22.4745V16.7524H34.6079V29.1461ZM34.6079 32.9304V45.1539H22.4745V32.9304H34.6079ZM18.6802 16.7524V29.1461H7.14743L4.6947 16.7524H18.6702H18.6802ZM7.89826 32.9304H18.6702V45.1539H10.3109L7.89826 32.9304ZM47.8226 45.1539H38.3921V32.9304H50.2153L47.8226 45.1539Z" fill="#C7B18A"/>
</g>
<defs>
<clipPath id="clip0_3059_1233">
<rect width="72" height="65.8131" fill="white" transform="translate(0.5 0.09375)"/>
</clipPath>
</defs>
</svg>
