<svg width="65" height="79" viewBox="0 0 65 79" fill="none" xmlns="http://www.w3.org/2000/svg">
<path d="M22.2396 16.3109C26.751 16.3109 30.421 12.6619 30.421 8.16151C30.421 3.66112 26.7631 0 22.2396 0C17.7161 0 14.0704 3.64896 14.0704 8.16151C14.0704 12.6741 17.7283 16.3109 22.2396 16.3109ZM54.2092 18.5367C54.5628 18.1962 54.7701 17.7096 54.7701 17.1866C54.7701 16.1284 53.9166 15.277 52.8558 15.277C51.795 15.277 50.9415 16.1284 50.9415 17.1866C50.9415 17.7096 51.161 18.1962 51.5024 18.5367C46.1376 19.2057 41.9798 23.7182 41.9798 29.2525H63.7318C63.7318 23.7182 59.5741 19.2179 54.2092 18.5367ZM32.2012 40.54H29.787C29.787 47.4122 26.2754 49.638 21.9348 49.638C17.5941 49.638 14.0826 47.4243 14.0826 40.54H11.7538L8.24223 55.2818C8.05934 56.0602 8.24223 56.8873 8.74214 57.5198C9.24205 58.1523 9.998 58.5172 10.8027 58.5172H14.7532V76.3727C14.7532 77.8202 15.9237 79 17.3869 79C18.85 79 20.0205 77.8202 20.0205 76.3727V58.5172H23.9588V76.3727C23.9588 77.8202 25.1293 79 26.5924 79C28.0556 79 29.2261 77.8202 29.2261 76.3727V58.5172H33.1766C33.9813 58.5172 34.7373 58.1523 35.2372 57.5198C35.7371 56.8873 35.92 56.0724 35.7371 55.2818L32.2255 40.54H32.2012ZM40.7239 30.7243C40.7239 31.5757 41.0653 32.3541 41.6262 32.9136L37.2002 33.2785L32.3231 23.5358C31.3964 21.687 29.8357 20.3977 28.1287 19.5463C26.4096 18.6948 24.4709 18.2448 22.5322 18.2326H21.4349C19.484 18.2326 17.5576 18.6827 15.8384 19.5341C14.1314 20.3977 12.5707 21.6748 11.6318 23.5236L5.96217 34.8597L0.280313 46.208C-0.365907 47.5095 0.158385 49.0785 1.46302 49.7232C2.76765 50.3678 4.34053 49.8448 4.98675 48.5433L10.6564 37.2072L13.095 32.3176V34.8597L12.1439 38.8614H31.7988L30.8477 34.8597V32.3055L33.2985 37.1951C33.774 38.156 34.7982 38.7276 35.8712 38.6425L43.8819 37.9735L46.5155 37.56C47.4544 37.0978 48.0762 36.1004 47.9909 34.9935C47.9543 34.5435 47.7836 34.1543 47.5519 33.8137H61.8907C63.6221 33.8137 65.0243 32.4149 65.0243 30.6878H40.7483L40.7239 30.7243Z" fill="#C4AE88"/>
</svg>
