<svg width="73" height="68" viewBox="0 0 73 68" fill="none" xmlns="http://www.w3.org/2000/svg">
<g clip-path="url(#clip0_3162_573)">
<path d="M47.4598 28.9355C47.4092 28.8765 47.3419 28.8428 47.2661 28.8428H42.3652C42.2894 28.8428 42.222 28.8765 42.1715 28.9271C42.121 28.9861 42.0957 29.0536 42.1041 29.1295L42.8788 37.133C42.8873 37.2595 42.9799 37.3438 43.0978 37.3691V37.386H46.4324V37.3691C46.5419 37.3438 46.6261 37.2595 46.643 37.1414L47.5271 29.1379C47.5356 29.062 47.5103 28.9861 47.4598 28.9271V28.9355Z" fill="#C4AE88"/>
<path d="M19.671 46.9666H4.8167L4.80828 23.3525H0L0.0168416 51.7822H0.875764H1.53259V67.4771H3.2757V51.7822H4.82512H17.0437V67.4771H18.7952V51.7822H19.671V46.9666Z" fill="#C4AE88"/>
<path d="M22.837 8.82153C22.837 13.6961 18.8961 17.6431 14.0289 17.6431C9.16164 17.6431 5.2207 13.6961 5.2207 8.82153C5.2207 3.94692 9.16164 0 14.0289 0C18.8961 0 22.837 3.94692 22.837 8.82153Z" fill="#C4AE88"/>
<path d="M37.6076 29.2899L27.8563 29.0622L21.3301 25.7141C20.4712 21.9612 17.9281 18.8154 14.0293 18.8154C9.16206 18.8154 5.94531 22.7708 5.94531 27.6454C5.94531 29.6189 6.64424 38.2886 7.14949 42.1343C7.83157 47.3209 11.1325 47.9703 14.0209 47.9703C15.5114 47.9703 17.4145 48.0884 18.9723 47.4222L26.8121 47.6246L27.8226 64.9387C27.9068 66.3893 29.111 67.511 30.5425 67.511C30.593 67.511 30.652 67.511 30.7025 67.511C32.2014 67.4266 33.3466 66.1363 33.2624 64.6267L32.1088 44.8077C32.0246 43.3909 30.8793 42.2777 29.4646 42.2439L21.8943 42.05C22.0627 39.309 21.9027 35.1429 21.7764 32.0815L26.4837 34.4935L37.4812 34.7465C37.4812 34.7465 37.5233 34.7465 37.5486 34.7465C39.0223 34.7465 40.2348 33.5658 40.2685 32.0815C40.3022 30.5718 39.1149 29.3237 37.6076 29.2899Z" fill="#C4AE88"/>
<path d="M73 37.8834C73 36.0027 68.9917 34.3581 62.9709 33.4305C62.9709 33.4305 62.9709 33.4389 62.9709 33.4473C62.2551 34.4678 61.3372 34.4678 60.7983 34.4341C60.7562 34.5184 60.5288 34.7545 60.4867 34.8304C61.5309 35.1425 62.2888 35.5304 62.2719 36.0617C62.2382 37.1918 59.5099 37.7737 56.7731 37.7737C54.0364 37.7737 51.2744 37.1834 51.2744 36.0617C51.2744 35.581 52.2259 35.2352 53.0427 34.9991C52.3017 34.2316 52.0743 33.1943 52.007 32.6377C51.8806 32.6377 51.8217 32.6377 51.6954 32.6377C50.2975 32.6377 48.9249 32.6714 47.6029 32.7389L47.0892 37.6304C47.0724 37.7653 46.9545 37.875 46.8197 37.875H42.7104C42.5672 37.875 42.4578 37.7737 42.4409 37.6304L41.9778 33.2196C35.098 34.0883 30.3823 35.8593 30.3823 37.9003C30.3823 39.3087 32.6307 40.5821 36.2853 41.5267V68.0166H38.0368V41.9315C41.7336 42.6905 46.4998 43.1544 51.6954 43.1544C57.1942 43.1544 62.2046 42.6399 65.9855 41.7966V68.0166H67.737V41.358C71.0212 40.4303 73.0085 39.2243 73.0085 37.9003L73 37.8834Z" fill="#C4AE88"/>
<path d="M43.8997 33.1353L43.4263 33.9717L44.2614 34.4458L44.7348 33.6095L43.8997 33.1353Z" fill="#C4AE88"/>
<path d="M45.8926 32.756L44.9536 32.9561L45.1534 33.8964L46.0923 33.6964L45.8926 32.756Z" fill="#C4AE88"/>
<path d="M44.5992 35.2161L43.6602 35.416L43.8597 36.3564L44.7987 36.1565L44.5992 35.2161Z" fill="#C4AE88"/>
<path d="M45.4467 34.3855L44.9028 35.1777L45.6939 35.7224L46.2377 34.9302L45.4467 34.3855Z" fill="#C4AE88"/>
<path d="M56.5625 36.2134C54.8025 36.2134 53.9015 35.7327 53.472 35.3785C52.5542 35.5724 51.9731 35.8339 51.9731 36.1375C51.9731 36.7194 53.7499 37.3603 56.8067 37.3603C59.8634 37.3603 61.6823 36.7194 61.6823 36.1375C61.6823 35.8254 61.1013 35.4459 60.0908 35.252C59.6782 35.6146 58.7098 36.2134 56.5541 36.2134H56.5625Z" fill="#C4AE88"/>
<path d="M62.415 30.9766C61.994 30.6308 61.3961 30.5381 60.8908 30.5296V29.7959H52.2427L52.2932 31.626C52.2932 34.0127 53.5647 35.8428 56.5625 35.8428C58.7267 35.8428 59.8803 35.1091 60.4361 33.9621C60.4614 33.9621 60.4782 33.9621 60.5035 33.9621C61.0508 33.9621 61.8761 33.8693 62.415 33.397C62.7603 33.0934 62.9455 32.6633 62.9455 32.1742C62.9455 31.685 62.7603 31.2633 62.4066 30.9766H62.415ZM61.7077 32.579C61.5056 32.7561 61.1435 32.8404 60.7898 32.8657C60.8572 32.4778 60.8908 32.0561 60.8908 31.626C61.2193 31.626 61.5477 31.6766 61.7329 31.82C61.8003 31.879 61.8677 31.9633 61.8677 32.1742C61.8677 32.4103 61.7835 32.5115 61.7077 32.579Z" fill="#C4AE88"/>
</g>
<defs>
<clipPath id="clip0_3162_573">
<rect width="73" height="68" fill="white"/>
</clipPath>
</defs>
</svg>
