<svg width="73" height="62" viewBox="0 0 73 62" fill="none" xmlns="http://www.w3.org/2000/svg">
<g clip-path="url(#clip0_3059_1249)">
<path d="M0.662216 21.3214C0.589111 21.2077 0.532252 21.0778 0.507883 20.9478C0.46727 20.7041 0.524129 20.4523 0.670338 20.2492L14.7471 0.6653C15.0476 0.242917 15.6324 0.145444 16.0548 0.454109L53.1676 27.113C53.59 27.4135 53.6875 27.9983 53.3788 28.4207L39.3102 48.0047C39.164 48.2077 38.9447 48.3458 38.701 48.3783C38.4573 48.4189 38.2055 48.3621 38.0025 48.2158L0.889652 21.557C0.800302 21.492 0.727197 21.4108 0.662216 21.3214ZM15.7218 2.51729L2.74164 20.5823L38.3274 46.1527L51.3075 28.0877L15.7218 2.51729Z" fill="#C7B18A"/>
<path d="M2.14102 29.4196C1.92171 29.1028 1.92171 28.6723 2.15727 28.3474L3.595 26.3411C3.89554 25.9187 4.48038 25.8212 4.90276 26.1299C5.32514 26.4304 5.42261 27.0153 5.11395 27.4377L4.22045 28.6804L39.8062 54.2508L52.7863 36.1858L51.373 35.1705C50.9506 34.87 50.8531 34.2851 51.1618 33.8627C51.4623 33.4404 52.0472 33.3429 52.4695 33.6516L54.6464 35.2111C55.0688 35.5117 55.1663 36.0965 54.8576 36.5189L40.789 56.1028C40.4885 56.5252 39.9037 56.6227 39.4813 56.314L2.36846 29.6552C2.27911 29.5902 2.19788 29.509 2.14102 29.4196Z" fill="#C7B18A"/>
<path d="M12.684 10.8027C12.4647 10.4859 12.4647 10.0554 12.7002 9.7305L15.5513 5.75848C15.6975 5.55541 15.9168 5.41733 16.1605 5.38484C16.4042 5.34422 16.656 5.40108 16.8591 5.54729L20.8311 8.39837C21.2535 8.69892 21.351 9.28375 21.0423 9.70614C20.7418 10.1285 20.1569 10.226 19.7345 9.91733L16.5261 7.61047L14.2192 10.819C13.9187 11.2413 13.3338 11.3388 12.9114 11.0301C12.8221 10.9652 12.7409 10.8839 12.684 10.7946V10.8027Z" fill="#C7B18A"/>
<path d="M43.7616 33.1241C43.5423 32.8073 43.5423 32.3768 43.7779 32.0519L46.0847 28.8434L42.8762 26.5365C42.4539 26.236 42.3564 25.6512 42.665 25.2288C42.9656 24.8064 43.5504 24.7089 43.9728 25.0176L47.9448 27.8687C48.1479 28.0149 48.286 28.2342 48.3266 28.4779C48.3672 28.7216 48.3104 28.9734 48.1641 29.1764L45.3131 33.1485C45.0125 33.5708 44.4277 33.6683 44.0053 33.3596C43.916 33.2947 43.8347 33.2134 43.7779 33.1241H43.7616Z" fill="#C7B18A"/>
<path d="M5.77188 20.4195C5.55257 20.1027 5.55257 19.6722 5.78813 19.3473L8.63921 15.3753C8.93975 14.9529 9.52459 14.8554 9.94697 15.1641C10.3694 15.4646 10.4668 16.0494 10.1582 16.4718L7.85131 19.6803L11.0598 21.9872C11.4822 22.2877 11.5796 22.8726 11.271 23.2949C10.9704 23.7173 10.3856 23.8148 9.96322 23.5061L5.9912 20.655C5.90185 20.5901 5.82062 20.5088 5.76376 20.4195H5.77188Z" fill="#C7B18A"/>
<path d="M32.8774 39.8982C32.658 39.5814 32.658 39.1509 32.8936 38.826C33.1941 38.4036 33.779 38.3061 34.2014 38.6148L37.4098 40.9216L39.7167 37.7132C40.0172 37.2908 40.6021 37.1933 41.0245 37.502C41.4468 37.8025 41.5443 38.3873 41.2357 38.8097L38.3846 42.7817C38.084 43.2041 37.4992 43.3016 37.0768 42.9929L33.1048 40.1419C33.0154 40.0769 32.9342 39.9956 32.8774 39.9063V39.8982Z" fill="#C7B18A"/>
<path d="M21.9443 27.8115C20.5309 25.7321 20.474 22.9054 22.0255 20.7447C24.0074 17.9911 27.8576 17.3575 30.6112 19.3395C31.9434 20.298 32.8287 21.7194 33.0968 23.344C33.3648 24.9685 32.9831 26.5931 32.0246 27.9333C30.0426 30.6869 26.1924 31.3205 23.4388 29.3386C22.8378 28.9081 22.3423 28.3882 21.9524 27.8115H21.9443ZM30.5706 21.9225C30.2944 21.5164 29.9452 21.1508 29.5309 20.8584C27.6139 19.4776 24.9334 19.9162 23.5526 21.8413C22.1717 23.7582 22.6103 26.4387 24.5354 27.8196C26.4524 29.2005 29.1329 28.7619 30.5137 26.8368C31.1798 25.9108 31.4479 24.7736 31.261 23.6445C31.1554 23.0191 30.9199 22.4342 30.5787 21.9225H30.5706Z" fill="#C7B18A"/>
<path d="M67.6915 61.7239H34.7537C33.0804 61.7239 31.7158 60.3592 31.7158 58.6859V37.7049C31.7158 36.0316 33.0804 34.667 34.7537 34.667H67.6915C69.3647 34.667 70.7294 36.0316 70.7294 37.7049V39.6868C70.7294 40.2067 70.307 40.621 69.7952 40.621C69.2835 40.621 68.8611 40.1986 68.8611 39.6868V37.7049C68.8611 37.0632 68.3413 36.5433 67.6996 36.5433H34.7618C34.1202 36.5433 33.6003 37.0632 33.6003 37.7049V58.6859C33.6003 59.3276 34.1202 59.8475 34.7618 59.8475H67.6996C68.3413 59.8475 68.8611 59.3276 68.8611 58.6859V56.6146C68.8611 56.0948 69.2835 55.6805 69.7952 55.6805C70.307 55.6805 70.7294 56.1029 70.7294 56.6146V58.6859C70.7294 60.3592 69.3647 61.7239 67.6915 61.7239Z" fill="#C7B18A"/>
<path d="M70.5669 54.1615H60.779C57.4893 54.1615 54.8169 51.4891 54.8169 48.1994C54.8169 44.9097 57.4893 42.2373 60.779 42.2373H70.5669C71.631 42.2373 72.5001 43.1064 72.5001 44.1705V52.2283C72.5001 53.2924 71.631 54.1615 70.5669 54.1615ZM60.779 44.1055C58.5209 44.1055 56.6851 45.9413 56.6851 48.1994C56.6851 50.4575 58.5209 52.2933 60.779 52.2933H70.5669C70.5669 52.2933 70.6319 52.2689 70.6319 52.2283V44.1705C70.6319 44.1705 70.6075 44.1055 70.5669 44.1055H60.779Z" fill="#C7B18A"/>
<path d="M60.933 50.7097C59.5196 50.7097 58.3662 49.5563 58.3662 48.143C58.3662 46.7296 59.5196 45.5762 60.933 45.5762C62.3464 45.5762 63.4998 46.7296 63.4998 48.143C63.4998 49.5563 62.3464 50.7097 60.933 50.7097ZM60.933 47.4525C60.5512 47.4525 60.2426 47.7612 60.2426 48.143C60.2426 48.5247 60.5512 48.8334 60.933 48.8334C61.3148 48.8334 61.6234 48.5247 61.6234 48.143C61.6234 47.7612 61.3148 47.4525 60.933 47.4525Z" fill="#C7B18A"/>
<path d="M38.9286 33.2861C38.5793 33.2861 38.2381 33.0911 38.0838 32.75L35.2327 26.6985C34.9322 26.065 34.8997 25.3502 35.1352 24.6841C35.3708 24.018 35.8582 23.4901 36.4917 23.1895L57.5865 13.2392C58.9024 12.6218 60.4782 13.1823 61.0955 14.4982L67.017 27.0478C67.3175 27.6814 67.35 28.3962 67.1145 29.0623C66.8789 29.7283 66.3916 30.2563 65.758 30.5568L60.3807 33.0993C59.9096 33.3186 59.3573 33.1236 59.1379 32.6525C58.9186 32.1814 59.1136 31.629 59.5847 31.4097L64.9701 28.8673C65.1569 28.778 65.295 28.6236 65.36 28.4368C65.4249 28.2419 65.4168 28.0388 65.3356 27.852L59.4141 15.3023C59.3248 15.1155 59.1704 14.9774 58.9836 14.9124C58.7887 14.8393 58.5856 14.8556 58.3988 14.9368L37.304 24.8872C36.9222 25.0659 36.7598 25.5207 36.9385 25.9025L39.7896 31.954C40.0089 32.4251 39.8139 32.9774 39.3428 33.1967C39.2129 33.2617 39.0748 33.2861 38.9448 33.2861H38.9286Z" fill="#C7B18A"/>
<path d="M36.9873 29.1595C36.638 29.1595 36.2969 28.9645 36.1426 28.6234C35.9232 28.1522 36.1182 27.5999 36.5893 27.3806L60.7545 15.9844C61.2256 15.765 61.7779 15.96 61.9973 16.4311C62.2166 16.9022 62.0216 17.4546 61.5505 17.6739L37.3853 29.0701C37.2554 29.1351 37.1173 29.1595 36.9873 29.1595Z" fill="#C7B18A"/>
</g>
<defs>
<clipPath id="clip0_3059_1249">
<rect width="72" height="61.4486" fill="white" transform="translate(0.5 0.275391)"/>
</clipPath>
</defs>
</svg>
