<?xml version="1.0" encoding="UTF-8"?><svg id="_レイヤー_2" xmlns="http://www.w3.org/2000/svg" viewBox="0 0 29.79 25.8"><defs><style>.cls-1{fill:none;stroke:#231815;stroke-miterlimit:10;stroke-width:.17px;}.cls-2{fill:#231815;}</style></defs><g id="_レイヤー_2-2"><polygon class="cls-1" points="22.29 .09 7.5 .09 .1 12.9 7.5 25.71 22.29 25.71 29.69 12.9 22.29 .09"/><path class="cls-2" d="M10.24,10.68v-.62h-.07v-.12h.07v-.1s0-.07.02-.09c.01-.02.03-.05.04-.06.02-.02.04-.03.06-.04s.05-.01.07-.01h.07v.14h-.07s-.04.02-.04.05v.11h.11v.12h-.11v.62h-.15Z"/><path class="cls-2" d="M10.67,10.18s0-.06,0-.08c0-.03.01-.05.02-.07.02-.03.04-.06.07-.08.03-.02.07-.03.12-.03s.09,0,.12.03c.03.02.06.05.07.08.01.02.02.04.02.07,0,.03,0,.05,0,.08v.24s0,.06,0,.08c0,.03-.01.05-.02.07-.02.03-.04.06-.07.08-.03.02-.07.03-.12.03s-.09,0-.12-.03c-.03-.02-.06-.05-.07-.08-.01-.02-.02-.04-.02-.07,0-.03,0-.05,0-.08v-.24ZM10.82,10.45s0,.05.02.06c.01.01.03.02.05.02s.04,0,.05-.02c.01-.01.02-.04.02-.06v-.29s0-.05-.02-.06c-.01-.01-.03-.02-.05-.02s-.04,0-.05.02c-.01.01-.02.04-.02.06v.29Z"/><path class="cls-2" d="M11.35,10.18s0-.06,0-.08c0-.03.01-.05.02-.07.02-.03.04-.06.07-.08.03-.02.07-.03.12-.03s.09,0,.12.03c.03.02.06.05.07.08.01.02.02.04.02.07,0,.03,0,.05,0,.08v.24s0,.06,0,.08-.01.05-.02.07c-.02.03-.04.06-.07.08-.03.02-.07.03-.12.03s-.09,0-.12-.03c-.03-.02-.06-.05-.07-.08-.01-.02-.02-.04-.02-.07s0-.05,0-.08v-.24ZM11.5,10.45s0,.05.02.06c.01.01.03.02.05.02s.04,0,.05-.02c.01-.01.02-.04.02-.06v-.29s0-.05-.02-.06c-.01-.01-.03-.02-.05-.02s-.04,0-.05.02c-.01.01-.02.04-.02.06v.29Z"/><path class="cls-2" d="M12.34,10.68v-.07s-.02.02-.03.03c0,0-.02.02-.03.02-.01,0-.02.01-.04.02s-.03,0-.05,0c-.06,0-.1-.02-.13-.07,0-.02-.01-.04-.02-.06,0-.02,0-.06,0-.1v-.28c0-.05,0-.09,0-.12,0-.05.03-.09.07-.11.02-.01.05-.02.08-.02.03,0,.05,0,.08.02.02.01.04.03.06.06h0v-.37h.15v1.04h-.15ZM12.19,10.43s0,.05.02.07c.01.02.03.03.06.03.02,0,.04,0,.05-.03.01-.02.02-.04.02-.07v-.29s0-.04-.02-.06c-.01-.02-.03-.02-.05-.02-.03,0-.05,0-.06.03s-.02.04-.02.06v.27Z"/><path class="cls-2" d="M13.23,10.68v-1.04h.15v.37h0s.04-.04.06-.06c.02-.01.05-.02.08-.02.04,0,.06,0,.08.02.02.01.04.03.05.05,0,.02.02.04.02.06,0,.03,0,.06,0,.12v.28s0,.07,0,.1c0,.02-.01.04-.02.06-.03.05-.07.07-.13.07-.04,0-.06,0-.08-.02-.02-.01-.04-.03-.06-.05v.07h-.15ZM13.52,10.16s0-.04-.02-.06-.03-.03-.06-.03c-.02,0-.04,0-.05.02s-.02.03-.02.06v.29s0,.05.02.07c.01.02.03.03.05.03.03,0,.04,0,.06-.03.01-.02.02-.04.02-.07v-.27Z"/><path class="cls-2" d="M14.38,9.93v.74h-.15v-.07h0s-.03.04-.06.06-.05.02-.08.02c-.02,0-.04,0-.05,0-.02,0-.03-.02-.05-.03-.01-.01-.03-.03-.03-.06,0-.02-.01-.05-.01-.08v-.57h.15v.51s0,.05.02.06.03.02.05.02c.03,0,.05,0,.06-.03.01-.02.02-.04.02-.08v-.5h.15Z"/><path class="cls-2" d="M14.91,10.14s0-.04-.02-.06c-.01-.01-.03-.02-.05-.02-.02,0-.04,0-.05.02s-.02.03-.02.05c0,.01,0,.03.01.04,0,.01.02.03.05.04l.09.04c.06.02.09.05.11.09s.03.08.03.12c0,.03,0,.06-.02.09-.01.03-.03.05-.05.07-.02.02-.04.04-.07.05-.03.01-.06.02-.09.02-.06,0-.11-.02-.15-.06-.02-.02-.04-.04-.05-.07-.01-.03-.02-.06-.02-.1h.14s0,.04.02.06c.01.02.03.03.06.03.02,0,.04,0,.06-.02.02-.01.03-.03.03-.06,0-.02,0-.04-.02-.05-.01-.01-.03-.03-.06-.04l-.07-.03s-.08-.04-.11-.08-.04-.08-.04-.13c0-.03,0-.06.02-.09.01-.03.03-.05.05-.07.02-.02.04-.03.07-.04.03-.01.05-.02.08-.02s.06,0,.08.02c.03.01.05.03.07.05.02.02.03.04.04.07.01.03.02.06.02.09h-.14Z"/><path class="cls-2" d="M15.3,9.78v-.15h.15v.15h-.15ZM15.3,10.68v-.74h.15v.74h-.15Z"/><path class="cls-2" d="M15.71,10.68v-.74h.15v.07h0s.03-.04.06-.06.05-.02.08-.02c.02,0,.04,0,.06,0,.02,0,.03.02.05.03.01.01.03.03.03.06,0,.02.01.05.01.08v.57h-.15v-.51s0-.05-.02-.06-.03-.02-.05-.02c-.03,0-.05,0-.06.03s-.02.04-.02.08v.5h-.15Z"/><path class="cls-2" d="M16.85,10.36h-.29v.1s0,.04.02.05c.01.01.03.02.05.02.03,0,.05,0,.06-.02s.01-.03.02-.05h.15c0,.07-.02.12-.06.16-.02.02-.04.04-.07.05-.03.01-.06.02-.09.02-.05,0-.09,0-.12-.03-.03-.02-.06-.05-.07-.08-.01-.02-.02-.04-.02-.07,0-.03,0-.05,0-.08v-.24s0-.06,0-.08c0-.03.01-.05.02-.07.02-.03.04-.06.07-.08.03-.02.07-.03.12-.03.03,0,.06,0,.09.02s.05.03.07.05c.04.04.06.1.06.17v.2ZM16.55,10.24h.14v-.08s0-.05-.02-.06c-.01-.01-.03-.02-.05-.02s-.04,0-.05.02c-.01.01-.02.04-.02.06v.08Z"/><path class="cls-2" d="M17.37,10.14s0-.04-.02-.06c-.01-.01-.03-.02-.05-.02-.02,0-.04,0-.05.02s-.02.03-.02.05c0,.01,0,.03.01.04,0,.01.02.03.05.04l.09.04c.06.02.09.05.11.09s.03.08.03.12c0,.03,0,.06-.02.09-.01.03-.03.05-.05.07-.02.02-.04.04-.07.05-.03.01-.06.02-.09.02-.06,0-.11-.02-.15-.06-.02-.02-.04-.04-.05-.07-.01-.03-.02-.06-.02-.1h.14s0,.04.02.06c.01.02.03.03.06.03.02,0,.04,0,.06-.02.02-.01.03-.03.03-.06,0-.02,0-.04-.02-.05-.01-.01-.03-.03-.06-.04l-.07-.03s-.08-.04-.11-.08-.04-.08-.04-.13c0-.03,0-.06.02-.09.01-.03.03-.05.05-.07.02-.02.04-.03.07-.04.03-.01.05-.02.08-.02s.06,0,.08.02c.03.01.05.03.07.05.02.02.03.04.04.07.01.03.02.06.02.09h-.14Z"/><path class="cls-2" d="M18.02,10.14s0-.04-.02-.06c-.01-.01-.03-.02-.05-.02-.02,0-.04,0-.05.02s-.02.03-.02.05c0,.01,0,.03.01.04,0,.01.02.03.05.04l.09.04c.06.02.09.05.11.09s.03.08.03.12c0,.03,0,.06-.02.09-.01.03-.03.05-.05.07-.02.02-.04.04-.07.05-.03.01-.06.02-.09.02-.06,0-.11-.02-.15-.06-.02-.02-.04-.04-.05-.07-.01-.03-.02-.06-.02-.1h.14s0,.04.02.06c.01.02.03.03.06.03.02,0,.04,0,.06-.02.02-.01.03-.03.03-.06,0-.02,0-.04-.02-.05-.01-.01-.03-.03-.06-.04l-.07-.03s-.08-.04-.11-.08-.04-.08-.04-.13c0-.03,0-.06.02-.09.01-.03.03-.05.05-.07.02-.02.04-.03.07-.04.03-.01.05-.02.08-.02s.06,0,.08.02c.03.01.05.03.07.05.02.02.03.04.04.07.01.03.02.06.02.09h-.14Z"/><path class="cls-2" d="M18.86,10.68v-1.04h.22c.08,0,.15.02.19.07.04.05.07.11.07.2v.49c0,.1-.02.17-.07.22-.05.05-.11.07-.2.07h-.21ZM19.01,9.78v.76h.07s.07-.01.09-.03.03-.05.03-.1v-.5s0-.07-.02-.1c-.02-.02-.05-.03-.09-.03h-.07Z"/><path class="cls-2" d="M19.55,10.68l.21-.55-.19-.5h.16l.11.31.11-.31h.16l-.2.5.21.55h-.16l-.13-.35-.13.35h-.16Z"/><path class="cls-2" d="M8.22,15.3v-3.01h-.57v-.47h1.64v.47h-.57v3.01h-.49Z"/><path class="cls-2" d="M10.09,12.64c0-.14.02-.26.07-.37.05-.11.11-.2.19-.27.08-.07.17-.12.26-.16.1-.04.2-.05.3-.05s.2.02.3.05c.1.04.19.09.27.16.08.07.14.16.19.27.05.11.07.23.07.37v1.84c0,.15-.02.27-.07.38-.05.1-.11.19-.19.26-.08.07-.17.13-.27.16-.1.04-.2.05-.3.05s-.2-.02-.3-.05-.19-.09-.26-.16c-.08-.07-.15-.15-.19-.26-.05-.1-.07-.23-.07-.38v-1.84ZM10.59,14.47c0,.12.03.21.1.27.07.06.14.09.23.09s.17-.03.23-.09c.07-.06.1-.15.1-.27v-1.84c0-.12-.03-.21-.1-.27-.07-.06-.14-.09-.23-.09s-.17.03-.23.09c-.07.06-.1.15-.1.27v1.84Z"/><path class="cls-2" d="M12.86,15.3v-3.48h1.47v.47h-.98v1.06h.85v.47h-.85v1.49h-.49Z"/><path class="cls-2" d="M15.33,15.3v-3.48h.79c.58,0,.87.34.87,1.02,0,.21-.03.38-.09.52-.06.14-.17.26-.33.35l.53,1.59h-.52l-.46-1.49h-.3v1.49h-.49ZM15.82,12.29v1.08h.28c.09,0,.16-.01.21-.04.05-.02.09-.06.12-.11.03-.05.04-.1.05-.17,0-.07.01-.14.01-.23s0-.17-.01-.23c0-.07-.03-.12-.06-.17-.06-.09-.18-.14-.35-.14h-.26Z"/><path class="cls-2" d="M18.07,15.3v-3.48h1.47v.47h-.98v1.02h.85v.47h-.85v1.02h.98v.5h-1.47Z"/><path class="cls-2" d="M20.54,15.3v-3.48h1.47v.47h-.98v1.02h.85v.47h-.85v1.02h.98v.5h-1.47Z"/></g></svg>